<svg width="18" height="18" fill="none" xmlns="http://www.w3.org/2000/svg"><g clip-path="url(#clip0_227_2731)" fill="#fff"><path d="M10.247 10.097a.106.106 0 01-.073-.03.103.103 0 01-.003-.146c.16-.161.34-.28.536-.353.252-.095.443-.085.903-.063l.325.014c.125.005.442.017.673.019.225.002.61-.006 1.357-.094.625-.073 1.037-.121 1.613-.245a8.038 8.038 0 001.879-.725c.084-.045.338-.183.33-.276-.007-.086-.226-.184-.384-.222-.988.05-1.965.156-2.903.314-.09.015-2.2.363-3.36.14a2.23 2.23 0 01-1.03-.494.102.102 0 01-.003-.146.107.107 0 01.149-.003l.033.03c.003.003.353.308.892.41 1.12.215 3.262-.138 3.284-.141.95-.16 1.941-.266 2.943-.318.01 0 .02 0 .03.003.089.02.537.136.56.41.018.226-.268.38-.44.473a8.208 8.208 0 01-1.934.744c-.586.129-1.003.177-1.634.251-.759.09-1.153.097-1.384.095a23.964 23.964 0 01-.68-.02c-.123-.004-.23-.01-.326-.014-.441-.02-.607-.03-.817.05a1.282 1.282 0 00-.46.304.105.105 0 01-.076.032zM6.81 8.974a.11.11 0 01-.052-.013.103.103 0 01-.042-.14.524.524 0 00.078-.324c-.047-.368-.593-.606-.8-.695l-.018-.008c-.024-.01-2.463-1.098-4.45-3.949-.18-.258-.204-.472-.216-.575l-.003-.023c-.032-.254.094-.46.16-.572a.106.106 0 01.134-.042 3.26 3.26 0 011.057.743c.376.397.798.753 1.207 1.098.268.227.544.46.806.703.804.745 1.92 1.387 3.317 1.909.054.02.081.08.06.133a.106.106 0 01-.136.06C6.49 6.747 5.351 6.09 4.526 5.326a23.38 23.38 0 00-.799-.696c-.413-.349-.84-.71-1.219-1.109a3.016 3.016 0 00-.906-.66.59.59 0 00-.085.36l.002.027c.01.093.03.266.18.481 1.956 2.804 4.34 3.867 4.363 3.877l.018.008c.236.102.862.374.923.858a.719.719 0 01-.102.45.106.106 0 01-.092.053z"/><path d="M10.123 7.831c-.006 0-.012 0-.018-.002a.105.105 0 01-.086-.12 66.85 66.85 0 01.806-3.91c.398-1.632.44-1.803.456-1.835.003-.005.26-.547.354-1.419.01-.076.013-.185-.05-.252A.227.227 0 0011.46.23l-.01-.002a.413.413 0 00-.209-.014c-.076.017-.203.139-.375.362-.847 1.097-1.193 2.482-1.527 3.822a25.71 25.71 0 01-.472 1.717 2.297 2.297 0 00-.021.07c-.047.163-.134.469-.375.746a1.7 1.7 0 01-.265.244.106.106 0 01-.147-.02.101.101 0 01.02-.145 1.39 1.39 0 00.232-.214c.212-.242.288-.508.333-.666l.022-.078c.182-.554.327-1.138.468-1.703.34-1.36.691-2.766 1.565-3.897.218-.282.362-.41.497-.44a.616.616 0 01.313.017c.095.02.173.062.231.125.134.144.112.347.104.413-.1.91-.362 1.463-.373 1.486-.015.045-.175.703-.441 1.792a66.107 66.107 0 00-.804 3.9.105.105 0 01-.105.085l.002.001zM.842 13.907c-.406 0-.709-.142-.832-.403a.1.1 0 01.018-.113c1.004-1.075 2.325-1.8 3.602-2.5 1.04-.57 2.115-1.159 3.011-1.934a.107.107 0 01.15.01.102.102 0 01-.01.146c-.914.79-1.999 1.384-3.048 1.96-1.241.68-2.523 1.382-3.499 2.403.2.283.722.228.885.204 1.385-.214 2.614-.977 3.802-1.714a26.383 26.383 0 011.554-.916l.032-.017c.138-.074.427-.23.82-.299.216-.038.438-.047.66-.028.058.005.1.055.095.112a.105.105 0 01-.114.094 2.35 2.35 0 00-.604.025c-.36.064-.618.203-.758.277l-.033.018c-.523.277-1.041.598-1.542.909-1.207.748-2.454 1.521-3.882 1.742a2 2 0 01-.31.024h.003zM11.761 18c-.284 0-.596-.186-.872-.53-.892-1.117-1.268-2.517-1.63-3.871-.152-.562-.308-1.144-.498-1.696l-.024-.076a1.646 1.646 0 00-.345-.662 1.527 1.527 0 00-.234-.21.103.103 0 01-.024-.144.108.108 0 01.148-.023c.097.07.188.15.268.24.247.273.34.576.388.738l.022.07c.193.558.35 1.143.502 1.708.358 1.334.727 2.713 1.593 3.795.102.128.446.517.788.443-.004-1.4-.455-2.77-.89-4.098-.369-1.123-.75-2.283-.87-3.472a.104.104 0 01.095-.113.105.105 0 01.115.093c.118 1.166.495 2.316.86 3.428.45 1.367.913 2.78.901 4.239a.103.103 0 01-.066.095.613.613 0 01-.228.043l.001.003z"/><path d="M11.043 1.44a.266.266 0 01-.143-.04c-.148-.095-.132-.3-.086-.415.05-.124.17-.251.317-.239.07.006.116.042.134.056.122.092.186.3.088.46a.384.384 0 01-.31.177zm-.028-.214c.011.007.03.009.052.003a.178.178 0 00.106-.074c.041-.068.005-.158-.038-.19-.007-.006-.014-.013-.022-.013-.024-.003-.08.049-.102.108-.024.059-.026.147.004.167zm-.238 1.099a.22.22 0 01-.122-.036.225.225 0 01-.096-.177.252.252 0 01.083-.207.266.266 0 01.208-.056.19.19 0 01.142.084c.018.026.025.06.023.107-.003.067-.006.18-.104.244a.242.242 0 01-.133.04zm-.004-.208c.004 0 .014 0 .018-.003.007-.007.01-.038.01-.06a.037.037 0 00-.022.007c-.013.012-.015.046-.007.057h.001zm-.454 1.747a.26.26 0 01-.13-.034c-.11-.063-.138-.19-.127-.28.013-.118.093-.186.146-.23a.248.248 0 01.148-.07.216.216 0 01.202.124c.031.064.031.12.027.173-.008.091-.019.215-.133.282a.268.268 0 01-.133.035zm-.024-.213a.056.056 0 00.05 0c.02-.013.026-.073.03-.122.004-.038 0-.05-.006-.065l-.002-.004-.017.013c-.047.04-.075.064-.079.099-.001.012 0 .065.024.078v.001zM9.42 6.62a.22.22 0 01-.104-.023c-.088-.045-.143-.153-.148-.29-.004-.124.036-.283.16-.357.106-.064.279-.065.366.035a.225.225 0 01.05.118c.021.116.049.276-.07.402a.37.37 0 01-.255.116zm-.007-.207c.015.005.071-.013.107-.05.044-.047.036-.12.017-.226-.002-.016-.004-.02-.005-.02-.01-.007-.065-.01-.095.009-.034.02-.058.088-.06.161 0 .08.027.12.036.126zm.032.858a.1.1 0 01-.048-.012l-.331-.17a.102.102 0 01-.045-.14c.027-.05.09-.07.142-.044l.331.17a.102.102 0 01.045.14.105.105 0 01-.094.055v.001zm-.292.926c-.007 0-.015 0-.023-.003a.56.56 0 01-.38-.294.102.102 0 01.05-.138.106.106 0 01.14.049c.045.09.135.16.236.183a.103.103 0 01-.023.204v-.001zm-1.209.52a.105.105 0 01-.084-.041.102.102 0 01.02-.145.328.328 0 00.12-.174.105.105 0 01.129-.072c.056.015.09.071.074.126a.537.537 0 01-.195.284.106.106 0 01-.064.022zm-.732-.775a.104.104 0 01-.018-.206.32.32 0 00.178-.098.107.107 0 01.15-.009.102.102 0 01.008.146.528.528 0 01-.317.167zm2.09 1.281a.104.104 0 01-.103-.079.457.457 0 01.01-.25.106.106 0 01.132-.068.103.103 0 01.069.13.254.254 0 00-.005.14.103.103 0 01-.103.127zm1.356-.026a.105.105 0 01-.103-.084l-.05-.26a.104.104 0 01.084-.121.106.106 0 01.123.082l.05.26a.104.104 0 01-.103.123h-.001zm-2.18.411h-.01a.265.265 0 01-.236-.223.105.105 0 01.209-.026c.003.02.025.042.047.044.058.005.1.056.095.112a.105.105 0 01-.105.093zm-.13.716a.115.115 0 01-.03-.005.339.339 0 01-.243-.314c0-.057.046-.104.104-.105h.001c.058 0 .105.046.106.102 0 .052.04.104.092.118a.103.103 0 01-.03.204zm-4.075 1.61a.232.232 0 01-.103-.024c-.088-.045-.144-.153-.148-.29-.004-.125.036-.284.16-.358.106-.064.279-.065.366.036a.225.225 0 01.05.117c.02.117.049.277-.07.402a.373.373 0 01-.255.117zm-.006-.208c.015.005.071-.012.107-.05.044-.046.035-.12.017-.226a.07.07 0 00-.005-.021c-.01-.007-.065-.009-.095.01-.034.02-.06.088-.06.16 0 .079.027.12.035.127h.001zm12.656-3.181a.26.26 0 01-.13-.034c-.11-.063-.138-.19-.128-.281.013-.117.094-.185.147-.23a.248.248 0 01.148-.068.215.215 0 01.202.123.31.31 0 01.027.172c-.008.091-.02.216-.134.283a.268.268 0 01-.132.035zm-.024-.213a.056.056 0 00.049 0c.021-.013.027-.073.031-.122.004-.038 0-.05-.006-.065 0-.002-.002-.003-.003-.003l-.016.012c-.048.041-.076.065-.079.1-.002.012 0 .064.023.078zm-.637.353a.22.22 0 01-.123-.036.224.224 0 01-.096-.177.254.254 0 01.082-.207.265.265 0 01.209-.056.195.195 0 01.142.084.18.18 0 01.022.107c-.003.067-.006.18-.104.244a.242.242 0 01-.132.04zm-.005-.207c.005 0 .014 0 .018-.003.007-.007.01-.038.01-.06a.038.038 0 00-.022.007c-.013.011-.014.046-.007.057h.001zm-1.309.586a.26.26 0 01-.13-.034c-.11-.063-.137-.19-.127-.28.013-.118.094-.186.147-.23a.248.248 0 01.148-.07.216.216 0 01.202.123.31.31 0 01.027.173c-.008.091-.02.215-.134.282a.268.268 0 01-.133.034v.002zm-.024-.212a.056.056 0 00.05 0c.021-.013.027-.074.03-.123a.127.127 0 00-.005-.065l-.003-.003-.016.013c-.048.04-.075.064-.08.1 0 .011 0 .064.024.078zM3.586 12.087a.22.22 0 01-.122-.036.224.224 0 01-.096-.177.254.254 0 01.082-.207.265.265 0 01.208-.056c.063.01.114.039.142.084.018.026.024.06.023.107-.003.067-.006.18-.104.244a.242.242 0 01-.133.04v.001zm-.004-.207c.004 0 .014 0 .018-.003.007-.007.01-.038.011-.06a.038.038 0 00-.022.007c-.013.012-.014.046-.007.057zm-1.468 1.192a.266.266 0 01-.143-.04c-.148-.095-.132-.3-.086-.415.05-.124.169-.251.317-.238a.25.25 0 01.134.055c.121.093.185.3.088.46a.384.384 0 01-.31.178zm.068-.488c-.026 0-.077.05-.1.108-.024.059-.026.147.005.167.011.007.03.008.052.003a.173.173 0 00.105-.074c.041-.068.006-.159-.038-.19-.006-.006-.014-.013-.022-.013h-.002zm4.01-5.17a.266.266 0 01-.143-.04c-.147-.095-.132-.3-.086-.415.05-.123.171-.25.318-.238a.25.25 0 01.133.055c.121.094.185.3.088.46a.384.384 0 01-.31.178zM6.164 7.2c.012.008.03.009.052.004a.173.173 0 00.105-.074c.042-.068.005-.158-.037-.191-.006-.006-.015-.012-.023-.012-.026-.004-.078.047-.102.108-.023.058-.026.147.005.166zm3.473 4.397a.266.266 0 01-.143-.04c-.147-.095-.132-.3-.086-.415.05-.124.168-.251.317-.239a.25.25 0 01.134.056c.121.092.185.3.088.46a.38.38 0 01-.31.178zm-.028-.214c.011.007.03.009.052.003a.178.178 0 00.106-.073c.042-.069.005-.159-.037-.192-.006-.005-.016-.012-.023-.012-.022-.003-.079.048-.102.108-.024.059-.026.147.005.167v-.001zm1.487 5.302a.266.266 0 01-.143-.04c-.148-.094-.132-.3-.086-.415.05-.123.17-.25.317-.238a.25.25 0 01.133.056c.122.092.186.3.089.46a.384.384 0 01-.31.177zm-.028-.213c.011.008.03.008.052.003a.173.173 0 00.105-.074c.041-.068.006-.159-.038-.191-.006-.005-.014-.012-.022-.012-.023-.004-.079.048-.102.108-.024.059-.026.147.005.167v-.001zm-.886-2.275a.233.233 0 01-.103-.024c-.088-.045-.144-.153-.148-.291-.005-.124.035-.283.16-.357.106-.064.278-.065.366.036a.225.225 0 01.05.117c.02.116.049.276-.07.402a.37.37 0 01-.255.117zm-.006-.208c.015.005.071-.013.107-.05.044-.047.035-.12.017-.226a.07.07 0 00-.005-.021c-.01-.007-.065-.009-.096.009-.033.02-.059.088-.059.161 0 .079.026.12.035.126l.001.001zm-.214-.745a.22.22 0 01-.122-.035.224.224 0 01-.096-.177.254.254 0 01.082-.208.266.266 0 01.208-.056.2.2 0 01.142.084c.017.027.024.06.023.107-.003.068-.006.18-.104.244a.243.243 0 01-.133.04v.001zm-.004-.207c.004 0 .014 0 .018-.004.007-.006.01-.037.01-.06a.037.037 0 00-.022.008c-.013.011-.014.046-.007.057v-.001zm-7.64-8.952a.22.22 0 01-.122-.036.224.224 0 01-.096-.177.254.254 0 01.082-.207.265.265 0 01.208-.056.195.195 0 01.142.084.17.17 0 01.023.107c-.003.067-.006.18-.104.244a.242.242 0 01-.133.04zm-.004-.207c.005 0 .014 0 .018-.003.007-.007.01-.038.01-.06a.038.038 0 00-.022.007c-.013.011-.014.046-.007.057zm.517 1.027a.266.266 0 01-.143-.04c-.147-.094-.131-.3-.085-.415.049-.123.168-.25.317-.238a.25.25 0 01.133.056c.121.092.186.3.089.46a.384.384 0 01-.31.177zm.069-.487c-.026 0-.078.05-.102.108-.023.059-.026.147.006.167.01.007.03.008.052.003a.173.173 0 00.104-.074c.042-.068.006-.159-.037-.191-.006-.005-.015-.012-.022-.012h-.002zm.767 1.298a.266.266 0 01-.143-.04c-.148-.095-.132-.3-.086-.415.05-.123.17-.25.317-.238a.25.25 0 01.134.055c.122.093.186.3.088.46a.384.384 0 01-.31.178zm-.028-.214c.011.007.03.009.052.004a.178.178 0 00.106-.074c.041-.068.005-.158-.038-.192-.006-.005-.014-.011-.022-.011-.024-.005-.079.048-.102.108-.024.058-.026.147.004.166z"/></g><defs><clipPath id="clip0_227_2731"><path fill="#fff" d="M0 0h18v18H0z"/></clipPath></defs></svg>