<svg width="437" height="201" fill="none" xmlns="http://www.w3.org/2000/svg"><g clip-path="url(#clip0_2248_12555)" fill="#DDF0F1"><path d="M92.84 22.335c-.38 0-.745-.213-.919-.577-.546-1.13-.76-2.26-.65-3.35.579-5.578 9.248-8.359 15.582-10.389 6.682-2.141 13.761-3.374 21.029-3.658.538-.04 1.037.41 1.061.98.023.56-.42 1.035-.982 1.058-7.086.277-13.974 1.47-20.482 3.556-5.139 1.65-13.745 4.408-14.18 8.667-.072.719.079 1.477.459 2.267a1.017 1.017 0 01-.919 1.462v-.016zm114.192 6.234h-.119a27.212 27.212 0 01-4.869-1.02c-2.114-.647-3.69-1.438-4.355-1.77l-.221-.11a282.82 282.82 0 00-22.114-9.568c-6.864-2.623-12.295-4.7-19.595-6.518A123.993 123.993 0 00132.046 6.1a1.017 1.017 0 11.103-2.03 125.64 125.64 0 0124.109 3.547c7.426 1.849 12.897 3.943 19.833 6.59a285.477 285.477 0 0122.271 9.63l.246.119c.681.34 2.098 1.05 4.045 1.65a25.25 25.25 0 004.505.941c.563.063.958.569.895 1.122-.055.521-.499.9-1.013.9h-.008z"/><path d="M111.683 40.356a1.09 1.09 0 01-.467-.11c-1.75-.909-4.363-2.3-6.841-3.785-.657-.395-1.884-1.121-3.468-2.188a44.098 44.098 0 01-1.544-1.074 67.071 67.071 0 01-5.566-4.433 1.217 1.217 0 01-.134-.15 17.9 17.9 0 00-.396-.482c-1.79-2.165-3.476-4.416-2.771-6.028.221-.514.768-1.138 2.082-1.209.57-.04 1.045.395 1.077.956a1.017 1.017 0 01-.958 1.075c-.166.008-.27.031-.333.047 0 .364.372 1.32 2.478 3.863.159.19.285.348.38.467a67.27 67.27 0 005.329 4.234c.53.38 1.029.72 1.496 1.043 1.536 1.035 2.732 1.746 3.373 2.133a134.157 134.157 0 006.73 3.722c.499.26.697.869.435 1.374a1.026 1.026 0 01-.902.553v-.008zm40.592 5.934c-9.96 0-19.524-1.122-19.643-1.138a164.19 164.19 0 01-18.012-3.287 1.015 1.015 0 11.475-1.975 160.32 160.32 0 0017.782 3.24c.127.015 13.595 1.596 25.091.98a80.393 80.393 0 0010.744-1.304c1.591-.3 2.454-.514 6.072-1.39l4.378-1.067c1.433-.348 2.684-.664 3.793-.94 3.309-.83 5.495-1.383 7.616-1.533 3.144-.221 6.35.047 9.517.806.546.126.887.679.752 1.224a1.01 1.01 0 01-1.227.75 29.62 29.62 0 00-8.899-.75c-1.948.135-3.951.64-7.26 1.478-1.117.284-2.376.6-3.809.948l-4.378 1.066c-3.571.87-4.529 1.106-6.175 1.414a84.306 84.306 0 01-11.014 1.336c-1.908.102-3.863.142-5.803.142zm57.963-17.65c-.435 0-.839-.285-.973-.72a1.015 1.015 0 01.673-1.271c2.375-.727 14.758-4.44 24.963-5.941 4.98-.735 8.63-.806 12.604-.253a39.7 39.7 0 013.864.742c.546.135.879.688.744 1.233a1.01 1.01 0 01-1.235.743 37.456 37.456 0 00-3.665-.704c-3.769-.529-7.253-.458-12.027.245-10.055 1.486-22.311 5.152-24.663 5.878a.996.996 0 01-.3.048h.015zm29.326 36.975c-.071 0-.142 0-.213-.024-4.561-.98-12.32-4.748-15.154-7.347-2.447-1.825-4.402-3.271-6.065-4.504-5.756-4.258-8.139-6.012-15.7-12.364a1.02 1.02 0 01-.127-1.43 1.026 1.026 0 011.433-.127c7.514 6.305 9.881 8.059 15.605 12.286 1.679 1.24 3.65 2.694 6.12 4.543.032.023.056.047.088.07 2.549 2.37 9.999 5.974 14.235 6.882.554.119.903.656.784 1.209a1.023 1.023 0 01-.998.806h-.008z"/><path d="M239.564 65.615a1.02 1.02 0 01-.744-.324c-2.652-2.82-6.057-7.569-7.189-14.174-.34-1.975-1.132-6.597.728-11.85 1.703-4.796 4.672-7.57 8.108-10.785a46.244 46.244 0 0110.197-7.198 1.017 1.017 0 11.95 1.801 44.246 44.246 0 00-9.746 6.882c-3.373 3.153-6.041 5.65-7.577 9.979-1.686 4.756-.958 9.014-.641 10.832 1.045 6.107 4.204 10.507 6.666 13.122a1.012 1.012 0 01-.047 1.438 1.04 1.04 0 01-.697.277h-.008zM225.337 33.83a.994.994 0 01-.792-.379 1.016 1.016 0 01.15-1.43 27.707 27.707 0 015.645-3.531 28.103 28.103 0 017.649-2.33 1.018 1.018 0 11.308 2.014 25.885 25.885 0 00-12.327 5.443c-.19.15-.412.23-.641.23l.008-.016zm4.172 22.083c-.214 0-.435-.071-.625-.213-2.201-1.7-6.113-5.357-7.506-10.777-.428-1.675-1.33-5.167.245-8.73.222-.498.483-.988.776-1.446a1.016 1.016 0 011.41-.3c.475.308.609.932.3 1.406a7.834 7.834 0 00-.625 1.161c-1.291 2.924-.538 5.84-.135 7.411 1.243 4.836 4.783 8.138 6.778 9.67.443.34.53.98.182 1.43a1.006 1.006 0 01-.808.396l.008-.008zM129.054 34.075c-.214 0-.428 0-.65-.015-4.631-.198-7.909-2.426-9.453-3.737a1.013 1.013 0 01-.119-1.43 1.018 1.018 0 011.433-.119c1.346 1.146 4.204 3.081 8.218 3.255 4.03.166 6.77-1.517 8.583-2.639.99-.616 1.37-.987 1.496-1.153-.301-.34-1.599-.932-5.811-1.683-3.785-.671-7.767-.837-11.837-.49a1.018 1.018 0 01-1.1-.924 1.012 1.012 0 01.926-1.098c4.244-.364 8.409-.19 12.367.513 3.872.688 7.363 1.486 7.53 3.587.079.956-.673 1.849-2.502 2.979-1.813 1.122-4.79 2.954-9.089 2.954h.008z"/><path d="M111.144 35.553c-.356 0-.704-.19-.894-.521a1.012 1.012 0 01.395-1.383c3.128-1.73 5.733-4.045 7.751-6.858a22.627 22.627 0 002.645-4.843 1.02 1.02 0 011.322-.569c.523.206.776.798.57 1.32a25 25 0 01-2.882 5.27c-2.193 3.065-5.027 5.577-8.416 7.457a1.01 1.01 0 01-.491.127zm-9.366-20.186a1.62 1.62 0 011.868-1.328 1.619 1.619 0 11-.538 3.192 1.618 1.618 0 01-1.33-1.864zm45.683 38.35a37.9 37.9 0 01-5.225-.427 37.368 37.368 0 01-6.912-1.738c-8.234-2.923-12.739-5.444-20.197-9.615a1.016 1.016 0 11.997-1.77c7.617 4.258 11.813 6.605 19.889 9.473a35.951 35.951 0 006.532 1.643c1.615.245 3.254.38 4.885.403 1.86-.071 2.755-.324 3.159-.506-.499-.34-1.774-1.003-4.965-2.006a1.015 1.015 0 11.61-1.936c5.131 1.612 6.864 2.718 6.627 4.211-.301 1.865-3.23 2.189-5.408 2.275l.008-.007z"/><path d="M150.573 49.276a31.8 31.8 0 01-1.805-.063c-8.179-.505-14.782-2.244-15.059-2.323a91.898 91.898 0 01-9.176-2.978 1.021 1.021 0 01-.586-1.312 1.025 1.025 0 011.314-.584 90.575 90.575 0 008.97 2.915c.27.071 6.675 1.762 14.655 2.252 1.837.11 3.817.158 6.136-.664a12.988 12.988 0 003.547-1.92 1.016 1.016 0 011.426.198 1.01 1.01 0 01-.198 1.422 15.021 15.021 0 01-4.094 2.212c-1.892.672-3.61.845-5.138.845h.008z"/><path d="M184.214 53.717c-2.661 0-5.305-.261-7.926-.783-5.787-1.161-11.377-3.642-16.167-7.173a1.019 1.019 0 01-.214-1.422c.333-.45.974-.546 1.425-.214 4.553 3.358 9.858 5.72 15.352 6.818 4.133.83 8.353.964 12.549.42-.158-1.36-.617-3.77-1.884-5.508-.364-.497-.966-1.327-2.027-1.998-.277-.182-.491-.285-1.069-.57l-.403-.197a151.87 151.87 0 01-2.708-1.382 1.017 1.017 0 11.95-1.802c.61.324 1.528.798 2.668 1.36l.396.197c.61.3.887.434 1.267.68 1.385.884 2.161 1.943 2.573 2.511 1.971 2.687 2.304 6.44 2.359 7.522.024.521-.348.98-.863 1.059-2.09.324-4.188.49-6.286.49l.008-.008zm8.883-32.085c-1.496 0-3.088-.103-4.861-.292a1.015 1.015 0 01-.903-1.122 1.01 1.01 0 011.124-.9c1.711.18 3.231.276 4.656.284a1.016 1.016 0 11-.008 2.03h-.008zM194 10.09c-.103 0-.214-.017-.317-.048-1.14-.38-2.28-.767-3.42-1.162-3.143-1.082-6.397-2.204-9.77-2.947-14.679-2.978-28.978-4.258-42.485-3.8a1.022 1.022 0 01-1.053-.98c-.016-.56.42-1.034.982-1.05 13.657-.466 28.122.821 42.975 3.84 3.508.774 6.809 1.911 10.008 3.017 1.132.388 2.264.783 3.396 1.154.539.174.824.75.65 1.28a1.025 1.025 0 01-.966.703v-.008zm-77.765-2.379a1.012 1.012 0 01-.419-1.936 65.81 65.81 0 017.988-3.018 65.884 65.884 0 0110.768-2.33 1.012 1.012 0 011.14.877 1.01 1.01 0 01-.879 1.137 63.646 63.646 0 00-10.435 2.26 64.331 64.331 0 00-7.743 2.923.986.986 0 01-.42.095V7.71z"/><path d="M136.424 4.938a1.04 1.04 0 01-.863-.466 1.019 1.019 0 01.309-1.407 26.3 26.3 0 01.919-.553 19.086 19.086 0 014.679-1.864 19.141 19.141 0 013.911-.569 1.017 1.017 0 11.087 2.03 17.164 17.164 0 00-7.68 2.165c-.348.198-.625.372-.823.49a.975.975 0 01-.546.158l.007.016zm14.196.892a1.015 1.015 0 01-.546-1.872c.214-.134.531-.332.918-.553a19.04 19.04 0 014.688-1.864 19.141 19.141 0 013.911-.57 1.012 1.012 0 011.061.973 1.017 1.017 0 01-.974 1.058 17.157 17.157 0 00-7.68 2.165c-.348.198-.625.371-.823.49a.999.999 0 01-.547.158l-.008.016zm13.096 1.85a1.04 1.04 0 01-.863-.467 1.02 1.02 0 01.308-1.406c.214-.134.531-.332.919-.553a19.286 19.286 0 018.598-2.433 1.017 1.017 0 11.087 2.03 17.164 17.164 0 00-7.68 2.165c-.348.197-.625.371-.823.49a.975.975 0 01-.546.158v.015zm19.461 41.944h-.024c-3.484-.087-6.793-.87-9.826-2.339a23.42 23.42 0 01-3.768-2.283 1.01 1.01 0 01-.206-1.422c.34-.45.974-.545 1.425-.205a20.998 20.998 0 003.436 2.085c2.771 1.336 5.796 2.054 8.986 2.133.562.016 1.006.482.998 1.043a1.023 1.023 0 01-1.021.996v-.008zm-1.837-4.101c-.119 0-.238-.023-.348-.063l-5.804-2.117a1.017 1.017 0 11.697-1.912l5.803 2.117c.531.19.8.774.61 1.304-.151.41-.539.671-.958.671zm14.457-23.986a1.016 1.016 0 01-.032-2.03c3.84-.11 5.479-.854 5.748-2.64-.728-2.44-2.597-4.424-5.7-6.051a1.017 1.017 0 11.95-1.801c3.713 1.943 5.93 4.4 6.769 7.505.032.119.04.245.032.364-.428 4.44-5.55 4.59-7.735 4.653h-.032zm42.152 165.874c-.325 0-.641-.158-.839-.443-.459-.671-.713-1.382-.752-2.109-.182-3.571 4.758-6.036 8.368-7.837 3.729-1.865 7.775-3.224 12.019-4.046a1.024 1.024 0 011.195.806 1.015 1.015 0 01-.807 1.193c-4.062.79-7.925 2.086-11.496 3.864-2.755 1.374-7.355 3.673-7.245 5.917.016.348.151.703.396 1.059a1.02 1.02 0 01-.839 1.596z"/><path d="M251.71 196.584a.936.936 0 01-.293-.048 63.131 63.131 0 01-5.551-1.975c-.783-.324-1.852-.766-3.238-1.462a40.873 40.873 0 01-3.673-2.101c-.056-.04-.111-.079-.159-.127-.055-.055-.15-.134-.261-.237-1.33-1.185-2.605-2.449-2.28-3.673.095-.356.404-.98 1.425-1.193a1.019 1.019 0 011.211.782c.095.434-.111.861-.467 1.082.214.285.641.751 1.473 1.485.095.087.182.158.245.222a38.025 38.025 0 003.413 1.951 40.442 40.442 0 003.095 1.398 58.586 58.586 0 005.36 1.912c.539.166.84.735.681 1.272a1.012 1.012 0 01-.974.719l-.007-.007z"/><path d="M260.553 197.16c-2.699 0-5.415-.11-8.107-.34a1.012 1.012 0 01-.926-1.098 1.017 1.017 0 011.1-.924c3.523.292 7.086.395 10.594.292.071 0 8.02-.284 14.615-1.667a46.716 46.716 0 006.081-1.706c.886-.316 1.369-.514 3.396-1.351l2.447-1.012c.688-.284 1.298-.545 1.86-.782 1.774-.75 3.056-1.296 4.592-1.691a23.742 23.742 0 016.58-.742c.562.016 1.005.482.997 1.043a1.018 1.018 0 01-1.045.995 22.159 22.159 0 00-6.017.672c-1.394.363-2.613.877-4.307 1.596-.57.245-1.188.505-1.884.79l-2.447 1.011c-2.011.83-2.549 1.051-3.491 1.383a49.625 49.625 0 01-6.342 1.777c-6.778 1.414-14.64 1.699-14.972 1.707-.903.023-1.813.039-2.716.039l-.008.008zm43.205-16.338h-.039a17.722 17.722 0 01-1.71-.158 16.587 16.587 0 01-2.779-.664l-.119-.039a164.796 164.796 0 00-13.689-3.579c-4.22-.909-7.553-1.628-11.94-2.031a71.744 71.744 0 00-14.029.095 1.017 1.017 0 11-.206-2.023 74.629 74.629 0 0114.425-.094c4.513.41 7.902 1.145 12.185 2.07a165.453 165.453 0 0113.864 3.626l.15.047c.38.127 1.275.411 2.446.585.46.071.927.111 1.386.134a15.652 15.652 0 002.233-.569c.886-.292 1.512-.592 1.749-.703 2.415-1.13 7.973-3.199 12.795-4.59 2.724-.79 4.814-1.248 7.419-1.288.783-.016 1.583.016 2.359.087a1.02 1.02 0 11-.182 2.031 21.45 21.45 0 00-2.154-.079c-2.367.031-4.315.466-6.872 1.208-5.218 1.509-10.522 3.556-12.47 4.464-.293.135-.997.466-1.995.798-.863.285-1.75.506-2.644.664-.056.008-.111.016-.175.016l-.008-.008zm23.468 18.653c-.135 0-.278-.031-.412-.087l-11.243-4.969a88.96 88.96 0 01-6.001-3.303 94.182 94.182 0 01-4.307-2.749 1.015 1.015 0 01-.269-1.414 1.02 1.02 0 011.417-.269 94.596 94.596 0 004.212 2.694 87.042 87.042 0 005.827 3.208l11.195 4.946c.515.229.744.829.523 1.343a1.02 1.02 0 01-.934.608l-.008-.008z"/><path d="M327.225 199.475c-.293 0-.578-.126-.775-.363-2.059-2.434-3.658-5.12-4.759-7.98-.926-2.402-1.655-4.298-1.346-6.786.349-2.813 1.821-4.678 3.682-7.04l.158-.205a27.517 27.517 0 015.368-5.175 1.017 1.017 0 111.211 1.635 25.808 25.808 0 00-4.972 4.796l-.158.205c-1.726 2.197-2.977 3.785-3.262 6.036-.245 1.983.341 3.5 1.227 5.799 1.022 2.647 2.51 5.136 4.418 7.403a1.012 1.012 0 01-.776 1.667l-.016.008zm-68.414-8.374c-2.335 0-4.14-.877-5.075-1.446a1.021 1.021 0 01-.332-1.399 1.024 1.024 0 011.401-.332c.84.514 2.581 1.344 4.814 1.099 2.233-.245 3.61-1.422 4.529-2.205.134-.11.237-.213.324-.292-.546-.126-1.488-.205-2.826-.237-2.233-.055-4.529.205-6.825.758a1.025 1.025 0 01-1.235-.75 1.024 1.024 0 01.752-1.233c2.47-.6 4.949-.877 7.355-.821 2.581.063 4.743.237 5.099 1.738.214.916-.546 1.714-1.322 2.378-.974.83-2.779 2.362-5.629 2.678-.357.04-.697.056-1.03.056v.008z"/><path d="M249.793 193.463a1.019 1.019 0 01-.625-1.825 13.362 13.362 0 003.777-4.543 12.84 12.84 0 001.068-2.963 1.016 1.016 0 011.98.458 15.222 15.222 0 01-1.235 3.421c-1.03 2.039-2.494 3.8-4.347 5.238a1.011 1.011 0 01-.625.214h.007zm-6.215-9.347h-.031a1.981 1.981 0 01-1.948-1.999 1.957 1.957 0 012.003-1.943c.531 0 1.022.221 1.386.6.364.379.562.877.554 1.399a1.98 1.98 0 01-1.971 1.943h.007zm-.063-1.975s.024.055.063.063c.032 0 .064-.031.064-.063h-.127zm0 0h.127s-.04-.087-.064-.063a.063.063 0 00-.063.063zM269.547 201c-1.417 0-2.834-.134-4.227-.403-5.091-.972-7.949-2.038-12.684-3.808a1.013 1.013 0 01-.594-1.312c.198-.529.784-.79 1.314-.592 4.798 1.793 7.435 2.773 12.352 3.713a20.27 20.27 0 003.871.364c.942 0 1.892-.071 2.827-.198a5.023 5.023 0 001.417-.411c-.396-.363-1.386-1.027-3.413-1.896a1.01 1.01 0 01-.53-1.335 1.013 1.013 0 011.338-.529c4.56 1.951 4.98 3.199 4.79 4.155-.301 1.494-2.613 1.936-3.309 2.031a25.09 25.09 0 01-3.136.221h-.016zm20.886-3.231c-.364 0-.728-.008-1.092-.024a24.517 24.517 0 01-10.229-2.781 1.018 1.018 0 11.95-1.802 22.47 22.47 0 009.374 2.544c2.288.103 4.576-.15 6.801-.75-.285-.869-.744-1.833-1.37-2.457-.253-.253-.625-.632-1.235-.893-.182-.079-.317-.118-.625-.221l-.254-.079a79.944 79.944 0 01-1.71-.561 1.02 1.02 0 01-.633-1.296c.182-.529.76-.814 1.298-.632.38.134.958.324 1.663.553l.253.079c.42.134.594.19.839.3.951.419 1.56 1.027 1.853 1.32 1.473 1.477 2.027 3.729 2.162 4.385a1.02 1.02 0 01-.689 1.177 24.278 24.278 0 01-7.348 1.138h-.008zm3.009-19.475a1.03 1.03 0 01-1.021-.972 1.028 1.028 0 01.973-1.067 25.141 25.141 0 002.692-.253 1.019 1.019 0 011.156.854 1.017 1.017 0 01-.855 1.153c-.887.134-1.837.221-2.898.269h-.047v.016z"/><path d="M296.237 178.033c-.531 0-.982-.411-1.014-.948a1.019 1.019 0 01.951-1.083c2.62-.165 3.935-1.019 4.045-1.738.103-.663-.807-1.777-3.048-2.67a1.017 1.017 0 01-.57-1.32 1.02 1.02 0 011.322-.568c2.993 1.185 4.608 3.002 4.307 4.874-.308 1.944-2.525 3.232-5.93 3.445h-.063v.008zm-33.831-6.415a1.015 1.015 0 01-.222-2.007c8.511-1.92 17.102-2.465 25.542-1.62a77.41 77.41 0 017.102 1.043c.554.111.91.64.807 1.193a1.023 1.023 0 01-1.195.806 78.324 78.324 0 00-6.92-1.019c-8.218-.822-16.595-.293-24.885 1.58-.079.016-.15.024-.221.024h-.008zm-12.153 5.19c-.333 0-.657-.166-.855-.458a1.015 1.015 0 01.293-1.406 38.62 38.62 0 014.425-2.497 38.043 38.043 0 014.505-1.833c.357-.118.666-.221.879-.284a1.024 1.024 0 011.275.663 1.018 1.018 0 01-.665 1.272c-.206.064-.491.158-.831.269a37.108 37.108 0 00-8.464 4.108 1.025 1.025 0 01-.554.166h-.008z"/><path d="M265.818 171.847a.56.56 0 01-.372-.98c.111-.095.277-.237.483-.403a11.117 11.117 0 012.55-1.493c.704-.3 1.456-.53 2.216-.68a.555.555 0 01.658.443.555.555 0 01-.444.656 9.995 9.995 0 00-1.995.608c-.823.347-1.599.806-2.296 1.343-.182.142-.333.276-.435.363a.55.55 0 01-.373.143h.008zm5.305-.166a.578.578 0 01-.475-.261.56.56 0 01.166-.774 22.575 22.575 0 013.048-1.636 23.432 23.432 0 012.09-.814.573.573 0 01.713.356.57.57 0 01-.356.711 22.776 22.776 0 00-4.41 2.03c-.206.119-.372.23-.483.301a.533.533 0 01-.301.087h.008zm6.706.008a.554.554 0 01-.451-.23.557.557 0 01.118-.782c.119-.087.285-.213.499-.355a16.027 16.027 0 014.695-2.157.555.555 0 01.689.395.56.56 0 01-.396.687c-.673.182-1.346.419-1.995.703a14.566 14.566 0 00-2.827 1.62.575.575 0 01-.332.111v.008zm12.961 21.632h-.08l-4.52-.625a.55.55 0 01-.475-.632.555.555 0 01.633-.474l4.521.624c.309.04.522.324.475.633a.561.561 0 01-.554.481v-.007zm29.072-.925a.81.81 0 01-.451-.134 15.172 15.172 0 01-3.587-3.145c-1.361-1.635-2.636-3.176-2.47-5.198.174-2.062 1.75-3.374 3.421-4.764a15.7 15.7 0 014.6-2.663.84.84 0 11.593 1.572 14.209 14.209 0 00-4.109 2.379c-1.512 1.256-2.707 2.251-2.826 3.618-.111 1.335.855 2.504 2.082 3.982a13.617 13.617 0 003.199 2.805.838.838 0 01-.452 1.548zm24.932-34.407c-.459 0-.871-.308-.99-.774-.197-.79-.19-1.541.032-2.236 1.077-3.413 6.572-4.006 10.578-4.432 4.148-.451 8.416-.316 12.675.387a1.018 1.018 0 11-.332 2.007 44.698 44.698 0 00-12.122-.372c-3.056.332-8.178.885-8.851 3.026-.103.332-.103.711 0 1.13a1.02 1.02 0 01-.99 1.264z"/><path d="M354.485 171.365c-.214 0-.435-.071-.617-.206a59.765 59.765 0 01-4.513-3.784 40.533 40.533 0 01-5.234-5.744 1.286 1.286 0 01-.103-.174c-.031-.071-.087-.173-.158-.308-.839-1.572-1.591-3.199-.855-4.242.214-.301.72-.775 1.75-.624.554.079.942.6.863 1.153a1.019 1.019 0 01-.816.853c.095.34.341.925.863 1.912.063.111.111.214.151.285a38.46 38.46 0 004.932 5.396 59.63 59.63 0 004.363 3.658c.451.34.53.98.19 1.422a1.024 1.024 0 01-.808.403h-.008z"/><path d="M405.259 181.249a1.07 1.07 0 01-.38-.072 21.762 21.762 0 00-5.874-1.461c-1.433-.142-2.764-.087-4.6 0-.618.031-1.291.055-2.035.087l-2.653.094c-2.169.08-2.747.103-3.744.08a50.224 50.224 0 01-6.564-.546c-6.841-1.027-14.315-3.5-14.631-3.61a97.853 97.853 0 01-10.047-4.045 1.018 1.018 0 01-.491-1.351 1.022 1.022 0 011.354-.49 93.468 93.468 0 009.825 3.958c.071.024 7.617 2.52 14.283 3.524 2.058.308 4.18.482 6.294.521.942.016 1.457 0 3.642-.079l2.661-.095a96.15 96.15 0 002.018-.087c1.924-.086 3.318-.15 4.893.008 2.146.214 4.307.751 6.429 1.596a1.016 1.016 0 01-.38 1.96v.008zm30.72-3.99c-.151 0-.293-.032-.436-.095a19.815 19.815 0 00-1.987-.822c-2.233-.798-4.204-1.066-6.864-1.264-5.416-.403-11.108-.324-13.246-.15-.325.024-1.109.095-2.154.055a18.333 18.333 0 01-2.707-.3.914.914 0 01-.206-.063 17.141 17.141 0 01-1.544-.743 15.82 15.82 0 01-2.367-1.588l-.103-.079a166.243 166.243 0 00-11.584-8.114c-3.634-2.323-6.508-4.156-10.482-6.06a72.963 72.963 0 00-13.183-4.795 1.017 1.017 0 11.515-1.968 74.62 74.62 0 0113.555 4.93c4.085 1.96 7.006 3.816 10.696 6.179a166.34 166.34 0 0111.726 8.216l.126.095c.317.245 1.045.83 2.083 1.399.403.221.823.426 1.251.608a16.02 16.02 0 004.18.197c2.66-.221 8.59-.221 13.594.151 2.834.213 4.948.497 7.403 1.374.744.261 1.472.569 2.177.901.507.245.721.845.483 1.359a1.018 1.018 0 01-.918.577h-.008zm-11.718 23.085c-.253 0-.515-.094-.713-.292l-8.804-8.564a90.833 90.833 0 01-4.473-5.183 96.279 96.279 0 01-3.08-4.077 1.018 1.018 0 01.238-1.414 1.023 1.023 0 011.417.237 92.694 92.694 0 003.008 3.99 90.872 90.872 0 004.339 5.033l8.765 8.532c.404.395.411 1.035.016 1.438a1.014 1.014 0 01-.729.308l.016-.008z"/><path d="M424.261 200.344c-.42 0-.808-.26-.958-.671-1.077-2.994-1.639-6.076-1.671-9.141-.031-2.576-.047-4.606 1.109-6.826 1.314-2.513 3.341-3.753 5.906-5.317l.222-.135a27.71 27.71 0 016.84-2.986 1.015 1.015 0 11.563 1.951 25.356 25.356 0 00-6.334 2.765l-.222.135c-2.391 1.461-4.117 2.512-5.162 4.527-.926 1.77-.903 3.397-.879 5.862.032 2.836.554 5.689 1.552 8.478a1.02 1.02 0 01-.618 1.303 1.02 1.02 0 01-.34.063l-.008-.008zm-58.383-31.136a9.21 9.21 0 01-2.193-.269c-2.771-.695-4.465-2.441-5.233-3.428a1.017 1.017 0 01.174-1.43 1.022 1.022 0 011.433.173c.61.775 1.948 2.157 4.125 2.702 2.177.546 3.887-.079 5.012-.489.166-.064.301-.111.411-.166-.467-.308-1.33-.711-2.573-1.201a26.318 26.318 0 00-6.658-1.659 1.017 1.017 0 01-.895-1.13c.063-.561.57-.964 1.132-.893 2.526.3 4.949.901 7.181 1.793 2.399.956 4.363 1.873 4.173 3.398-.111.932-1.109 1.414-2.075 1.762-.863.316-2.264.829-4.022.829l.008.008z"/><path d="M353.78 167.778a1.016 1.016 0 01-.308-1.983 13.415 13.415 0 005.13-2.947 13.233 13.233 0 002.043-2.402 1.017 1.017 0 011.702 1.114 15.22 15.22 0 01-2.351 2.773 15.46 15.46 0 01-5.907 3.397 1.037 1.037 0 01-.309.048zm-2.224-10.864a1.974 1.974 0 01-1.837-2.686 1.974 1.974 0 112.636 2.521c-.253.11-.522.165-.792.165h-.007zm-.064-1.99a.055.055 0 00.04.079c.024.007.071-.008.079-.04l-.119-.047v.008zm0 0l.119.047s0-.071-.04-.079c-.031-.008-.071.008-.079.039v-.007zm22.383 27.786a7.6 7.6 0 01-1.552-.174 21.474 21.474 0 01-2.985-.877 22.35 22.35 0 01-3.848-1.856c-4.433-2.679-6.737-4.677-10.562-7.98a1.014 1.014 0 01-.102-1.438 1.018 1.018 0 011.44-.102c3.872 3.341 6.002 5.19 10.285 7.782a20.7 20.7 0 003.5 1.69c.878.324 1.797.593 2.715.798.57.127 1.132.143 1.473.103-.238-.482-.942-1.446-2.534-2.963a1.02 1.02 0 01-.031-1.438 1.025 1.025 0 011.441-.031c3.586 3.421 3.547 4.732 3.032 5.562-.459.735-1.401.932-2.256.932l-.016-.008zm23.475 4.662h-.048a24.377 24.377 0 01-8.305-1.889 24.447 24.447 0 01-8.614-6.162 1.02 1.02 0 011.52-1.359 22.516 22.516 0 007.894 5.649 22.03 22.03 0 006.634 1.659c.032-.782-.015-1.88-.427-2.773-.151-.324-.372-.806-.839-1.272a6.814 6.814 0 00-.507-.419l-.214-.166a55.99 55.99 0 01-1.401-1.122 1.014 1.014 0 01-.143-1.43 1.02 1.02 0 011.433-.142c.309.253.784.64 1.37 1.09l.206.166c.348.269.491.387.681.569.744.727 1.1 1.509 1.274 1.881.863 1.888.602 4.195.499 4.858a1.02 1.02 0 01-1.005.862h-.008zm5.352-17.903c-.071 0-.143 0-.214-.024a28.273 28.273 0 01-2.811-.759 1.012 1.012 0 01-.657-1.279c.174-.538.744-.83 1.283-.656.95.3 1.805.537 2.613.703.554.118.902.656.783 1.209a1.014 1.014 0 01-.997.806z"/><path d="M405.552 169.943c-.934 0-1.987-.166-3.143-.514a1.01 1.01 0 01-.681-1.264 1.012 1.012 0 011.267-.679c2.518.75 4.046.411 4.402-.221.333-.585-.135-1.952-1.924-3.556a1.02 1.02 0 01-.079-1.438 1.027 1.027 0 011.441-.079c2.391 2.149 3.27 4.417 2.335 6.068-.625 1.106-1.908 1.683-3.618 1.683zm-1.916-7.585a.997.997 0 01-.53-.15 76.888 76.888 0 00-6.128-3.358c-7.419-3.626-15.447-6.044-23.879-7.174a1.012 1.012 0 01-.871-1.145 1.018 1.018 0 011.148-.869c8.646 1.161 16.888 3.642 24.504 7.363a74.532 74.532 0 016.294 3.453 1.02 1.02 0 01-.53 1.888l-.008-.008zm-43.609-10.034c-.467 0-.887-.316-.989-.79a1.018 1.018 0 01.767-1.216 39.894 39.894 0 015.02-.806 38.237 38.237 0 014.861-.15c.38.007.697.023.927.039.562.032.989.506.966 1.067-.024.561-.515.987-1.069.964-.214-.008-.515-.024-.879-.04-1.536-.047-3.088 0-4.608.15-1.599.15-3.199.403-4.758.759a1.196 1.196 0 01-.23.023h-.008z"/><path d="M376.187 153.059a.559.559 0 01-.198-1.082c.142-.056.348-.127.593-.206a10.94 10.94 0 012.914-.513c.768-.032 1.552.008 2.32.134.309.047.514.34.467.64a.568.568 0 01-.641.466 10.19 10.19 0 00-2.083-.118c-.894.039-1.781.197-2.62.466-.222.071-.404.142-.531.189a.578.578 0 01-.198.04l-.023-.016zm5.035 1.691a.558.558 0 01-.546-.443c-.064-.3.126-.6.427-.663.135-.032.341-.071.586-.119a23.555 23.555 0 012.85-.355 23.703 23.703 0 012.241-.04.564.564 0 01.546.577c-.008.308-.285.529-.578.545a23.894 23.894 0 00-2.137.032 21.588 21.588 0 00-3.262.45c-.04.008-.079.016-.119.016h-.008zm6.279 2.338a.558.558 0 01-.539-.402.562.562 0 01.38-.696c.143-.039.341-.095.594-.158a14.976 14.976 0 012.874-.418 15.49 15.49 0 012.272.039c.309.024.539.3.507.608a.564.564 0 01-.61.506 14.61 14.61 0 00-2.114-.032c-.91.048-1.813.182-2.668.395-.229.056-.419.111-.546.143a.575.575 0 01-.158.023l.008-.008zm4.592 24.785a.566.566 0 01-.269-.072l-4.015-2.156a.57.57 0 01-.229-.759.572.572 0 01.76-.229l4.014 2.157a.57.57 0 01.23.758.554.554 0 01-.491.293v.008zm27.679 9.267a.837.837 0 01-.673-.332 15.161 15.161 0 01-2.264-4.195c-.705-1.999-1.362-3.895-.499-5.728.887-1.872 2.818-2.56 4.869-3.279a15.909 15.909 0 015.241-.9c.467 0 .84.371.84.837a.846.846 0 01-.84.845c-1.607 0-3.182.277-4.679.806-1.86.656-3.325 1.17-3.911 2.41-.57 1.217-.071 2.647.562 4.464a13.589 13.589 0 002.019 3.737.84.84 0 01-.665 1.351v-.016zM231.37 89.601c-.356 0-.713-.174-.927-.49-.617-.893-.95-1.833-.997-2.797-.246-4.803 6.571-8.2 11.543-10.681 5.202-2.592 10.839-4.488 16.746-5.633a1.119 1.119 0 11.427 2.196c-5.708 1.106-11.155 2.939-16.167 5.436-3.919 1.959-10.475 5.23-10.308 8.572.023.537.229 1.09.609 1.643a1.115 1.115 0 01-.293 1.556 1.09 1.09 0 01-.633.198z"/><path d="M250.625 102.439c-.111 0-.222-.015-.325-.047a86.338 86.338 0 01-7.743-2.757 59.91 59.91 0 01-4.513-2.039 56.263 56.263 0 01-5.122-2.93c-.064-.04-.119-.088-.175-.135-.079-.08-.213-.198-.372-.34-1.797-1.596-3.515-3.287-3.103-4.843.11-.427.491-1.185 1.757-1.454a1.12 1.12 0 011.33.862 1.116 1.116 0 01-.807 1.311c.214.395.823 1.114 2.312 2.45.142.126.261.236.356.315a54.797 54.797 0 004.83 2.758 56.84 56.84 0 004.354 1.967 84.189 84.189 0 007.538 2.686c.593.182.926.806.744 1.398a1.133 1.133 0 01-1.077.798h.016z"/><path d="M263 103.245c-3.769 0-7.562-.158-11.322-.474a1.117 1.117 0 01-1.022-1.208 1.114 1.114 0 011.212-1.02c4.948.419 9.944.553 14.861.411.103 0 11.25-.403 20.514-2.338a67.464 67.464 0 008.55-2.394c1.251-.443 1.924-.72 4.759-1.888l3.436-1.415c.958-.395 1.813-.758 2.605-1.09 2.478-1.05 4.267-1.801 6.397-2.362 2.898-.759 5.962-1.099 9.129-1.027a1.12 1.12 0 011.092 1.145c-.016.617-.554 1.09-1.148 1.09-2.953-.07-5.811.253-8.503.957-1.971.513-3.697 1.248-6.088 2.251-.792.34-1.655.703-2.621 1.098l-3.436 1.415c-2.803 1.161-3.555 1.47-4.869 1.927a69.07 69.07 0 01-8.844 2.473c-9.461 1.975-20.791 2.378-20.91 2.386-1.259.04-2.526.056-3.8.056l.008.007zm60.497-22.865h-.048a21.277 21.277 0 01-2.359-.22 22.037 22.037 0 01-3.84-.917l-.174-.055a232.316 232.316 0 00-19.192-5.017c-5.915-1.28-10.594-2.283-16.753-2.852a102.045 102.045 0 00-19.707.126 1.12 1.12 0 11-.237-2.228 104.654 104.654 0 0120.142-.134c6.294.577 11.028 1.596 17.022 2.892a232.94 232.94 0 0119.382 5.064l.206.063c.538.174 1.805.585 3.467.83.665.094 1.338.165 2.011.19a22.393 22.393 0 003.207-.807c1.251-.418 2.145-.837 2.486-.995 3.365-1.572 11.132-4.464 17.862-6.407 3.792-1.099 6.69-1.739 10.3-1.786a32.143 32.143 0 013.27.118 1.123 1.123 0 11-.198 2.236 32.55 32.55 0 00-3.048-.11c-3.349.047-6.097.656-9.707 1.698-7.323 2.118-14.774 4.993-17.505 6.266-.404.19-1.386.647-2.763 1.106a25.544 25.544 0 01-3.658.916c-.064.008-.127.016-.19.016l.024.008zm32.856 26.113c-.15 0-.308-.032-.451-.095l-15.74-6.953a129.41 129.41 0 01-8.376-4.606 131.197 131.197 0 01-6.017-3.847 1.115 1.115 0 01-.293-1.557 1.114 1.114 0 011.559-.292 127.21 127.21 0 005.915 3.776 124.486 124.486 0 008.178 4.504l15.685 6.928c.57.253.823.909.57 1.478a1.114 1.114 0 01-1.03.664z"/><path d="M356.354 106.493c-.317 0-.634-.135-.855-.395-2.859-3.382-5.083-7.111-6.611-11.085-1.283-3.326-2.289-5.95-1.869-9.354.483-3.856 2.518-6.44 5.091-9.71l.222-.285a38.29 38.29 0 017.458-7.19 1.124 1.124 0 011.567.238c.365.498.262 1.2-.237 1.564a36.116 36.116 0 00-7.023 6.77l-.221.285c-2.455 3.113-4.228 5.365-4.632 8.604-.356 2.844.475 5.001 1.734 8.272 1.441 3.745 3.539 7.261 6.239 10.445.396.474.34 1.177-.135 1.58a1.138 1.138 0 01-.72.261h-.008zm-95.785-11.725c-3.199 0-5.669-1.2-6.943-1.983a1.115 1.115 0 01-.365-1.54 1.113 1.113 0 011.544-.364c1.212.743 3.721 1.936 6.928 1.58 3.214-.355 5.194-2.046 6.508-3.16.42-.356.673-.616.823-.79-.53-.206-1.765-.411-4.512-.482-3.144-.071-6.39.284-9.636 1.074a1.115 1.115 0 01-1.354-.821c-.15-.6.222-1.21.824-1.351 3.436-.838 6.88-1.217 10.221-1.138 3.357.079 6.405.308 6.856 2.196.214.901-.293 1.778-1.757 3.026-1.425 1.217-3.816 3.247-7.72 3.682-.483.055-.958.079-1.409.079l-.008-.008z"/><path d="M247.941 98.078c-.333 0-.665-.15-.887-.434a1.118 1.118 0 01.198-1.572c2.296-1.778 4.101-3.95 5.376-6.463a18.708 18.708 0 001.528-4.211 1.12 1.12 0 012.185.505 20.864 20.864 0 01-1.71 4.717c-1.417 2.813-3.436 5.238-6.001 7.221a1.122 1.122 0 01-.689.237zm-8.693-13.091h-.04a2.456 2.456 0 01-2.423-2.489 2.455 2.455 0 012.463-2.417h.031a2.454 2.454 0 01-.039 4.906h.008zm0-2.67a.213.213 0 00-.214.213.19.19 0 00.063.15.206.206 0 00.151.063.23.23 0 00.221-.213.225.225 0 00-.213-.221l-.008.008zm36.356 26.309c-1.963 0-3.935-.19-5.867-.553-7.102-1.359-11.092-2.845-17.711-5.317a1.12 1.12 0 01-.657-1.438 1.127 1.127 0 011.441-.656c6.73 2.512 10.435 3.895 17.347 5.214 1.789.34 3.626.514 5.439.514h.032c1.33 0 2.676-.095 3.998-.285 1.116-.158 2.074-.545 2.415-.805-.325-.427-1.615-1.494-5.131-3.003a1.119 1.119 0 11.887-2.054c6.215 2.663 6.754 4.33 6.524 5.483-.388 1.944-3.721 2.513-4.378 2.607a32.56 32.56 0 01-4.307.308h-.04l.008-.015zm29.239-4.527c-.507 0-1.013-.008-1.52-.032a34.033 34.033 0 01-14.188-3.855 1.112 1.112 0 01-.467-1.51 1.116 1.116 0 011.512-.466 31.899 31.899 0 0013.246 3.603c3.349.15 6.682-.237 9.92-1.145-.324-1.083-.965-2.742-2.082-3.864-.348-.347-.918-.924-1.821-1.32-.237-.102-.419-.165-.91-.315l-.349-.11a106.03 106.03 0 01-2.383-.791 1.12 1.12 0 01-.697-1.422c.206-.585.84-.893 1.426-.695.538.181 1.338.458 2.335.774l.349.11c.53.166.791.253 1.148.403 1.282.57 2.074 1.36 2.494 1.778 2.003 2.007 2.763 5.088 2.945 5.981a1.122 1.122 0 01-.76 1.296 33.743 33.743 0 01-10.19 1.588l-.008-.008zm4.212-27.265a1.127 1.127 0 01-1.124-1.067 1.121 1.121 0 011.069-1.17 38.897 38.897 0 003.8-.347 1.119 1.119 0 11.333 2.212c-1.228.182-2.55.308-4.03.371h-.056.008z"/><path d="M312.966 76.47a1.123 1.123 0 01-.071-2.244c3.856-.245 5.764-1.524 5.946-2.686.158-1.003-.91-2.662-4.457-4.06a1.125 1.125 0 01-.634-1.454c.23-.577.879-.862 1.457-.632 4.046 1.596 6.231 4.029 5.843 6.494-.404 2.568-3.404 4.274-8.02 4.574h-.072l.008.008zm-47.361-8.983c-.515 0-.974-.355-1.093-.869-.135-.6.245-1.2.847-1.335 11.884-2.678 23.879-3.437 35.66-2.26 3.309.332 6.643.822 9.921 1.454a1.118 1.118 0 11-.428 2.196 106.249 106.249 0 00-9.715-1.43c-11.535-1.153-23.293-.41-34.939 2.22-.087.016-.166.032-.246.032l-.007-.008zm-17.015 7.269c-.364 0-.728-.182-.942-.506a1.112 1.112 0 01.325-1.549 54.865 54.865 0 016.159-3.476 53.966 53.966 0 016.271-2.552c.499-.166.926-.3 1.227-.395a1.113 1.113 0 011.401.735 1.113 1.113 0 01-.736 1.398c-.285.087-.689.222-1.172.38a52.362 52.362 0 00-11.915 5.783 1.1 1.1 0 01-.61.182h-.008z"/><path d="M270.102 69.004a.845.845 0 01-.634-.284.837.837 0 01.071-1.186 15.585 15.585 0 014.26-2.67 16.221 16.221 0 013.119-.956.843.843 0 01.99.664.843.843 0 01-.665.987 14.19 14.19 0 00-2.787.854 14.061 14.061 0 00-3.808 2.386.826.826 0 01-.554.213l.008-.008zm7.711-1.067a.841.841 0 01-.459-1.549 31.725 31.725 0 014.283-2.299 31.527 31.527 0 012.93-1.137.84.84 0 011.068.53.838.838 0 01-.53 1.066c-.934.308-1.868.68-2.779 1.082a30.293 30.293 0 00-4.054 2.181.878.878 0 01-.451.134l-.008-.008zm9.382.016a.85.85 0 01-.681-.34.843.843 0 01.175-1.177c.166-.118.403-.292.696-.498a22.322 22.322 0 016.588-3.018.85.85 0 011.037.585.843.843 0 01-.586 1.035c-.942.26-1.877.593-2.779.98a20.461 20.461 0 00-3.302 1.809c-.277.182-.491.348-.641.458a.84.84 0 01-.499.166h-.008zm18.139 30.283s-.079 0-.119-.008l-6.326-.877a.844.844 0 01-.72-.948.845.845 0 01.95-.719l6.326.877a.842.842 0 01-.111 1.675zm40.711-1.69a.81.81 0 01-.451-.135 21.125 21.125 0 01-4.948-4.337c-1.853-2.236-3.603-4.345-3.381-7.032.229-2.75 2.391-4.543 4.671-6.447a21.767 21.767 0 016.334-3.673.841.841 0 11.594 1.572 20.293 20.293 0 00-5.851 3.39c-2.177 1.816-3.895 3.246-4.07 5.293-.166 2.006 1.228 3.69 2.993 5.822a19.307 19.307 0 004.553 3.99.839.839 0 01-.452 1.549l.008.008zM96.41 113.832c-.412 0-.8-.253-.95-.655-.293-.759-.364-1.509-.23-2.228.673-3.516 6.057-4.741 9.984-5.641 4.07-.933 8.321-1.296 12.636-1.099.562.024.998.506.974 1.067-.024.561-.499.98-1.069.972a44.764 44.764 0 00-12.082 1.043c-3 .687-8.02 1.833-8.44 4.037-.063.34-.016.719.135 1.122a1.016 1.016 0 01-.958 1.374v.008z"/><path d="M107.605 125.984c-.174 0-.356-.048-.515-.143a61.883 61.883 0 01-4.924-3.231c-.681-.498-1.623-1.177-2.803-2.188a41.303 41.303 0 01-3.072-2.908c-.047-.047-.087-.103-.127-.158a5.178 5.178 0 00-.198-.284c-1.013-1.47-1.955-2.995-1.345-4.109.174-.324.617-.861 1.662-.821.562.016 1.006.482.99 1.043a1.022 1.022 0 01-.713.94c.135.332.444.877 1.077 1.793.071.103.135.198.182.269.895.94 1.86 1.849 2.858 2.694a40.641 40.641 0 002.676 2.086 60.107 60.107 0 004.759 3.12 1.015 1.015 0 01-.523 1.889l.016.008z"/><path d="M134.975 131.103c-.522 0-1.037-.008-1.551-.024-6.92-.221-14.624-1.801-14.948-1.872a96.201 96.201 0 01-10.451-2.844 1.016 1.016 0 11.649-1.928 94.12 94.12 0 0010.221 2.781c.071.016 7.862 1.612 14.6 1.833 2.082.071 4.212 0 6.31-.221.942-.095 1.457-.174 3.626-.514l2.613-.403c.728-.11 1.385-.221 1.987-.316 1.9-.308 3.278-.537 4.861-.561 2.154-.039 4.371.245 6.572.83a1.02 1.02 0 11-.531 1.967c-2.019-.537-4.038-.798-6.009-.766-1.441.023-2.755.237-4.568.537-.61.103-1.275.205-2.011.324l-2.605.403c-2.154.332-2.74.426-3.729.521a50.989 50.989 0 01-5.028.253h-.008zm28.107-8.114c-.412 0-.831-.015-1.243-.039a.594.594 0 01-.206-.04 17.009 17.009 0 01-1.623-.561c-1.259-.505-2.153-1.058-2.541-1.295l-.103-.064a165.941 165.941 0 00-12.454-6.707c-3.888-1.881-6.952-3.366-11.124-4.788a73.254 73.254 0 00-13.658-3.223 1.017 1.017 0 01-.871-1.146c.08-.553.586-.956 1.148-.869a74.202 74.202 0 0114.046 3.31c4.283 1.462 7.403 2.971 11.345 4.883a167.99 167.99 0 0112.613 6.787l.134.079c.341.213 1.141.703 2.233 1.145.428.174.871.324 1.314.458.768.048 1.544.04 2.304-.023a15.032 15.032 0 001.869-.269c2.613-.529 8.503-1.225 13.515-1.446 2.834-.118 4.972-.079 7.506.498.768.174 1.528.395 2.272.64.53.182.815.758.641 1.288a1.03 1.03 0 01-1.29.64 20.13 20.13 0 00-2.075-.585c-2.312-.529-4.299-.569-6.967-.45-5.423.237-11.069.971-13.175 1.398-.308.063-1.076.221-2.129.308-.491.04-.99.063-1.481.063v.008zm17.213 23.615c-.214 0-.436-.071-.618-.213l-9.746-7.482a90.984 90.984 0 01-5.051-4.63 97.836 97.836 0 01-3.54-3.689 1.013 1.013 0 01.072-1.438 1.017 1.017 0 011.441.071 90.62 90.62 0 008.36 8.106l9.707 7.45c.443.34.531.98.19 1.43a1.016 1.016 0 01-.807.395h-.008z"/><path d="M180.303 146.604c-.373 0-.737-.205-.911-.561-1.425-2.852-2.343-5.838-2.739-8.88-.333-2.552-.594-4.567.301-6.913 1.005-2.647 2.874-4.116 5.241-5.973l.206-.158a27.797 27.797 0 016.444-3.768 1.007 1.007 0 011.331.545 1.01 1.01 0 01-.547 1.327 25.812 25.812 0 00-5.969 3.484l-.206.158c-2.201 1.73-3.793 2.979-4.6 5.096-.713 1.865-.499 3.484-.182 5.926.364 2.812 1.219 5.585 2.541 8.232a1.016 1.016 0 01-.459 1.367 1.03 1.03 0 01-.451.11v.008zm-62.564-24.034c-.372 0-.76-.023-1.156-.071-2.834-.363-4.726-1.904-5.605-2.789a1.012 1.012 0 01.008-1.438 1.017 1.017 0 011.441.008c.696.704 2.185 1.92 4.418 2.205 2.224.292 3.847-.53 4.924-1.075.159-.079.285-.15.388-.205-.499-.253-1.401-.545-2.692-.893-2.153-.577-4.441-.869-6.809-.869a1.022 1.022 0 01-1.021-1.019c0-.561.459-1.019 1.021-1.019 2.55 0 5.012.316 7.34.94 2.494.671 4.552 1.343 4.544 2.891 0 .933-.894 1.509-1.852 1.991-.982.49-2.684 1.351-4.949 1.351v-.008z"/><path d="M106.481 122.507a1.015 1.015 0 01-.42-1.943c1.861-.838 3.46-2.023 4.743-3.524a13.302 13.302 0 001.742-2.623 1.015 1.015 0 011.369-.45c.507.253.705.861.452 1.367a15.36 15.36 0 01-2.011 3.033c-1.481 1.739-3.318 3.105-5.463 4.061a.969.969 0 01-.42.087l.008-.008zm-3.595-10.523c-.166 0-.332-.024-.498-.064a1.97 1.97 0 01-1.418-2.401c.135-.514.452-.941.911-1.201.459-.269.99-.34 1.496-.214a1.971 1.971 0 011.425 2.402c-.134.506-.451.94-.91 1.201a1.957 1.957 0 01-.998.277h-.008zm0-2.031s-.055.024-.063.048c0 .031.016.071.047.079.04.007.072-.016.08-.048.008-.031-.008-.071-.048-.079h-.016zm24.631 25.069a8.12 8.12 0 01-.768-.04 22.372 22.372 0 01-3.072-.521 23.106 23.106 0 01-4.038-1.39c-4.71-2.142-7.236-3.856-11.424-6.692a1.017 1.017 0 01-.27-1.415 1.021 1.021 0 011.418-.268c4.236 2.868 6.571 4.448 11.124 6.526 1.179.537 2.422.964 3.673 1.264.911.221 1.853.379 2.787.474.578.055 1.14.008 1.473-.063-.293-.451-1.109-1.328-2.866-2.647a1.017 1.017 0 01-.206-1.422c.34-.45.974-.537 1.425-.206 3.967 2.971 4.077 4.283 3.666 5.167-.483 1.043-1.94 1.233-2.93 1.233h.008zm22.905 1.904c-2.296 0-4.56-.324-6.769-.964a24.5 24.5 0 01-9.279-5.112 1.02 1.02 0 111.353-1.525 22.55 22.55 0 008.504 4.686c2.209.639 4.489.932 6.785.876-.055-.774-.238-1.872-.744-2.709-.182-.301-.46-.759-.99-1.162-.158-.118-.277-.189-.554-.355l-.23-.135c-.649-.395-1.179-.727-1.528-.948a1.019 1.019 0 111.101-1.714c.34.221.847.537 1.488.924l.222.135c.372.229.53.323.744.481.831.632 1.275 1.367 1.489 1.723 1.084 1.785 1.084 4.1 1.06 4.764-.015.521-.427.94-.95.98-.57.039-1.132.055-1.702.055zm4.846-18.464h-.095a29.359 29.359 0 01-2.882-.419 1.022 1.022 0 01-.808-1.193 1.027 1.027 0 011.196-.805c.982.189 1.852.316 2.676.395.562.047.974.545.926 1.106a1.015 1.015 0 01-1.013.924v-.008z"/><path d="M157.239 118.652a12.47 12.47 0 01-2.153-.198 1.008 1.008 0 01-.824-1.177 1.012 1.012 0 011.18-.822c2.589.459 4.062-.063 4.347-.726.261-.617-.357-1.92-2.328-3.311a1.013 1.013 0 01-.246-1.414 1.019 1.019 0 011.418-.245c2.628 1.857 3.76 4.006 3.032 5.752-.586 1.398-2.185 2.149-4.426 2.149v-.008zm-1.884-7.356c-.143 0-.285-.031-.428-.095a74.528 74.528 0 00-6.484-2.615c-7.791-2.733-16.056-4.195-24.56-4.337a1.022 1.022 0 01-1.005-1.035 1.033 1.033 0 011.037-1.003c8.725.142 17.204 1.643 25.201 4.448 2.249.79 4.489 1.69 6.659 2.686.514.237.736.837.498 1.351a1.021 1.021 0 01-.926.592l.008.008zm-44.48-4.867c-.42 0-.816-.26-.958-.679a1.01 1.01 0 01.617-1.296 39.212 39.212 0 0110.626-2.172c.57-.04 1.045.387 1.084.948a1.022 1.022 0 01-.95 1.082c-.214.016-.515.032-.871.063a37.023 37.023 0 00-4.56.688 36.343 36.343 0 00-4.64 1.311c-.111.04-.229.055-.34.055h-.008z"/><path d="M127.058 105.268a.573.573 0 01-.499-.3.563.563 0 01.238-.758 11.206 11.206 0 013.404-1.13c.76-.127 1.536-.166 2.32-.135a.57.57 0 01.538.585.564.564 0 01-.585.537 10.131 10.131 0 00-5.147 1.13.523.523 0 01-.261.063l-.008.008zm5.202 1.082a.559.559 0 01-.182-1.09c.134-.047.332-.111.57-.19a23.871 23.871 0 015.011-.987.57.57 0 01.61.513.57.57 0 01-.515.609c-.696.063-1.409.158-2.114.284-.91.166-1.805.387-2.652.648-.23.071-.412.134-.538.174a.488.488 0 01-.182.031l-.008.008zm6.508 1.596a.55.55 0 01-.515-.339.563.563 0 01.301-.735 16.463 16.463 0 013.373-.98 17.027 17.027 0 012.264-.229.57.57 0 01.578.545.564.564 0 01-.546.577c-.697.024-1.409.095-2.106.213-.903.158-1.774.395-2.605.703-.222.079-.404.158-.523.206a.53.53 0 01-.213.047l-.008-.008zm7.474 24.074a.59.59 0 01-.206-.04l-4.244-1.675a.565.565 0 01-.316-.727.568.568 0 01.728-.316l4.244 1.675a.566.566 0 01.316.727.563.563 0 01-.522.356zm28.534 5.964a.839.839 0 01-.609-.26 15.126 15.126 0 01-2.74-3.903c-.934-1.904-1.813-3.706-1.164-5.633.657-1.968 2.502-2.868 4.458-3.824a16.029 16.029 0 015.099-1.509.833.833 0 01.934.735.837.837 0 01-.736.932 14.203 14.203 0 00-4.553 1.343c-1.766.869-3.167 1.548-3.602 2.852-.428 1.272.237 2.639 1.084 4.361a13.524 13.524 0 002.439 3.476.837.837 0 01-.024 1.186.84.84 0 01-.586.237v.007zM25.043 18.606c-.159 0-.317-.04-.467-.11a44.606 44.606 0 00-11.425-4.07c-3.017-.623-8.052-1.666-9.359.167-.198.284-.316.647-.348 1.074-.04.561-.53.98-1.085.948a1.018 1.018 0 01-.95-1.082c.056-.814.301-1.525.72-2.118 2.075-2.915 7.483-1.793 11.433-.98 4.086.846 8.1 2.276 11.948 4.26.499.26.696.868.435 1.366a1.027 1.027 0 01-.902.553v-.008z"/><path d="M7.537 32.314c-.324 0-.64-.15-.839-.435a60.166 60.166 0 01-3.127-4.985c-.412-.735-.982-1.746-1.631-3.152a41.94 41.94 0 01-1.584-3.927.8.8 0 01-.047-.198C.3 19.538.277 19.42.253 19.27c-.308-1.754-.53-3.532.491-4.298.293-.221.927-.522 1.86-.056.508.245.713.862.468 1.36a1.024 1.024 0 01-1.037.56c-.008.356.04.988.23 2.078.023.127.039.237.055.324a38.073 38.073 0 001.472 3.642c.618 1.336 1.164 2.3 1.56 3.01a61.041 61.041 0 003.025 4.82 1.013 1.013 0 01-.832 1.596l-.008.008z"/><path d="M52.817 57.28c-.23 0-.46-.08-.65-.237a22.011 22.011 0 00-5.138-3.192c-1.314-.577-2.597-.925-4.378-1.407-.594-.165-1.243-.34-1.964-.545l-2.549-.719c-2.09-.592-2.652-.75-3.602-1.074a50.221 50.221 0 01-6.08-2.528c-6.2-3.074-12.542-7.72-12.811-7.917a97.22 97.22 0 01-8.313-6.929 1.012 1.012 0 01-.048-1.438 1.017 1.017 0 011.441-.047 95.654 95.654 0 008.131 6.779c.063.047 6.477 4.732 12.51 7.727a49.122 49.122 0 005.827 2.425c.895.3 1.393.443 3.491 1.035l2.55.72c.712.205 1.354.378 1.947.536 1.861.506 3.2.877 4.656 1.51 1.98.86 3.871 2.038 5.621 3.483.436.356.491.996.135 1.43a1.007 1.007 0 01-.784.372l.008.016zm30.466 5.617c-.253 0-.499-.095-.697-.276a21.12 21.12 0 00-1.639-1.391c-1.876-1.438-3.673-2.3-6.144-3.302-5.035-2.039-10.466-3.714-12.556-4.204a17.968 17.968 0 01-4.553-1.722.846.846 0 01-.174-.119 17.51 17.51 0 01-1.243-1.185 15.776 15.776 0 01-1.766-2.236l-.071-.102a164.467 164.467 0 00-8.527-11.274c-2.755-3.327-4.917-5.95-8.107-8.976a72.498 72.498 0 00-11.069-8.603 1.02 1.02 0 01-.317-1.407 1.026 1.026 0 011.41-.316 74.362 74.362 0 0111.385 8.85c3.278 3.112 5.487 5.774 8.273 9.148a163.778 163.778 0 018.638 11.424l.087.127a15.07 15.07 0 001.552 1.967c.317.34.657.664 1.006.964.673.363 1.385.68 2.106.94.879.316 1.552.474 1.813.537 2.597.609 8.242 2.418 12.89 4.306 2.628 1.067 4.552 1.991 6.618 3.571a25.74 25.74 0 011.798 1.525c.411.387.427 1.027.04 1.438a1.001 1.001 0 01-.745.316h-.008zM65.026 81.274a1.02 1.02 0 01-.903-.545l-5.74-10.848a93.717 93.717 0 01-2.66-6.305 82.664 82.664 0 01-1.67-4.827 1.012 1.012 0 01.664-1.272 1.015 1.015 0 011.275.664 90.245 90.245 0 004.22 10.84l5.716 10.8a1.017 1.017 0 01-.902 1.493z"/><path d="M65.017 81.274c-.546 0-.997-.435-1.02-.988-.104-3.184.308-6.28 1.218-9.212.768-2.457 1.37-4.4 3.16-6.154 2.018-1.991 4.33-2.544 7.26-3.248l.253-.063a27.66 27.66 0 017.427-.742 1.01 1.01 0 01.981 1.05.997.997 0 01-1.053.98 25.613 25.613 0 00-6.88.687l-.253.064c-2.724.655-4.687 1.13-6.31 2.725-1.425 1.399-1.909 2.955-2.637 5.31-.847 2.71-1.227 5.585-1.124 8.54a1.018 1.018 0 01-.99 1.05h-.032zM21.923 34.17c-1.338 0-3.246-.181-5.193-1.398-2.423-1.51-3.5-3.697-3.928-4.867a1.02 1.02 0 011.916-.695c.34.924 1.188 2.654 3.096 3.84 1.9 1.185 3.721 1.114 4.925 1.066.174 0 .316-.016.435-.031-.356-.435-1.045-1.083-2.074-1.936a26.001 26.001 0 00-5.827-3.619 1.013 1.013 0 01-.5-1.35c.23-.514.84-.735 1.355-.498 2.312 1.058 4.425 2.37 6.278 3.903 1.988 1.643 3.579 3.12 2.93 4.519-.396.853-1.489 1.003-2.518 1.043-.253.008-.554.023-.887.023h-.008z"/><path d="M8.1 28.68h-.135a1.023 1.023 0 01-1.013-1.028c0-.56.459-1.011 1.02-1.011H8.1c1.995 0 3.903-.41 5.668-1.232a13.653 13.653 0 002.684-1.66 1.013 1.013 0 011.433.158 1.015 1.015 0 01-.158 1.43 15.309 15.309 0 01-3.096 1.92 15.436 15.436 0 01-6.524 1.422H8.1zm1.385-10.974c-.435 0-.879-.143-1.243-.443a1.96 1.96 0 01-.285-2.773c.332-.41.808-.664 1.33-.719a1.936 1.936 0 011.449.434 1.96 1.96 0 01.285 2.774 1.959 1.959 0 01-1.536.727zm0-2.031s-.04 0-.048.024c-.015.023-.015.07.008.087.024.023.072.015.088-.008.015-.024.015-.071-.008-.087a.06.06 0 00-.04-.016zm13.911 33.546c-1.053 0-2.209-.608-2.637-.861a22.65 22.65 0 01-2.573-1.746 22.708 22.708 0 01-3.095-2.947c-3.39-3.91-4.973-6.51-7.593-10.832a1.021 1.021 0 01.34-1.398 1.026 1.026 0 011.402.34c2.652 4.369 4.117 6.778 7.394 10.555.848.98 1.798 1.88 2.811 2.678a19.666 19.666 0 002.344 1.588c.506.293 1.029.482 1.37.553-.08-.53-.452-1.667-1.505-3.595a1.022 1.022 0 011.797-.972c2.368 4.354 1.924 5.586 1.18 6.226-.348.293-.776.403-1.227.403l-.008.008zm20.007 11.456a1.13 1.13 0 01-.356-.063 24.054 24.054 0 01-7.316-4.345 24.44 24.44 0 01-6.302-8.502 1.019 1.019 0 011.86-.83 22.345 22.345 0 005.772 7.79 22.152 22.152 0 005.804 3.62c.269-.735.562-1.794.451-2.774-.04-.347-.103-.877-.412-1.47-.095-.173-.174-.284-.356-.552l-.15-.221a68.645 68.645 0 01-.99-1.502 1.018 1.018 0 01.309-1.406c.475-.3 1.1-.166 1.41.308.213.34.545.846.965 1.462l.15.221c.246.363.349.514.468.75.49.925.585 1.77.633 2.181.237 2.062-.72 4.172-1.021 4.772a1.014 1.014 0 01-.91.561h-.009zm10.601-15.391a.975.975 0 01-.506-.134 29.894 29.894 0 01-2.447-1.58 1.02 1.02 0 01-.237-1.422 1.025 1.025 0 011.425-.237 26.468 26.468 0 002.272 1.47 1.018 1.018 0 01-.507 1.903z"/><path d="M58.019 46.859c-1.315 0-2.906-.593-4.592-1.754a1.015 1.015 0 01-.262-1.414 1.02 1.02 0 011.418-.261c2.161 1.485 3.72 1.635 4.251 1.138.491-.459.475-1.897-.736-3.974a1.013 1.013 0 01.372-1.391 1.017 1.017 0 011.393.371c1.616 2.781 1.75 5.207.357 6.487-.578.53-1.33.798-2.201.798zm-.935-8.051c-.285 0-.57-.118-.776-.355a74.61 74.61 0 00-4.797-5.073c-5.939-5.728-12.843-10.484-20.514-14.15a1.027 1.027 0 01-.483-1.359 1.029 1.029 0 011.361-.482c7.87 3.753 14.956 8.644 21.053 14.522a76.715 76.715 0 014.924 5.214 1.022 1.022 0 01-.11 1.438c-.19.166-.428.245-.666.245h.008zM28.97 18.266a.995.995 0 01-.364-.07 21.748 21.748 0 00-.824-.301 37.34 37.34 0 00-9.2-2.007 1.02 1.02 0 11.182-2.03c1.687.15 3.373.41 5.028.774a38.843 38.843 0 015.542 1.667c.523.198.792.79.586 1.311a1.023 1.023 0 01-.95.656z"/><path d="M39.12 22.683a.572.572 0 01-.253-.064 10.81 10.81 0 00-1.948-.758 10.344 10.344 0 00-2.637-.363c-.237 0-.435 0-.562.015a.555.555 0 01-.594-.529.564.564 0 01.53-.593c.151-.007.373-.015.634-.015.982 0 1.972.134 2.93.403.744.205 1.472.49 2.161.837a.557.557 0 01.245.75.557.557 0 01-.498.309l-.008.008zm4.26 3.215a.534.534 0 01-.19-.031 24.469 24.469 0 00-2.043-.625 23.246 23.246 0 00-2.684-.513c-.238-.032-.428-.047-.563-.063a.559.559 0 01-.506-.609.57.57 0 01.61-.505c.142.016.348.031.593.063.927.119 1.877.3 2.819.537.728.182 1.449.403 2.145.656a.563.563 0 01-.19 1.09h.008zm5.264 4.125a.59.59 0 01-.221-.048 14.939 14.939 0 00-2.003-.68 14.96 14.96 0 00-2.66-.442c-.238-.016-.428-.024-.563-.031a.564.564 0 01-.546-.577.564.564 0 01.578-.545c.142 0 .356.015.61.031.95.071 1.916.23 2.866.482.728.19 1.456.435 2.153.735a.558.558 0 01-.214 1.075zm-8.693 23.788a.54.54 0 01-.404-.174l-3.159-3.286a.56.56 0 01.808-.774l3.159 3.286a.56.56 0 01-.404.948zM63.53 71.13a.832.832 0 01-.793-.561 15.163 15.163 0 01-.863-4.686c-.047-2.125-.102-4.124 1.29-5.609 1.418-1.509 3.469-1.564 5.646-1.627a15.944 15.944 0 015.265.75.842.842 0 11-.514 1.604 14.243 14.243 0 00-4.704-.672c-1.97.056-3.523.095-4.465 1.099-.918.98-.879 2.496-.84 4.416.033 1.414.294 2.82.769 4.172a.84.84 0 01-.792 1.113z"/></g><defs><clipPath id="clip0_2248_12555"><path fill="#fff" d="M0 0h437v201H0z"/></clipPath></defs></svg>