<svg width="141" height="58" fill="none" xmlns="http://www.w3.org/2000/svg"><g filter="url(#filter0_d_3405_2722)" fill="#fff"><path d="M7.933 30.049l-.042.041c.042-.041.042-.041.042-.083V29.8c.46-2.445 1.338-4.848 2.216-7.21.92-2.486 1.799-4.93 2.97-7.292 1.087-2.238 2.341-4.434 3.763-6.464 1.255-1.864 2.76-3.895 4.684-5.138.585-.165 1.17-.787 1.923-.663.753.125.753.912.586 1.658.209-.58.334-1.202-.168-1.616-.669-.497-1.965.29-2.509.663-.25.083-.501.248-.71.414.125-.124.292-.249.501-.373l-.209.083.586-.331c.669-.373 2.174-1.202 2.676-.125.376.87-.21 2.32-.502 3.15-.543 1.408-1.212 2.734-1.923 4.06.125-.29.627-1.409.627-1.409-.293-.041-1.631 3.025-1.882 3.108h.042c-.167.124-.293.248-.293.29-.084.497.502.373.837.331 1.421-.166 3.261-1.367 4.181-2.403 1.004-1.119 1.38-2.818 1.38-4.31v-.04C26.667 3.364 24.702-.2 21.315.008c-1.882.083-3.638 1.906-4.851 3.149a35.618 35.618 0 00-2.467 3.149c-.335.497-.67.953-.962 1.45-.335.456-1.004 1.16-1.171 1.699 0 0 .21-.249.376-.415-.46.705-.878 1.45-1.296 2.155-.042-.041.251-.622.251-.622-.376-.082-2.09 3.315-2.3 3.688-.753 1.367-1.422 2.735-1.882 4.185-.502 1.616-1.17 3.149-1.672 4.724-.251.787-.502 1.533-.67 2.32-.083.373-.167.704-.209 1.077 0 .042-.083.704 0 .622-.083.29-.083.663-.125.953 0 0 0-.705.042-.788-.168.207-.042.995-.084 1.078-.209 1.574-.544 3.232 0 4.765.711 2.113 2.467 3.853 4.39 4.972 1.005.621 2.343 1.326 3.597 1.243 1.464-.083 2.886-1.285 3.973-2.155 3.178-2.652 6.063-6.38 6.607-10.607.042-.29.251-1.74-.25-1.782-.46-.041-.795.953-.963 1.202a35.958 35.958 0 01-4.349 5.676c-1.672 1.824-3.763 3.771-6.314 4.351a4.594 4.594 0 01-1.087.124c-.502-.041-.962-.165-1.339-.538-.209-.207-.418-.912-.669-1.036 0-.207-.041-.415-.083-.539l-.126-.248c-.042-1.243 0-2.404.21-3.688v-.041c0-.042.041-.042.041-.083zm7.36-20.262c-1.63 2.652-3.01 5.387-4.39 8.204-.795 1.658-1.59 3.356-2.217 5.138a63.573 63.573 0 013.178-8.08c1.505-3.19 3.513-6.298 5.896-8.867-.962 1.16-1.798 2.486-2.467 3.605zM19.6 5.23c-.585.58-1.129 1.243-1.63 1.865.794-1.036 1.63-2.072 2.676-2.9-.377.331-.753.745-1.046 1.035zm4.266.332c.083-.249.167-.539.209-.87-.084.373-.251.746-.251 1.036.042-.083.042-.125.042-.166zm20.24 17.484s.042.042 0-.041c-.209-.29-.502-.083-.794 0-1.213.248-2.467.538-3.722.746.46-1.492.92-3.067 1.087-4.6.084-.58.126-1.201 0-1.781a3.398 3.398 0 00-.418-1.078s-.502-.621-.376-.29l-.042-.041-.167-.332.167.166c.042-.248-.67-.704-.67-.704-1.045-1.036-2.466-1.823-3.888-1.036-.878.497-1.59 1.326-2.175 2.154-.209.29-.418.622-.585.954-.167.331-.418 1.408-.67 1.574-.208.166-.836.207-1.128.373a4.926 4.926 0 00-1.13.621c-.794.498-1.421 1.202-2.007 1.906-1.003 1.326-1.505 2.818-2.216 4.144-1.338 2.527.125 5.842 2.593 7.044a4.993 4.993 0 002.55.456c.879-.125 1.715-.58 2.384-1.078.627-.456 2.008-1.284 2.258-1.989 0-.041-.083 0-.209.125l1.213-1.41c.042.042-.293.457-.293.457.293.124 1.798-2.072 1.966-2.238.292-.497.585-1.036.92-1.533.292-.373.209-.331.627-.497-.042.041.502-.124.585-.124.46-.083 5.353-.415 4.14-1.948zm-14.469 8.37h-.041c-3.471.497.543-6.795.627-7.21l-.251.373c.627-1.243 1.213-2.237 1.505-2.569.46 2.072 2.719 2.86 4.558 3.108-1.212 2.403-3.47 5.76-6.397 6.298zm8.239-11.477c-.293 1.16-.544 2.693-1.171 3.729-.21.414-.084.29-.502.373-.251.082-.795 0-1.046-.042-.46-.041-1.003-.124-1.338-.414-.585-.497-.502-1.285-.418-1.989.084-.704.293-1.367.544-2.03.125-.249.92-1.575.794-1.823-.042-.125-.502.621-.543.663.25-.456.501-.705.71-.995-.041 0 0-.041.042-.124v.041l.042-.083s0-.041.042-.041c.627-.829 2.174-2.693 3.01-1.409.628 1.077.043 3.108-.166 4.144zm-2.886-2.694l.042-.041c0 .041-.042.041-.042.041z"/><path d="M65.92 23.253v-.041c-.252-1.367-2.133.912-2.384 1.119-1.213 1.326-2.342 2.776-3.43 4.226-1.087 1.492-2.132 2.983-3.261 4.475-.544.746-1.087 1.45-1.715 2.113-.209.249-.71.953-1.087.953-1.463 0-.334-5.842-.167-6.754.25-1.616.376-3.77 1.422-5.055.25-.331 3.094-3.936 3.094-3.936-.083-.042-.418.373-.627.621l1.798-2.403.126-.166h.041-.041l.334-.455c.042.041 0 .124-.042.207l.377-.414 1.087-1.41c.794-1.118 1.547-2.32 2.258-3.48 1.13-1.906 2.676-4.64 1.84-6.96-.627-1.7-2.927-2.031-4.475-1.45-1.128.413-2.09 1.284-2.885 2.195a18.393 18.393 0 00-1.213 1.74c-.125.166-.669 1.492-.794 1.658h.042c-.251.456-.502.911-.67 1.367.084-.331.293-.994.46-1.119-.334.249-.627 1.45-.71 1.575-1.59 3.439-2.97 6.92-3.973 10.566-1.129-1.285-2.927-3.48-4.893-2.694-1.63.663-2.843 2.362-3.68 3.854-.752 1.326-.961 2.693-1.505 3.978-.962 2.196-1.422 6.712 1.84 7.375 1.004.207 1.924-.415 2.718-.953 1.422-1.036 2.76-2.238 4.015-3.48-.21 2.195-.67 5.51 1.129 7.25 2.216 2.238 4.432-.787 5.77-2.444 1.715-2.155 3.053-4.558 4.768-6.63.836-.994 1.672-1.989 2.55-2.9.67-.663 2.008-1.492 1.882-2.528zm-15.39 2.735c-.041.124-.041.207-.041.207-.168.995-.168 1.865-.878 2.57-.628.662-1.297 1.284-1.966 1.905-.627.58-2.133 2.279-3.094 2.196-1.171-.124-.293-2.776.292-4.392-.627 1.657-1.63 4.35-.25 4.434.376.041 1.003-.29 1.547-.746-.502.456-1.339 1.077-1.84.828-.962-.414-.126-2.776.042-3.439.543-1.906 1.338-3.729 2.258-5.469.46-.87 1.129-2.279 2.007-2.362l-.21.125c.043-.042.084-.042.126-.042.293-.083.586.124.795.29.544.373.878 1.078 1.254 1.616.418.663.126 1.367-.041 2.113v.166zm6.733-9.571c0-.042 0-.125.042-.166v-.042a.452.452 0 01.084-.165v-.042c.961-2.651 2.007-5.303 3.512-7.706.377-.622 1.464-2.528 2.426-1.99.376.208.46.746.46 1.12.167 2.485-1.84 5.427-3.095 7.416a70.084 70.084 0 01-4.809 6.713l.92-.953.837-1.036-2.133 2.734-.293.373-.167.166c.042-.249.25-.497.46-.787a1.102 1.102 0 00-.21.248 132.87 132.87 0 011.757-5.345c-.042.042 0-.041.042-.207l.125-.207c0-.041 0-.083.042-.124zm-3.512 3.397c-.084.207-.335 1.16-.46 1.285 0 .041-.042.083-.084.083.334-.415.125-.953.293-1.45.083-.25.501-.705.585-1.036 0 .331-.21.911-.334 1.118zM47.1 31.292a48.883 48.883 0 003.011-2.86c-.083.54-1.38 1.45-1.84 1.865a22.063 22.063 0 01-1.798 1.575h-.042l.67-.58zm7.402-15.248a8.517 8.517 0 01-.627 1.409c.209-.622.335-1.244.627-1.824.251-.455.544-1.035.753-1.574-.21.663-.544 1.367-.753 1.989zm2.718.497l-.167.414c0-.041.042-.124.042-.207l.125-.207zm-9.032 5.47c-.167.124-.293.29-.335.29.084 0 .21-.166.335-.29zm1.17-.084a.873.873 0 01.252.166l-.251-.166zm8.28-.745c0-.042.042-.083.084-.125-.042.083-.084.125-.084.125zm.084-.125l.042-.082c0 .04-.042.082-.042.082z"/><path d="M78.865 23.13c0 .04 0 .04-.042 0v-.042c-.669-1.12-1.547.414-1.923.953-.711.953-1.38 1.864-2.133 2.734-.627.746-1.296 1.492-1.798 2.28 0 .082-.084.29-.084.29-.167.248-.418.455-.627.704-.376.373-.753.787-1.17 1.16-.628.58-4.14 3.853-4.6 1.74-.252-1.036.083-2.32.292-3.315.125-.538.25-1.036.334-1.574.084-.415-.041-.829.168-1.243.125-.249.167-.207.46-.29l.71-.249c.46-.166.92-.331 1.339-.58.627-.373 1.213-.829 1.756-1.285 1.296-1.077 2.676-2.361 3.22-3.977.293-.912.335-1.906-.25-2.693-.544-.705-1.465-1.078-2.3-1.243-2.259-.415-3.974.87-5.27 2.569-1.589 1.947-2.718 4.35-3.262 6.795-.292 1.201-.46 2.403-.669 3.646-.209 1.243-.334 2.403.335 3.563-.042-.414-.126-.787-.126-1.16 0-.207.084-.414.084-.58 0-.083-.084-.331-.084-.456 0-.373.084-.663.168-1.036.041-.373 0-.745.041-1.118.042-.415.21-.746.377-1.119.125-.331.167-.621.293-.953.125-.29.209-.622.334-.953.042-.207.251-.456.376-.704-.125.372-.376.704-.46 1.035-.125.498-.041 1.036-.083 1.534-.084.538-.251 1.077-.335 1.657-.083.539-.334 1.036-.418 1.574-.084.498-.25.87-.209 1.368 0 .29.042.58.084.828.041.332.25.54.46.788.71.828 1.672 1.491 2.76 1.781.752.208 1.421.166 2.132-.207 1.004-.538 1.882-1.367 2.635-2.154.71-.788 1.254-1.658 1.882-2.486.585-.746 1.296-1.45 1.881-2.197l2.259-2.9 1.296-1.699c.209-.248.334-.456.167-.787zm-10.37.455c.041-.083.041-.125.041-.125.627-1.325 1.088-2.734 1.966-4.019l.752-.994c.168-.207.46-.58.753-.663.627-.124.795.953.753 1.367l-.168.87c-.041.25.042.415 0 .622-.083.249-.292.373-.418.58l-.71.912a12.066 12.066 0 01-3.513 2.776c.209-.456.334-.912.543-1.326z"/><path d="M101.511 10.989c-.167-1.326-2.216-2.32-3.345-1.533-.92.621-1.756 2.32-2.425 3.314l-4.099 6.133c-.627.953-1.254 1.906-1.923 2.817-.167.29-1.757 2.735-1.757 2.735.168.041.544-.539.628-.622-1.13 1.575-2.593 3.232-3.973 4.807-.46.58-3.22 4.185-4.224 3.729-.334-.166-.418-.704-.46-.994-.334-2.197.502-4.392.753-6.506l-.167.415.25-1.036c0 .124-.041.248-.041.373l.042-.249-.126 1.243c.586-2.486 1.422-4.89 2.384-7.21.25-.58 2.676-6.588 3.178-7.126-.084.041-.209.207-.334.373.794-1.45 1.63-2.818 2.592-4.144-.209.332-.585.953-.585.953.167.042 1.84-2.237 1.84-2.486 0-.041-.126.042-.251.125.418-.54.71-.83.376-1.74-.502-1.037-1.965-2.321-3.178-1.7-.25.166-.418.373-.585.58-.879 1.12-1.59 2.57-2.175 3.812-.209.498-.376.58-.71.953-.544.622-.837 1.45-1.213 2.155-.753 1.492-1.339 3.066-2.008 4.6a32.245 32.245 0 00-1.672 4.35c-.21.58-.377 1.16-.544 1.74-.167.58-.753 1.657-.67 2.28l.252-.54c-.21.705-.377 1.45-.544 2.196-.042 0 .042-.538.042-.538-.167 0-.544 1.823-.627 2.072-.168.87-.293 1.74-.377 2.651-.041.953 0 1.823.46 2.694.879 1.533 2.468 3.024 4.182 3.563.293.083.627.166.92.124.293-.041.585-.165.795-.373.167-.083.836-.787.376-.456l.794-.745s-.376.456-.501.538c.209-.083.669-.704.669-.704 1.38-1.492 2.76-2.942 4.014-4.558 1.297-1.74 2.468-3.646 3.638-5.51-.334.994-.418 1.988-.71 2.983a23.355 23.355 0 00-.46 1.616c-.084.207-.168 1.201-.084 1.118 0 .125 0 .207-.042.29 0-.041 0-.082-.042-.124-.125.041-.125 1.285-.167 1.492-.167.58-.418 1.119-.502 1.781-.209 1.74-.084 3.771 1.004 5.263.669.911 1.672 1.408 2.802 1.491 1.212.042 1.881-.621 2.509-1.533.418-.621.794-1.16 1.045-1.864.21-.58.627-1.7.376-2.28-.167-.372-.25-.414-.585-.248-.46.166-1.004 1.16-1.296 1.533-.419.456-1.255 1.616-1.966 1.699-.418.041-.334-.041-.418-.539-.042-.29-.042-2.237 0-2.279-.126.166-.167.332-.21.498.168-1.368.754-3.025 1.172-4.475.502-1.7.878-3.398 1.338-5.097.502-1.74 1.17-3.48 1.882-5.138.167-.373 2.049-4.475 2.341-4.847-.292.207-1.798 3.356-2.3 4.392 1.004-2.362 2.175-4.641 3.639-6.796.042 0-.418.705-.335.705.126.083 1.129-1.45 1.046-1.492-.042 0-.084 0-.126.042.209-.208.46-.332.418-.746zM90.597 30.67c-.376 1.699-.795 3.978-.46 5.677-.376-1.906-.251-4.06.084-5.967.25-1.574.71-3.025 1.254-4.475-.46 1.657-.502 3.108-.878 4.765zm-6.984-15.745c1.171-2.776 2.844-5.304 4.6-7.707-1.756 2.486-3.178 5.18-4.432 7.956-.962 2.196-1.84 4.309-2.468 6.505.126-.58.251-1.16.46-1.74.502-1.7 1.171-3.357 1.84-5.014zm-.961 4.02a58.89 58.89 0 012.634-6.05c-.92 1.906-2.174 4.889-2.634 6.05zm13.256 2.734a8.385 8.385 0 01-.46 1.077l.753-1.906-.293.829zm-10.036-9.986v-.041.041zm3.136-5.47a.09.09 0 01-.084.084c.042 0 .084-.042.084-.083zm33.978 16.865c-.251.041-2.426.704-2.3 1.035 0 .042.083.083.125.083-.711.29-1.631.332-2.342.788-.794.538-1.547 1.077-2.383 1.533.752-1.285 1.463-2.652 1.923-4.02.168-.497 1.129-3.563.502-3.894-.084-.042-.125.331-.167.538.042-1.657-.502-4.184-2.76-4.35-1.38-.083-2.676 1.616-3.429 2.527-1.715 2.155-3.22 4.475-4.726 6.713-.418.621-4.599 7.334-4.599 7.334l.669-.953a29.183 29.183 0 00-1.088 1.947c.168-.622 1.757-5.552 2.76-8.453.084-.124.126-.29.168-.414l.251-.704v.041c.376-1.119.752-2.237 1.087-3.398 0 .125-.168.746-.126.746.251.042.586-1.699.418-1.699l-.125.208c.125-.622.335-.912-.042-1.616-.293-.622-.794-1.202-1.505-1.368-1.38-.373-2.049.746-1.966 1.823 0 .166.209.249.209.415 0 .207-.209.58-.25.746-.293.87-.502 1.698-.837 2.527-.167.456-1.714 4.765-1.714 4.765.083-.041.125-.124.167-.207-.126.373-.251.746-.418 1.119-.042-.042.125-.332.042-.332-.419-.083-1.464 3.398-1.548 3.73a16.124 16.124 0 01-.669 2.32c-.125.414-.293.828-.418 1.284 0 .041-.209 1.036 0 .663-.042.124-.084.207-.084.29 0-.041-.041-.083-.041-.124-.126.041-.21.911-.21.953-.167.456-.376.787-.585 1.201-.543 1.326-.836 2.776-1.045 4.185-.335 2.155-1.339 5.387-.251 7.376.376.704 1.547 2.154 2.467 1.284.418-.414.418-1.367.46-1.865.25-1.367.46-2.776.753-4.143l.376-1.906c.042-.083.376-1.616.25-1.575a.901.901 0 00-.208.332c.209-.663.502-1.285.753-1.989.334-.994.585-1.947 1.087-2.859.585-.911 1.087-1.906 1.631-2.817.418-.746.794-1.7 1.254-2.32.126-.166.377-.25.586-.415.418-.456.711-1.077 1.045-1.575.627-.994 1.171-1.988 1.84-2.9.293-.414 3.638-5.055 3.973-5.345a.861.861 0 00-.251.166c.334-.415.711-.788 1.045-1.119.042.041-.251.29-.209.331.084.042 2.007-1.45 2.342-1.491.92-.166.585 1.574.46 2.03-.209.953-.753 1.865-1.213 2.693-.251.456-.502.87-.711 1.326-.041.042-.376.829-.251.746l-.25.373c.083-.124.125-.29.125-.29-.167 0-.376.704-.418.829-.251.414-.586.745-.92 1.077-.878.994-1.673 2.03-2.551 2.983-.669.705-1.547 1.948-2.551 2.196-.711.166-1.254-.207-.878.912.251.787 1.171 2.61 2.174 2.61.92 0 2.05-1.367 2.593-1.947.627-.705 1.338-1.368 2.007-2.113.168-.249 2.091-2.528 2.384-2.652h-.042c.418-.207.837-.042 1.422-.456.335-.249.502-.497.878-.746.293-.166.418-.373.544-.497 0 0 0 .041.042.041.418-.414 1.003-.29 1.547-.663.669-.455 1.505-1.035 2.091-1.574.752-.663 1.798-1.036 2.132-2.155-.167.042-.376.042-.501.125zm-21.411 4.226v.041c-.042.539-.418 1.16-.627 1.658a51.98 51.98 0 00-.795 2.361 61.975 61.975 0 01-1.84 4.89 33.472 33.472 0 00-1.422 4.226c.46-2.03 1.213-4.019 1.799-5.925.543-1.74 1.38-3.44 2.049-5.138.083-.207.878-1.864.794-2.196.042.041.042.083.042.083zm1.84 1.243a10.58 10.58 0 01-.418 1.367c.125-.414.251-.911.418-1.367zm5.729-6.795l-.795 1.16c.251-.373.502-.787.795-1.16zm6.816 5.013c.042-.124.251-.165.377-.248l-.377.248zm-9.994-4.848c-.042.042-.084.166-.126.332l.126-.332zm-.293.705l.167-.373-.167.373zm2.175 1.036v-.042c.041-.041.041-.041.041-.083.042-.041 0 .042-.041.125zm-2.175-1.036c0 .083-.042.124-.083.166l.083-.166zm-8.865 18.231c0-.041 0-.041.042-.083 0 .042 0 .042-.042.083zm6.858-12.803c0 .041-.042.041-.042.041l.042-.041z"/><path d="M136.991 23.626c-.126-.58-.46-.663-.879-.497-.794.373-1.589 1.202-2.341 1.699-1.715 1.077-3.429 1.947-5.269 2.859 0-.042-.042-.125-.084-.249.042.207 0 .29-.042.332-.418-1.782-.836-3.564-1.171-5.387.167.788.544 2.113.837 3.232-.377-1.74-.837-3.895-.795-3.895-.084.042-.084.125-.084.207-.083-.497-.209-1.118-.125-1.657.042-.621.376-1.16.585-1.74-.041.29-.125.663-.125.663.251.041.418-1.492.418-1.658-.042-.248-.585-1.035-.585-.828-1.129-1.036-3.346 1.243-3.68 2.237-.251.663-.251 1.367-.209 2.072.041.704.251 1.326.46 1.989.125.497-.042.828 0 1.367.083.829.376 1.657.543 2.445.168.621.711 1.864.586 2.444-.084.58-1.338 1.078-1.882 1.41-.711.455-1.422.994-2.133 1.532-1.254.953-2.592 2.155-3.094 3.688-.084.207-.377 1.119-.084 1.284.042.042.167-.663.209-.745-.543 2.734 2.175 4.06 4.726 4.102 2.885.082 4.892-1.575 5.896-4.144.418-1.119.543-2.279.502-3.439 0-.787-.084-1.533-.209-2.279-.084-.663-.168-.621.292-.994.335-.249.837-.415 1.171-.58 1.338-.705 2.551-1.534 3.764-2.404.878-.621 2.969-1.698 2.802-3.024v-.042zM120.096 37.88c-1.087-.332 0-2.03.377-2.57.627-.828 1.547-1.45 2.383-2.03l1.255-.828c.125-.083.92-.705.669-.622l.502-.29-.293.249c.084-.042.209-.083.293-.166.041.995.041 1.989-.251 2.983-.042.166-.837 1.823-1.171 2.155l.209-.166a4.756 4.756 0 01-1.296 1.119c0-.041.376-.29.334-.331l-1.171.455c-.585.125-1.254.249-1.84.042zm5.269 1.201a9.04 9.04 0 01-3.262.705c2.05-.125 4.182-1.119 5.395-2.818-.46.912-1.045 1.616-2.133 2.113zm3.053-11.767a10.08 10.08 0 00-.251-1.16c.084.456.167.911.251 1.16zm.544 4.31c-.042-.042-.042-.125-.042-.208 0 .083.042.166.042.207z"/></g><defs><filter id="filter0_d_3405_2722" x="0" y="0" width="141" height="58" filterUnits="userSpaceOnUse" color-interpolation-filters="sRGB"><feFlood flood-opacity="0" result="BackgroundImageFix"/><feColorMatrix in="SourceAlpha" values="0 0 0 0 0 0 0 0 0 0 0 0 0 0 0 0 0 0 127 0" result="hardAlpha"/><feOffset dy="4"/><feGaussianBlur stdDeviation="2"/><feComposite in2="hardAlpha" operator="out"/><feColorMatrix values="0 0 0 0 0 0 0 0 0 0 0 0 0 0 0 0 0 0 0.25 0"/><feBlend in2="BackgroundImageFix" result="effect1_dropShadow_3405_2722"/><feBlend in="SourceGraphic" in2="effect1_dropShadow_3405_2722" result="shape"/></filter></defs></svg>