<svg width="71" height="162" fill="none" xmlns="http://www.w3.org/2000/svg"><g clip-path="url(#clip0_2248_12817)"><path d="M37.447 29.386c-.655 0-1.34-.088-2.018-.319-2.272-.762-3.948-2.08-4.013-2.134-.194-.154-.607-.485-1.227-.638-.283-.071-.761-.19-1.115-.018-.177.083-.248.195-.42.508-.153.284-.341.645-.713.952-.897.75-2.272.775-4.196.071a.834.834 0 01-.484-.455c-.62-1.443-1.522-2.554-2.673-3.31-1.434-.94-2.885-1.07-4.136-1.124-5.229-.219-11.596.45-14.93.863a.834.834 0 01-.932-.715l-.584-4.268a.827.827 0 01.23-.698.829.829 0 01.69-.248c5.825.644 10.534.095 14.41-1.69 4.68-2.153 7.967-6.38 8.38-10.766a.842.842 0 01.909-.756c.46.041.796.449.755.91-.466 4.966-4.13 9.73-9.341 12.13-3.913 1.803-8.58 2.436-14.227 1.94l.324 2.388c3.535-.42 9.442-.976 14.38-.775 1.063.042 3.04.124 4.981 1.395 1.322.864 2.402 2.14 3.145 3.707 1.08.349 1.883.39 2.225.1.112-.094.195-.236.307-.455.206-.384.484-.91 1.186-1.235.897-.42 1.794-.195 2.224-.089.974.242 1.611.75 1.853.94.03.024 1.54 1.206 3.523 1.874 2.19.733 4.52-.443 5.394-.887a9.34 9.34 0 002.968-2.37.834.834 0 011.08-.178c1.74 1.076 3.764 1.49 6.39 1.319a.834.834 0 01.891.78.84.84 0 01-.779.893c-2.69.183-4.862-.201-6.768-1.212a10.89 10.89 0 01-3.027 2.264c-.72.366-2.567 1.3-4.668 1.3l.006.006z" fill="#408F95"/><path d="M35.53 91.204h-.048l-2.089-.113a.712.712 0 01-.194-.035c-2.007-.603-3.252-1.65-3.712-3.098-.283-.887-.177-1.655-.1-2.276.053-.396.1-.739.005-.892-.017-.036-.519-.787-4.402.59a.835.835 0 01-.932-1.306l.761-.97c2.396-3.055 4.16-5.296 4.326-6-.224-.118-.773-.26-1.228-.378-.908-.236-2.148-.555-3.6-1.218a.843.843 0 01-.047-1.507c1.375-.733 3.978-2.749 6.45-5.445.018-.023.042-.041.06-.059.035-.035.14-.136.294-.29 1.464-1.418 2.431-2.346 3.092-2.95-.123-.047-.241-.088-.354-.135-1.67-.627-2.897-1.112-3.458-1.661a.853.853 0 01-.241-.745.85.85 0 01.471-.62 13.811 13.811 0 004.314-3.134 15.568 15.568 0 001.83-2.377 5.756 5.756 0 00-.526-1.063 4.805 4.805 0 00-1.257-1.325.844.844 0 01-.36-.668c0-.266.118-.52.325-.686a46.83 46.83 0 004.343-3.789c1.664-1.643 2.254-2.489 2.177-3.133-.053-.431-.053-.467 2.827-5.273 2.484-4.15 6.243-10.422 8.309-14.75a.838.838 0 011.115-.395.84.84 0 01.395 1.117c-2.1 4.398-5.877 10.706-8.38 14.885-1.191 1.992-2.324 3.878-2.584 4.422.06 1.348-.873 2.536-2.685 4.321a47.78 47.78 0 01-3.688 3.281c.319.325.608.68.862 1.076a7.05 7.05 0 01.838 1.839.853.853 0 01-.083.668 17.383 17.383 0 01-2.242 2.985 15.767 15.767 0 01-3.429 2.773c.567.242 1.222.484 1.706.668.967.36 1.504.567 1.817.774a.842.842 0 01-.142 1.496c-.265.207-1.127.963-3.83 3.588-.1.1-.2.195-.294.278-1.93 2.104-3.919 3.8-5.447 4.883.685.23 1.298.39 1.83.532 1.227.319 2.118.55 2.413 1.424.378 1.118-.425 2.253-3.77 6.527 1.622-.331 3.168-.284 3.853.875.389.65.295 1.353.212 1.968-.07.52-.136 1.017.035 1.549.278.869 1.122 1.531 2.508 1.968l1.989.107a.838.838 0 01-.041 1.673l.005.023zm-8.964-78.341a2.151 2.151 0 01-1.782-.928 2.16 2.16 0 01-.354-1.62c.1-.567.419-1.064.89-1.395a2.15 2.15 0 011.618-.354 2.16 2.16 0 011.747 2.512 2.156 2.156 0 01-.892 1.395 2.15 2.15 0 01-1.233.39h.006zm0-2.66a.47.47 0 00-.277.089.503.503 0 00-.201.313c-.024.13 0 .26.083.367a.5.5 0 00.318.2c.13.024.26 0 .366-.082a.503.503 0 00.2-.313c.024-.13 0-.26-.076-.367a.5.5 0 00-.319-.2c-.03 0-.059-.007-.088-.007h-.006z" fill="#408F95"/><path d="M58.69 101.135c-.058 0-.117 0-.17-.018a.837.837 0 01-.661-.769c-.183-2.944-2.237-5.604-4.998-6.467-2.249-.71-4.432.018-5.984 1.98a.835.835 0 01-1.174.137.838.838 0 01-.136-1.177c2.006-2.536 4.845-3.464 7.795-2.536 2.597.816 4.686 2.909 5.636 5.462.4-.81.838-1.66 1.192-2.258.36-.597.702-1.235 1.026-1.856.431-.81.88-1.65 1.393-2.441.755-1.165 1.705-2.288 2.632-3.376 2.29-2.69 4.45-5.226 4.036-8.572-.142-1.14-.502-2.388-.88-3.712-.784-2.743-1.651-5.776-.648-8.442a165.328 165.328 0 01-12.009 4.014.828.828 0 01-.755-.148.844.844 0 01-.319-.697c.089-1.697 1.133-3.204 2.585-3.996a6.218 6.218 0 01-1.517-1.815c-.802-1.437-.997-3.098-.548-4.558.442-1.437 1.522-2.684 2.956-3.423a6.302 6.302 0 012.467-.686c-1.877-3.168-2.225-7.23-.815-10.646a.83.83 0 01.549-.485.824.824 0 01.72.13l.826.609c-.909-4.286-1.747-11.534 3.068-15.069-1.911-1.176-3.15-3.476-2.89-5.734.194-1.696 1.61-3.186 2.66-4.138-2.395-.828-6.178-2.684-7.57-3.79-1.281-1.016-1.617-2.476-.927-3.996a5.28 5.28 0 01.437-.756c-1.741-.384-4.025-1.33-5.43-2.873-.489-.45-.59-.946-.583-1.289.011-.638.395-1.2.82-1.643a24.4 24.4 0 00-.956-.373.837.837 0 01.56-1.578c.455.165.974.372 1.405.55.183.077.395.16.549.224h.012a.89.89 0 01.814.538.77.77 0 01.047.48.792.792 0 01-.1.3c-.106.184-.23.296-.372.355-.035.03-.07.06-.106.083-.82.668-.98.958-.997 1.076a474 474 0 01.118.118c1.646 1.833 4.75 2.53 5.7 2.56.2-.095.395-.13.584-.095a.884.884 0 01.702.798.885.885 0 01-.72.922c-.377.338-1.103 1.2-1.162 2.028-.018.302.023.763.643 1.253 2.425 1.928 7.358 3.624 8.214 3.884.301.036.59.219.714.485.29.615-.165 1.005-.69 1.454-.761.657-2.55 2.194-2.709 3.606-.236 2.022 1.298 4.168 3.27 4.588a.835.835 0 01.654.727.835.835 0 01-.478.851c-4.349 2.04-5.381 7.354-3.15 16.257a.836.836 0 01-1.305.88l-1.747-1.276c-.926 3.24-.165 6.934 2.036 9.494a.827.827 0 01.06 1.01.833.833 0 01-.957.332c-1.003-.331-2.177-.213-3.216.325-1.038.538-1.811 1.419-2.124 2.43-.319 1.022-.165 2.204.413 3.239.584 1.046 1.523 1.803 2.567 2.075a.839.839 0 01-.206 1.65h-.054c-1.127 0-2.218.72-2.779 1.702a166.794 166.794 0 0012.758-4.44.838.838 0 01.915 1.36c-2.308 2.418-1.375 5.657-.39 9.092.395 1.383.773 2.695.932 3.966.508 4.08-2 7.023-4.42 9.867-.932 1.093-1.805 2.122-2.501 3.192-.472.739-.885 1.507-1.322 2.323-.337.639-.69 1.295-1.074 1.933-.59.982-1.481 2.856-1.906 3.754-.142.29-.236.503-.278.58a.836.836 0 01-.743.449l.012.006zM27.752 5.752a.839.839 0 01-.147-1.661l12.067-2.188a.839.839 0 01.3 1.65L27.906 5.74c-.047.012-.1.012-.147.012h-.006z" fill="#408F95"/><path d="M52.984 91.806a.82.82 0 01-.495-.165.834.834 0 01-.177-1.17c5.086-6.923 5.818-9.01 5.848-9.093.79-2.553.672-5.486-.343-8.713a.837.837 0 111.6-.503c1.12 3.559 1.233 6.834.342 9.725-.071.224-.832 2.418-6.096 9.582a.835.835 0 01-.673.343l-.006-.006zm-19.13 37.042h-.071a.833.833 0 01-.82-.851.838.838 0 01.837-.822h.06c.318 0 .885-.065 1.374-.455.679-.544.915-1.496.756-2.105-.301-1.158-1.712-2.075-3.37-2.211-.035 0-.076 0-.118-.006a.842.842 0 01-.767-.898.833.833 0 01.885-.775c.036 0 .077 0 .112.006 1.552.095 2.774-.549 3.045-1.247.148-.378.071-.887-.206-1.395-.472-.857-1.399-1.519-2.526-1.821a5.866 5.866 0 01-.442-.1.835.835 0 01-.602-.994.834.834 0 01.968-.638c.147.03.3.059.442.1.944.172 1.735.001 2.301-.484.573-.491.885-1.301.832-2.134-.365-.911-1.103-1.265-2.254-1.756-.725-.307-1.475-.627-2.136-1.194a.837.837 0 01.254-1.425c.502-.183 1.056-.319 1.593-.443 1.611-.39 2.65-.704 2.892-1.614a9.695 9.695 0 00-4.054-3.919.843.843 0 01-.437-.929.837.837 0 01.785-.656c2.036-.077 3.416-1.454 3.393-2.648-.024-1.029-1.145-1.809-1.275-1.892a.838.838 0 01-.23-1.164.837.837 0 011.163-.23c.46.306 1.976 1.46 2.018 3.25.035 1.502-1.063 3.122-2.886 3.902a11.369 11.369 0 013.145 3.766.839.839 0 01.089.479c-.236 2.11-2.113 2.766-3.7 3.168l.047.018c1.216.52 2.597 1.105 3.21 2.831.024.066.036.131.047.196.148 1.43-.377 2.802-1.398 3.682a3.843 3.843 0 01-.832.544c.43.385.797.828 1.062 1.313.525.946.637 1.974.301 2.82-.271.691-.826 1.265-1.558 1.667.909.614 1.57 1.46 1.824 2.423.348 1.324-.213 2.944-1.328 3.843-.88.703-1.865.822-2.42.822l-.005-.024z" fill="#408F95"/><path d="M31.67 147.925a.837.837 0 01-.543-1.472c.207-.178.337-.438.355-.716a.888.888 0 00-.219-.662.84.84 0 01-.1-.975.828.828 0 01.891-.402c.679.142 1.31-.402 1.517-.981.253-.722-.272-.988-.443-1.076a.84.84 0 01-.43-.952.825.825 0 01.831-.633h.03c.767 0 .838-.762.838-.916.006-.154 0-.928-.785-.969a.836.836 0 01-.79-.828.835.835 0 01.772-.845c1.039-.083 1.045-1.153 1.045-1.271 0-.124-.053-1.189-1.098-1.23a.836.836 0 01-.802-.768.843.843 0 01.66-.893c.65-.136.915-.692.95-1.171.03-.484-.159-1.075-.79-1.306a.837.837 0 01-.508-1.07.83.83 0 011.068-.508c1.228.437 1.995 1.643 1.9 2.997a3.046 3.046 0 01-.672 1.72c.613.556.944 1.377.962 2.181.017.787-.26 1.597-.827 2.176.42.514.614 1.182.59 1.844-.029.787-.383 1.573-1.026 2.052.307.585.348 1.288.1 2.009-.307.875-1.068 1.679-2.024 1.993.03.189.041.384.024.585a2.707 2.707 0 01-.927 1.868.84.84 0 01-.549.201v.018zm10.893-12.539a.824.824 0 01-.419-.112c-.483-.284-1.652-1.111-2.047-2.642-.112-.438-.455-1.78.348-2.767.584-.721 1.44-.84 2.089-.881-.307-.372-.714-.863-1.192-1.578-.814-1.218-1.068-1.922-.962-2.672.13-.911.714-1.484.938-1.703.685-.674 1.464-.934 2.09-1.07a6.975 6.975 0 01-1.34-1.401 6.62 6.62 0 01-1.056-2.347.842.842 0 01.082-.597c.313-.567 1.222-1.945 3.004-2.542.136-.047.271-.083.407-.118a10.047 10.047 0 01-.773-.887 9.903 9.903 0 01-1.487-2.749.867.867 0 01-.018-.49c.118-.438.508-1.537 1.611-2.199a3.493 3.493 0 011.564-.479c-1.375-2.359-1.664-4.375-.69-5.392.442-.461 1.362-.916 3.239-.443a.838.838 0 01-.407 1.626c-1.292-.325-1.623-.024-1.623-.024-.342.361-.082 2.27 2.065 5.066a.842.842 0 01-.047 1.082.834.834 0 01-1.074.13c-.69-.449-1.54-.502-2.165-.124-.437.26-.667.668-.78.958a8.133 8.133 0 003.405 4.026.838.838 0 01-.625 1.537 3.673 3.673 0 00-2.065.076c-.992.331-1.593 1.029-1.906 1.484a4.9 4.9 0 00.702 1.443c.43.603.92.987 1.316 1.3.495.39 1.11.869.914 1.638-.188.762-.944.898-1.498.999-.55.1-1.175.212-1.67.703-.13.13-.407.402-.455.751-.017.136-.053.384.69 1.501.479.716.886 1.2 1.18 1.549.473.562.916 1.094.638 1.786-.3.768-1.11.809-1.7.839-.43.024-.914.047-1.103.278-.124.154-.23.502-.023 1.294.236.917.967 1.431 1.268 1.608a.84.84 0 01.301 1.147.834.834 0 01-.72.414l-.006-.018z" fill="#408F95"/><path d="M48.53 103.559a.85.85 0 01-.467-.142 8.843 8.843 0 01-3.092-3.766 8.115 8.115 0 01-.643-2.843.834.834 0 01.808-.864c.449-.03.85.35.862.81.023.74.2 1.514.507 2.24a7.074 7.074 0 002.484 3.033.84.84 0 01.225 1.165.83.83 0 01-.697.372l.012-.005zm-23.144 58.08c-.525 0-1.098-.195-1.723-.579a.837.837 0 01-.272-1.153.83.83 0 011.151-.272c.502.308.82.361.95.313.053-.023.095-.088.23-.348.19-.373.466-.934 1.151-1.366 1.003-.638 2.201-.579 2.337-.567.248.017.448.053.602.088 0-.035.005-.071.011-.106.048-.414.107-.981.496-1.478.407-.526 1.039-.828 1.912-.899a3.23 3.23 0 01.49-2.352 3.241 3.241 0 011.634-1.254c-.448-1.176-.277-2.488.555-3.275a2.504 2.504 0 011.21-.62 3.722 3.722 0 01.419-2.726c.454-.786 1.133-1.359 1.917-1.649-.377-.615-.66-1.383-.495-2.217.136-.691.625-1.342 1.25-1.69a3.671 3.671 0 01-.1-2.324c.378-1.353 1.458-2.358 2.81-2.613a.84.84 0 01.313 1.65c-.733.136-1.3.668-1.506 1.419-.206.744 0 1.489.55 1.992a.835.835 0 01.1 1.135.831.831 0 01-1.122.189c-.03-.024-.07-.047-.177 0-.206.089-.43.355-.472.573-.124.645.531 1.419 1.039 1.945a.837.837 0 01-.697 1.413c-.95-.1-1.628.461-1.959 1.023-.33.567-.472 1.448.095 2.223a.846.846 0 01.03.957.83.83 0 01-.886.361c-.006 0-.785-.172-1.162.189-.378.361-.455 1.36.295 2.17.242.26.295.638.13.951a.833.833 0 01-.85.45 1.6 1.6 0 00-1.523.673 1.588 1.588 0 00.047 1.803.847.847 0 01.042.917.851.851 0 01-.82.408c-1.057-.124-1.588.029-1.735.218-.1.125-.124.385-.154.639-.053.467-.13 1.17-.808 1.531-.454.236-.844.13-1.104.059-.141-.035-.271-.071-.472-.083-.212-.017-.873.018-1.34.314-.288.183-.4.402-.548.697-.189.379-.448.899-1.11 1.159a1.942 1.942 0 01-.72.136l-.011-.024zm-3.364-6.887a.835.835 0 01-.767-.502.846.846 0 01.43-1.105c1.695-.739 2.946-2.312 3.347-4.215.3-1.413.053-2.749-.72-3.861-.844-1.212-2.26-2.045-3.889-2.287-1.906-.278-3.83.254-5.263 1.472a5.88 5.88 0 00-2.107 4.41.842.842 0 01-.838.821h-.018a.846.846 0 01-.82-.857 7.514 7.514 0 012.697-5.651 8.318 8.318 0 016.591-1.851c2.083.308 3.912 1.395 5.022 2.986 1.026 1.478 1.375 3.316.98 5.166-.52 2.43-2.13 4.452-4.314 5.404a.836.836 0 01-.33.07z" fill="#408F95"/><path d="M20.73 158.152c-2.508 0-5.087-1.023-6.922-2.826-1.994-1.957-2.826-4.481-2.33-7.094a.842.842 0 01.979-.668c.454.089.75.526.667.981-.39 2.046.271 4.026 1.858 5.581 1.895 1.862 4.727 2.719 7.217 2.199a.837.837 0 01.348 1.638 8.812 8.812 0 01-1.811.183l-.006.006z" fill="#408F95"/><path d="M19.998 162c-2.98 0-5.96-1.135-8.35-3.287-3.393-3.056-5.104-7.531-4.46-11.681.749-4.853 4.856-8.997 9.995-10.079 5.193-1.1 10.469 1.466 12.835 6.225 2.484 5.001.26 11.232-4.957 13.892a10.41 10.41 0 01-1.782.715.837.837 0 01-.472-1.608 8.31 8.31 0 001.499-.603c4.402-2.246 6.296-7.472 4.219-11.651-1.994-4.014-6.615-6.255-10.993-5.333-4.473.946-8.043 4.523-8.687 8.696-.554 3.6.95 7.502 3.93 10.18 3.045 2.737 7.176 3.582 10.775 2.205a.837.837 0 11.596 1.566 11.506 11.506 0 01-4.142.763h-.006z" fill="#408F95"/><path d="M29.935 150.75a.839.839 0 01-.236-1.643c.408-.118.555-.248.573-.29.012-.059-.06-.266-.095-.384-.124-.384-.312-.958.06-1.519.194-.29.59-.639 1.398-.662.466-.03.85.343.867.81a.839.839 0 01-.731.863c.112.354.289.886.076 1.472-.218.614-.785 1.064-1.676 1.324a.838.838 0 01-.236.035v-.006zm-12.091 4.665h-.507a24.209 24.209 0 01-1.889-.107 23.662 23.662 0 01-1.8-.254.839.839 0 01.302-1.649 20.61 20.61 0 003.416.337c.59.011 1.133 0 1.523-.024 1.009-.065 2.071-.319 3.163-.739a.837.837 0 01.602 1.561c-1.251.484-2.485.774-3.659.851-.319.024-.72.029-1.157.029l.006-.005zm13.1-150.798a.83.83 0 01-.773-.52 4.393 4.393 0 01-.324-1.72 75.206 75.206 0 01-4.733 2.128.835.835 0 01-1.091-.462.836.836 0 01.46-1.093 72.812 72.812 0 006.16-2.861.832.832 0 01.968.141.83.83 0 01.171.964 2.851 2.851 0 00-.065 2.264.84.84 0 01-.773 1.159zm20.642 1.318a.83.83 0 01-.702-.384.84.84 0 01.254-1.159c.047-.03.094-.059.147-.089a3.95 3.95 0 01-.602-.496 3.153 3.153 0 01-.873-1.626 29.29 29.29 0 01-8.899 1.313.833.833 0 01-.826-.846c0-.46.378-.827.838-.827h.006A27.151 27.151 0 0050.459.2a.837.837 0 011.031 1.16c-.194.39.048.945.372 1.27.46.462 1.157.734 1.836 1a.84.84 0 01-.171 1.608 4.004 4.004 0 00-1.494.573.838.838 0 01-.448.13v-.006z" fill="#408F95"/><path d="M36.131 94.782h-.18a1.569 1.569 0 01-.258-.055.345.345 0 01-.227-.424.343.343 0 01.424-.226h.002c.286.084.566-.002.758-.11.2-.11.395-.293.504-.536.234-.514.088-1.154-.23-1.588-.338-.465-.887-.789-1.503-.952h0a.338.338 0 01-.24-.41v-.002a.336.336 0 01.408-.24h.003c.808.212 1.47.65 1.871 1.195h0l.001.002c.51.688.61 1.585.3 2.27h0c-.297.66-.969 1.076-1.633 1.076z" fill="#1C595E" stroke="#000"/></g><defs><clipPath id="clip0_2248_12817"><path fill="#fff" d="M0 0h71v162H0z"/></clipPath></defs></svg>