<svg width="437" height="201" fill="none" xmlns="http://www.w3.org/2000/svg"><g clip-path="url(#clip0_2248_12378)" fill="#408F95"><path d="M92.84 22.335c-.38 0-.745-.213-.919-.576-.546-1.13-.76-2.26-.65-3.35.579-5.578 9.248-8.36 15.582-10.39 6.682-2.14 13.761-3.373 21.029-3.658.538-.04 1.037.411 1.061.98.023.56-.42 1.035-.982 1.059-7.086.276-13.974 1.47-20.482 3.555-5.139 1.651-13.745 4.409-14.18 8.667-.072.719.079 1.477.459 2.267a1.017 1.017 0 01-.919 1.462v-.016zm114.192 6.234h-.119a27.22 27.22 0 01-4.869-1.02c-2.114-.647-3.69-1.437-4.355-1.77l-.221-.11a282.818 282.818 0 00-22.114-9.567c-6.864-2.623-12.295-4.701-19.595-6.518a123.992 123.992 0 00-23.713-3.485 1.017 1.017 0 11.103-2.03 125.64 125.64 0 0124.109 3.547c7.426 1.85 12.897 3.943 19.833 6.59a285.44 285.44 0 0122.271 9.63l.246.119c.681.34 2.098 1.05 4.045 1.651 1.473.45 2.985.766 4.505.94a1.014 1.014 0 01-.118 2.022h-.008z"/><path d="M111.683 40.356a1.09 1.09 0 01-.467-.11c-1.75-.909-4.363-2.3-6.841-3.785-.657-.395-1.884-1.122-3.468-2.188a44.107 44.107 0 01-1.544-1.075 67.05 67.05 0 01-5.566-4.432 1.218 1.218 0 01-.134-.15 17.77 17.77 0 00-.396-.482c-1.79-2.165-3.476-4.416-2.771-6.028.221-.514.768-1.138 2.082-1.209.57-.04 1.045.395 1.077.956a1.018 1.018 0 01-.958 1.074c-.166.008-.27.032-.333.048 0 .363.372 1.32 2.478 3.863.159.19.285.348.38.466a67.249 67.249 0 005.329 4.235c.53.38 1.029.72 1.496 1.043 1.536 1.035 2.732 1.746 3.373 2.133a134.077 134.077 0 006.73 3.721c.499.261.697.87.435 1.375a1.026 1.026 0 01-.902.553v-.008zm40.592 5.934c-9.96 0-19.524-1.122-19.643-1.138a164.19 164.19 0 01-18.012-3.287 1.015 1.015 0 11.475-1.975 160.32 160.32 0 0017.782 3.24c.127.015 13.595 1.596 25.091.98a80.393 80.393 0 0010.744-1.304c1.591-.3 2.454-.514 6.072-1.39l4.378-1.067c1.433-.348 2.684-.664 3.793-.94 3.309-.83 5.495-1.383 7.616-1.533 3.144-.221 6.35.047 9.517.806.546.126.887.679.752 1.224a1.01 1.01 0 01-1.227.75 29.62 29.62 0 00-8.899-.75c-1.948.135-3.951.64-7.26 1.478-1.117.284-2.376.6-3.809.948l-4.378 1.066c-3.571.87-4.529 1.106-6.175 1.414a84.306 84.306 0 01-11.014 1.336c-1.908.102-3.863.142-5.803.142zm57.963-17.65c-.435 0-.839-.284-.973-.719a1.015 1.015 0 01.673-1.272c2.375-.727 14.758-4.44 24.963-5.941 4.98-.735 8.63-.806 12.604-.253a39.67 39.67 0 013.864.743c.546.134.879.687.744 1.232a1.01 1.01 0 01-1.235.743 37.516 37.516 0 00-3.665-.703c-3.769-.53-7.253-.459-12.027.245-10.055 1.485-22.311 5.15-24.663 5.878a.996.996 0 01-.3.047h.015zm29.326 36.975c-.071 0-.142 0-.213-.024-4.561-.98-12.32-4.748-15.154-7.348-2.447-1.825-4.402-3.27-6.065-4.503-5.756-4.259-8.139-6.013-15.7-12.365a1.02 1.02 0 01-.127-1.43 1.026 1.026 0 011.433-.126c7.514 6.305 9.881 8.059 15.605 12.285 1.679 1.24 3.65 2.695 6.12 4.543.032.024.056.048.088.072 2.549 2.37 9.999 5.972 14.235 6.88.554.12.903.657.784 1.21a1.023 1.023 0 01-.998.806h-.008z"/><path d="M239.564 65.615a1.02 1.02 0 01-.744-.324c-2.652-2.82-6.057-7.569-7.189-14.174-.34-1.975-1.132-6.597.728-11.85 1.703-4.796 4.672-7.57 8.108-10.785a46.244 46.244 0 0110.197-7.198 1.017 1.017 0 11.95 1.801 44.246 44.246 0 00-9.746 6.882c-3.373 3.153-6.041 5.65-7.577 9.979-1.686 4.756-.958 9.014-.641 10.832 1.045 6.107 4.204 10.507 6.666 13.122a1.012 1.012 0 01-.047 1.438 1.04 1.04 0 01-.697.277h-.008zM225.337 33.83a.994.994 0 01-.792-.379 1.016 1.016 0 01.15-1.43 27.702 27.702 0 015.645-3.531 28.1 28.1 0 017.649-2.331 1.018 1.018 0 11.308 2.015 25.888 25.888 0 00-12.327 5.443c-.19.15-.412.23-.641.23l.008-.017zm4.172 22.083c-.214 0-.435-.071-.625-.213-2.201-1.7-6.113-5.357-7.506-10.777-.428-1.675-1.33-5.167.245-8.73.222-.498.483-.988.776-1.446a1.016 1.016 0 011.41-.3c.475.308.609.932.3 1.406a7.834 7.834 0 00-.625 1.161c-1.291 2.924-.538 5.84-.135 7.411 1.243 4.836 4.783 8.138 6.778 9.67.443.34.53.98.182 1.43a1.006 1.006 0 01-.808.396l.008-.008zM129.054 34.075c-.214 0-.428 0-.65-.015-4.631-.198-7.909-2.426-9.453-3.737a1.013 1.013 0 01-.119-1.43 1.018 1.018 0 011.433-.119c1.346 1.146 4.204 3.081 8.218 3.255 4.03.166 6.77-1.517 8.583-2.639.99-.616 1.37-.987 1.496-1.153-.301-.34-1.599-.932-5.811-1.683-3.785-.671-7.767-.837-11.837-.49a1.018 1.018 0 01-1.1-.924 1.012 1.012 0 01.926-1.098c4.244-.364 8.409-.19 12.367.513 3.872.688 7.363 1.486 7.53 3.587.079.956-.673 1.849-2.502 2.979-1.813 1.122-4.79 2.954-9.089 2.954h.008z"/><path d="M111.144 35.553c-.356 0-.704-.19-.894-.522a1.012 1.012 0 01.395-1.382c3.128-1.73 5.733-4.046 7.751-6.858a22.622 22.622 0 002.645-4.843 1.02 1.02 0 011.322-.569c.523.205.776.798.57 1.32a24.999 24.999 0 01-2.882 5.27c-2.193 3.065-5.027 5.577-8.416 7.457a1.01 1.01 0 01-.491.127zm-9.366-20.186a1.62 1.62 0 011.868-1.328 1.619 1.619 0 11-.538 3.192 1.618 1.618 0 01-1.33-1.864zm45.683 38.349a37.884 37.884 0 01-5.225-.426 37.36 37.36 0 01-6.912-1.739c-8.234-2.923-12.739-5.443-20.197-9.615a1.016 1.016 0 11.997-1.77c7.617 4.26 11.813 6.606 19.889 9.473a35.952 35.952 0 006.532 1.644c1.615.245 3.254.38 4.885.403 1.86-.071 2.755-.324 3.159-.506-.499-.34-1.774-1.003-4.965-2.007a1.015 1.015 0 11.61-1.935c5.131 1.611 6.864 2.718 6.627 4.21-.301 1.865-3.23 2.19-5.408 2.276l.008-.008z"/><path d="M150.573 49.276a31.8 31.8 0 01-1.805-.063c-8.179-.505-14.782-2.244-15.059-2.323a91.898 91.898 0 01-9.176-2.978 1.021 1.021 0 01-.586-1.312 1.025 1.025 0 011.314-.584 90.575 90.575 0 008.97 2.915c.27.071 6.675 1.762 14.655 2.252 1.837.11 3.817.158 6.136-.664a12.988 12.988 0 003.547-1.92 1.016 1.016 0 011.426.198 1.01 1.01 0 01-.198 1.422 15.021 15.021 0 01-4.094 2.212c-1.892.672-3.61.845-5.138.845h.008z"/><path d="M184.214 53.716c-2.661 0-5.305-.26-7.926-.782-5.787-1.161-11.377-3.642-16.167-7.174a1.019 1.019 0 01-.214-1.422c.333-.45.974-.545 1.425-.213 4.553 3.358 9.858 5.72 15.352 6.818a38.45 38.45 0 0012.549.419c-.158-1.359-.617-3.769-1.884-5.507-.364-.498-.966-1.327-2.027-1.999-.277-.181-.491-.284-1.069-.569l-.403-.197a150.52 150.52 0 01-2.708-1.383 1.017 1.017 0 11.95-1.801c.61.324 1.528.798 2.668 1.359l.396.197c.61.3.887.435 1.267.68 1.385.885 2.161 1.943 2.573 2.512 1.971 2.686 2.304 6.44 2.359 7.522.024.521-.348.98-.863 1.058-2.09.324-4.188.49-6.286.49l.008-.008zm8.883-32.084c-1.496 0-3.088-.103-4.861-.292a1.015 1.015 0 01-.903-1.122 1.01 1.01 0 011.124-.9c1.711.18 3.231.276 4.656.284a1.016 1.016 0 11-.008 2.03h-.008zM194 10.09c-.103 0-.214-.017-.317-.048-1.14-.38-2.28-.767-3.42-1.162-3.143-1.082-6.397-2.204-9.77-2.947-14.679-2.978-28.978-4.258-42.485-3.8a1.022 1.022 0 01-1.053-.98c-.016-.56.42-1.034.982-1.05 13.657-.466 28.122.821 42.975 3.84 3.508.774 6.809 1.911 10.008 3.017 1.132.388 2.264.783 3.396 1.154.539.174.824.75.65 1.28a1.025 1.025 0 01-.966.703v-.008zm-77.765-2.379c-.388 0-.76-.221-.926-.592-.23-.514 0-1.114.507-1.343a65.807 65.807 0 017.988-3.018A65.883 65.883 0 01134.572.427a1.012 1.012 0 011.14.877 1.01 1.01 0 01-.879 1.138 63.648 63.648 0 00-10.435 2.26 64.333 64.333 0 00-7.743 2.922.986.986 0 01-.42.095v-.008z"/><path d="M136.424 4.938a1.04 1.04 0 01-.863-.466 1.019 1.019 0 01.309-1.407 26.3 26.3 0 01.919-.553 19.086 19.086 0 014.679-1.864 19.141 19.141 0 013.911-.569 1.017 1.017 0 11.087 2.03 17.164 17.164 0 00-7.68 2.165c-.348.198-.625.372-.823.49a.975.975 0 01-.546.158l.007.016zm14.196.892a1.015 1.015 0 01-.546-1.872c.214-.134.531-.332.918-.553a19.04 19.04 0 014.688-1.864 19.141 19.141 0 013.911-.57 1.012 1.012 0 011.061.973 1.017 1.017 0 01-.974 1.058 17.157 17.157 0 00-7.68 2.165c-.348.198-.625.371-.823.49a.999.999 0 01-.547.158l-.008.016zm13.096 1.85c-.333 0-.665-.166-.863-.466a1.02 1.02 0 01.308-1.407c.214-.134.531-.332.919-.553a19.286 19.286 0 018.598-2.433 1.017 1.017 0 11.087 2.03 17.164 17.164 0 00-7.68 2.165c-.348.197-.625.371-.823.49a.975.975 0 01-.546.158v.016zm19.461 41.944h-.024c-3.484-.087-6.793-.87-9.826-2.339a23.42 23.42 0 01-3.768-2.283 1.01 1.01 0 01-.206-1.422c.34-.45.974-.545 1.425-.205a20.998 20.998 0 003.436 2.085c2.771 1.336 5.796 2.054 8.986 2.133.562.016 1.006.482.998 1.043a1.023 1.023 0 01-1.021.996v-.008zm-1.837-4.101c-.119 0-.238-.023-.348-.063l-5.804-2.117a1.017 1.017 0 11.697-1.912l5.803 2.117c.531.19.8.774.61 1.304-.151.41-.539.671-.958.671zm14.457-23.986a1.016 1.016 0 01-.032-2.03c3.84-.11 5.479-.853 5.748-2.639-.728-2.441-2.597-4.424-5.7-6.052a1.017 1.017 0 11.95-1.801c3.713 1.943 5.93 4.4 6.769 7.505.032.119.04.245.032.364-.428 4.44-5.55 4.59-7.735 4.653h-.032zm42.152 165.874c-.325 0-.641-.158-.839-.442-.459-.672-.713-1.383-.752-2.11-.182-3.571 4.758-6.036 8.368-7.837 3.729-1.865 7.775-3.224 12.019-4.045a1.022 1.022 0 011.195.806 1.014 1.014 0 01-.807 1.192c-4.062.791-7.925 2.086-11.496 3.864-2.755 1.375-7.355 3.674-7.245 5.917.016.348.151.704.396 1.059a1.02 1.02 0 01-.839 1.596z"/><path d="M251.71 196.584a.936.936 0 01-.293-.048 62.809 62.809 0 01-5.551-1.975c-.783-.324-1.852-.766-3.238-1.461a40.881 40.881 0 01-3.673-2.102 1.223 1.223 0 01-.159-.126c-.055-.056-.15-.135-.261-.237-1.33-1.186-2.605-2.45-2.28-3.674.095-.356.404-.98 1.425-1.193a1.019 1.019 0 011.211.782c.095.434-.111.861-.467 1.082.214.285.641.751 1.473 1.486.095.087.182.158.245.221a38.025 38.025 0 003.413 1.951 40.53 40.53 0 003.095 1.399 58.887 58.887 0 005.36 1.912c.539.166.84.734.681 1.272a1.013 1.013 0 01-.974.719l-.007-.008z"/><path d="M260.553 197.161a95.84 95.84 0 01-8.107-.34 1.012 1.012 0 01-.926-1.098 1.018 1.018 0 011.1-.925c3.523.293 7.086.395 10.594.293.071 0 8.02-.285 14.615-1.667a46.879 46.879 0 006.081-1.707c.886-.316 1.369-.513 3.396-1.351l2.447-1.011c.688-.285 1.298-.545 1.86-.782 1.774-.751 3.056-1.296 4.592-1.691a23.78 23.78 0 016.58-.743 1.019 1.019 0 11-.048 2.039 22.12 22.12 0 00-6.017.671c-1.394.364-2.613.877-4.307 1.596-.57.245-1.188.506-1.884.79l-2.447 1.011c-2.011.83-2.549 1.051-3.491 1.383a49.63 49.63 0 01-6.342 1.778c-6.778 1.414-14.64 1.698-14.972 1.706-.903.024-1.813.04-2.716.04l-.008.008zm43.205-16.339h-.039a17.41 17.41 0 01-1.71-.158 16.514 16.514 0 01-2.779-.663l-.119-.04a165.19 165.19 0 00-13.689-3.579c-4.22-.909-7.553-1.627-11.94-2.03a71.821 71.821 0 00-14.029.094 1.015 1.015 0 01-1.117-.908 1.015 1.015 0 01.911-1.114 74.55 74.55 0 0114.425-.095c4.513.411 7.902 1.146 12.185 2.07a165.453 165.453 0 0113.864 3.626l.15.048c.38.126 1.275.411 2.446.584.46.072.927.111 1.386.135a15.786 15.786 0 002.233-.569c.886-.292 1.512-.593 1.749-.703 2.415-1.13 7.973-3.2 12.795-4.591 2.724-.79 4.814-1.248 7.419-1.287.783-.016 1.583.015 2.359.087a1.02 1.02 0 11-.182 2.03 21.75 21.75 0 00-2.154-.079c-2.367.032-4.315.466-6.872 1.209-5.218 1.509-10.522 3.555-12.47 4.464-.293.134-.997.466-1.995.798-.863.284-1.75.505-2.644.663-.056.008-.111.016-.175.016l-.008-.008zm23.468 18.653c-.135 0-.278-.031-.412-.087l-11.243-4.969a88.96 88.96 0 01-6.001-3.303 94.182 94.182 0 01-4.307-2.749 1.015 1.015 0 01-.269-1.414 1.02 1.02 0 011.417-.269 94.596 94.596 0 004.212 2.694 87.042 87.042 0 005.827 3.208l11.195 4.946c.515.229.744.829.523 1.343a1.02 1.02 0 01-.934.608l-.008-.008z"/><path d="M327.225 199.475c-.293 0-.578-.126-.775-.363-2.059-2.433-3.658-5.12-4.759-7.98-.926-2.401-1.655-4.298-1.346-6.786.349-2.813 1.821-4.677 3.682-7.04l.158-.205a27.517 27.517 0 015.368-5.175 1.017 1.017 0 111.211 1.635 25.838 25.838 0 00-4.972 4.796l-.158.206c-1.726 2.196-2.977 3.784-3.262 6.036-.245 1.983.341 3.5 1.227 5.799 1.022 2.646 2.51 5.135 4.418 7.403a1.012 1.012 0 01-.776 1.667l-.016.007zm-68.414-8.374c-2.335 0-4.14-.877-5.075-1.446a1.021 1.021 0 01-.332-1.399 1.024 1.024 0 011.401-.332c.84.514 2.581 1.344 4.814 1.099 2.233-.245 3.61-1.422 4.529-2.205.134-.11.237-.213.324-.292-.546-.126-1.488-.205-2.826-.237-2.233-.055-4.529.205-6.825.758a1.025 1.025 0 01-1.235-.75 1.024 1.024 0 01.752-1.233c2.47-.6 4.949-.877 7.355-.821 2.581.063 4.743.237 5.099 1.738.214.916-.546 1.714-1.322 2.378-.974.83-2.779 2.362-5.629 2.678-.357.04-.697.056-1.03.056v.008z"/><path d="M249.793 193.463a1.019 1.019 0 01-.625-1.825 13.352 13.352 0 003.777-4.543c.475-.932.831-1.928 1.068-2.962a1.017 1.017 0 011.98.458 15.24 15.24 0 01-1.235 3.421c-1.03 2.038-2.494 3.8-4.347 5.238a1.016 1.016 0 01-.625.213h.007zm-6.215-9.347h-.031a1.98 1.98 0 01-1.948-1.998 1.957 1.957 0 012.003-1.944c.531 0 1.022.221 1.386.6.364.38.562.877.554 1.399a1.98 1.98 0 01-1.971 1.943h.007zm-.063-1.975s.024.056.063.063c.032 0 .064-.031.064-.063h-.127zm0 0h.127s-.04-.087-.064-.063a.063.063 0 00-.063.063zM269.547 201c-1.417 0-2.834-.134-4.227-.402-5.091-.972-7.949-2.039-12.684-3.809a1.012 1.012 0 01-.594-1.311c.198-.529.784-.79 1.314-.593 4.798 1.794 7.435 2.773 12.352 3.714a20.27 20.27 0 003.871.363c.942 0 1.892-.071 2.827-.197a5.023 5.023 0 001.417-.411c-.396-.364-1.386-1.027-3.413-1.896a1.011 1.011 0 01-.53-1.336 1.015 1.015 0 011.338-.529c4.56 1.952 4.98 3.2 4.79 4.156-.301 1.493-2.613 1.935-3.309 2.03-1.038.142-2.13.214-3.136.221h-.016zm20.886-3.231c-.364 0-.728-.008-1.092-.024a24.517 24.517 0 01-10.229-2.781 1.016 1.016 0 01-.428-1.374 1.021 1.021 0 011.378-.427 22.47 22.47 0 009.374 2.544c2.288.103 4.576-.15 6.801-.751-.285-.869-.744-1.833-1.37-2.457-.253-.253-.625-.632-1.235-.892-.182-.079-.317-.119-.625-.222l-.254-.079a74.589 74.589 0 01-1.71-.561 1.02 1.02 0 11.665-1.927c.38.134.958.324 1.663.553l.253.079c.42.134.594.189.839.3.951.419 1.56 1.027 1.853 1.319 1.473 1.478 2.027 3.729 2.162 4.385a1.019 1.019 0 01-.689 1.177 24.247 24.247 0 01-7.348 1.138h-.008zm3.009-19.475a1.03 1.03 0 01-1.021-.972 1.028 1.028 0 01.973-1.067 25.418 25.418 0 002.692-.252c.555-.079 1.077.3 1.156.853a1.017 1.017 0 01-.855 1.153c-.887.135-1.837.222-2.898.269h-.047v.016z"/><path d="M296.237 178.033c-.531 0-.982-.411-1.014-.948a1.019 1.019 0 01.951-1.083c2.62-.165 3.935-1.019 4.045-1.738.103-.663-.807-1.777-3.048-2.67a1.017 1.017 0 01-.57-1.32 1.02 1.02 0 011.322-.568c2.993 1.185 4.608 3.002 4.307 4.874-.308 1.944-2.525 3.232-5.93 3.445h-.063v.008zm-33.831-6.415a1.015 1.015 0 01-.222-2.007c8.511-1.92 17.102-2.465 25.542-1.62a77.41 77.41 0 017.102 1.043c.554.111.91.64.807 1.193a1.023 1.023 0 01-1.195.806 78.698 78.698 0 00-6.92-1.019c-8.218-.822-16.595-.292-24.885 1.58-.079.016-.15.024-.221.024h-.008zm-12.153 5.19c-.333 0-.657-.165-.855-.458a1.015 1.015 0 01.293-1.406 38.62 38.62 0 014.425-2.497 38.043 38.043 0 014.505-1.833c.357-.118.666-.221.879-.284a1.024 1.024 0 011.275.664 1.019 1.019 0 01-.665 1.272c-.206.063-.491.158-.831.268a37.289 37.289 0 00-4.268 1.738 37.934 37.934 0 00-4.196 2.371c-.174.11-.364.165-.554.165h-.008z"/><path d="M265.818 171.847a.56.56 0 01-.372-.98c.111-.095.277-.237.483-.403a11.117 11.117 0 012.55-1.493c.704-.3 1.456-.529 2.216-.679a.554.554 0 01.658.442.555.555 0 01-.444.656 9.995 9.995 0 00-1.995.608c-.823.348-1.599.806-2.296 1.343-.182.142-.333.277-.435.364a.554.554 0 01-.373.142h.008zm5.305-.166a.578.578 0 01-.475-.261.56.56 0 01.166-.774 22.569 22.569 0 013.048-1.635 23.432 23.432 0 012.09-.814.571.571 0 01.713.355.57.57 0 01-.356.712c-.665.221-1.338.481-1.988.774-.839.371-1.654.798-2.422 1.256-.206.118-.372.229-.483.3a.533.533 0 01-.301.087h.008zm6.706.008a.556.556 0 01-.451-.229.557.557 0 01.118-.782c.119-.087.285-.214.499-.356a15.88 15.88 0 012.55-1.398c.696-.3 1.417-.561 2.145-.759a.555.555 0 01.689.395.56.56 0 01-.396.688c-.673.181-1.346.418-1.995.703a14.49 14.49 0 00-2.827 1.619.568.568 0 01-.332.111v.008zm12.961 21.632h-.08l-4.52-.624a.55.55 0 01-.475-.632.554.554 0 01.633-.474l4.521.624a.55.55 0 01.475.632.562.562 0 01-.554.482v-.008zm29.072-.924a.81.81 0 01-.451-.135 15.19 15.19 0 01-3.587-3.144c-1.361-1.636-2.636-3.176-2.47-5.199.174-2.062 1.75-3.373 3.421-4.764a15.698 15.698 0 014.6-2.662.84.84 0 11.593 1.572 14.229 14.229 0 00-4.109 2.378c-1.512 1.256-2.707 2.252-2.826 3.618-.111 1.336.855 2.505 2.082 3.982a13.572 13.572 0 003.199 2.805.841.841 0 01.261 1.162.84.84 0 01-.713.387zm24.932-34.408a1.02 1.02 0 01-.99-.775c-.197-.79-.19-1.54.032-2.236 1.077-3.413 6.572-4.005 10.578-4.432 4.148-.45 8.416-.316 12.675.387.555.095.935.617.84 1.17-.095.553-.61.932-1.172.837a44.697 44.697 0 00-12.122-.371c-3.056.332-8.178.885-8.851 3.026-.103.332-.103.711 0 1.13a1.018 1.018 0 01-.99 1.264z"/><path d="M354.485 171.364c-.214 0-.435-.071-.617-.205a59.765 59.765 0 01-4.513-3.784 40.533 40.533 0 01-5.234-5.744 1.351 1.351 0 01-.103-.174c-.031-.071-.087-.174-.158-.308-.839-1.572-1.591-3.2-.855-4.243.214-.3.72-.774 1.75-.624.554.079.942.601.863 1.154a1.019 1.019 0 01-.816.853c.095.34.341.924.863 1.912.063.11.111.213.151.284a37.873 37.873 0 002.517 3.01 38.182 38.182 0 002.415 2.386 59.38 59.38 0 004.363 3.658c.451.34.53.98.19 1.422a1.024 1.024 0 01-.808.403h-.008z"/><path d="M405.259 181.248c-.126 0-.253-.023-.38-.071a21.762 21.762 0 00-5.874-1.461c-1.433-.143-2.764-.087-4.6 0-.618.031-1.291.055-2.035.086l-2.653.095c-2.169.079-2.747.103-3.744.079a50.05 50.05 0 01-6.564-.545c-6.841-1.027-14.315-3.5-14.631-3.61a97.634 97.634 0 01-10.047-4.046 1.018 1.018 0 01-.491-1.351 1.023 1.023 0 011.354-.489 93.468 93.468 0 009.825 3.958c.071.023 7.617 2.52 14.283 3.523 2.058.309 4.18.482 6.294.522.942.016 1.457 0 3.642-.079l2.661-.095c.736-.024 1.401-.055 2.018-.087 1.924-.087 3.318-.15 4.893.008 2.146.213 4.307.751 6.429 1.596a1.015 1.015 0 01-.38 1.959v.008zm30.72-3.99a1.06 1.06 0 01-.436-.094 19.583 19.583 0 00-1.987-.822c-2.233-.798-4.204-1.067-6.864-1.264-5.416-.403-11.108-.324-13.246-.15-.325.023-1.109.095-2.154.055a18.468 18.468 0 01-2.707-.3.914.914 0 01-.206-.063 15.9 15.9 0 01-3.911-2.331l-.103-.079a166.243 166.243 0 00-11.584-8.114c-3.634-2.323-6.508-4.156-10.482-6.06a72.966 72.966 0 00-13.183-4.796 1.017 1.017 0 11.515-1.967 74.62 74.62 0 0113.555 4.93c4.085 1.96 7.006 3.816 10.696 6.179a166.009 166.009 0 0111.726 8.216l.126.095c.317.245 1.045.83 2.083 1.398.403.222.823.427 1.251.609a16.02 16.02 0 004.18.197c2.66-.221 8.59-.221 13.594.15 2.834.214 4.948.498 7.403 1.375.744.261 1.472.569 2.177.901.507.245.721.845.483 1.359a1.017 1.017 0 01-.918.576h-.008zm-11.718 23.086c-.253 0-.515-.095-.713-.292l-8.804-8.564a90.833 90.833 0 01-4.473-5.183 96.925 96.925 0 01-3.08-4.077 1.018 1.018 0 01.238-1.414 1.022 1.022 0 011.417.237 92.694 92.694 0 003.008 3.99 90.487 90.487 0 004.339 5.032l8.765 8.533c.404.395.411 1.035.016 1.438a1.018 1.018 0 01-.729.308l.016-.008z"/><path d="M424.261 200.344a1.02 1.02 0 01-.958-.672c-1.077-2.994-1.639-6.075-1.671-9.141-.031-2.575-.047-4.606 1.109-6.826 1.314-2.512 3.341-3.753 5.906-5.317l.222-.134a27.75 27.75 0 016.84-2.987 1.015 1.015 0 011.259.696 1.012 1.012 0 01-.696 1.256 25.356 25.356 0 00-6.334 2.765l-.222.134c-2.391 1.462-4.117 2.513-5.162 4.527-.926 1.77-.903 3.398-.879 5.863.032 2.836.554 5.688 1.552 8.477a1.02 1.02 0 01-.618 1.304 1.046 1.046 0 01-.34.063l-.008-.008zm-58.383-31.136a9.21 9.21 0 01-2.193-.269c-2.771-.695-4.465-2.441-5.233-3.429a1.017 1.017 0 01.174-1.43 1.023 1.023 0 011.433.174c.61.774 1.948 2.157 4.125 2.702 2.177.545 3.887-.079 5.012-.49.166-.063.301-.11.411-.166-.467-.308-1.33-.711-2.573-1.2a26.362 26.362 0 00-6.658-1.66 1.016 1.016 0 01-.895-1.129c.063-.561.57-.964 1.132-.893 2.526.3 4.949.9 7.181 1.793 2.399.956 4.363 1.873 4.173 3.398-.111.932-1.109 1.414-2.075 1.761-.863.316-2.264.83-4.022.83l.008.008z"/><path d="M353.78 167.778a1.016 1.016 0 01-.308-1.983 13.415 13.415 0 005.13-2.947 13.233 13.233 0 002.043-2.402 1.017 1.017 0 011.702 1.114 15.22 15.22 0 01-2.351 2.773 15.46 15.46 0 01-5.907 3.397 1.037 1.037 0 01-.309.048zm-2.224-10.864a1.974 1.974 0 01-1.837-2.686 1.974 1.974 0 013.681 1.43 1.968 1.968 0 01-1.837 1.256h-.007zm-.064-1.991a.054.054 0 00.04.079c.024.008.071-.008.079-.039l-.119-.048v.008zm0 0l.119.048s0-.071-.04-.079c-.031-.008-.071.008-.079.039v-.008zm22.383 27.787a7.672 7.672 0 01-1.552-.174 21.474 21.474 0 01-2.985-.877 22.498 22.498 0 01-3.848-1.856c-4.433-2.679-6.737-4.678-10.562-7.98a1.014 1.014 0 01-.102-1.438 1.019 1.019 0 011.44-.103c3.872 3.342 6.002 5.191 10.285 7.782a20.628 20.628 0 003.5 1.691c.878.324 1.797.593 2.715.798.57.126 1.132.142 1.473.103-.238-.482-.942-1.446-2.534-2.963a1.02 1.02 0 01-.031-1.438 1.024 1.024 0 011.441-.031c3.586 3.421 3.547 4.732 3.032 5.562-.459.734-1.401.932-2.256.932l-.016-.008zm23.475 4.661h-.048a24.353 24.353 0 01-8.305-1.888 24.45 24.45 0 01-8.614-6.163 1.02 1.02 0 011.52-1.359 22.503 22.503 0 007.894 5.649 22.062 22.062 0 006.634 1.66c.032-.783-.015-1.881-.427-2.774-.151-.323-.372-.805-.839-1.272a6.604 6.604 0 00-.507-.418l-.214-.166a55.99 55.99 0 01-1.401-1.122 1.014 1.014 0 01-.143-1.43 1.019 1.019 0 011.433-.142c.309.252.784.64 1.37 1.09l.206.166c.348.269.491.387.681.569.744.727 1.1 1.509 1.274 1.88.863 1.888.602 4.195.499 4.859a1.019 1.019 0 01-1.005.861h-.008zm5.352-17.902c-.071 0-.143 0-.214-.024a28.273 28.273 0 01-2.811-.759 1.012 1.012 0 01-.657-1.279c.174-.538.744-.83 1.283-.656.95.3 1.805.537 2.613.703.554.118.902.656.783 1.209a1.014 1.014 0 01-.997.806z"/><path d="M405.552 169.942c-.934 0-1.987-.166-3.143-.513a1.01 1.01 0 01-.681-1.264 1.012 1.012 0 011.267-.68c2.518.751 4.046.411 4.402-.221.333-.585-.135-1.951-1.924-3.555a1.02 1.02 0 01-.079-1.438 1.025 1.025 0 011.441-.079c2.391 2.149 3.27 4.416 2.335 6.068-.625 1.106-1.908 1.682-3.618 1.682zm-1.916-7.584c-.182 0-.364-.048-.53-.15a76.888 76.888 0 00-6.128-3.358c-7.419-3.627-15.447-6.044-23.879-7.174a1.018 1.018 0 11.277-2.015c8.646 1.162 16.888 3.643 24.504 7.364a74.806 74.806 0 016.294 3.452 1.02 1.02 0 01-.53 1.889l-.008-.008zm-43.609-10.034c-.467 0-.887-.316-.989-.79a1.02 1.02 0 01.767-1.217 40.077 40.077 0 015.02-.806 38.423 38.423 0 014.861-.15c.38.008.697.024.927.04.562.031.989.505.966 1.066a1.023 1.023 0 01-1.069.964c-.214-.008-.515-.023-.879-.039-1.536-.048-3.088 0-4.608.15-1.599.15-3.199.403-4.758.758a1.123 1.123 0 01-.23.024h-.008z"/><path d="M376.187 153.059a.56.56 0 01-.198-1.083c.142-.055.348-.126.593-.205.935-.3 1.916-.474 2.914-.514.768-.031 1.552.008 2.32.135a.56.56 0 01.467.64.569.569 0 01-.641.466 10.262 10.262 0 00-2.083-.119c-.894.04-1.781.198-2.62.466-.222.072-.404.143-.531.19a.578.578 0 01-.198.04l-.023-.016zm5.035 1.691a.558.558 0 01-.546-.443c-.064-.3.126-.6.427-.663a23.555 23.555 0 013.436-.474 23.373 23.373 0 012.241-.04.564.564 0 01.546.577c-.008.308-.285.529-.578.545a23.894 23.894 0 00-2.137.032 21.404 21.404 0 00-3.262.45c-.04.008-.079.016-.119.016h-.008zm6.279 2.338a.562.562 0 01-.159-1.098c.143-.039.341-.095.594-.158a15.056 15.056 0 012.874-.419 15.63 15.63 0 012.272.04c.309.023.539.3.507.608a.565.565 0 01-.61.506 14.61 14.61 0 00-2.114-.032c-.91.048-1.813.182-2.668.395-.229.056-.419.111-.546.142a.541.541 0 01-.158.024l.008-.008zm4.592 24.784a.564.564 0 01-.269-.071l-4.015-2.157a.568.568 0 01-.229-.758.571.571 0 01.76-.229l4.014 2.157a.57.57 0 01.23.758.553.553 0 01-.491.292v.008zm27.679 9.268a.837.837 0 01-.673-.332 15.161 15.161 0 01-2.264-4.195c-.705-1.999-1.362-3.895-.499-5.728.887-1.872 2.818-2.56 4.869-3.279a15.909 15.909 0 015.241-.9c.467 0 .84.371.84.837a.846.846 0 01-.84.845c-1.607 0-3.182.277-4.679.806-1.86.656-3.325 1.17-3.911 2.41-.57 1.217-.071 2.647.562 4.464a13.589 13.589 0 002.019 3.737.84.84 0 01-.665 1.351v-.016zM231.37 89.601c-.356 0-.713-.174-.927-.49-.617-.893-.95-1.833-.997-2.797-.246-4.803 6.571-8.2 11.543-10.681 5.202-2.592 10.839-4.488 16.746-5.633a1.119 1.119 0 11.427 2.196c-5.708 1.106-11.155 2.939-16.167 5.436-3.919 1.959-10.475 5.23-10.308 8.572.023.537.229 1.09.609 1.643a1.115 1.115 0 01-.293 1.556 1.09 1.09 0 01-.633.198z"/><path d="M250.625 102.439c-.111 0-.222-.015-.325-.047a86.338 86.338 0 01-7.743-2.757 59.91 59.91 0 01-4.513-2.039 56.263 56.263 0 01-5.122-2.93c-.064-.04-.119-.088-.175-.135-.079-.08-.213-.198-.372-.34-1.797-1.596-3.515-3.287-3.103-4.843.11-.427.491-1.185 1.757-1.454a1.12 1.12 0 011.33.862 1.116 1.116 0 01-.807 1.311c.214.395.823 1.114 2.312 2.45.142.126.261.236.356.315a54.797 54.797 0 004.83 2.758 56.84 56.84 0 004.354 1.967 84.189 84.189 0 007.538 2.686c.593.182.926.806.744 1.398a1.133 1.133 0 01-1.077.798h.016z"/><path d="M263 103.245c-3.769 0-7.562-.158-11.322-.474a1.117 1.117 0 01-1.022-1.209 1.114 1.114 0 011.212-1.019c4.948.419 9.944.553 14.861.411.103 0 11.25-.403 20.514-2.339a67.431 67.431 0 008.55-2.393c1.251-.443 1.924-.72 4.759-1.889l3.436-1.414c.958-.395 1.813-.758 2.605-1.09 2.478-1.051 4.267-1.802 6.397-2.362 2.898-.759 5.962-1.099 9.129-1.028a1.12 1.12 0 011.092 1.146c-.016.616-.554 1.09-1.148 1.09-2.953-.07-5.811.253-8.503.956-1.971.514-3.697 1.249-6.088 2.252-.792.34-1.655.703-2.621 1.098l-3.436 1.414c-2.803 1.162-3.555 1.47-4.869 1.928a69.071 69.071 0 01-8.844 2.473c-9.461 1.975-20.791 2.378-20.91 2.386a122.78 122.78 0 01-3.8.055l.008.008zm60.497-22.865h-.048a21.277 21.277 0 01-2.359-.22 22.037 22.037 0 01-3.84-.917l-.174-.055a232.316 232.316 0 00-19.192-5.017c-5.915-1.28-10.594-2.283-16.753-2.852a102.045 102.045 0 00-19.707.126 1.12 1.12 0 11-.237-2.228 104.654 104.654 0 0120.142-.134c6.294.577 11.028 1.596 17.022 2.892a232.94 232.94 0 0119.382 5.064l.206.063c.538.174 1.805.585 3.467.83.665.094 1.338.165 2.011.19a22.393 22.393 0 003.207-.807c1.251-.418 2.145-.837 2.486-.995 3.365-1.572 11.132-4.464 17.862-6.407 3.792-1.099 6.69-1.739 10.3-1.786a32.143 32.143 0 013.27.118 1.123 1.123 0 11-.198 2.236 32.55 32.55 0 00-3.048-.11c-3.349.047-6.097.656-9.707 1.698-7.323 2.118-14.774 4.993-17.505 6.266-.404.19-1.386.647-2.763 1.106a25.544 25.544 0 01-3.658.916c-.064.008-.127.016-.19.016l.024.008zm32.856 26.112c-.15 0-.308-.031-.451-.094l-15.74-6.953a129.506 129.506 0 01-8.376-4.606 131.197 131.197 0 01-6.017-3.848 1.115 1.115 0 01-.293-1.556 1.114 1.114 0 011.559-.293 127.21 127.21 0 005.915 3.777 124.44 124.44 0 008.178 4.503l15.685 6.929c.57.253.823.909.57 1.478a1.115 1.115 0 01-1.03.663z"/><path d="M356.354 106.493c-.317 0-.634-.135-.855-.395-2.859-3.382-5.083-7.111-6.611-11.085-1.283-3.326-2.289-5.95-1.869-9.354.483-3.856 2.518-6.44 5.091-9.71l.222-.285a38.29 38.29 0 017.458-7.19 1.124 1.124 0 011.567.238c.365.498.262 1.2-.237 1.564a36.116 36.116 0 00-7.023 6.77l-.221.285c-2.455 3.113-4.228 5.365-4.632 8.604-.356 2.844.475 5.001 1.734 8.272 1.441 3.745 3.539 7.261 6.239 10.445.396.474.34 1.177-.135 1.58a1.138 1.138 0 01-.72.261h-.008zm-95.785-11.725c-3.199 0-5.669-1.2-6.943-1.983a1.115 1.115 0 01-.365-1.54 1.113 1.113 0 011.544-.364c1.212.743 3.721 1.936 6.928 1.58 3.214-.355 5.194-2.046 6.508-3.16.42-.356.673-.616.823-.79-.53-.206-1.765-.411-4.512-.482-3.144-.071-6.39.284-9.636 1.074a1.115 1.115 0 01-1.354-.821c-.15-.6.222-1.21.824-1.351 3.436-.838 6.88-1.217 10.221-1.138 3.357.079 6.405.308 6.856 2.196.214.901-.293 1.778-1.757 3.026-1.425 1.217-3.816 3.247-7.72 3.682-.483.055-.958.079-1.409.079l-.008-.008z"/><path d="M247.941 98.078c-.333 0-.665-.15-.887-.434a1.118 1.118 0 01.198-1.573c2.296-1.777 4.101-3.95 5.376-6.462a18.707 18.707 0 001.528-4.211c.143-.6.744-.98 1.346-.838.602.142.982.743.839 1.343a20.867 20.867 0 01-1.71 4.717c-1.417 2.813-3.436 5.238-6.001 7.221a1.122 1.122 0 01-.689.237zm-8.693-13.091h-.04a2.456 2.456 0 01-2.423-2.489 2.455 2.455 0 012.463-2.417h.031a2.454 2.454 0 01-.039 4.906h.008zm0-2.67a.213.213 0 00-.214.213c0 .07.031.126.063.15a.206.206 0 00.151.063.23.23 0 00.221-.213.225.225 0 00-.213-.222l-.008.008zm36.356 26.308c-1.963 0-3.935-.189-5.867-.553-7.102-1.359-11.092-2.844-17.711-5.317a1.12 1.12 0 01-.657-1.438 1.126 1.126 0 011.441-.655c6.73 2.512 10.435 3.895 17.347 5.214 1.789.34 3.626.514 5.439.514h.032c1.33 0 2.676-.095 3.998-.285 1.116-.158 2.074-.545 2.415-.806-.325-.426-1.615-1.493-5.131-3.002a1.119 1.119 0 11.887-2.054c6.215 2.662 6.754 4.329 6.524 5.483-.388 1.943-3.721 2.512-4.378 2.607-1.425.198-2.874.3-4.307.308h-.04l.008-.016zm29.239-4.527c-.507 0-1.013-.007-1.52-.031-4.901-.221-9.81-1.557-14.188-3.856a1.111 1.111 0 01-.467-1.509 1.116 1.116 0 011.512-.466 31.896 31.896 0 0013.246 3.603c3.349.15 6.682-.237 9.92-1.146-.324-1.082-.965-2.741-2.082-3.863-.348-.348-.918-.924-1.821-1.32-.237-.102-.419-.166-.91-.316l-.349-.11a104.09 104.09 0 01-2.383-.79 1.12 1.12 0 01-.697-1.422c.206-.585.84-.893 1.426-.696.538.182 1.338.459 2.335.775l.349.11c.53.166.791.253 1.148.403 1.282.569 2.074 1.36 2.494 1.778 2.003 2.007 2.763 5.088 2.945 5.981a1.12 1.12 0 01-.76 1.295 33.711 33.711 0 01-10.19 1.588l-.008-.008zm4.212-27.264a1.127 1.127 0 01-1.124-1.067 1.121 1.121 0 011.069-1.17 38.897 38.897 0 003.8-.347 1.119 1.119 0 11.333 2.212c-1.228.182-2.55.308-4.03.371h-.056.008z"/><path d="M312.966 76.47a1.123 1.123 0 01-.071-2.244c3.856-.245 5.764-1.525 5.946-2.686.158-1.003-.91-2.663-4.457-4.06a1.125 1.125 0 01-.634-1.455c.23-.576.879-.86 1.457-.632 4.046 1.596 6.231 4.03 5.843 6.495-.404 2.567-3.404 4.274-8.02 4.574h-.072l.008.008zm-47.361-8.983c-.515 0-.974-.355-1.093-.869-.135-.6.245-1.2.847-1.335 11.884-2.678 23.879-3.437 35.66-2.26 3.309.332 6.643.822 9.921 1.454a1.118 1.118 0 11-.428 2.196 106.249 106.249 0 00-9.715-1.43c-11.535-1.153-23.293-.41-34.939 2.22-.087.016-.166.032-.246.032l-.007-.008zm-17.015 7.269c-.364 0-.728-.182-.942-.506a1.112 1.112 0 01.325-1.548 54.865 54.865 0 016.159-3.477 54.002 54.002 0 016.271-2.551c.499-.166.926-.3 1.227-.396a1.113 1.113 0 011.401.735 1.113 1.113 0 01-.736 1.399c-.285.087-.689.22-1.172.379a52.362 52.362 0 00-11.915 5.783c-.19.127-.404.182-.61.182h-.008z"/><path d="M270.102 69.004a.845.845 0 01-.634-.284.837.837 0 01.071-1.186 15.585 15.585 0 014.26-2.67 16.221 16.221 0 013.119-.956.843.843 0 01.99.664.843.843 0 01-.665.987 14.19 14.19 0 00-2.787.854 14.061 14.061 0 00-3.808 2.386.826.826 0 01-.554.213l.008-.008zm7.711-1.066a.841.841 0 01-.459-1.549 31.741 31.741 0 014.283-2.3 31.555 31.555 0 012.93-1.137.84.84 0 011.068.53.838.838 0 01-.53 1.066 30.63 30.63 0 00-2.779 1.083 30.294 30.294 0 00-4.054 2.18.878.878 0 01-.451.134l-.008-.007zm9.382.015a.843.843 0 01-.506-1.517c.166-.118.403-.292.696-.497a22.322 22.322 0 016.588-3.018.85.85 0 011.037.584.843.843 0 01-.586 1.035 21.93 21.93 0 00-2.779.98 20.46 20.46 0 00-3.302 1.81c-.277.18-.491.347-.641.457a.84.84 0 01-.499.166h-.008zm18.139 30.284s-.079 0-.119-.008l-6.326-.877a.844.844 0 01-.72-.948.845.845 0 01.95-.72l6.326.878a.842.842 0 01-.111 1.675zm40.711-1.692a.81.81 0 01-.451-.134 21.124 21.124 0 01-4.948-4.337c-1.853-2.236-3.603-4.346-3.381-7.032.229-2.75 2.391-4.543 4.671-6.447a21.767 21.767 0 016.334-3.674.841.841 0 11.594 1.573 20.296 20.296 0 00-5.851 3.389c-2.177 1.817-3.895 3.247-4.07 5.293-.166 2.007 1.228 3.69 2.993 5.823a19.31 19.31 0 004.553 3.99.839.839 0 01-.452 1.548l.008.008zM96.41 113.832c-.412 0-.8-.253-.95-.655-.293-.759-.364-1.509-.23-2.228.673-3.516 6.057-4.741 9.984-5.641 4.07-.933 8.321-1.296 12.636-1.099.562.024.998.506.974 1.067-.024.561-.499.98-1.069.972a44.764 44.764 0 00-12.082 1.043c-3 .687-8.02 1.833-8.44 4.037-.063.34-.016.719.135 1.122a1.016 1.016 0 01-.958 1.374v.008z"/><path d="M107.605 125.984c-.174 0-.356-.048-.515-.143a61.883 61.883 0 01-4.924-3.231c-.681-.498-1.623-1.177-2.803-2.188a41.303 41.303 0 01-3.072-2.908c-.047-.047-.087-.103-.127-.158a5.178 5.178 0 00-.198-.284c-1.013-1.47-1.955-2.995-1.345-4.109.174-.324.617-.861 1.662-.821.562.016 1.006.482.99 1.043a1.022 1.022 0 01-.713.94c.135.332.444.877 1.077 1.793.071.103.135.198.182.269.895.94 1.86 1.849 2.858 2.694a40.641 40.641 0 002.676 2.086 60.107 60.107 0 004.759 3.12 1.015 1.015 0 01-.523 1.889l.016.008z"/><path d="M134.975 131.103c-.522 0-1.037-.008-1.551-.024-6.92-.221-14.624-1.801-14.948-1.872a96.201 96.201 0 01-10.451-2.844 1.016 1.016 0 11.649-1.928 94.12 94.12 0 0010.221 2.781c.071.016 7.862 1.612 14.6 1.833 2.082.071 4.212 0 6.31-.221.942-.095 1.457-.174 3.626-.514l2.613-.403c.728-.11 1.385-.221 1.987-.316 1.9-.308 3.278-.537 4.861-.561 2.154-.039 4.371.245 6.572.83a1.02 1.02 0 11-.531 1.967c-2.019-.537-4.038-.798-6.009-.766-1.441.023-2.755.237-4.568.537-.61.103-1.275.205-2.011.324l-2.605.403c-2.154.332-2.74.426-3.729.521a50.989 50.989 0 01-5.028.253h-.008zm28.107-8.114c-.412 0-.831-.015-1.243-.039a.594.594 0 01-.206-.04 17.009 17.009 0 01-1.623-.561c-1.259-.505-2.153-1.058-2.541-1.295l-.103-.064a165.941 165.941 0 00-12.454-6.707c-3.888-1.881-6.952-3.366-11.124-4.788a73.254 73.254 0 00-13.658-3.223 1.017 1.017 0 01-.871-1.146c.08-.553.586-.956 1.148-.869a74.202 74.202 0 0114.046 3.31c4.283 1.462 7.403 2.971 11.345 4.883a167.99 167.99 0 0112.613 6.787l.134.079c.341.213 1.141.703 2.233 1.145.428.174.871.324 1.314.458.768.048 1.544.04 2.304-.023a15.032 15.032 0 001.869-.269c2.613-.529 8.503-1.225 13.515-1.446 2.834-.118 4.972-.079 7.506.498.768.174 1.528.395 2.272.64.53.182.815.758.641 1.288a1.03 1.03 0 01-1.29.64 20.13 20.13 0 00-2.075-.585c-2.312-.529-4.299-.569-6.967-.45-5.423.237-11.069.971-13.175 1.398-.308.063-1.076.221-2.129.308-.491.04-.99.063-1.481.063v.008zm17.213 23.615c-.214 0-.436-.071-.618-.213l-9.746-7.482a90.984 90.984 0 01-5.051-4.63 97.836 97.836 0 01-3.54-3.689 1.013 1.013 0 01.072-1.438 1.017 1.017 0 011.441.071 90.62 90.62 0 008.36 8.106l9.707 7.45c.443.34.531.98.19 1.43a1.016 1.016 0 01-.807.395h-.008z"/><path d="M180.303 146.604c-.373 0-.737-.205-.911-.561-1.425-2.852-2.343-5.838-2.739-8.88-.333-2.552-.594-4.567.301-6.913 1.005-2.647 2.874-4.116 5.241-5.973l.206-.158a27.797 27.797 0 016.444-3.768 1.007 1.007 0 011.331.545 1.01 1.01 0 01-.547 1.327 25.812 25.812 0 00-5.969 3.484l-.206.158c-2.201 1.73-3.793 2.979-4.6 5.096-.713 1.865-.499 3.484-.182 5.926.364 2.812 1.219 5.585 2.541 8.232a1.016 1.016 0 01-.459 1.367 1.03 1.03 0 01-.451.11v.008zm-62.564-24.033c-.372 0-.76-.024-1.156-.071-2.834-.364-4.726-1.905-5.605-2.789a1.012 1.012 0 01.008-1.438 1.017 1.017 0 011.441.008c.696.703 2.185 1.919 4.418 2.204 2.224.292 3.847-.529 4.924-1.075.159-.079.285-.15.388-.205-.499-.253-1.401-.545-2.692-.893-2.153-.577-4.441-.869-6.809-.869a1.022 1.022 0 01-1.021-1.019c0-.561.459-1.019 1.021-1.019 2.55 0 5.012.316 7.34.94 2.494.672 4.552 1.343 4.544 2.892 0 .932-.894 1.509-1.852 1.991-.982.489-2.684 1.351-4.949 1.351v-.008z"/><path d="M106.481 122.507a1.015 1.015 0 01-.42-1.943c1.861-.838 3.46-2.023 4.743-3.524a13.302 13.302 0 001.742-2.623 1.015 1.015 0 011.369-.45c.507.253.705.861.452 1.367a15.36 15.36 0 01-2.011 3.033c-1.481 1.739-3.318 3.105-5.463 4.061a.969.969 0 01-.42.087l.008-.008zm-3.595-10.523a1.97 1.97 0 01-1.916-2.465 1.92 1.92 0 01.911-1.201c.459-.269.99-.34 1.496-.213a1.972 1.972 0 011.425 2.401 1.933 1.933 0 01-.91 1.201 1.957 1.957 0 01-.998.277h-.008zm0-2.031s-.055.024-.063.048c0 .031.016.071.047.079a.067.067 0 00.08-.048c.008-.031-.008-.071-.048-.079h-.016zm24.631 25.069a8.12 8.12 0 01-.768-.04 22.372 22.372 0 01-3.072-.521 23.106 23.106 0 01-4.038-1.39c-4.71-2.142-7.236-3.856-11.424-6.692a1.017 1.017 0 01-.27-1.415 1.021 1.021 0 011.418-.268c4.236 2.868 6.571 4.448 11.124 6.526 1.179.537 2.422.964 3.673 1.264.911.221 1.853.379 2.787.474.578.055 1.14.008 1.473-.063-.293-.451-1.109-1.328-2.866-2.647a1.017 1.017 0 01-.206-1.422c.34-.45.974-.537 1.425-.206 3.967 2.971 4.077 4.283 3.666 5.167-.483 1.043-1.94 1.233-2.93 1.233h.008zm22.905 1.904c-2.296 0-4.56-.324-6.769-.964a24.5 24.5 0 01-9.279-5.112 1.02 1.02 0 111.353-1.525 22.55 22.55 0 008.504 4.686c2.209.639 4.489.932 6.785.876-.055-.774-.238-1.872-.744-2.709-.182-.301-.46-.759-.99-1.162-.158-.118-.277-.189-.554-.355l-.23-.135c-.649-.395-1.179-.727-1.528-.948a1.019 1.019 0 111.101-1.714c.34.221.847.537 1.488.924l.222.135c.372.229.53.323.744.481.831.632 1.275 1.367 1.489 1.723 1.084 1.785 1.084 4.1 1.06 4.764-.015.521-.427.94-.95.98-.57.039-1.132.055-1.702.055zm4.846-18.464h-.095a29.359 29.359 0 01-2.882-.419 1.022 1.022 0 01-.808-1.193 1.027 1.027 0 011.196-.805c.982.189 1.852.316 2.676.395.562.047.974.545.926 1.106a1.015 1.015 0 01-1.013.924v-.008z"/><path d="M157.239 118.652a12.47 12.47 0 01-2.153-.198 1.008 1.008 0 01-.824-1.177 1.012 1.012 0 011.18-.822c2.589.459 4.062-.063 4.347-.726.261-.617-.357-1.92-2.328-3.311a1.013 1.013 0 01-.246-1.414 1.019 1.019 0 011.418-.245c2.628 1.857 3.76 4.006 3.032 5.752-.586 1.398-2.185 2.149-4.426 2.149v-.008zm-1.884-7.356c-.143 0-.285-.031-.428-.095a74.528 74.528 0 00-6.484-2.615c-7.791-2.733-16.056-4.195-24.56-4.337a1.022 1.022 0 01-1.005-1.035 1.033 1.033 0 011.037-1.003c8.725.142 17.204 1.643 25.201 4.448 2.249.79 4.489 1.69 6.659 2.686.514.237.736.837.498 1.351a1.021 1.021 0 01-.926.592l.008.008zm-44.48-4.866a1.01 1.01 0 01-.958-.68 1.008 1.008 0 01.617-1.295 39.212 39.212 0 0110.626-2.173c.57-.04 1.045.387 1.084.948a1.022 1.022 0 01-.95 1.082c-.214.016-.515.032-.871.063a37.023 37.023 0 00-4.56.688 36.507 36.507 0 00-4.64 1.311 1.01 1.01 0 01-.34.056h-.008z"/><path d="M127.058 105.268a.573.573 0 01-.499-.3.563.563 0 01.238-.758 11.206 11.206 0 013.404-1.13c.76-.127 1.536-.166 2.32-.135a.57.57 0 01.538.585.564.564 0 01-.585.537 10.131 10.131 0 00-5.147 1.13.523.523 0 01-.261.063l-.008.008zm5.202 1.082a.559.559 0 01-.182-1.09c.134-.047.332-.111.57-.19a23.871 23.871 0 015.011-.987.57.57 0 01.61.513.57.57 0 01-.515.609c-.696.063-1.409.158-2.114.284-.91.166-1.805.387-2.652.648-.23.071-.412.134-.538.174a.488.488 0 01-.182.031l-.008.008zm6.508 1.596a.55.55 0 01-.515-.339.563.563 0 01.301-.735 16.463 16.463 0 013.373-.98 17.027 17.027 0 012.264-.229.57.57 0 01.578.545.564.564 0 01-.546.577c-.697.024-1.409.095-2.106.213-.903.158-1.774.395-2.605.703-.222.079-.404.158-.523.206a.53.53 0 01-.213.047l-.008-.008zm7.474 24.073a.59.59 0 01-.206-.039l-4.244-1.675a.565.565 0 01-.316-.727.568.568 0 01.728-.316l4.244 1.675a.566.566 0 01.316.727.562.562 0 01-.522.355zm28.534 5.965a.839.839 0 01-.609-.26 15.126 15.126 0 01-2.74-3.903c-.934-1.904-1.813-3.706-1.164-5.633.657-1.968 2.502-2.868 4.458-3.824a16.029 16.029 0 015.099-1.509.833.833 0 01.934.735.837.837 0 01-.736.932 14.203 14.203 0 00-4.553 1.343c-1.766.869-3.167 1.548-3.602 2.852-.428 1.272.237 2.639 1.084 4.361a13.524 13.524 0 002.439 3.476.837.837 0 01-.024 1.186.84.84 0 01-.586.237v.007zM25.043 18.606c-.159 0-.317-.04-.467-.11a44.61 44.61 0 00-11.425-4.07c-3.017-.624-8.052-1.667-9.359.166-.198.285-.316.648-.348 1.075-.04.56-.53.98-1.085.948a1.018 1.018 0 01-.95-1.082c.056-.814.301-1.525.72-2.118 2.075-2.915 7.483-1.793 11.433-.98 4.086.846 8.1 2.276 11.948 4.259.499.26.696.869.435 1.367a1.027 1.027 0 01-.902.553v-.008z"/><path d="M7.537 32.313c-.324 0-.64-.15-.839-.434a60.133 60.133 0 01-3.127-4.985c-.412-.735-.982-1.746-1.631-3.153a41.94 41.94 0 01-1.584-3.926.803.803 0 01-.047-.198C.3 19.538.277 19.42.253 19.27c-.308-1.753-.53-3.531.491-4.297.293-.222.927-.522 1.86-.056.508.245.713.861.468 1.36a1.024 1.024 0 01-1.037.56c-.008.356.04.988.23 2.078.023.126.039.237.055.324a38.075 38.075 0 001.472 3.642c.618 1.335 1.164 2.3 1.56 3.01a61.005 61.005 0 003.025 4.82 1.013 1.013 0 01-.254 1.414.982.982 0 01-.578.182l-.008.008z"/><path d="M52.817 57.28c-.23 0-.46-.08-.65-.238a22.012 22.012 0 00-5.138-3.192c-1.314-.576-2.597-.924-4.378-1.406-.594-.166-1.243-.34-1.964-.545l-2.549-.719c-2.09-.592-2.652-.75-3.602-1.074a50.205 50.205 0 01-6.08-2.529c-6.2-3.073-12.542-7.718-12.811-7.916a97.237 97.237 0 01-8.313-6.929 1.013 1.013 0 01-.048-1.438 1.018 1.018 0 011.441-.047 95.674 95.674 0 008.131 6.779c.063.047 6.477 4.732 12.51 7.726a49.139 49.139 0 005.827 2.426c.895.3 1.393.442 3.491 1.035l2.55.719c.712.205 1.354.38 1.947.537 1.861.506 3.2.877 4.656 1.51 1.98.86 3.871 2.038 5.621 3.483.436.356.491.996.135 1.43a1.007 1.007 0 01-.784.372l.008.015zm30.466 5.617c-.253 0-.499-.095-.697-.276a21.12 21.12 0 00-1.639-1.391c-1.876-1.438-3.673-2.3-6.144-3.302-5.035-2.039-10.466-3.714-12.556-4.204a17.968 17.968 0 01-4.553-1.722.846.846 0 01-.174-.119 17.51 17.51 0 01-1.243-1.185 15.776 15.776 0 01-1.766-2.236l-.071-.102a164.467 164.467 0 00-8.527-11.274c-2.755-3.327-4.917-5.95-8.107-8.976a72.498 72.498 0 00-11.069-8.603 1.02 1.02 0 01-.317-1.407 1.026 1.026 0 011.41-.316 74.362 74.362 0 0111.385 8.85c3.278 3.112 5.487 5.774 8.273 9.148a163.778 163.778 0 018.638 11.424l.087.127a15.07 15.07 0 001.552 1.967c.317.34.657.664 1.006.964.673.363 1.385.68 2.106.94.879.316 1.552.474 1.813.537 2.597.609 8.242 2.418 12.89 4.306 2.628 1.067 4.552 1.991 6.618 3.571a25.74 25.74 0 011.798 1.525c.411.387.427 1.027.04 1.438a1.001 1.001 0 01-.745.316h-.008zM65.026 81.274a1.02 1.02 0 01-.903-.545l-5.74-10.848a93.717 93.717 0 01-2.66-6.305 82.664 82.664 0 01-1.67-4.827 1.012 1.012 0 01.664-1.272 1.015 1.015 0 011.275.664 90.245 90.245 0 004.22 10.84l5.716 10.8a1.017 1.017 0 01-.902 1.493z"/><path d="M65.017 81.274c-.546 0-.997-.435-1.02-.988-.104-3.184.308-6.28 1.218-9.212.768-2.457 1.37-4.4 3.16-6.155 2.018-1.99 4.33-2.544 7.26-3.247l.253-.063c2.399-.577 4.9-.83 7.427-.743.562.016 1.005.49.981 1.051a.997.997 0 01-1.053.98 25.617 25.617 0 00-6.88.687l-.253.063c-2.724.656-4.687 1.13-6.31 2.726-1.425 1.398-1.909 2.955-2.637 5.31-.847 2.71-1.227 5.585-1.124 8.54.016.56-.42 1.035-.99 1.05h-.032zM21.923 34.17c-1.338 0-3.246-.182-5.193-1.398-2.423-1.51-3.5-3.698-3.928-4.867a1.02 1.02 0 011.916-.695c.34.924 1.188 2.654 3.096 3.84 1.9 1.184 3.721 1.113 4.925 1.066.174 0 .316-.016.435-.032-.356-.434-1.045-1.082-2.074-1.935a26.005 26.005 0 00-5.827-3.619 1.013 1.013 0 01-.5-1.35c.23-.514.84-.736 1.355-.498 2.312 1.058 4.425 2.37 6.278 3.902 1.988 1.644 3.579 3.121 2.93 4.52-.396.853-1.489 1.003-2.518 1.042-.253.008-.554.024-.887.024h-.008z"/><path d="M8.1 28.68h-.135a1.023 1.023 0 01-1.013-1.028c0-.56.459-1.011 1.02-1.011H8.1c1.995 0 3.903-.41 5.668-1.232a13.653 13.653 0 002.684-1.66 1.013 1.013 0 011.433.158 1.015 1.015 0 01-.158 1.43 15.309 15.309 0 01-3.096 1.92 15.436 15.436 0 01-6.524 1.422H8.1zm1.385-10.975a1.95 1.95 0 01-1.243-.442 1.96 1.96 0 01-.285-2.774c.332-.41.808-.663 1.33-.719a1.936 1.936 0 011.449.435 1.96 1.96 0 01.285 2.773 1.959 1.959 0 01-1.536.727zm0-2.03s-.04 0-.048.023c-.015.024-.015.071.008.087.024.024.072.016.088-.008.015-.023.015-.07-.008-.087a.06.06 0 00-.04-.015zM23.396 49.22c-1.053 0-2.209-.608-2.637-.86a22.65 22.65 0 01-2.573-1.746 22.715 22.715 0 01-3.095-2.947c-3.39-3.911-4.973-6.51-7.593-10.832a1.021 1.021 0 01.34-1.399 1.026 1.026 0 011.402.34c2.652 4.37 4.117 6.779 7.394 10.555.848.98 1.798 1.88 2.811 2.679a19.679 19.679 0 002.344 1.588c.506.292 1.029.482 1.37.553-.08-.53-.452-1.667-1.505-3.595a1.022 1.022 0 011.797-.972c2.368 4.353 1.924 5.586 1.18 6.226-.348.292-.776.403-1.227.403l-.008.008zm20.007 11.457c-.119 0-.237-.024-.356-.064a24.052 24.052 0 01-7.316-4.345 24.44 24.44 0 01-6.302-8.501 1.019 1.019 0 011.86-.83 22.346 22.346 0 005.772 7.79 22.152 22.152 0 005.804 3.619c.269-.735.562-1.794.451-2.773-.04-.348-.103-.877-.412-1.47-.095-.174-.174-.284-.356-.553l-.15-.221a68.645 68.645 0 01-.99-1.501 1.018 1.018 0 01.309-1.407c.475-.3 1.1-.165 1.41.309.213.34.545.845.965 1.461l.15.221c.246.364.349.514.468.751.49.924.585 1.77.633 2.18.237 2.063-.72 4.172-1.021 4.773a1.014 1.014 0 01-.91.56h-.009zm10.601-15.391a.975.975 0 01-.506-.134 29.864 29.864 0 01-2.447-1.58 1.02 1.02 0 01-.237-1.422 1.025 1.025 0 011.425-.237 26.492 26.492 0 002.272 1.47 1.018 1.018 0 01-.507 1.903z"/><path d="M58.019 46.859c-1.315 0-2.906-.593-4.592-1.754a1.015 1.015 0 01-.262-1.414 1.02 1.02 0 011.418-.261c2.161 1.485 3.72 1.635 4.251 1.138.491-.459.475-1.897-.736-3.974a1.013 1.013 0 01.372-1.391 1.017 1.017 0 011.393.371c1.616 2.781 1.75 5.207.357 6.487-.578.53-1.33.798-2.201.798zm-.935-8.051c-.285 0-.57-.119-.776-.356a74.634 74.634 0 00-4.797-5.072c-5.939-5.728-12.843-10.484-20.514-14.15a1.027 1.027 0 01-.483-1.359 1.029 1.029 0 011.361-.482c7.87 3.753 14.956 8.643 21.053 14.521a76.713 76.713 0 014.924 5.215 1.022 1.022 0 01-.11 1.438c-.19.166-.428.245-.666.245h.008zM28.97 18.266a.995.995 0 01-.364-.07 21.748 21.748 0 00-.824-.301 37.34 37.34 0 00-9.2-2.007 1.02 1.02 0 11.182-2.03c1.687.15 3.373.41 5.028.774a38.843 38.843 0 015.542 1.667c.523.198.792.79.586 1.311a1.023 1.023 0 01-.95.656z"/><path d="M39.12 22.683a.572.572 0 01-.253-.064 10.804 10.804 0 00-1.948-.758 10.348 10.348 0 00-2.637-.364c-.237 0-.435 0-.562.016a.555.555 0 01-.594-.53.564.564 0 01.53-.592c.151-.008.373-.015.634-.015.982 0 1.972.134 2.93.402.744.206 1.472.49 2.161.838a.556.556 0 01.245.75.557.557 0 01-.498.309l-.008.008zm4.26 3.215a.534.534 0 01-.19-.032 24.468 24.468 0 00-2.043-.624 23.247 23.247 0 00-2.684-.513c-.238-.032-.428-.048-.563-.063a.559.559 0 01-.506-.609.57.57 0 01.61-.505c.142.015.348.031.593.063.927.118 1.877.3 2.819.537.728.182 1.449.403 2.145.656a.562.562 0 01-.19 1.09h.008zm5.264 4.125a.59.59 0 01-.221-.048 14.939 14.939 0 00-2.003-.68 14.96 14.96 0 00-2.66-.442c-.238-.016-.428-.024-.563-.031a.564.564 0 01-.546-.577.564.564 0 01.578-.545c.142 0 .356.015.61.031.95.071 1.916.23 2.866.482.728.19 1.456.435 2.153.735a.558.558 0 01-.214 1.075zm-8.693 23.788a.54.54 0 01-.404-.174l-3.159-3.287a.56.56 0 01.808-.774l3.159 3.287a.56.56 0 01-.404.948zM63.53 71.13a.832.832 0 01-.793-.562 15.164 15.164 0 01-.863-4.685c-.047-2.125-.102-4.124 1.29-5.61 1.418-1.508 3.469-1.564 5.646-1.627a15.944 15.944 0 015.265.75.842.842 0 11-.514 1.605 14.246 14.246 0 00-4.704-.672c-1.97.055-3.523.095-4.465 1.098-.918.98-.879 2.497-.84 4.417.033 1.414.294 2.82.769 4.171a.84.84 0 01-.792 1.114z"/></g><defs><clipPath id="clip0_2248_12378"><path fill="#fff" d="M0 0h437v201H0z"/></clipPath></defs></svg>