<svg width="102" height="38" viewBox="0 0 102 38" fill="none" xmlns="http://www.w3.org/2000/svg">
<path d="M3.01643 22.8369L2.98436 22.8684C3.01643 22.8369 3.01643 22.8369 3.01643 22.8055V22.648C3.36921 20.7901 4.04269 18.9637 4.71617 17.1687C5.42173 15.2793 6.09521 13.4214 6.99318 11.6264C7.82702 9.92597 8.78914 8.25699 9.87954 6.71397C10.8417 5.29691 11.9962 3.75389 13.4714 2.80919C13.9204 2.68323 14.3694 2.21088 14.9467 2.30534C15.524 2.39982 15.524 2.99813 15.3957 3.56495C15.556 3.12409 15.6522 2.65174 15.2674 2.33684C14.7543 1.95895 13.7601 2.55727 13.3432 2.84068C13.1507 2.90366 12.9583 3.02962 12.798 3.15558C12.8942 3.06111 13.0225 2.96664 13.1828 2.87217L13.0225 2.93515L13.4714 2.68323C13.9846 2.39982 15.1391 1.77001 15.524 2.58876C15.8126 3.25005 15.3636 4.35221 15.1391 4.98201C14.7222 6.05268 14.2091 7.06036 13.6639 8.06805C13.7601 7.84762 14.1449 6.99738 14.1449 6.99738C13.9204 6.96589 12.8942 9.29617 12.7017 9.35915H12.7338C12.6055 9.45362 12.5093 9.54809 12.5093 9.57958C12.4452 9.95746 12.8942 9.86299 13.1507 9.8315C14.2411 9.70554 15.6522 8.79232 16.3578 8.00507C17.1275 7.15483 17.4161 5.86374 17.4161 4.73009V4.6986C17.3841 2.55727 15.8767 -0.150889 13.279 0.00656133C11.8358 0.0695428 10.4889 1.45511 9.55883 2.39982C8.88535 3.15558 8.24394 3.97433 7.66667 4.79307C7.4101 5.17095 7.15354 5.51734 6.92904 5.89523C6.67248 6.24162 6.15935 6.77695 6.03107 7.18632C6.03107 7.18632 6.19142 6.99739 6.3197 6.87142C5.96693 7.40676 5.64622 7.97358 5.32551 8.50891C5.29344 8.47742 5.51794 8.03656 5.51794 8.03656C5.2293 7.97358 3.91441 10.5558 3.75406 10.8392C3.17679 11.8784 2.66366 12.9175 2.31088 14.0197C1.92603 15.2478 1.4129 16.413 1.02806 17.6096C0.835634 18.2079 0.643211 18.7747 0.514929 19.373C0.450787 19.6564 0.386646 19.9084 0.354576 20.1918C0.354576 20.2233 0.290434 20.7271 0.354576 20.6641C0.290434 20.8846 0.290435 21.168 0.258364 21.3884C0.258364 21.3884 0.258364 20.8531 0.290434 20.7901C0.162152 20.9475 0.258364 21.5459 0.226293 21.6088C0.0659405 22.8055 -0.190624 24.0651 0.226293 25.2302C0.771493 26.8362 2.11846 28.1588 3.5937 29.009C4.3634 29.4814 5.38966 30.0167 6.35177 29.9537C7.47424 29.8907 8.56464 28.9775 9.39848 28.3162C11.8358 26.3009 14.0487 23.4668 14.4656 20.2548C14.4977 20.0343 14.6581 18.9322 14.2732 18.9007C13.9204 18.8692 13.6639 19.6249 13.5356 19.8139C12.5735 21.3569 11.451 22.8055 10.2002 24.128C8.91742 25.5136 7.31389 26.9937 5.35758 27.4345C5.10102 27.4975 4.81239 27.529 4.52375 27.529C4.1389 27.4975 3.78613 27.403 3.49749 27.1196C3.33714 26.9622 3.17679 26.4268 2.98436 26.3324C2.98436 26.1749 2.95229 26.0175 2.92022 25.923L2.82401 25.734C2.79194 24.7893 2.82401 23.9076 2.98436 22.9314V22.8999C2.98436 22.8684 3.01643 22.8684 3.01643 22.8369ZM8.66085 7.43825C7.4101 9.45362 6.35177 11.532 5.29344 13.6733C4.6841 14.9329 4.07476 16.224 3.5937 17.5781C4.26719 15.4682 5.06895 13.4529 6.03107 11.4375C7.18561 9.01276 8.72499 6.65099 10.553 4.6986C9.8154 5.58033 9.17398 6.58801 8.66085 7.43825ZM11.9641 3.97433C11.5151 4.41519 11.0982 4.91903 10.7134 5.39138C11.3227 4.60413 11.9641 3.81688 12.7659 3.18707C12.4773 3.43899 12.1886 3.75389 11.9641 3.97433ZM15.2353 4.22625C15.2995 4.03731 15.3636 3.81688 15.3957 3.56495C15.3315 3.84837 15.2033 4.13178 15.2033 4.35221C15.2353 4.28923 15.2353 4.25774 15.2353 4.22625Z" fill="white"/>
<path d="M30.7582 17.5151C30.7582 17.5151 30.7903 17.5466 30.7582 17.4836C30.5979 17.2632 30.3734 17.4206 30.1489 17.4836C29.2188 17.6726 28.2567 17.893 27.2946 18.0504C27.6474 16.9168 28.0002 15.7202 28.1284 14.555C28.1926 14.1142 28.2247 13.6418 28.1284 13.201C28.0643 12.9175 27.9681 12.6341 27.8077 12.3822C27.8077 12.3822 27.4229 11.9099 27.5191 12.1618L27.487 12.1303L27.3587 11.8784L27.487 12.0043C27.5191 11.8154 26.9739 11.469 26.9739 11.469C26.1721 10.6817 25.0817 10.0834 23.9913 10.6817C23.3179 11.0596 22.7727 11.6894 22.3237 12.3192C22.1633 12.5397 22.003 12.7916 21.8747 13.0435C21.7464 13.2954 21.554 14.1142 21.3616 14.2401C21.2012 14.3661 20.7201 14.3976 20.4956 14.5235C20.1749 14.6495 19.8863 14.807 19.6297 14.9959C19.0204 15.3738 18.5393 15.9091 18.0904 16.4444C17.3207 17.4521 16.9358 18.5858 16.3906 19.5935C15.3644 21.5144 16.4868 24.0336 18.379 24.9468C18.9883 25.2302 19.6939 25.3562 20.3353 25.2932C21.0088 25.1987 21.6502 24.8523 22.1633 24.4744C22.6444 24.128 23.7027 23.4982 23.8951 22.9629C23.8951 22.9314 23.831 22.9629 23.7348 23.0574L24.6648 21.9867C24.6969 22.0182 24.4403 22.3331 24.4403 22.3331C24.6648 22.4276 25.8194 20.7586 25.9476 20.6326C26.1721 20.2548 26.3966 19.8454 26.6532 19.4675C26.8777 19.1841 26.8135 19.2156 27.1343 19.0896C27.1022 19.1211 27.5191 18.9951 27.5832 18.9951C27.936 18.9322 31.6883 18.6802 30.7582 17.5151ZM19.6618 23.8761H19.6297C16.9679 24.254 20.0467 18.7117 20.1108 18.3968L19.9184 18.6802C20.3994 17.7355 20.8484 16.9798 21.0729 16.7279C21.4257 18.3024 23.1575 18.9007 24.5686 19.0896C23.6386 20.916 21.9068 23.4668 19.6618 23.8761ZM25.9797 15.1533C25.7552 16.0351 25.5628 17.2002 25.0817 17.9875C24.9214 18.3024 25.0176 18.2079 24.6969 18.2709C24.5045 18.3339 24.0876 18.2709 23.8951 18.2394C23.5424 18.2079 23.1254 18.1449 22.8689 17.9245C22.4199 17.5466 22.484 16.9483 22.5482 16.413C22.6123 15.8776 22.7727 15.3738 22.9651 14.8699C23.0613 14.681 23.6706 13.6733 23.5744 13.4844C23.5424 13.3899 23.1896 13.9567 23.1575 13.9882C23.3499 13.6418 23.5424 13.4529 23.7027 13.2324C23.6706 13.2324 23.7027 13.201 23.7348 13.138V13.1695L23.7668 13.1065C23.7668 13.1065 23.7668 13.075 23.7989 13.075C24.28 12.4452 25.4666 11.0281 26.108 12.0043C26.5891 12.8231 26.1401 14.3661 25.9797 15.1533ZM23.7668 13.1065L23.7989 13.075C23.7989 13.1065 23.7668 13.1065 23.7668 13.1065Z" fill="white"/>
<path d="M47.487 17.6726V17.6411C47.2946 16.6019 45.8514 18.3339 45.659 18.4913C44.729 19.499 43.8631 20.6011 43.0292 21.7033C42.1954 22.8369 41.3936 23.9706 40.5277 25.1042C40.1108 25.6711 39.6939 26.2064 39.2128 26.7102C39.0525 26.8992 38.6676 27.4345 38.379 27.4345C37.2565 27.4345 38.1224 22.9944 38.2507 22.3016C38.4431 21.0735 38.5394 19.436 39.3411 18.4598C39.5335 18.2079 41.7143 15.4682 41.7143 15.4682C41.6502 15.4368 41.3936 15.7517 41.2333 15.9406L42.6123 14.1142L42.7085 13.9882H42.7406H42.7085L42.9651 13.6418C42.9972 13.6733 42.9651 13.7363 42.933 13.7993L43.2217 13.4844L44.0555 12.4137C44.6648 11.5635 45.2421 10.6502 45.7873 9.76852C46.6532 8.31997 47.8398 6.24162 47.1984 4.47817C46.7173 3.18707 44.9535 2.93515 43.7669 3.37601C42.9009 3.69091 42.1633 4.35221 41.554 5.04499C41.2333 5.45437 40.9126 5.89523 40.6239 6.36758C40.5277 6.49354 40.1108 7.50123 40.0146 7.62719H40.0467C39.8542 7.97358 39.6618 8.31997 39.5335 8.66636C39.5977 8.41444 39.758 7.9106 39.8863 7.81613C39.6298 8.00507 39.4053 8.91829 39.3411 9.01275C38.1224 11.6264 37.0641 14.2716 36.2944 17.0428C35.4285 16.0666 34.0495 14.3976 32.5422 14.9959C31.2914 15.4997 30.3614 16.7908 29.7199 17.9245C29.1427 18.9322 28.9823 19.9713 28.5654 20.9475C27.8278 22.6165 27.475 26.0489 29.9765 26.5528C30.7462 26.7102 31.4518 26.2379 32.0611 25.8285C33.1515 25.0413 34.1778 24.128 35.1399 23.1833C34.9795 24.8523 34.6267 27.3715 36.0058 28.6941C37.7055 30.3946 39.4053 28.0958 40.4315 26.8362C41.7464 25.1987 42.7727 23.3723 44.0876 21.7978C44.729 21.042 45.3704 20.2862 46.0439 19.5935C46.557 19.0896 47.5833 18.4598 47.487 17.6726ZM35.6851 19.7509C35.653 19.8454 35.653 19.9084 35.653 19.9084C35.5247 20.6641 35.5247 21.3254 34.9795 21.8608C34.4985 22.3646 33.9853 22.837 33.4722 23.3093C32.9911 23.7502 31.8366 25.0413 31.099 24.9783C30.201 24.8838 30.8745 22.8684 31.3235 21.6403C30.8424 22.8999 30.0727 24.9468 31.1311 25.0098C31.4197 25.0413 31.9007 24.7893 32.3177 24.4429C31.9328 24.7893 31.2914 25.2617 30.9066 25.0728C30.1689 24.7578 30.8103 22.9629 30.9386 22.4591C31.3555 21.0105 31.9649 19.625 32.6704 18.3024C33.0232 17.6411 33.5363 16.5704 34.2098 16.5074L34.0495 16.6019C34.0815 16.5704 34.1136 16.5704 34.1457 16.5704C34.3702 16.5074 34.5947 16.6649 34.755 16.7908C35.1719 17.0742 35.4285 17.6096 35.7171 18.0189C36.0378 18.5228 35.8134 19.0581 35.6851 19.625V19.7509ZM40.8484 12.4767C40.8484 12.4452 40.8484 12.3822 40.8805 12.3507V12.3192C40.9126 12.2248 40.9446 12.1933 40.9446 12.1933V12.1618C41.6823 10.1464 42.484 8.13103 43.6386 6.3046C43.9272 5.83225 44.761 4.3837 45.4987 4.79307C45.7873 4.95052 45.8514 5.35989 45.8514 5.64331C45.9797 7.53272 44.4403 9.76852 43.4782 11.28C42.3558 13.0435 41.105 14.7755 39.7901 16.3815L40.4957 15.6572L41.1371 14.8699L39.5015 16.9483L39.277 17.2317L39.1487 17.3577C39.1808 17.1687 39.3411 16.9798 39.5015 16.7593C39.4373 16.8223 39.3732 16.8853 39.3411 16.9483C39.758 15.5942 40.207 14.2401 40.6881 12.886C40.656 12.9175 40.6881 12.8546 40.7201 12.7286L40.8164 12.5711C40.8164 12.5397 40.8164 12.5082 40.8484 12.4767ZM38.1545 15.0589C38.0904 15.2163 37.8979 15.9406 37.8017 16.0351C37.8017 16.0666 37.7697 16.098 37.7376 16.098C37.9942 15.7831 37.8338 15.3738 37.9621 14.9959C38.0262 14.807 38.3469 14.4606 38.4111 14.2086C38.4111 14.4606 38.2507 14.9014 38.1545 15.0589ZM33.0553 23.7817C33.857 23.0889 34.6267 22.3646 35.3644 21.6088C35.3002 22.0182 34.306 22.711 33.9533 23.0259C33.5363 23.4353 33.0553 23.8446 32.5742 24.2225H32.5422L33.0553 23.7817ZM38.7318 12.1933C38.6035 12.5711 38.4431 12.9175 38.2507 13.2639C38.4111 12.7916 38.5073 12.3192 38.7318 11.8784C38.9242 11.532 39.1487 11.0911 39.309 10.6817C39.1487 11.1856 38.8921 11.7209 38.7318 12.1933ZM40.8164 12.5711L40.6881 12.886C40.6881 12.8546 40.7201 12.7916 40.7201 12.7286L40.8164 12.5711ZM33.8891 16.7279C33.7608 16.8223 33.6646 16.9483 33.6326 16.9483C33.6967 16.9483 33.7929 16.8223 33.8891 16.7279ZM34.7871 16.6649C34.8512 16.6964 34.9154 16.7279 34.9795 16.7908L34.7871 16.6649ZM41.1371 16.098C41.1371 16.0666 41.1691 16.0351 41.2012 16.0036C41.1691 16.0666 41.1371 16.098 41.1371 16.098ZM41.2012 16.0036L41.2333 15.9406C41.2333 15.9721 41.2012 16.0036 41.2012 16.0036Z" fill="white"/>
<path d="M57.4154 17.5781C57.4154 17.6096 57.4154 17.6096 57.3833 17.5781V17.5466C56.8702 16.6964 56.1967 17.8615 55.9081 18.2709C55.3629 18.9951 54.8497 19.6879 54.2725 20.3492C53.7914 20.916 53.2783 21.4829 52.8934 22.0812C52.8934 22.1442 52.8293 22.3016 52.8293 22.3016C52.701 22.4906 52.5086 22.648 52.3482 22.8369C52.0596 23.1204 51.771 23.4353 51.4503 23.7187C50.9692 24.1595 48.2753 26.6473 47.9225 25.0413C47.7301 24.254 47.9866 23.2778 48.147 22.522C48.2432 22.1127 48.3394 21.7348 48.4036 21.3254C48.4677 21.0105 48.3715 20.6956 48.5318 20.3807C48.6281 20.1918 48.6601 20.2233 48.8846 20.1603L49.4298 19.9713C49.7826 19.8454 50.1354 19.7194 50.4561 19.5305C50.9371 19.2471 51.3861 18.9007 51.803 18.5543C52.7972 17.7355 53.8556 16.7593 54.2725 15.5312C54.497 14.8384 54.529 14.0827 54.0801 13.4844C53.6631 12.949 52.9576 12.6656 52.3162 12.5397C50.5844 12.2248 49.2695 13.201 48.2753 14.492C47.0566 15.9721 46.1907 17.7985 45.7738 19.6564C45.5493 20.5697 45.421 21.4829 45.2606 22.4276C45.1003 23.3723 45.0041 24.254 45.5172 25.1357C45.4851 24.8208 45.421 24.5374 45.421 24.254C45.421 24.0966 45.4851 23.9391 45.4851 23.8131C45.4851 23.7502 45.421 23.5612 45.421 23.4668C45.421 23.1833 45.4851 22.9629 45.5493 22.6795C45.5813 22.3961 45.5493 22.1127 45.5813 21.8293C45.6134 21.5144 45.7417 21.2624 45.87 20.979C45.9662 20.7271 45.9983 20.5067 46.0945 20.2548C46.1907 20.0343 46.2548 19.7824 46.351 19.5305C46.3831 19.373 46.5435 19.1841 46.6397 18.9951C46.5435 19.2786 46.351 19.5305 46.2869 19.7824C46.1907 20.1603 46.2548 20.5697 46.2228 20.9475C46.1586 21.3569 46.0303 21.7663 45.9662 22.2071C45.9021 22.6165 45.7096 22.9944 45.6455 23.4038C45.5813 23.7817 45.4531 24.0651 45.4851 24.4429C45.4851 24.6634 45.5172 24.8838 45.5493 25.0728C45.5813 25.3247 45.7417 25.4821 45.9021 25.6711C46.4473 26.3009 47.1849 26.8047 48.0187 27.0251C48.596 27.1826 49.1091 27.1511 49.6543 26.8677C50.424 26.4583 51.0975 25.8285 51.6748 25.2302C52.22 24.6319 52.6369 23.9706 53.1179 23.3408C53.5669 22.774 54.1121 22.2386 54.5611 21.6718L56.2929 19.4675L57.2871 18.1764C57.4475 17.9875 57.5437 17.83 57.4154 17.5781ZM49.4619 17.9245C49.494 17.8615 49.494 17.83 49.494 17.83C49.975 16.8223 50.3278 15.7517 51.0013 14.7755L51.5785 14.0197C51.7068 13.8622 51.9313 13.5788 52.1558 13.5159C52.6369 13.4214 52.7652 14.2401 52.7331 14.555L52.6048 15.2163C52.5727 15.4053 52.6369 15.5312 52.6048 15.6887C52.5407 15.8776 52.3803 15.9721 52.2841 16.1295L51.7389 16.8223C51.0013 17.6726 50.0712 18.3968 49.045 18.9322C49.2053 18.5858 49.3015 18.2394 49.4619 17.9245Z" fill="white"/>
<path d="M74.7831 8.35146C74.6548 7.34378 73.0834 6.58801 72.2175 7.18632C71.5119 7.65868 70.8705 8.94977 70.3574 9.70554L67.2145 14.3661C66.7334 15.0904 66.2523 15.8146 65.7392 16.5074C65.6109 16.7279 64.3922 18.5858 64.3922 18.5858C64.5205 18.6173 64.8092 18.1764 64.8733 18.1134C64.0074 19.31 62.8849 20.5697 61.8266 21.7663C61.4738 22.2071 59.3572 24.9468 58.5875 24.6004C58.3309 24.4744 58.2668 24.0651 58.2347 23.8446C57.9781 22.1757 58.6195 20.5067 58.812 18.9007L58.6837 19.2156L58.8761 18.4283C58.8761 18.5228 58.844 18.6173 58.844 18.7117L58.8761 18.5228L58.7799 19.4675C59.2289 17.5781 59.8703 15.7517 60.6079 13.9882C60.8003 13.5473 62.6604 8.98127 63.0453 8.57189C62.9811 8.60338 62.8849 8.72934 62.7887 8.8553C63.3981 7.75315 64.0395 6.71397 64.7771 5.70629C64.6167 5.95821 64.3281 6.43056 64.3281 6.43056C64.4564 6.46205 65.7392 4.73009 65.7392 4.54115C65.7392 4.50966 65.643 4.57264 65.5468 4.63562C65.8675 4.22625 66.092 4.00582 65.8354 3.31303C65.4506 2.52578 64.3281 1.54958 63.3981 2.02193C63.2056 2.14789 63.0774 2.30535 62.9491 2.4628C62.2756 3.31303 61.7304 4.41519 61.2814 5.35989C61.121 5.73778 60.9928 5.80076 60.7362 6.08417C60.3193 6.55652 60.0948 7.18633 59.8061 7.72166C59.2289 8.8553 58.7799 10.0519 58.2668 11.2171C57.7536 12.2877 57.3367 13.3899 56.9839 14.5235C56.8236 14.9644 56.6953 15.4053 56.567 15.8461C56.4387 16.287 55.9897 17.1057 56.0539 17.5781L56.2463 17.1687C56.086 17.704 55.9577 18.2709 55.8294 18.8377C55.7973 18.8377 55.8615 18.4283 55.8615 18.4283C55.7332 18.4283 55.4446 19.8139 55.3804 20.0028C55.2521 20.6641 55.1559 21.3254 55.0918 22.0182C55.0597 22.7425 55.0918 23.4038 55.4446 24.0651C56.118 25.2302 57.3367 26.3638 58.6516 26.7732C58.8761 26.8362 59.1327 26.8992 59.3572 26.8677C59.5817 26.8362 59.8062 26.7417 59.9665 26.5843C60.0948 26.5213 60.6079 25.986 60.2551 26.2379L60.8645 25.6711C60.8645 25.6711 60.5758 26.0175 60.4796 26.0804C60.64 26.0175 60.9928 25.5451 60.9928 25.5451C62.0511 24.4115 63.1094 23.3093 64.0715 22.0812C65.0657 20.7586 65.9637 19.31 66.8617 17.893C66.6051 18.6488 66.541 19.4045 66.3165 20.1603C66.1882 20.5697 66.0599 20.979 65.9637 21.3884C65.8996 21.5459 65.8354 22.3016 65.8996 22.2386C65.8996 22.3331 65.8996 22.3961 65.8675 22.4591C65.8675 22.4276 65.8675 22.3961 65.8354 22.3646C65.7392 22.3961 65.7392 23.3408 65.7071 23.4982C65.5788 23.9391 65.3864 24.3485 65.3223 24.8523C65.1619 26.1749 65.2581 27.7179 66.092 28.8516C66.6051 29.5444 67.3748 29.9222 68.2407 29.9852C69.1708 30.0167 69.6839 29.5129 70.1649 28.8201C70.4856 28.3477 70.7743 27.9384 70.9667 27.403C71.1271 26.9622 71.4478 26.1119 71.2553 25.6711C71.1271 25.3877 71.0629 25.3562 70.8064 25.4821C70.4536 25.6081 70.0367 26.3638 69.8122 26.6473C69.4915 26.9937 68.8501 27.8754 68.3049 27.9384C67.9841 27.9698 68.0483 27.9069 67.9841 27.529C67.9521 27.3086 67.9521 25.8285 67.9841 25.797C67.8879 25.923 67.8559 26.0489 67.8238 26.1749C67.9521 25.1357 68.4011 23.8761 68.7218 22.774C69.1066 21.4829 69.3952 20.1918 69.748 18.9007C70.1329 17.5781 70.646 16.2555 71.1912 14.9959C71.3195 14.7125 72.7627 11.595 72.9872 11.3115C72.7627 11.469 71.6081 13.8622 71.2233 14.6495C71.993 12.8546 72.8909 11.1226 74.0134 9.48511C74.0455 9.48511 73.6927 10.0204 73.7569 10.0204C73.8531 10.0834 74.6227 8.91829 74.5586 8.8868C74.5265 8.8868 74.4945 8.8868 74.4624 8.91828C74.6228 8.76083 74.8152 8.66636 74.7831 8.35146ZM66.4127 23.3093C66.1241 24.6004 65.8033 26.3324 66.0599 27.6235C65.7713 26.1749 65.8675 24.5374 66.1241 23.0889C66.3165 21.8922 66.6693 20.7901 67.0862 19.6879C66.7334 20.9475 66.7013 22.0497 66.4127 23.3093ZM61.0569 11.343C61.9549 9.23319 63.2377 7.31229 64.5847 5.48585C63.2377 7.37527 62.1473 9.42213 61.1852 11.532C60.4476 13.2009 59.7741 14.807 59.293 16.4759C59.3892 16.0351 59.4854 15.5942 59.6458 15.1533C60.0306 13.8622 60.5438 12.6026 61.0569 11.343ZM60.3193 14.3976C60.8965 12.8546 61.57 11.3115 62.3397 9.80001C61.6342 11.2486 60.6721 13.5159 60.3193 14.3976ZM70.4856 16.4759C70.3894 16.7593 70.2612 17.0428 70.1329 17.2947L70.7101 15.8461L70.4856 16.4759ZM62.7887 8.8868V8.8553V8.8868ZM65.194 4.73009C65.194 4.76158 65.1619 4.79307 65.1299 4.79307C65.1619 4.79307 65.194 4.76158 65.194 4.73009Z" fill="white"/>
<path d="M91.2521 17.5466C91.0597 17.5781 89.392 18.0819 89.4882 18.3339C89.4882 18.3653 89.5524 18.3968 89.5844 18.3968C89.0392 18.6173 88.3337 18.6488 87.7885 18.9951C87.1791 19.4045 86.6019 19.8139 85.9605 20.1603C86.5377 19.1841 87.0829 18.1449 87.4357 17.1057C87.564 16.7279 88.3016 14.3976 87.8205 14.1457C87.7564 14.1142 87.7243 14.3976 87.6923 14.555C87.7243 13.2954 87.3074 11.3745 85.5756 11.2486C84.5173 11.1856 83.5231 12.4767 82.9458 13.1695C81.6309 14.807 80.4764 16.5704 79.3218 18.2709C79.0011 18.7432 75.7941 23.8446 75.7941 23.8446C75.7941 23.8446 76.0186 23.5297 76.3072 23.1204C76.0186 23.5927 75.7299 24.0966 75.4734 24.6004C75.6017 24.128 76.8203 20.3807 77.59 18.1764C77.6542 18.0819 77.6862 17.956 77.7183 17.8615L77.9107 17.3262V17.3577C78.1994 16.5074 78.488 15.6572 78.7446 14.7755C78.7446 14.8699 78.6163 15.3423 78.6484 15.3423C78.8408 15.3738 79.0974 14.0512 78.9691 14.0512L78.8729 14.2086C78.9691 13.7363 79.1294 13.5159 78.8408 12.9805C78.6163 12.5082 78.2314 12.0673 77.6862 11.9413C76.6279 11.6579 76.1148 12.5082 76.1789 13.3269C76.1789 13.4529 76.3393 13.5159 76.3393 13.6418C76.3393 13.7993 76.1789 14.0827 76.1469 14.2086C75.9224 14.8699 75.762 15.4997 75.5054 16.1295C75.3772 16.4759 74.1906 19.7509 74.1906 19.7509C74.2547 19.7194 74.2868 19.6564 74.3188 19.5935C74.2226 19.8769 74.1264 20.1603 73.9981 20.4437C73.9661 20.4122 74.0943 20.1918 74.0302 20.1918C73.7095 20.1288 72.9077 22.774 72.8436 23.0259C72.7153 23.6242 72.555 24.191 72.3305 24.7893C72.2342 25.1042 72.106 25.4191 72.0098 25.7655C72.0098 25.797 71.8494 26.5528 72.0098 26.2694C71.9777 26.3638 71.9456 26.4268 71.9456 26.4898C71.9456 26.4583 71.9135 26.4268 71.9135 26.3953C71.8173 26.4268 71.7532 27.0881 71.7532 27.1196C71.6249 27.466 71.4646 27.7179 71.3042 28.0328C70.8873 29.0405 70.6628 30.1427 70.5024 31.2133C70.2459 32.8508 69.4762 35.3071 70.31 36.8186C70.5986 37.3539 71.4966 38.4561 72.2022 37.7948C72.5229 37.4799 72.5229 36.7556 72.555 36.3777C72.7474 35.3386 72.9077 34.2679 73.1322 33.2287L73.4209 31.7802C73.4529 31.7172 73.7095 30.552 73.6133 30.5835C73.5491 30.6465 73.485 30.741 73.4529 30.8355C73.6133 30.3316 73.8378 29.8593 74.0302 29.3239C74.2868 28.5682 74.4792 27.8439 74.864 27.1511C75.313 26.4583 75.6979 25.7026 76.1148 25.0098C76.4355 24.4429 76.7241 23.7187 77.0769 23.2463C77.1731 23.1204 77.3655 23.0574 77.5259 22.9314C77.8466 22.585 78.0711 22.1127 78.3277 21.7348C78.8087 20.979 79.2256 20.2233 79.7388 19.5305C79.9633 19.2156 82.5289 15.6887 82.7855 15.4682C82.7213 15.4997 82.6572 15.5312 82.593 15.5942C82.8496 15.2793 83.1382 14.9959 83.3948 14.744C83.4269 14.7755 83.2024 14.9644 83.2345 14.9959C83.2986 15.0274 84.7738 13.8937 85.0304 13.8622C85.736 13.7363 85.4794 15.0589 85.3832 15.4053C85.2228 16.1295 84.8059 16.8223 84.4531 17.4521C84.2607 17.7985 84.0683 18.1134 83.9079 18.4598C83.8759 18.4913 83.6193 19.0896 83.7155 19.0266L83.5231 19.31C83.5872 19.2156 83.6193 19.0896 83.6193 19.0896C83.491 19.0896 83.3307 19.6249 83.2986 19.7194C83.1062 20.0343 82.8496 20.2862 82.593 20.5382C81.9196 21.2939 81.3102 22.0812 80.6367 22.8055C80.1236 23.3408 79.4501 24.2855 78.6804 24.4744C78.1352 24.6004 77.7183 24.317 78.007 25.1672C78.1994 25.7655 78.9049 27.1511 79.6746 27.1511C80.3802 27.1511 81.2461 26.1119 81.663 25.6711C82.1441 25.1357 82.6893 24.6319 83.2024 24.0651C83.3307 23.8761 84.8059 22.1442 85.0304 22.0497H84.9983C85.319 21.8922 85.6397 22.0182 86.0887 21.7033C86.3453 21.5144 86.4736 21.3254 86.7622 21.1365C86.9867 21.0105 87.0829 20.8531 87.1791 20.7586C87.1791 20.7586 87.1791 20.7901 87.2112 20.7901C87.5319 20.4752 87.9809 20.5697 88.3978 20.2862C88.9109 19.9398 89.5524 19.499 90.0014 19.0896C90.5786 18.5858 91.3804 18.3024 91.6369 17.4521C91.5087 17.4836 91.3483 17.4836 91.2521 17.5466ZM74.832 20.7586V20.7901C74.7999 21.1995 74.5113 21.6718 74.3509 22.0497C74.1264 22.648 73.934 23.2463 73.7416 23.8446C73.3247 25.1042 72.8436 26.3638 72.3305 27.5605C71.9135 28.5682 71.5287 29.6703 71.2401 30.7725C71.5928 29.2295 72.1701 27.7179 72.6191 26.2694C73.036 24.9468 73.6774 23.6557 74.1906 22.3646C74.2547 22.2071 74.864 20.9475 74.7999 20.6956C74.832 20.7271 74.832 20.7586 74.832 20.7586ZM76.2431 21.7033C76.1469 22.0812 76.0506 22.4276 75.9224 22.7425C76.0186 22.4276 76.1148 22.0497 76.2431 21.7033ZM80.6367 16.5389L80.0274 17.4206C80.2198 17.1372 80.4122 16.8223 80.6367 16.5389ZM85.8642 20.3492C85.8963 20.2548 86.0567 20.2233 86.1529 20.1603L85.8642 20.3492ZM78.1994 16.6649C78.1673 16.6964 78.1352 16.7908 78.1032 16.9168L78.1994 16.6649ZM77.9749 17.2002L78.1032 16.9168L77.9749 17.2002ZM79.6426 17.9875V17.956C79.6746 17.9245 79.6746 17.9245 79.6746 17.893C79.7067 17.8615 79.6746 17.9245 79.6426 17.9875ZM77.9749 17.2002C77.9749 17.2632 77.9428 17.2947 77.9107 17.3262L77.9749 17.2002ZM71.1759 31.0559C71.1759 31.0244 71.1759 31.0244 71.208 30.9929C71.208 31.0244 71.208 31.0244 71.1759 31.0559ZM76.4355 21.3254C76.4355 21.3569 76.4034 21.3569 76.4034 21.3569L76.4355 21.3254Z" fill="white"/>
<path d="M101.993 17.956C101.897 17.5151 101.64 17.4521 101.319 17.5781C100.71 17.8615 100.101 18.4913 99.5233 18.8692C98.2084 19.6879 96.8935 20.3492 95.4824 21.042C95.4824 21.0105 95.4503 20.9475 95.4183 20.8531C95.4503 21.0105 95.4183 21.0735 95.3862 21.105C95.0655 19.7509 94.7448 18.3968 94.4882 17.0113C94.6165 17.6096 94.9051 18.6173 95.1296 19.4675C94.841 18.1449 94.4882 16.5074 94.5203 16.5074C94.4561 16.5389 94.4562 16.6019 94.4562 16.6649C94.392 16.287 94.2958 15.8146 94.3599 15.4053C94.392 14.9329 94.6486 14.5235 94.8089 14.0827C94.7769 14.3031 94.7127 14.5865 94.7127 14.5865C94.9051 14.618 95.0334 13.4529 95.0334 13.3269C95.0013 13.138 94.5844 12.5397 94.5844 12.6971C93.7185 11.9099 92.0188 13.6418 91.7622 14.3976C91.5698 14.9014 91.5698 15.4368 91.6019 15.9721C91.6339 16.5074 91.7943 16.9798 91.9546 17.4836C92.0509 17.8615 91.9226 18.1134 91.9546 18.5228C92.0188 19.1526 92.2433 19.7824 92.3716 20.3807C92.4998 20.8531 92.9168 21.7978 92.8205 22.2386C92.7564 22.6795 91.7943 23.0574 91.3774 23.3093C90.8322 23.6557 90.287 24.0651 89.7418 24.4744C88.7797 25.1987 87.7534 26.1119 87.3686 27.2771C87.3044 27.4345 87.0799 28.1273 87.3044 28.2533C87.3365 28.2847 87.4327 27.7494 87.4648 27.6864C87.0478 29.7648 89.1324 30.7725 91.0887 30.804C93.3016 30.8669 94.841 29.6073 95.6107 27.6549C95.9314 26.8047 96.0276 25.923 95.9955 25.0413C95.9955 24.4429 95.9314 23.8761 95.8352 23.3093C95.771 22.8055 95.7069 22.8369 96.0597 22.5535C96.3162 22.3646 96.7011 22.2386 96.9576 22.1127C97.9839 21.5773 98.914 20.9475 99.844 20.2862C100.517 19.8139 102.121 18.9951 101.993 17.9875V17.956ZM89.0362 28.7886C88.2024 28.5367 89.0362 27.2456 89.3249 26.8362C89.8059 26.2064 90.5115 25.734 91.1529 25.2932L92.115 24.6634C92.2112 24.6004 92.8205 24.128 92.6281 24.191L93.013 23.9706L92.7885 24.1595C92.8526 24.128 92.9488 24.0966 93.013 24.0336C93.045 24.7893 93.045 25.5451 92.8205 26.3009C92.7885 26.4268 92.1791 27.6864 91.9226 27.9384L92.0829 27.8124C91.7943 28.1588 91.4736 28.4422 91.0887 28.6626C91.0887 28.6311 91.3774 28.4422 91.3453 28.4107L90.4473 28.7571C89.9983 28.8516 89.4852 28.946 89.0362 28.7886ZM93.0771 29.7018C92.2433 30.0482 91.4415 30.2057 90.5756 30.2371C92.1471 30.1427 93.7827 29.3869 94.7127 28.0958C94.3599 28.7886 93.9109 29.3239 93.0771 29.7018ZM95.4183 20.7586C95.3862 20.5382 95.3221 20.2233 95.2258 19.8769C95.29 20.2233 95.3541 20.5697 95.4183 20.7586ZM95.8352 24.0336C95.8031 24.0021 95.8031 23.9391 95.8031 23.8761C95.8031 23.9391 95.8352 24.0021 95.8352 24.0336Z" fill="white"/>
</svg>
