<svg width="301" height="138" fill="none" xmlns="http://www.w3.org/2000/svg"><g clip-path="url(#clip0_2248_12686)" fill="#408F95"><path d="M237.054 15.335a.701.701 0 00.632-.396c.376-.776.524-1.552.447-2.3-.398-3.83-6.369-5.74-10.732-7.133-4.603-1.47-9.478-2.316-14.484-2.512-.371-.027-.715.282-.731.673a.704.704 0 00.676.727c4.881.19 9.626 1.009 14.108 2.44 3.539 1.134 9.467 3.028 9.767 5.951.049.494-.054 1.015-.316 1.557a.697.697 0 00.633 1.003v-.01zm-78.655 4.279h.082a18.807 18.807 0 003.354-.7c1.456-.444 2.541-.987 2.999-1.214l.153-.076a195.051 195.051 0 0115.231-6.57c4.728-1.8 8.469-3.227 13.498-4.474a85.651 85.651 0 0116.332-2.392.699.699 0 10-.07-1.394 86.79 86.79 0 00-16.606 2.435c-5.115 1.27-8.884 2.707-13.661 4.524a196.991 196.991 0 00-15.34 6.612l-.169.082c-.469.233-1.445.721-2.787 1.133a17.41 17.41 0 01-3.103.646.696.696 0 00.082 1.388h.005z"/><path d="M224.075 27.707a.751.751 0 00.321-.075 91.778 91.778 0 004.712-2.599c.453-.27 1.298-.77 2.389-1.502.332-.223.692-.467 1.063-.738a46.092 46.092 0 003.834-3.043c.032-.032.065-.065.092-.103.06-.076.153-.19.273-.33 1.233-1.487 2.394-3.033 1.909-4.14-.153-.352-.529-.78-1.434-.83a.694.694 0 00-.742.657.7.7 0 00.66.738c.114.005.185.021.229.032 0 .25-.256.906-1.707 2.653-.109.13-.196.238-.262.32a46.252 46.252 0 01-3.67 2.907c-.365.26-.709.494-1.031.716-1.058.71-1.881 1.199-2.323 1.464a92.021 92.021 0 01-4.635 2.555.697.697 0 00-.3.944c.125.239.371.38.622.38v-.006zm-27.96 4.074c6.86 0 13.448-.77 13.53-.781a113.399 113.399 0 0012.406-2.257.696.696 0 00.518-.84.7.7 0 00-.845-.516c-4.041.971-8.164 1.72-12.248 2.224-.088.011-9.364 1.096-17.282.673a55.55 55.55 0 01-7.4-.895c-1.096-.206-1.691-.353-4.183-.955l-3.016-.732c-.987-.239-1.848-.456-2.612-.646-2.279-.57-3.785-.949-5.246-1.052a21.687 21.687 0 00-6.555.553.694.694 0 00-.518.841.695.695 0 00.845.515 20.47 20.47 0 016.13-.515c1.341.092 2.721.44 5 1.015.769.195 1.636.412 2.624.65l3.015.733c2.46.596 3.12.76 4.254.97a58.23 58.23 0 007.586.917c1.314.07 2.661.098 3.997.098zm-39.924-12.118a.698.698 0 00.207-1.367c-1.636-.499-10.165-3.048-17.195-4.079-3.43-.504-5.944-.553-8.681-.174a27.38 27.38 0 00-2.662.51.698.698 0 10.339 1.356c.823-.2 1.674-.363 2.524-.482 2.596-.364 4.996-.315 8.284.168 6.926 1.02 15.368 3.536 16.987 4.036a.693.693 0 00.208.032h-.011zm-20.2 25.387c.05 0 .099 0 .148-.017 3.141-.673 8.485-3.26 10.437-5.045 1.686-1.253 3.033-2.245 4.178-3.091 3.964-2.924 5.606-4.128 10.814-8.49a.7.7 0 00.087-.981.708.708 0 00-.987-.087c-5.175 4.329-6.806 5.533-10.749 8.435-1.156.851-2.514 1.85-4.215 3.119-.022.016-.038.032-.06.048-1.756 1.628-6.888 4.101-9.805 4.725a.696.696 0 00-.54.83c.071.325.36.553.687.553h.005z"/><path d="M135.991 45.05a.704.704 0 00.513-.223c1.827-1.937 4.172-5.197 4.952-9.731.234-1.356.779-4.53-.502-8.137-1.173-3.292-3.218-5.196-5.584-7.404a31.853 31.853 0 00-7.024-4.941.705.705 0 00-.949.292.697.697 0 00.294.944 30.45 30.45 0 016.713 4.725c2.324 2.164 4.161 3.878 5.219 6.85 1.162 3.266.66 6.19.442 7.437-.72 4.193-2.896 7.215-4.592 9.01a.693.693 0 00.033.987c.136.125.311.19.48.19h.005zm9.8-21.823a.684.684 0 00.545-.26.695.695 0 00-.103-.982 19.086 19.086 0 00-3.888-2.425 19.41 19.41 0 00-5.268-1.6.699.699 0 10-.213 1.383 17.867 17.867 0 018.491 3.738.709.709 0 00.442.157l-.006-.01zm-2.874 15.161a.73.73 0 00.431-.146c1.516-1.166 4.21-3.678 5.17-7.4.294-1.149.916-3.547-.169-5.993a7.575 7.575 0 00-.535-.993.7.7 0 00-.97-.206.693.693 0 00-.208.966c.164.25.311.52.431.797.889 2.007.371 4.009.093 5.088-.856 3.32-3.294 5.587-4.668 6.64a.696.696 0 00-.126.981.695.695 0 00.557.272l-.006-.006zm69.193-14.993c.147 0 .294 0 .447-.01 3.19-.136 5.448-1.666 6.511-2.567a.693.693 0 00.082-.981.703.703 0 00-.987-.082c-.927.787-2.896 2.116-5.661 2.235-2.775.114-4.662-1.041-5.911-1.811-.682-.424-.944-.679-1.031-.792.207-.234 1.102-.64 4.003-1.156 2.607-.46 5.35-.575 8.153-.336a.696.696 0 10.12-1.389c-2.923-.25-5.792-.13-8.518.353-2.667.472-5.072 1.02-5.187 2.462-.054.657.464 1.27 1.724 2.045 1.249.77 3.299 2.03 6.26 2.03h-.005z"/><path d="M224.445 24.41c.246 0 .486-.13.617-.358a.694.694 0 00-.273-.95 16.103 16.103 0 01-5.339-4.708 15.525 15.525 0 01-1.821-3.325.703.703 0 00-.911-.39.698.698 0 00-.393.905 17.181 17.181 0 001.985 3.618c1.511 2.105 3.463 3.83 5.797 5.12.109.06.224.088.338.088zm6.452-13.86a1.116 1.116 0 00-1.287-.911 1.11 1.11 0 10.371 2.191 1.112 1.112 0 00.916-1.28zm-31.466 26.33a26.19 26.19 0 003.599-.293 25.822 25.822 0 004.761-1.193c5.671-2.007 8.774-3.737 13.911-6.601a.695.695 0 00.268-.95.702.702 0 00-.955-.265c-5.246 2.923-8.136 4.534-13.699 6.503a24.81 24.81 0 01-4.499 1.129 24.95 24.95 0 01-3.365.276c-1.281-.049-1.897-.222-2.175-.347.343-.233 1.221-.689 3.419-1.378a.697.697 0 10-.42-1.329c-3.534 1.107-4.728 1.866-4.565 2.892.208 1.28 2.225 1.502 3.725 1.562l-.005-.006z"/><path d="M197.288 33.831c.436 0 .85-.021 1.243-.043 5.633-.347 10.181-1.54 10.372-1.595a63.507 63.507 0 006.321-2.045.7.7 0 00.403-.9.706.706 0 00-.905-.401 62.502 62.502 0 01-6.179 2.001c-.185.049-4.597 1.21-10.094 1.546-1.265.076-2.628.109-4.226-.456a8.953 8.953 0 01-2.443-1.318.7.7 0 00-.982.136.693.693 0 00.136.976 10.352 10.352 0 002.82 1.52c1.303.46 2.486.58 3.539.58h-.005z"/><path d="M174.116 36.88c1.832 0 3.654-.18 5.459-.537a28.321 28.321 0 0011.136-4.925.698.698 0 00.147-.977.707.707 0 00-.982-.146 26.82 26.82 0 01-10.574 4.68 26.56 26.56 0 01-8.643.288c.109-.933.425-2.587 1.298-3.78.25-.342.665-.912 1.396-1.373.19-.125.338-.195.736-.39l.278-.136c.796-.396 1.44-.727 1.865-.95a.697.697 0 00.294-.943.703.703 0 00-.948-.293 68.86 68.86 0 01-1.838.933l-.273.136c-.42.206-.611.298-.872.466-.955.608-1.489 1.335-1.773 1.725-1.358 1.844-1.587 4.421-1.625 5.164a.703.703 0 00.595.727c1.439.222 2.884.336 4.33.336l-.006-.005zm-6.119-22.028c1.031 0 2.127-.07 3.349-.2a.696.696 0 00.621-.77.695.695 0 00-.774-.62c-1.178.126-2.225.19-3.207.196a.699.699 0 00-.698.7.7.7 0 00.704.694h.005zm-.621-7.925c.071 0 .147-.01.218-.033.785-.26 1.57-.526 2.356-.797 2.165-.743 4.406-1.513 6.729-2.023 10.111-2.045 19.96-2.924 29.263-2.61a.702.702 0 00.725-.672.699.699 0 00-.676-.721c-9.407-.32-19.37.564-29.601 2.636-2.416.531-4.69 1.313-6.893 2.072-.78.266-1.56.537-2.339.792a.694.694 0 00-.448.879.706.706 0 00.666.482v-.005zm53.563-1.633a.699.699 0 00.638-.407.698.698 0 00-.349-.922A45.514 45.514 0 00208.309.293a.696.696 0 00-.785.602.694.694 0 00.605.781c2.427.315 4.848.835 7.188 1.551 1.81.554 3.61 1.226 5.333 2.007a.682.682 0 00.289.066v-.006z"/><path d="M207.033 3.39a.715.715 0 00.594-.32.697.697 0 00-.213-.965 16.688 16.688 0 00-.632-.38 13.226 13.226 0 00-5.917-1.67.7.7 0 00-.731.667.7.7 0 00.671.726 11.843 11.843 0 015.29 1.486c.24.136.43.256.567.337a.672.672 0 00.376.108l-.005.011zm-9.778.613a.7.7 0 00.589-.32.7.7 0 00-.213-.966 13.122 13.122 0 00-3.861-1.66 13.226 13.226 0 00-2.694-.39.697.697 0 10-.06 1.394 11.844 11.844 0 015.29 1.486c.24.136.431.255.567.337a.686.686 0 00.376.108l.006.011zm-9.02 1.27a.715.715 0 00.594-.32.699.699 0 00-.212-.966 17.757 17.757 0 00-.633-.38 13.312 13.312 0 00-5.922-1.67.698.698 0 10-.06 1.394 11.836 11.836 0 015.289 1.486c.24.136.431.255.568.336a.672.672 0 00.376.109v.01zM174.83 34.07h.017c2.399-.06 4.679-.596 6.767-1.605.911-.44 1.784-.966 2.596-1.568a.693.693 0 00.142-.976.702.702 0 00-.982-.141 14.435 14.435 0 01-2.366 1.432c-1.909.917-3.992 1.41-6.19 1.464a.707.707 0 00-.687.716c.011.38.322.684.703.684v-.005zm1.266-2.815a.73.73 0 00.24-.044l3.997-1.453a.697.697 0 00.42-.895.705.705 0 00-.9-.418l-3.997 1.454a.696.696 0 00-.42.895.703.703 0 00.66.46zm-9.958-16.468a.702.702 0 00.703-.678.698.698 0 00-.681-.716c-2.645-.076-3.774-.586-3.96-1.812.502-1.676 1.789-3.038 3.927-4.155a.697.697 0 00.294-.944.705.705 0 00-.949-.293c-2.557 1.335-4.084 3.021-4.662 5.153a.786.786 0 00-.022.25c.294 3.048 3.823 3.151 5.328 3.195h.022zM137.104 128.67a.707.707 0 00.578-.303c.316-.461.49-.95.518-1.449.125-2.451-3.278-4.144-5.764-5.381a32.263 32.263 0 00-8.279-2.777.706.706 0 00-.823.553.698.698 0 00.556.82 31.105 31.105 0 017.918 2.652c1.898.944 5.067 2.522 4.99 4.063-.011.238-.103.483-.272.727a.698.698 0 00.578 1.095z"/><path d="M127.626 134.968a.641.641 0 00.201-.033 43.278 43.278 0 003.823-1.356c.54-.222 1.276-.526 2.231-1.003.867-.44 1.723-.923 2.53-1.443a.924.924 0 00.109-.087c.038-.038.104-.092.18-.163.916-.813 1.794-1.681 1.571-2.522-.066-.244-.278-.673-.982-.819a.7.7 0 00-.513 1.28c-.147.195-.441.515-1.014 1.02-.065.059-.125.108-.169.152a26.303 26.303 0 01-4.483 2.299 40.38 40.38 0 01-3.692 1.313.705.705 0 00-.469.873.699.699 0 00.671.494l.006-.005z"/><path d="M121.534 135.364c1.86 0 3.73-.076 5.584-.234a.695.695 0 00.638-.754.7.7 0 00-.758-.634c-2.426.2-4.88.271-7.296.2-.049 0-5.524-.195-10.067-1.144a32.311 32.311 0 01-4.188-1.172c-.611-.217-.944-.352-2.34-.927l-1.685-.695c-.474-.195-.894-.374-1.282-.537-1.221-.515-2.105-.889-3.162-1.16a16.386 16.386 0 00-4.532-.51.706.706 0 00-.687.716.7.7 0 00.72.683c1.44-.032 2.83.125 4.144.461.96.25 1.8.602 2.967 1.096.392.168.818.347 1.298.542l1.685.695c1.385.569 1.756.721 2.405.949 1.434.504 2.906.917 4.368 1.22 4.668.971 10.083 1.167 10.312 1.172.622.016 1.249.027 1.871.027l.005.006zm-29.759-11.218h.027c.393-.016.791-.054 1.178-.108a11.412 11.412 0 001.914-.456l.082-.027a114.208 114.208 0 019.429-2.457c2.907-.624 5.203-1.118 8.224-1.394 3.19-.293 6.44-.272 9.663.065a.699.699 0 10.142-1.389 51.562 51.562 0 00-9.936-.065c-3.108.282-5.443.787-8.393 1.421a114.14 114.14 0 00-9.549 2.49l-.103.032a9.937 9.937 0 01-2.64.494 10.814 10.814 0 01-1.538-.39c-.61-.201-1.041-.407-1.205-.483-1.663-.776-5.491-2.197-8.813-3.152-1.875-.542-3.315-.857-5.11-.884a14.64 14.64 0 00-1.624.06.7.7 0 00-.638.759.703.703 0 00.763.635c.49-.044.987-.06 1.483-.054 1.63.021 2.972.32 4.734.829 3.594 1.037 7.247 2.441 8.589 3.065.202.092.687.32 1.374.548a13.26 13.26 0 001.822.456c.038.005.076.011.12.011l.005-.006zm-16.164 12.807a.76.76 0 00.284-.06l7.744-3.411a61.308 61.308 0 004.133-2.268 65.243 65.243 0 002.967-1.887.696.696 0 00.185-.971.704.704 0 00-.976-.185 65.558 65.558 0 01-2.901 1.85 59.98 59.98 0 01-4.014 2.202l-7.71 3.396a.702.702 0 00-.36.922.7.7 0 00.643.418l.005-.006z"/><path d="M75.611 136.953a.693.693 0 00.535-.249 19.09 19.09 0 003.277-5.479c.638-1.649 1.14-2.951.927-4.659-.24-1.931-1.254-3.211-2.535-4.833l-.11-.141a18.922 18.922 0 00-3.697-3.553.698.698 0 10-.834 1.123 17.715 17.715 0 013.424 3.292l.11.141c1.188 1.508 2.05 2.598 2.246 4.144.17 1.362-.234 2.403-.845 3.982a17.895 17.895 0 01-3.043 5.082.694.694 0 00.534 1.145l.011.005zm47.123-5.75c1.609 0 2.852-.602 3.496-.992a.7.7 0 00.229-.96.707.707 0 00-.966-.228c-.578.352-1.777.922-3.315.754-1.538-.168-2.487-.977-3.12-1.514-.092-.076-.163-.146-.223-.2.376-.087 1.025-.141 1.947-.163a18.226 18.226 0 014.7.521.707.707 0 00.851-.516.702.702 0 00-.518-.846 19.653 19.653 0 00-5.066-.564c-1.778.043-3.267.163-3.512 1.193-.147.63.376 1.177.911 1.633.67.57 1.914 1.622 3.877 1.839.245.027.48.038.709.038v.005z"/><path d="M128.945 132.825a.7.7 0 00.431-1.253 9.17 9.17 0 01-2.601-3.119 8.777 8.777 0 01-.736-2.034.702.702 0 00-.84-.521.697.697 0 00-.524.836c.191.819.475 1.605.851 2.349a10.566 10.566 0 002.994 3.596.697.697 0 00.431.146h-.006zm4.281-6.417h.022a1.363 1.363 0 001.342-1.372 1.346 1.346 0 00-1.38-1.335c-.365 0-.703.152-.954.413-.251.26-.388.602-.382.96a1.362 1.362 0 001.358 1.334h-.006zm.044-1.356s-.016.038-.044.043c-.021 0-.043-.021-.043-.043h.087zm0 0h-.087s.027-.06.043-.043c.022 0 .044.016.044.043zM115.339 138c.976 0 1.953-.092 2.912-.277 3.507-.667 5.476-1.399 8.737-2.614a.696.696 0 00.409-.901.703.703 0 00-.906-.407c-3.304 1.232-5.12 1.904-8.507 2.55-.878.168-1.75.249-2.667.249a14.56 14.56 0 01-1.946-.135 3.494 3.494 0 01-.977-.282c.273-.25.955-.705 2.351-1.302a.699.699 0 10-.556-1.28c-3.142 1.339-3.431 2.197-3.3 2.853.207 1.025 1.8 1.329 2.28 1.394.714.098 1.467.146 2.159.152h.011zm-14.386-2.218a16.924 16.924 0 007.799-1.926.698.698 0 00.294-.944.704.704 0 00-.949-.293 15.517 15.517 0 01-6.457 1.747 15.389 15.389 0 01-4.684-.515c.196-.597.513-1.259.943-1.687.175-.174.431-.434.851-.613.125-.055.218-.082.43-.152l.175-.055c.502-.157.906-.292 1.178-.385a.699.699 0 10-.458-1.323c-.262.092-.66.222-1.145.38l-.175.054c-.289.092-.409.13-.578.206a4.122 4.122 0 00-1.276.906c-1.014 1.014-1.396 2.56-1.489 3.01-.07.353.131.7.475.808a16.75 16.75 0 005.061.782h.005zm-2.073-13.371a.707.707 0 00.704-.667.707.707 0 00-.67-.733 17.377 17.377 0 01-1.855-.173.7.7 0 00-.796.586.698.698 0 00.59.791c.61.093 1.264.152 1.995.185h.033v.011z"/><path d="M96.956 122.232a.698.698 0 00.043-1.394c-1.805-.114-2.71-.7-2.786-1.194-.071-.455.556-1.22 2.1-1.833a.697.697 0 00.392-.906.703.703 0 00-.91-.391c-2.062.814-3.175 2.062-2.968 3.347.213 1.335 1.74 2.219 4.085 2.365h.044v.006zm23.302-4.405a.698.698 0 00.682-.542.7.7 0 00-.529-.836c-5.863-1.318-11.779-1.692-17.593-1.112a53.71 53.71 0 00-4.891.716.702.702 0 00-.557.819c.077.38.442.624.824.554a54.27 54.27 0 014.766-.7c5.661-.564 11.43-.201 17.14 1.085a.766.766 0 00.153.016h.005zm8.371 3.564a.695.695 0 00.387-1.28 26.61 26.61 0 00-3.048-1.714 26.162 26.162 0 00-3.103-1.259c-.246-.081-.458-.152-.606-.195a.706.706 0 00-.878.456.699.699 0 00.459.873c.141.043.338.108.572.184a25.656 25.656 0 015.83 2.821c.12.076.251.114.382.114h.005z"/><path d="M117.908 117.984a.383.383 0 00.256-.672 7.64 7.64 0 00-2.089-1.302 7.765 7.765 0 00-1.526-.467.381.381 0 00-.453.304.38.38 0 00.305.45 6.9 6.9 0 011.375.418 7.18 7.18 0 011.581.922c.125.098.229.19.3.25a.379.379 0 00.256.097h-.005zm-3.654-.114a.398.398 0 00.327-.179.382.382 0 00-.114-.531 15.71 15.71 0 00-2.1-1.123 16.211 16.211 0 00-1.44-.559.394.394 0 00-.49.244.39.39 0 00.245.489 15.538 15.538 0 013.038 1.394c.141.081.256.157.332.206a.371.371 0 00.207.059h-.005zm-4.619.006a.385.385 0 00.229-.695c-.082-.059-.196-.146-.344-.244a11.164 11.164 0 00-3.233-1.481.383.383 0 00-.475.272.384.384 0 00.273.471c.463.125.927.288 1.374.483a10.09 10.09 0 011.947 1.112.398.398 0 00.229.076v.006zm-8.927 14.852h.054l3.114-.429a.377.377 0 00.327-.434.382.382 0 00-.436-.325l-3.114.428a.379.379 0 00-.327.434c.027.19.191.331.382.331v-.005zm-20.025-.635a.56.56 0 00.31-.092 10.477 10.477 0 002.471-2.159c.938-1.123 1.816-2.181 1.701-3.57-.12-1.415-1.205-2.316-2.355-3.27a10.833 10.833 0 00-3.169-1.828.58.58 0 00-.747.336.575.575 0 00.338.743 9.777 9.777 0 012.83 1.633c1.042.862 1.865 1.546 1.947 2.484.077.917-.589 1.72-1.434 2.734a9.358 9.358 0 01-2.203 1.926.576.576 0 00.31 1.063zM63.51 108.47c.317 0 .6-.211.682-.531.136-.543.13-1.058-.022-1.536-.742-2.343-4.526-2.75-7.286-3.043a32.368 32.368 0 00-8.73.266.7.7 0 10.228 1.378 30.857 30.857 0 018.35-.255c2.105.228 5.633.608 6.096 2.078.071.227.071.488 0 .775a.699.699 0 00.682.868z"/><path d="M56.835 117.653a.72.72 0 00.425-.141 41.079 41.079 0 003.109-2.598c.43-.396 1.02-.938 1.74-1.714.66-.71 1.287-1.459 1.865-2.229a.842.842 0 00.07-.12c.022-.048.06-.119.11-.211.578-1.08 1.096-2.197.589-2.913-.148-.206-.497-.532-1.206-.429a.703.703 0 00-.594.792.7.7 0 00.562.586c-.066.234-.235.635-.595 1.313-.043.076-.076.146-.103.195a26.164 26.164 0 01-1.735 2.067 26.036 26.036 0 01-1.663 1.638 41.015 41.015 0 01-3.005 2.511.692.692 0 00-.13.977.706.706 0 00.556.276h.005z"/><path d="M21.863 124.439a.734.734 0 00.261-.049 15.04 15.04 0 014.047-1.003c.987-.098 1.903-.06 3.168 0 .425.021.889.038 1.402.059l1.827.065c1.494.055 1.892.071 2.579.055a34.52 34.52 0 004.52-.375c4.712-.705 9.86-2.403 10.079-2.479a67.146 67.146 0 006.92-2.777.698.698 0 00.338-.927.706.706 0 00-.932-.337 64.45 64.45 0 01-6.768 2.718c-.05.016-5.246 1.73-9.838 2.419-1.418.212-2.88.331-4.335.358-.65.011-1.004 0-2.509-.054l-1.832-.065a67.714 67.714 0 01-1.391-.06c-1.325-.06-2.285-.103-3.37.006a16.387 16.387 0 00-4.428 1.095.697.697 0 00.262 1.346v.005zM.704 121.7a.735.735 0 00.3-.065c.441-.212.905-.402 1.368-.564 1.538-.548 2.896-.733 4.728-.868 3.73-.277 7.652-.223 9.124-.103.224.016.763.065 1.483.038a12.77 12.77 0 001.865-.206.602.602 0 00.142-.044 10.88 10.88 0 002.694-1.6l.07-.054a114.357 114.357 0 017.98-5.571c2.502-1.595 4.482-2.853 7.22-4.16a50.31 50.31 0 019.08-3.293.696.696 0 00.501-.852.701.701 0 00-.856-.499 51.475 51.475 0 00-9.336 3.385c-2.814 1.345-4.827 2.62-7.368 4.242a114.567 114.567 0 00-8.076 5.641l-.088.065c-.218.169-.72.57-1.434.96a9.726 9.726 0 01-.861.418 11.003 11.003 0 01-2.88.136c-1.832-.152-5.917-.152-9.363.103-1.953.146-3.409.342-5.1.944-.512.179-1.014.39-1.499.618a.702.702 0 00-.333.933.7.7 0 00.633.396h.006zm8.07 15.85a.698.698 0 00.491-.201l6.064-5.88a62.57 62.57 0 005.203-6.357.698.698 0 00-.164-.971.706.706 0 00-.976.162 63.378 63.378 0 01-2.072 2.74 62.226 62.226 0 01-2.989 3.455l-6.037 5.858a.693.693 0 00-.01.987.7.7 0 00.501.212l-.01-.005z"/><path d="M8.774 137.55a.703.703 0 00.66-.461 19.062 19.062 0 001.15-6.276c.023-1.768.034-3.162-.763-4.687-.905-1.725-2.3-2.576-4.068-3.65l-.152-.092a19.084 19.084 0 00-4.712-2.051.7.7 0 00-.867.478.695.695 0 00.48.862 17.494 17.494 0 014.362 1.898l.153.093c1.647 1.003 2.836 1.725 3.556 3.108.638 1.215.621 2.332.605 4.025a17.802 17.802 0 01-1.069 5.82.7.7 0 00.425.895.718.718 0 00.235.043l.005-.005zm40.214-21.378c.469 0 .976-.054 1.51-.184 1.909-.477 3.076-1.676 3.605-2.354a.697.697 0 00-.12-.982.706.706 0 00-.987.119c-.42.532-1.342 1.481-2.841 1.855-1.5.375-2.678-.054-3.452-.336-.115-.043-.208-.076-.284-.114.322-.211.916-.488 1.773-.824a18.172 18.172 0 014.586-1.139.699.699 0 10-.164-1.389c-1.74.206-3.408.618-4.946 1.231-1.652.657-3.005 1.286-2.874 2.333.076.64.764.971 1.429 1.209.594.217 1.56.57 2.77.57l-.005.005z"/><path d="M57.32 115.191a.7.7 0 00.671-.489.694.694 0 00-.458-.873A9.23 9.23 0 0154 111.806a9.105 9.105 0 01-1.407-1.649.706.706 0 00-.97-.201.698.698 0 00-.202.966c.464.699 1.009 1.34 1.62 1.904a10.665 10.665 0 004.068 2.332c.07.022.142.033.213.033zm1.533-7.459a1.354 1.354 0 001.265-1.844 1.365 1.365 0 00-1.761-.77 1.353 1.353 0 00.49 2.614h.006zm.044-1.367c.01.022 0 .049-.028.055-.016.005-.049-.006-.054-.028l.082-.032v.005zm0 0l-.082.033s0-.049.027-.054c.022-.006.05.005.055.027v-.006zM43.48 125.443c.453 0 .867-.076 1.069-.12a14.7 14.7 0 002.056-.602 15.46 15.46 0 002.65-1.274c3.054-1.839 4.64-3.212 7.275-5.479a.695.695 0 00.07-.987.704.704 0 00-.992-.071c-2.666 2.295-4.133 3.564-7.084 5.343a14.25 14.25 0 01-2.41 1.161 14.85 14.85 0 01-1.87.548 3.29 3.29 0 01-1.015.07c.164-.33.649-.992 1.745-2.034a.698.698 0 00.022-.987.708.708 0 00-.993-.022c-2.47 2.349-2.443 3.25-2.088 3.819.316.505.965.64 1.554.64l.01-.005zm-16.17 3.2h.033a16.831 16.831 0 005.72-1.297 16.825 16.825 0 005.934-4.231.699.699 0 00-.054-.987.704.704 0 00-.993.054 15.504 15.504 0 01-5.437 3.879 15.234 15.234 0 01-4.57 1.139c-.022-.537.011-1.291.295-1.904.103-.222.256-.553.578-.873.098-.093.174-.152.349-.288l.147-.114c.414-.32.747-.591.965-.77a.695.695 0 00.098-.982.703.703 0 00-.987-.097c-.212.173-.54.439-.943.748l-.142.114c-.24.184-.338.266-.469.391-.512.499-.758 1.036-.878 1.291-.594 1.296-.414 2.88-.343 3.336a.702.702 0 00.692.591h.006zm-3.686-12.291c.05 0 .098 0 .147-.017.6-.124 1.238-.298 1.936-.52a.7.7 0 10-.43-1.329c-.655.206-1.244.368-1.8.482a.699.699 0 00.147 1.384z"/><path d="M21.66 116.677c.644 0 1.37-.114 2.166-.353a.697.697 0 10-.404-1.334c-1.734.515-2.787.282-3.032-.152-.229-.401.093-1.34 1.325-2.441.29-.26.311-.7.055-.987a.708.708 0 00-.993-.054c-1.647 1.475-2.252 3.032-1.608 4.165.43.76 1.314 1.156 2.492 1.156zm1.32-5.208a.689.689 0 00.366-.103 53.02 53.02 0 014.22-2.305c5.11-2.49 10.64-4.15 16.448-4.925a.696.696 0 00.6-.787.7.7 0 00-.79-.596c-5.956.797-11.633 2.5-16.879 5.055a51.608 51.608 0 00-4.335 2.37.696.696 0 00-.235.961.705.705 0 00.6.336l.006-.006zm30.038-6.888c.321 0 .61-.217.681-.543a.7.7 0 00-.529-.835 27.53 27.53 0 00-3.457-.553c-1.107-.103-2.23-.141-3.348-.103-.262.005-.48.016-.639.027a.702.702 0 00-.665.732.704.704 0 00.736.662l.606-.027a24.69 24.69 0 013.174.103c1.101.103 2.203.276 3.277.52a.773.773 0 00.158.017h.006z"/><path d="M41.887 105.085a.384.384 0 00.136-.743 7.604 7.604 0 00-2.416-.494 7.94 7.94 0 00-1.597.093.385.385 0 00-.322.439.39.39 0 00.442.32 7.05 7.05 0 013.24.239c.152.049.278.097.365.13a.413.413 0 00.136.027l.016-.011zm-3.468 1.161a.384.384 0 00.082-.759c-.093-.022-.235-.049-.404-.082a16.623 16.623 0 00-3.506-.271.387.387 0 00-.377.396c.006.211.197.363.399.374.485-.016.976-.005 1.472.022a14.833 14.833 0 012.247.309.383.383 0 00.082.011h.005zm-4.325 1.606a.385.385 0 00.11-.754c-.099-.027-.235-.065-.41-.109a10.349 10.349 0 00-1.979-.287 10.736 10.736 0 00-1.565.027.38.38 0 00-.35.418.389.389 0 00.42.347 9.97 9.97 0 011.457-.022 9.821 9.821 0 011.838.271c.158.038.289.076.376.098.038.011.07.016.109.016l-.006-.005zm-3.162 17.016a.39.39 0 00.185-.049l2.765-1.481a.39.39 0 00.158-.521.395.395 0 00-.523-.157l-2.765 1.481a.39.39 0 00-.159.521c.071.13.202.2.339.2v.006zm-19.065 6.363a.576.576 0 00.463-.228c.67-.879 1.2-1.85 1.56-2.881.485-1.372.938-2.674.343-3.932-.61-1.286-1.941-1.758-3.354-2.251a11.01 11.01 0 00-3.61-.619.573.573 0 00-.578.575c0 .32.257.575.578.581 1.107 0 2.193.19 3.223.553 1.282.45 2.29.803 2.694 1.654.393.836.05 1.818-.387 3.065a9.323 9.323 0 01-1.39 2.566.576.576 0 00.457.927v-.01zm129.768-69.714c.246 0 .491-.12.639-.336.425-.613.654-1.259.687-1.92.169-3.298-4.527-5.63-7.951-7.334-3.583-1.78-7.466-3.081-11.534-3.868a.767.767 0 10-.295 1.508c3.932.76 7.684 2.018 11.136 3.732 2.699 1.346 7.215 3.591 7.1 5.886-.016.368-.158.748-.42 1.128a.765.765 0 00.202 1.069.755.755 0 00.436.135z"/><path d="M128.373 70.332c.076 0 .152-.01.223-.033a59.685 59.685 0 005.334-1.893c.752-.309 1.783-.732 3.108-1.4a38.94 38.94 0 003.529-2.012c.043-.027.081-.06.12-.092.054-.054.147-.135.256-.233 1.238-1.096 2.421-2.257 2.138-3.325-.077-.293-.339-.814-1.211-.998a.771.771 0 00-.916.591.766.766 0 00.556.9c-.147.272-.567.765-1.592 1.682-.099.087-.18.163-.246.217a37.891 37.891 0 01-3.326 1.893 39.285 39.285 0 01-3 1.35 58.08 58.08 0 01-5.191 1.845.767.767 0 00-.513.96.78.78 0 00.742.548h-.011z"/><path d="M119.849 70.885c2.596 0 5.208-.109 7.798-.326a.768.768 0 10-.13-1.53c-3.409.288-6.85.38-10.237.283-.07 0-7.749-.277-14.129-1.606a46.607 46.607 0 01-5.89-1.643c-.861-.304-1.325-.494-3.277-1.297l-2.367-.97c-.66-.272-1.249-.521-1.794-.75-1.707-.72-2.94-1.236-4.407-1.621-1.996-.52-4.106-.754-6.287-.705a.77.77 0 00-.753.786c.01.423.382.749.79.749a21.218 21.218 0 015.858.656c1.358.353 2.546.857 4.193 1.546.546.233 1.14.483 1.805.754l2.367.971c1.93.797 2.449 1.009 3.354 1.323 1.996.7 4.046 1.275 6.091 1.698 6.517 1.356 14.321 1.633 14.403 1.638a81.1 81.1 0 002.617.038l-.005.006zM78.18 55.187h.033c.545-.022 1.09-.07 1.625-.152a15.22 15.22 0 002.645-.63l.12-.037c4.346-1.335 8.79-2.49 13.219-3.445 4.073-.878 7.296-1.567 11.539-1.958a70.51 70.51 0 0113.573.087.77.77 0 10.164-1.53 72.301 72.301 0 00-13.873-.092c-4.336.396-7.597 1.096-11.725 1.985-4.472.96-8.966 2.132-13.35 3.477l-.142.044c-.37.12-1.243.401-2.388.57-.459.065-.922.113-1.386.13a15.47 15.47 0 01-2.208-.554c-.862-.287-1.478-.575-1.713-.683-2.317-1.08-7.667-3.065-12.303-4.4-2.612-.753-4.608-1.193-7.094-1.225-.753-.011-1.51.016-2.253.081a.771.771 0 10.136 1.535c.693-.06 1.397-.081 2.1-.076 2.307.033 4.2.45 6.686 1.166 5.045 1.454 10.176 3.429 12.058 4.302.278.13.954.445 1.903.76.823.27 1.669.482 2.52.629.043.005.087.01.13.01l-.016.006zM55.548 73.115a.779.779 0 00.31-.066L66.7 68.276a89.246 89.246 0 005.77-3.162 90.835 90.835 0 004.145-2.642.765.765 0 00.201-1.069.77.77 0 00-1.074-.2 87.606 87.606 0 01-4.074 2.592 85.815 85.815 0 01-5.633 3.092l-10.803 4.757a.767.767 0 00.316 1.47z"/><path d="M55.548 73.115a.773.773 0 00.59-.272c1.968-2.321 3.5-4.882 4.553-7.61.883-2.284 1.576-4.085 1.287-6.422-.333-2.648-1.734-4.421-3.507-6.667l-.152-.195a26.344 26.344 0 00-5.138-4.936.776.776 0 00-1.08.162.767.767 0 00.164 1.074 24.845 24.845 0 014.837 4.65l.153.194c1.69 2.137 2.912 3.683 3.19 5.907.246 1.953-.327 3.434-1.194 5.68-.992 2.57-2.438 4.985-4.297 7.17a.77.77 0 00.589 1.265h.005zm65.975-8.051c2.204 0 3.905-.824 4.783-1.361a.765.765 0 00.251-1.058.769.769 0 00-1.064-.25c-.834.51-2.563 1.33-4.771 1.086-2.214-.244-3.578-1.405-4.483-2.17a5.116 5.116 0 01-.567-.542c.365-.142 1.216-.283 3.108-.331a25.743 25.743 0 016.637.737.769.769 0 10.365-1.491 27.163 27.163 0 00-7.04-.781c-2.312.054-4.412.211-4.723 1.508-.147.618.202 1.22 1.211 2.077.982.835 2.629 2.23 5.317 2.528.333.038.66.054.971.054l.005-.005z"/><path d="M130.222 67.338a.774.774 0 00.61-.299.766.766 0 00-.136-1.08 13.063 13.063 0 01-3.703-4.436 12.835 12.835 0 01-1.052-2.891.774.774 0 00-.927-.575.768.768 0 00-.578.922 14.256 14.256 0 001.177 3.238c.977 1.931 2.367 3.596 4.134 4.958a.773.773 0 00.475.163zm5.987-8.988h.028a1.688 1.688 0 001.668-1.71 1.688 1.688 0 00-1.696-1.659h-.022a1.688 1.688 0 00-1.668 1.709c.011.922.769 1.66 1.696 1.66h-.006zm0-1.834c.082 0 .147.065.147.147a.133.133 0 01-.043.103.143.143 0 01-.104.043.158.158 0 01-.152-.146c0-.082.065-.147.147-.152l.005.005zM111.167 74.58c1.353 0 2.711-.131 4.041-.38 4.892-.934 7.64-1.953 12.199-3.651a.768.768 0 00.453-.987.776.776 0 00-.992-.45c-4.636 1.724-7.188 2.674-11.949 3.58a20.222 20.222 0 01-3.746.352h-.022a19.55 19.55 0 01-2.754-.195c-.769-.109-1.429-.374-1.663-.553.223-.293 1.112-1.026 3.533-2.062a.765.765 0 00.404-1.009.772.772 0 00-1.014-.401c-4.281 1.828-4.652 2.972-4.494 3.764.267 1.335 2.563 1.725 3.016 1.79.981.136 1.979.207 2.966.212h.028l-.006-.01zm-20.139-3.11c.349 0 .698-.004 1.047-.02a23.5 23.5 0 009.772-2.648.761.761 0 00.322-1.036.77.77 0 00-1.041-.32 22.029 22.029 0 01-9.124 2.474 21.714 21.714 0 01-6.833-.787c.223-.743.665-1.882 1.434-2.652.24-.24.633-.635 1.254-.906.164-.07.29-.114.628-.217l.24-.076a72.586 72.586 0 001.641-.543.768.768 0 00.48-.976.777.777 0 00-.982-.477c-.37.124-.921.314-1.609.531l-.24.076a7.892 7.892 0 00-.79.277c-.884.39-1.429.933-1.718 1.22-1.38 1.378-1.903 3.493-2.029 4.106a.77.77 0 00.524.89 23.288 23.288 0 007.018 1.09l.006-.005zm-2.901-18.718c.409 0 .752-.32.774-.733a.77.77 0 00-.736-.802 26.87 26.87 0 01-2.618-.24.767.767 0 10-.23 1.519 26.66 26.66 0 002.777.256h.038-.005z"/><path d="M85.433 52.502a.772.772 0 00.05-1.54c-2.657-.168-3.971-1.047-4.097-1.845-.109-.688.628-1.828 3.07-2.788a.771.771 0 00.437-.998.774.774 0 00-1.004-.434c-2.786 1.096-4.291 2.767-4.024 4.459.278 1.763 2.345 2.935 5.524 3.14h.05l-.006.006zm32.622-6.167a.774.774 0 00.753-.597.77.77 0 00-.584-.917c-8.186-1.839-16.447-2.36-24.562-1.551-2.28.228-4.576.564-6.833.998a.767.767 0 00-.611.9.77.77 0 00.905.608 73.344 73.344 0 016.692-.982c7.945-.792 16.043-.282 24.065 1.524.06.011.115.022.169.022l.006-.005zm11.719 4.99a.782.782 0 00.649-.347.762.762 0 00-.223-1.064 37.864 37.864 0 00-4.243-2.386 37.277 37.277 0 00-4.319-1.752 55.459 55.459 0 00-.845-.272.768.768 0 10-.459 1.465c.197.06.475.152.808.26a36.106 36.106 0 018.207 3.971.757.757 0 00.42.125h.005z"/><path d="M114.958 47.376a.583.583 0 00.436-.195.574.574 0 00-.049-.814 10.74 10.74 0 00-2.934-1.833 11.18 11.18 0 00-2.149-.657.581.581 0 00-.682.456.58.58 0 00.459.678 9.815 9.815 0 014.122 1.877c.18.14.322.26.42.347a.572.572 0 00.382.146l-.005-.005zm-5.312-.732a.577.577 0 00.316-1.063 21.857 21.857 0 00-2.95-1.578 21.836 21.836 0 00-2.018-.782.58.58 0 10-.371 1.096c.644.211 1.287.466 1.914.743a20.9 20.9 0 012.793 1.497c.098.06.207.092.31.092l.006-.005zm-6.462.011a.578.578 0 00.349-1.041c-.115-.082-.279-.202-.48-.343a15.424 15.424 0 00-4.537-2.072.586.586 0 00-.715.402.578.578 0 00.404.71 15.12 15.12 0 011.914.673c.807.347 1.57.77 2.274 1.242.191.125.338.239.442.315a.577.577 0 00.343.114h.006zM90.69 67.446s.054 0 .082-.005l4.357-.603a.58.58 0 00.496-.65.582.582 0 00-.654-.494l-4.358.602a.58.58 0 00-.496.65.58.58 0 00.573.5zm-28.042-1.161a.56.56 0 00.311-.092 14.537 14.537 0 003.409-2.978c1.276-1.535 2.481-2.983 2.328-4.828-.158-1.887-1.647-3.119-3.217-4.426a15.005 15.005 0 00-4.363-2.522.58.58 0 00-.747.336.575.575 0 00.338.743 13.992 13.992 0 014.03 2.327c1.5 1.248 2.683 2.23 2.803 3.635.115 1.377-.845 2.533-2.061 3.997a13.282 13.282 0 01-3.136 2.74.576.576 0 00.311 1.063l-.006.005zm171.946 11.868a.698.698 0 00.654-.45c.202-.52.251-1.036.159-1.53-.464-2.413-4.172-3.254-6.877-3.873a32.446 32.446 0 00-8.704-.754.704.704 0 00-.671.733c.017.385.344.672.737.667a30.951 30.951 0 018.322.716c2.066.472 5.524 1.258 5.813 2.772.043.233.011.493-.093.77a.698.698 0 00.66.944v.005z"/><path d="M226.883 86.496c.12 0 .245-.032.354-.098a42.6 42.6 0 003.392-2.218c.469-.342 1.118-.808 1.931-1.503a28.384 28.384 0 002.116-1.996.895.895 0 00.087-.108c.027-.044.076-.114.136-.196.698-1.008 1.347-2.055.927-2.82-.12-.223-.425-.591-1.145-.564a.698.698 0 00-.681.716.7.7 0 00.49.645c-.092.228-.305.602-.741 1.231l-.126.185a25.33 25.33 0 01-1.968 1.85 27.89 27.89 0 01-1.844 1.432 41.383 41.383 0 01-3.277 2.142.696.696 0 00.36 1.297l-.011.005z"/><path d="M208.03 90.011c.36 0 .715-.005 1.069-.016 4.767-.152 10.073-1.237 10.296-1.286a66.318 66.318 0 007.199-1.952.696.696 0 00.441-.885.701.701 0 00-.888-.439 65.034 65.034 0 01-7.041 1.91c-.049.01-5.415 1.106-10.056 1.258-1.434.049-2.901 0-4.346-.152-.649-.065-1.004-.12-2.498-.353l-1.799-.276c-.502-.076-.955-.152-1.369-.217-1.309-.212-2.258-.369-3.349-.385a16.55 16.55 0 00-4.526.57.698.698 0 10.365 1.35 15.218 15.218 0 014.14-.526c.992.016 1.897.163 3.146.369.42.07.878.14 1.385.222l1.794.277c1.484.227 1.887.293 2.569.358 1.151.114 2.312.173 3.463.173h.005zm-19.359-5.571c.283 0 .572-.01.856-.027.049 0 .098-.01.142-.027a11.93 11.93 0 001.118-.385c.867-.347 1.483-.727 1.75-.89l.071-.043c2.787-1.654 5.672-3.2 8.578-4.605 2.678-1.291 4.788-2.31 7.662-3.287a50.592 50.592 0 019.407-2.213.698.698 0 10-.19-1.384 51.219 51.219 0 00-9.675 2.273c-2.95 1.004-5.099 2.04-7.814 3.352a116.192 116.192 0 00-8.688 4.66l-.092.054a9.894 9.894 0 01-1.538.787c-.295.119-.6.222-.905.314a11.068 11.068 0 01-2.874-.2c-1.8-.364-5.857-.841-9.309-.993-1.953-.081-3.425-.054-5.17.342a16.71 16.71 0 00-1.565.439.703.703 0 00-.442.884.709.709 0 00.889.44c.463-.158.943-.293 1.429-.402 1.592-.363 2.961-.39 4.799-.309 3.735.163 7.623.667 9.074.96.213.043.742.152 1.467.212.338.027.682.043 1.02.043v.005zm-11.856 16.213c.147 0 .3-.048.426-.146l6.713-5.137a63.001 63.001 0 003.479-3.178 67.47 67.47 0 002.438-2.534.695.695 0 00-.049-.987.704.704 0 00-.993.049 62.693 62.693 0 01-5.759 5.565l-6.686 5.115a.703.703 0 00-.131.982c.137.179.35.271.557.271h.005z"/><path d="M176.81 100.654a.699.699 0 00.627-.385 19.107 19.107 0 001.887-6.097c.229-1.752.409-3.136-.207-4.747-.693-1.817-1.98-2.826-3.61-4.1l-.142-.109a19.2 19.2 0 00-4.439-2.587.694.694 0 00-.916.374.692.692 0 00.376.911 17.77 17.77 0 014.112 2.392l.141.109c1.516 1.188 2.613 2.045 3.169 3.498.491 1.28.343 2.393.125 4.069a17.718 17.718 0 01-1.75 5.652.695.695 0 00.316.938.706.706 0 00.311.076v.006zm43.093-16.501c.256 0 .523-.017.796-.05 1.952-.249 3.256-1.306 3.861-1.914a.692.692 0 00-.006-.987.701.701 0 00-.992.005c-.48.483-1.505 1.319-3.043 1.514-1.533.2-2.65-.364-3.392-.738-.109-.054-.196-.103-.267-.141.343-.174.965-.374 1.854-.613a18.179 18.179 0 014.69-.597.703.703 0 00.703-.7c0-.385-.316-.7-.703-.7a19.57 19.57 0 00-5.056.646c-1.717.462-3.135.922-3.13 1.986 0 .64.616 1.036 1.276 1.367.676.336 1.849.927 3.409.927v-.005z"/><path d="M227.657 84.11a.696.696 0 00.289-1.334 9.244 9.244 0 01-3.266-2.42 9.093 9.093 0 01-1.2-1.801.702.702 0 00-.944-.31.693.693 0 00-.31.94c.376.748.845 1.447 1.385 2.082a10.516 10.516 0 003.763 2.788c.092.044.191.06.289.06l-.006-.005zm2.476-7.226a1.352 1.352 0 001.32-1.692 1.319 1.319 0 00-.627-.825 1.375 1.375 0 00-1.031-.146 1.345 1.345 0 00-.834.624 1.349 1.349 0 00-.148 1.025c.093.347.311.645.628.824.212.125.447.19.687.19h.005zm0-1.394s.038.016.044.033c0 .021-.011.049-.033.054a.046.046 0 01-.055-.033c-.005-.021.006-.048.033-.054h.011zm-16.965 17.212c.223 0 .409-.017.529-.027a15.541 15.541 0 004.897-1.313c3.245-1.47 4.984-2.647 7.869-4.594a.695.695 0 00.185-.972.704.704 0 00-.976-.184c-2.917 1.97-4.526 3.054-7.662 4.48a14.313 14.313 0 01-4.45 1.193 3.62 3.62 0 01-1.014-.042c.202-.31.763-.912 1.974-1.818a.697.697 0 00.142-.976.707.707 0 00-.982-.141c-2.732 2.04-2.808 2.94-2.525 3.547.333.716 1.336.847 2.018.847h-.005zm-15.777 1.307c1.581 0 3.141-.223 4.662-.662a16.893 16.893 0 006.392-3.51.7.7 0 00.06-.987.709.709 0 00-.993-.06 15.53 15.53 0 01-5.857 3.217 15.47 15.47 0 01-4.673.602c.038-.531.163-1.285.512-1.86.126-.206.317-.521.682-.798a4.11 4.11 0 01.382-.244l.158-.092c.447-.271.813-.5 1.053-.651a.698.698 0 00.212-.965.706.706 0 00-.971-.212 37.22 37.22 0 01-1.025.634l-.152.093c-.257.157-.366.222-.513.33a4.005 4.005 0 00-1.025 1.183c-.747 1.226-.747 2.815-.731 3.271a.7.7 0 00.654.673c.393.027.78.038 1.173.038zm-3.338-12.677h.066a20.4 20.4 0 001.985-.287.701.701 0 00.556-.82.707.707 0 00-.823-.553c-.677.13-1.276.217-1.844.272a.7.7 0 00.06 1.394v-.006z"/><path d="M192.696 81.463c.458 0 .954-.044 1.483-.136a.692.692 0 00.567-.808.696.696 0 00-.813-.564c-1.783.314-2.797-.044-2.993-.5-.18-.423.245-1.318 1.603-2.272a.695.695 0 00.169-.971.702.702 0 00-.976-.168c-1.811 1.274-2.591 2.75-2.089 3.949.404.96 1.505 1.475 3.049 1.475v-.005zm1.297-5.051a.722.722 0 00.295-.065 51.185 51.185 0 014.466-1.795c5.366-1.877 11.06-2.88 16.917-2.978a.703.703 0 00.692-.71.71.71 0 00-.714-.69c-6.01.098-11.85 1.129-17.358 3.054a53.995 53.995 0 00-4.587 1.845.694.694 0 00-.343.927c.12.255.371.407.638.407l-.006.005zm30.638-3.341a.697.697 0 00.66-.466.692.692 0 00-.426-.89 27.127 27.127 0 00-7.318-1.492.697.697 0 00-.747.651.703.703 0 00.654.744c.147.01.354.021.6.043 1.052.092 2.11.25 3.141.472 1.08.228 2.154.531 3.196.9a.705.705 0 00.234.038h.006z"/><path d="M213.484 72.274a.397.397 0 00.344-.206.386.386 0 00-.164-.521 7.726 7.726 0 00-2.345-.776 7.838 7.838 0 00-1.598-.092.392.392 0 00-.371.401.389.389 0 00.404.37 6.995 6.995 0 013.545.776c.06.031.12.042.18.042l.005.006zm-3.583.743a.383.383 0 00.125-.749c-.092-.032-.229-.076-.392-.13a16.494 16.494 0 00-3.452-.678.393.393 0 00-.42.353.392.392 0 00.354.417 15.96 15.96 0 013.283.64c.158.05.284.093.371.12a.342.342 0 00.126.021l.005.006zm-4.483 1.095a.38.38 0 00.355-.233.386.386 0 00-.207-.504 11.342 11.342 0 00-2.324-.673 11.68 11.68 0 00-1.559-.157.391.391 0 00-.398.374.387.387 0 00.376.396 10.277 10.277 0 013.245.63c.152.054.278.108.36.14a.36.36 0 00.147.033l.005-.005zM200.27 90.64c.049 0 .098-.01.142-.027l2.923-1.15a.388.388 0 00.218-.499.391.391 0 00-.502-.216l-2.923 1.15a.388.388 0 00-.218.498.39.39 0 00.36.245zm-19.654 4.096c.153 0 .306-.06.42-.18a10.37 10.37 0 001.887-2.68c.644-1.306 1.249-2.543.802-3.867-.453-1.35-1.723-1.969-3.07-2.625a11.077 11.077 0 00-3.512-1.036.574.574 0 00-.644.504.575.575 0 00.507.64 9.822 9.822 0 013.136.923c1.216.596 2.181 1.063 2.481 1.958.295.873-.163 1.811-.747 2.994a9.256 9.256 0 01-1.68 2.387.578.578 0 00.42.976v.006zm103.135-81.962a.759.759 0 00.322-.076 30.774 30.774 0 017.869-2.793c2.078-.429 5.546-1.145 6.446.114.136.195.218.444.24.737a.707.707 0 00.747.651.699.699 0 00.654-.743 2.795 2.795 0 00-.496-1.454c-1.429-2.001-5.153-1.231-7.875-.672a32.287 32.287 0 00-8.229 2.923.693.693 0 00-.3.939c.126.239.371.38.622.38v-.006z"/><path d="M295.808 22.185a.7.7 0 00.578-.298c.78-1.112 1.5-2.262 2.155-3.423.283-.504.676-1.198 1.123-2.164a29 29 0 001.091-2.696.544.544 0 00.032-.135c.006-.055.022-.136.039-.24.212-1.203.365-2.424-.339-2.95-.201-.152-.638-.358-1.281-.038a.697.697 0 00.393 1.318c.005.244-.028.678-.159 1.427-.016.087-.027.162-.038.222a25.903 25.903 0 01-1.014 2.5c-.426.917-.802 1.58-1.074 2.067a41.893 41.893 0 01-2.084 3.31.695.695 0 00.573 1.095l.005.005z"/><path d="M264.621 39.326a.7.7 0 00.447-.162 15.17 15.17 0 013.539-2.192c.905-.396 1.789-.634 3.016-.965.409-.114.856-.234 1.352-.375l1.756-.493c1.44-.407 1.827-.516 2.481-.738a34.67 34.67 0 004.189-1.736c4.27-2.11 8.638-5.3 8.823-5.435a66.762 66.762 0 005.726-4.757.693.693 0 00.033-.987.703.703 0 00-.993-.033 65.79 65.79 0 01-5.6 4.654c-.044.033-4.461 3.25-8.617 5.305a33.966 33.966 0 01-4.013 1.666c-.616.206-.96.303-2.405.71l-1.756.494c-.491.14-.933.26-1.342.369-1.281.347-2.203.602-3.206 1.036a16.319 16.319 0 00-3.872 2.392.695.695 0 00-.093.982.693.693 0 00.54.255l-.005.01zm-20.985 3.857a.71.71 0 00.48-.19c.36-.336.736-.656 1.128-.955 1.293-.987 2.531-1.578 4.232-2.267 3.469-1.4 7.21-2.55 8.649-2.886a12.393 12.393 0 003.136-1.182.571.571 0 00.12-.082c.295-.255.584-.526.856-.813a10.836 10.836 0 001.216-1.535l.049-.07a113.02 113.02 0 015.874-7.741c1.898-2.284 3.386-4.085 5.584-6.162a49.897 49.897 0 017.624-5.907.7.7 0 00.218-.966.708.708 0 00-.971-.217 51.218 51.218 0 00-7.842 6.075c-2.257 2.137-3.779 3.965-5.698 6.282a112.173 112.173 0 00-5.95 7.843l-.06.087c-.153.228-.513.76-1.069 1.35a8.785 8.785 0 01-.693.663c-.463.249-.954.466-1.45.645-.606.217-1.069.325-1.249.369-1.789.417-5.677 1.66-8.878 2.956-1.811.732-3.136 1.367-4.559 2.452-.431.33-.845.683-1.238 1.047a.692.692 0 00-.027.987.689.689 0 00.512.217h.006zM256.211 55.8a.702.702 0 00.622-.375l3.954-7.447a64.71 64.71 0 001.832-4.329 56.185 56.185 0 001.151-3.314.695.695 0 00-.458-.873.699.699 0 00-.878.455 62.155 62.155 0 01-2.907 7.442l-3.937 7.415a.697.697 0 00.621 1.026z"/><path d="M256.217 55.8a.706.706 0 00.703-.678 19.09 19.09 0 00-.84-6.325c-.529-1.687-.943-3.021-2.175-4.225-1.391-1.367-2.983-1.747-5.001-2.23l-.175-.043a19.143 19.143 0 00-5.115-.51.695.695 0 00-.676.721.686.686 0 00.725.673 17.693 17.693 0 014.739.472l.175.043c1.876.45 3.228.776 4.346 1.872.982.96 1.314 2.028 1.816 3.645.583 1.86.845 3.835.774 5.863a.7.7 0 00.682.722h.022zM285.9 23.46c.921 0 2.236-.125 3.577-.96 1.669-1.036 2.41-2.538 2.705-3.341a.697.697 0 00-.42-.895.703.703 0 00-.9.417c-.234.635-.818 1.823-2.132 2.637-1.309.813-2.563.764-3.392.732-.12 0-.218-.01-.3-.022.245-.298.72-.743 1.429-1.329a17.902 17.902 0 014.014-2.484.694.694 0 00.343-.928.7.7 0 00-.932-.341 19.532 19.532 0 00-4.325 2.68c-1.369 1.127-2.465 2.142-2.018 3.102.273.586 1.025.689 1.734.716.175.005.382.016.611.016h.006z"/><path d="M295.421 19.69h.093a.699.699 0 10-.006-1.4h-.087a9.204 9.204 0 01-3.904-.846 9.375 9.375 0 01-1.849-1.139.7.7 0 00-.987.109.695.695 0 00.109.982c.66.526 1.374.965 2.132 1.318a10.67 10.67 0 004.494.976h.005zm-.954-7.534c.3 0 .605-.098.856-.304a1.345 1.345 0 00.196-1.904 1.355 1.355 0 00-.916-.494 1.337 1.337 0 00-.998.299 1.345 1.345 0 00-.196 1.904c.267.33.66.499 1.058.499zm0-1.394s.027 0 .032.016c.011.016.011.049-.005.06-.016.016-.049.01-.06-.006-.011-.016-.011-.049.005-.06a.045.045 0 01.028-.01zm-9.582 23.031c.725 0 1.522-.417 1.816-.591.616-.358 1.211-.76 1.773-1.199a15.71 15.71 0 002.132-2.023c2.334-2.685 3.425-4.47 5.23-7.437a.7.7 0 00-1.2-.727c-1.827 3-2.836 4.654-5.094 7.247a14.037 14.037 0 01-3.55 2.93c-.349.2-.709.33-.943.379.054-.363.311-1.145 1.036-2.468a.698.698 0 00-.284-.95.705.705 0 00-.954.283c-1.631 2.989-1.325 3.835-.813 4.274.24.2.535.277.846.277l.005.005zm-13.781 7.865a.784.784 0 00.246-.043 16.583 16.583 0 005.039-2.983 16.787 16.787 0 004.341-5.837.703.703 0 00-1.282-.57 15.346 15.346 0 01-3.975 5.349 15.273 15.273 0 01-3.998 2.484c-.185-.504-.387-1.231-.311-1.904a2.73 2.73 0 01.284-1.009c.065-.119.12-.195.245-.38l.104-.151c.295-.434.529-.792.682-1.03a.698.698 0 00-.213-.966.707.707 0 00-.971.211c-.147.233-.376.58-.665 1.004l-.104.152c-.169.25-.24.352-.321.515-.338.635-.404 1.215-.437 1.497-.163 1.416.497 2.864.704 3.276.12.244.371.385.627.385h.005zm-7.301-10.566a.678.678 0 00.349-.092 20.701 20.701 0 001.685-1.085.699.699 0 00.163-.976.707.707 0 00-.981-.163 18.24 18.24 0 01-1.566 1.009.698.698 0 00-.261.954.71.71 0 00.611.353z"/><path d="M261.038 32.171c.905 0 2.001-.406 3.163-1.204a.696.696 0 00.18-.97.705.705 0 00-.977-.18c-1.488 1.02-2.563 1.123-2.928.781-.338-.314-.327-1.301.507-2.728a.702.702 0 00-1.216-.7c-1.112 1.91-1.205 3.575-.245 4.454.398.363.916.547 1.516.547zm.643-5.527a.704.704 0 00.534-.244 51.48 51.48 0 013.305-3.482c4.09-3.933 8.846-7.198 14.13-9.715a.705.705 0 00.333-.933.71.71 0 00-.938-.331c-5.421 2.576-10.302 5.934-14.501 9.97a52.761 52.761 0 00-3.392 3.58.7.7 0 00.534 1.155h-.005zm19.365-14.103a.687.687 0 00.251-.049 26.083 26.083 0 013.621-1.08 25.797 25.797 0 013.283-.504.7.7 0 10-.125-1.394 27.621 27.621 0 00-3.463.532 26.794 26.794 0 00-3.818 1.144.694.694 0 00-.403.9.705.705 0 00.654.451z"/><path d="M274.055 15.573c.06 0 .12-.016.174-.043.431-.217.878-.39 1.342-.521a7.148 7.148 0 011.816-.25c.163 0 .3 0 .387.011a.382.382 0 00.409-.363.388.388 0 00-.365-.407 7.508 7.508 0 00-2.454.266 8.093 8.093 0 00-1.489.575.384.384 0 00.174.727l.006.005zm-2.934 2.207a.374.374 0 00.131-.021 16.5 16.5 0 011.407-.428 16.037 16.037 0 011.848-.353c.164-.022.295-.033.388-.044a.385.385 0 00.349-.417.392.392 0 00-.42-.347c-.098.01-.24.021-.409.043a16.75 16.75 0 00-1.942.369 15.08 15.08 0 00-1.478.45.386.386 0 00.131.749h-.005zm-3.627 2.832c.05 0 .099-.01.153-.032a10.292 10.292 0 013.212-.77c.164-.011.295-.017.387-.022a.388.388 0 00.377-.396.388.388 0 00-.398-.374c-.099 0-.246.01-.42.021a11.016 11.016 0 00-3.458.836.384.384 0 00.147.738zm5.988 16.333a.371.371 0 00.278-.12l2.176-2.256a.383.383 0 00-.011-.543.388.388 0 00-.545.011l-2.176 2.257a.383.383 0 00.278.65zm-16.24 11.89c.24 0 .463-.146.545-.385.371-1.047.567-2.126.595-3.217.032-1.459.071-2.831-.889-3.851-.976-1.036-2.389-1.074-3.888-1.117a11.012 11.012 0 00-3.627.515.578.578 0 10.354 1.101 9.846 9.846 0 013.24-.461c1.358.038 2.427.065 3.075.754.633.673.606 1.714.579 3.032a9.244 9.244 0 01-.529 2.864.576.576 0 00.545.765z"/></g><defs><clipPath id="clip0_2248_12686"><path fill="#fff" transform="matrix(-1 0 0 1 301 0)" d="M0 0h301v138H0z"/></clipPath></defs></svg>