<svg width="109" height="50" viewBox="0 0 109 50" fill="none" xmlns="http://www.w3.org/2000/svg">
<g clip-path="url(#clip0_306_9182)">
<path d="M23.1566 5.5562C23.0618 5.5562 22.971 5.50314 22.9276 5.41273C22.7913 5.13169 22.738 4.85065 22.7656 4.57943C22.9098 3.19191 25.0722 2.50011 26.6521 1.99502C28.3188 1.46242 30.0843 1.15583 31.8972 1.08507C32.0315 1.07525 32.1559 1.18727 32.1618 1.32877C32.1677 1.46831 32.0571 1.58623 31.9169 1.59213C30.1495 1.66092 28.4314 1.95768 26.8081 2.47653C25.5264 2.88728 23.3798 3.57318 23.2712 4.6325C23.2534 4.81134 23.2909 5.00001 23.3857 5.19655C23.4469 5.32233 23.3936 5.47366 23.2672 5.53458C23.2317 5.55227 23.1942 5.56013 23.1566 5.56013V5.5562Z" fill="#408F95"/>
<path d="M51.6394 7.10662C51.6394 7.10662 51.6197 7.10662 51.6098 7.10662C51.201 7.05945 50.7922 6.97494 50.3953 6.85309C49.868 6.69193 49.475 6.4954 49.3091 6.41285L49.2538 6.38534C47.4548 5.51666 45.5984 4.71481 43.7382 4.00532C42.026 3.35283 40.6713 2.83595 38.8505 2.38392C36.929 1.90831 34.9384 1.61548 32.9359 1.51721C32.7957 1.50935 32.6871 1.39143 32.695 1.25189C32.7029 1.11235 32.8194 1.00426 32.9616 1.01212C34.9976 1.11235 37.0198 1.40912 38.9749 1.89456C40.8273 2.35444 42.1919 2.87526 43.9218 3.53364C45.7959 4.24902 47.6661 5.05481 49.477 5.92938L49.5382 5.95886C49.708 6.04337 50.0615 6.22025 50.5473 6.36962C50.9146 6.48164 51.2918 6.56025 51.671 6.60349C51.8112 6.61921 51.91 6.74499 51.8942 6.88257C51.8803 7.01228 51.7697 7.10662 51.6414 7.10662H51.6394Z" fill="#408F95"/>
<path d="M27.8568 10.039C27.8173 10.039 27.7778 10.0292 27.7402 10.0115C27.3038 9.78546 26.6521 9.43956 26.034 9.07008C25.8701 8.97181 25.564 8.791 25.169 8.52568C25.0486 8.4451 24.9182 8.35666 24.7839 8.2584C24.3021 7.91643 23.836 7.54498 23.3956 7.15584C23.3838 7.14405 23.3719 7.13226 23.3621 7.1185C23.3404 7.09099 23.3068 7.04972 23.2633 6.99862C22.817 6.46012 22.3964 5.9 22.5721 5.49907C22.6274 5.37132 22.7637 5.21606 23.0915 5.19837C23.2337 5.18855 23.3522 5.29664 23.3601 5.43618C23.368 5.57572 23.2614 5.6956 23.1211 5.70346C23.0797 5.70543 23.054 5.71133 23.0382 5.71526C23.0382 5.80566 23.131 6.04347 23.6563 6.6763C23.6958 6.72347 23.7274 6.76278 23.7511 6.79226C24.1737 7.16371 24.62 7.51747 25.0802 7.84568C25.2125 7.94001 25.3369 8.02452 25.4534 8.1051C25.8365 8.36256 26.1347 8.53944 26.2947 8.63574C26.9029 8.99736 27.5428 9.33933 27.9733 9.56141C28.0977 9.62627 28.1471 9.7776 28.0819 9.90338C28.0365 9.98985 27.9476 10.041 27.8568 10.041V10.039Z" fill="#408F95"/>
<path d="M37.9817 11.515C35.4974 11.515 33.1118 11.236 33.0822 11.232C31.5833 11.0453 30.0706 10.7702 28.5895 10.4145C28.4532 10.381 28.3683 10.2454 28.4019 10.1098C28.4354 9.97422 28.5717 9.88971 28.708 9.92312C30.1713 10.2749 31.6643 10.5461 33.1434 10.7289C33.175 10.7328 36.5342 11.1259 39.4016 10.9726C40.2903 10.9254 41.1928 10.8173 42.0814 10.6483C42.4784 10.5736 42.6936 10.5206 43.5961 10.3024L44.6882 10.0371C45.0456 9.95063 45.3576 9.87202 45.6341 9.80323C46.4596 9.59687 47.0046 9.4593 47.5339 9.42196C48.3179 9.36693 49.1177 9.43375 49.9076 9.62242C50.0439 9.65387 50.1288 9.79144 50.0952 9.92705C50.0636 10.0627 49.9274 10.1472 49.7891 10.1138C49.0486 9.93884 48.3021 9.87595 47.5694 9.92705C47.0836 9.96046 46.584 10.0862 45.7585 10.2946C45.4801 10.3653 45.1661 10.4439 44.8086 10.5304L43.7166 10.7957C42.8259 11.0119 42.587 11.0709 42.1762 11.1475C41.2658 11.3185 40.3416 11.4305 39.4292 11.4797C38.9533 11.5052 38.4655 11.515 37.9817 11.515Z" fill="#408F95"/>
<path d="M52.4394 7.12423C52.3308 7.12423 52.23 7.05348 52.1965 6.94539C52.155 6.81174 52.23 6.67024 52.3643 6.62897C52.9568 6.44816 56.0454 5.52445 58.5909 5.15104C59.8331 4.96826 60.7435 4.95057 61.7348 5.08815C62.0587 5.13335 62.3826 5.19624 62.6985 5.27289C62.8348 5.3063 62.9178 5.44387 62.8842 5.57948C62.8506 5.71509 62.7143 5.7996 62.5761 5.76422C62.2779 5.6915 61.9698 5.63254 61.6618 5.58931C60.7218 5.45763 59.8528 5.47532 58.662 5.65023C56.154 6.01971 53.097 6.93163 52.5105 7.11244C52.4848 7.1203 52.4611 7.12423 52.4354 7.12423H52.4394Z" fill="#408F95"/>
<path d="M59.7541 16.3222C59.7363 16.3222 59.7185 16.3222 59.7008 16.3163C58.5633 16.0726 56.628 15.1351 55.921 14.4885C55.3108 14.0346 54.823 13.6749 54.4083 13.3683C52.9726 12.309 52.3781 11.8727 50.4922 10.2926C50.3856 10.2022 50.3717 10.043 50.4606 9.93684C50.5514 9.83071 50.7114 9.81695 50.818 9.90539C52.6921 11.4737 53.2826 11.91 54.7104 12.9615C55.1291 13.27 55.6208 13.6317 56.2369 14.0915C56.2448 14.0974 56.2508 14.1033 56.2587 14.1092C56.8946 14.6988 58.7529 15.595 59.8094 15.821C59.9476 15.8505 60.0345 15.9842 60.0049 16.1217C59.9792 16.2397 59.8746 16.3222 59.7561 16.3222H59.7541Z" fill="#408F95"/>
<path d="M59.754 16.3222C59.6869 16.3222 59.6177 16.2947 59.5684 16.2416C58.9068 15.54 58.0576 14.3588 57.7752 12.7158C57.6903 12.2245 57.4928 11.0747 57.9569 9.7678C58.3815 8.57485 59.1221 7.88502 59.9791 7.08513C60.7315 6.3835 61.5866 5.78211 62.5227 5.29471C62.6471 5.22985 62.8011 5.27702 62.8663 5.40084C62.9315 5.52465 62.8841 5.67795 62.7597 5.7428C61.8651 6.20859 61.0475 6.78443 60.3287 7.45461C59.4874 8.23878 58.8219 8.85982 58.4388 9.93682C58.0181 11.12 58.1998 12.1793 58.2788 12.6313C58.5395 14.1505 59.3274 15.2452 59.9416 15.8957C60.0384 15.9979 60.0324 16.1571 59.9298 16.2534C59.8804 16.2986 59.8172 16.3222 59.756 16.3222H59.754Z" fill="#408F95"/>
<path d="M56.2052 8.41533C56.1301 8.41533 56.057 8.38388 56.0077 8.32099C55.9188 8.2129 55.9366 8.0537 56.0452 7.96526C56.4777 7.6174 56.9516 7.32064 57.4532 7.08676C58.0575 6.80375 58.6993 6.60919 59.3609 6.50699C59.4991 6.48537 59.6295 6.57971 59.6512 6.71924C59.6729 6.85682 59.5781 6.98653 59.4379 7.00815C58.8238 7.10248 58.2293 7.2833 57.6685 7.54665C57.2044 7.7648 56.764 8.03798 56.3631 8.36226C56.3157 8.3996 56.2604 8.41926 56.2032 8.41926L56.2052 8.41533Z" fill="#408F95"/>
<path d="M57.246 13.9088C57.1927 13.9088 57.1374 13.8911 57.09 13.8558C56.541 13.4332 55.5654 12.5233 55.2178 11.175C55.1112 10.7584 54.8861 9.88972 55.2791 9.00336C55.3344 8.87954 55.3995 8.75769 55.4726 8.6437C55.5496 8.52578 55.7056 8.49237 55.8241 8.56902C55.9426 8.64566 55.9762 8.80093 55.8992 8.91885C55.8399 9.00925 55.7866 9.10752 55.7431 9.20775C55.4212 9.93492 55.6089 10.6601 55.7096 11.0512C56.0196 12.254 56.9024 13.0755 57.4 13.4568C57.5106 13.5413 57.5323 13.7005 57.4454 13.8125C57.3961 13.8774 57.321 13.9108 57.244 13.9108L57.246 13.9088Z" fill="#408F95"/>
<path d="M32.1895 8.47649C32.1361 8.47649 32.0828 8.47649 32.0275 8.47255C30.8723 8.42342 30.0547 7.8692 29.6696 7.54295C29.563 7.45255 29.5491 7.29336 29.64 7.18723C29.7308 7.0811 29.8908 7.06734 29.9974 7.15775C30.3331 7.44272 31.046 7.92423 32.0473 7.96746C33.0525 8.00874 33.7357 7.59012 34.188 7.31104C34.4348 7.15775 34.5296 7.06538 34.5612 7.02411C34.4862 6.9396 34.1623 6.7922 33.1117 6.60549C32.1677 6.43844 31.1744 6.39716 30.1593 6.48364C30.0191 6.49347 29.8967 6.39323 29.8849 6.25369C29.873 6.11416 29.9757 5.99231 30.1159 5.98051C31.1744 5.89011 32.2132 5.93335 33.2006 6.10826C34.1663 6.27924 35.0371 6.47774 35.0786 7.00052C35.0984 7.23833 34.9108 7.46041 34.4546 7.74145C34.0023 8.02053 33.2598 8.47649 32.1875 8.47649H32.1895Z" fill="#408F95"/>
<path d="M27.7226 8.84385C27.6337 8.84385 27.5468 8.79668 27.4994 8.71414C27.4303 8.59229 27.4757 8.43703 27.5982 8.3702C28.3782 7.9398 29.0279 7.36395 29.5315 6.6643C29.7981 6.29285 30.0213 5.88799 30.1911 5.45955C30.2425 5.32984 30.3906 5.26695 30.5209 5.31804C30.6512 5.36914 30.7144 5.51654 30.6631 5.64625C30.4755 6.11204 30.2346 6.55424 29.9443 6.95713C29.3972 7.71968 28.6903 8.34466 27.845 8.8124C27.8055 8.83402 27.7641 8.84385 27.7226 8.84385Z" fill="#408F95"/>
<path d="M25.3862 3.82277C25.4237 3.60266 25.633 3.45526 25.8522 3.4926C26.0734 3.52994 26.2215 3.73826 26.184 3.95642C26.1465 4.17653 25.9372 4.32393 25.7179 4.28659C25.4968 4.24925 25.3487 4.04093 25.3862 3.82277Z" fill="#408F95"/>
<path d="M36.781 13.3622C36.3366 13.3563 35.9042 13.321 35.4776 13.2561C34.893 13.1677 34.3125 13.0222 33.7536 12.8237C31.6998 12.0966 30.5761 11.4696 28.7158 10.4319C28.5934 10.3632 28.5499 10.2099 28.6191 10.088C28.6882 9.96615 28.8422 9.92292 28.9647 9.9917C30.8644 11.051 31.9111 11.6347 33.9254 12.3481C34.4546 12.5348 35.0017 12.6724 35.5546 12.7569C35.9575 12.8178 36.3663 12.8513 36.7731 12.8572C37.2372 12.8395 37.4603 12.7766 37.561 12.7314C37.4366 12.6469 37.1187 12.4818 36.3228 12.2322C36.1885 12.1909 36.1155 12.0474 36.1569 11.9158C36.1984 11.7821 36.3426 11.7074 36.4749 11.7507C37.7546 12.1516 38.187 12.4267 38.1278 12.7982C38.0528 13.262 37.3221 13.3426 36.779 13.3642L36.781 13.3622Z" fill="#408F95"/>
<path d="M37.557 12.2576C37.399 12.2576 37.2489 12.2498 37.1067 12.2419C35.0667 12.1161 33.4197 11.6837 33.3506 11.6641C32.5824 11.4597 31.8122 11.2101 31.0618 10.9232C30.9315 10.8721 30.8663 10.7266 30.9157 10.5969C30.967 10.4672 31.1131 10.4023 31.2435 10.4515C31.9781 10.7325 32.7305 10.9762 33.4809 11.1767C33.5481 11.1944 35.1457 11.6149 37.1363 11.7368C37.5945 11.7643 38.0882 11.7761 38.6668 11.5717C38.9808 11.4617 39.279 11.3005 39.5515 11.0941C39.6641 11.0096 39.8221 11.0312 39.907 11.1433C39.9919 11.2553 39.9702 11.4125 39.8576 11.497C39.5436 11.7348 39.2 11.9196 38.8367 12.0473C38.3647 12.2144 37.9361 12.2576 37.555 12.2576H37.557Z" fill="#408F95"/>
<path d="M45.9481 13.3624C45.2846 13.3624 44.625 13.2976 43.9713 13.1679C42.5277 12.879 41.1335 12.2618 39.9387 11.3833C39.8262 11.3008 39.8025 11.1416 39.8854 11.0296C39.9684 10.9176 40.1283 10.894 40.2409 10.9765C41.3764 11.8118 42.6995 12.3994 44.0701 12.6726C45.1009 12.879 46.1535 12.9124 47.2001 12.7768C47.1606 12.4387 47.0461 11.8393 46.7301 11.4069C46.6393 11.2831 46.4892 11.0768 46.2246 10.9097C46.1555 10.8645 46.1021 10.8389 45.958 10.7682L45.8573 10.7191C45.5689 10.5756 45.3359 10.4557 45.1819 10.3751C45.0575 10.3103 45.0101 10.157 45.0752 10.0332C45.1404 9.90935 45.2944 9.86218 45.4189 9.92703C45.5709 10.0076 45.8 10.1255 46.0844 10.2651L46.1831 10.3142C46.3352 10.3889 46.4043 10.4223 46.4991 10.4832C46.8447 10.7033 47.0382 10.9667 47.1409 11.1082C47.6326 11.7764 47.7156 12.7099 47.7294 12.9792C47.7353 13.1089 47.6425 13.2229 47.5141 13.2425C46.9928 13.3231 46.4695 13.3644 45.9461 13.3644L45.9481 13.3624Z" fill="#408F95"/>
<path d="M48.1639 5.38106C47.7907 5.38106 47.3937 5.35551 46.9514 5.30834C46.8112 5.29262 46.7104 5.1688 46.7262 5.02926C46.742 4.88972 46.8665 4.78753 47.0067 4.80521C47.4332 4.85042 47.8124 4.874 48.1679 4.87597C48.3081 4.87597 48.4206 4.98996 48.4206 5.12949C48.4206 5.26903 48.3061 5.38106 48.1659 5.38106H48.1639Z" fill="#408F95"/>
<path d="M48.3888 2.50975C48.3631 2.50975 48.3355 2.50582 48.3098 2.49796C48.0254 2.40362 47.7411 2.30732 47.4567 2.20905C46.6727 1.9398 45.861 1.66072 45.0198 1.47598C41.3585 0.735053 37.7919 0.416669 34.4229 0.530658C34.2847 0.534589 34.1642 0.426495 34.1603 0.286957C34.1563 0.147418 34.2649 0.0294985 34.4051 0.0255678C37.8117 -0.0903867 41.4197 0.229962 45.1244 0.980719C45.9993 1.17332 46.8228 1.45633 47.6206 1.73148C47.903 1.82778 48.1854 1.92604 48.4678 2.01841C48.6021 2.06165 48.6732 2.20512 48.6297 2.3368C48.5942 2.44293 48.4955 2.51171 48.3888 2.51171V2.50975Z" fill="#408F95"/>
<path d="M28.9923 1.91813C28.8955 1.91813 28.8027 1.8631 28.7613 1.77073C28.704 1.64299 28.7613 1.49362 28.8876 1.43663C29.5334 1.14379 30.2029 0.892229 30.8802 0.68587C31.7551 0.418584 32.6576 0.224017 33.566 0.106097C33.7062 0.0884087 33.8326 0.18471 33.8504 0.324249C33.8681 0.463787 33.7714 0.589568 33.6312 0.607256C32.7524 0.721245 31.8755 0.909917 31.0283 1.16934C30.3727 1.3698 29.721 1.61351 29.097 1.89651C29.0634 1.91224 29.0279 1.9201 28.9923 1.9201V1.91813Z" fill="#408F95"/>
<path d="M34.0281 1.22844C33.9452 1.22844 33.8622 1.18717 33.8129 1.11249C33.7378 0.994566 33.7714 0.837339 33.8899 0.762657C33.9432 0.729246 34.0222 0.680113 34.119 0.625084C34.4823 0.420689 34.8753 0.265428 35.2861 0.161265C35.604 0.0806867 35.9318 0.0335187 36.2616 0.0197614C36.4019 0.0138654 36.5203 0.121959 36.5263 0.261497C36.5322 0.401036 36.4236 0.518956 36.2834 0.524852C35.9871 0.536644 35.6949 0.579881 35.4105 0.650633C35.0432 0.743003 34.6917 0.882542 34.3678 1.06335C34.2809 1.11249 34.2118 1.15572 34.1624 1.1852C34.1209 1.21272 34.0735 1.22451 34.0262 1.22451L34.0281 1.22844Z" fill="#408F95"/>
<path d="M37.5689 1.45029C37.4859 1.45029 37.403 1.40901 37.3556 1.33433C37.2806 1.21641 37.3141 1.06115 37.4326 0.984503C37.4859 0.951092 37.5649 0.901959 37.6617 0.846929C38.0251 0.642535 38.418 0.487274 38.8308 0.383111C39.1487 0.302533 39.4766 0.255365 39.8063 0.241607C39.9466 0.233746 40.065 0.343805 40.071 0.483343C40.0769 0.622882 39.9683 0.740802 39.8281 0.746698C39.5318 0.75849 39.2396 0.801727 38.9552 0.872479C38.5879 0.964849 38.2364 1.10439 37.9125 1.2852C37.8256 1.33433 37.7565 1.37757 37.7071 1.40705C37.6656 1.43456 37.6163 1.44636 37.5709 1.44636L37.5689 1.45029Z" fill="#408F95"/>
<path d="M40.8353 1.91008C40.7523 1.91008 40.6694 1.86881 40.62 1.79413C40.545 1.67621 40.5785 1.52095 40.697 1.4443C40.7503 1.41089 40.8293 1.36175 40.9261 1.30672C41.2914 1.10233 41.6844 0.947068 42.0952 0.842906C42.4131 0.762327 42.741 0.715159 43.0707 0.701402C43.211 0.695506 43.3294 0.803599 43.3354 0.943138C43.3413 1.08268 43.2327 1.2006 43.0925 1.20649C42.7962 1.21828 42.504 1.26152 42.2196 1.33227C41.8523 1.42464 41.5008 1.56418 41.1769 1.74499C41.09 1.79413 41.0209 1.83736 40.9715 1.86684C40.93 1.89436 40.8827 1.90615 40.8353 1.90615V1.91008Z" fill="#408F95"/>
<path d="M45.6893 12.3441H45.6833C44.8144 12.3225 43.9889 12.128 43.2326 11.7624C42.9028 11.6032 42.5868 11.4126 42.2926 11.1944C42.18 11.1099 42.1563 10.9527 42.2412 10.8407C42.3261 10.7286 42.4841 10.7051 42.5967 10.7896C42.8653 10.99 43.1556 11.1649 43.4538 11.3084C44.1449 11.6406 44.8993 11.8194 45.6952 11.8391C45.8354 11.843 45.946 11.9589 45.944 12.0985C45.9401 12.236 45.8275 12.3461 45.6893 12.3461V12.3441Z" fill="#408F95"/>
<path d="M45.2312 11.3242C45.2016 11.3242 45.172 11.3183 45.1443 11.3084L43.6968 10.7817C43.5645 10.7346 43.4973 10.5891 43.5447 10.4575C43.5921 10.3258 43.7402 10.259 43.8706 10.3061L45.3181 10.8328C45.4504 10.88 45.5176 11.0254 45.4702 11.1571C45.4326 11.2593 45.3359 11.3242 45.2312 11.3242Z" fill="#408F95"/>
<path d="M48.8371 5.35751C48.7009 5.35751 48.5863 5.24942 48.5824 5.11185C48.5784 4.97231 48.689 4.85635 48.8292 4.85242C49.787 4.82491 50.1958 4.64017 50.2629 4.196C50.0813 3.58872 49.6152 3.09542 48.8411 2.69056C48.7167 2.6257 48.6693 2.47241 48.7344 2.34859C48.7996 2.22478 48.9536 2.17761 49.0781 2.24246C50.0042 2.72593 50.5572 3.33715 50.7665 4.10953C50.7744 4.13901 50.7764 4.17045 50.7744 4.19993C50.6678 5.30445 49.3901 5.34179 48.845 5.35751C48.8431 5.35751 48.8391 5.35751 48.8371 5.35751Z" fill="#408F95"/>
<path d="M59.351 46.6195C59.2701 46.6195 59.1911 46.5802 59.1417 46.5094C59.0272 46.3424 58.964 46.1655 58.9541 45.9847C58.9087 45.0963 60.141 44.4831 61.0415 44.0351C61.9716 43.5712 62.9808 43.2332 64.0393 43.0288C64.1775 43.0033 64.3098 43.0917 64.3375 43.2293C64.3651 43.3668 64.2743 43.4985 64.136 43.526C63.1229 43.7226 62.1592 44.0449 61.2686 44.4871C60.5814 44.829 59.434 45.401 59.4616 45.9591C59.4656 46.0456 59.4992 46.134 59.5604 46.2225C59.6394 46.3384 59.6097 46.4956 59.4952 46.5743C59.4518 46.6037 59.4004 46.6195 59.351 46.6195Z" fill="#408F95"/>
<path d="M62.7834 48.9014C62.7597 48.9014 62.734 48.8974 62.7103 48.8896C62.2383 48.7461 61.7723 48.581 61.326 48.3983C61.1305 48.3177 60.8639 48.2076 60.5183 48.0347C60.2043 47.8755 59.8942 47.7006 59.6019 47.5119C59.5881 47.5021 59.5743 47.4922 59.5624 47.4804C59.5486 47.4667 59.5249 47.447 59.4973 47.4215C59.1655 47.1267 58.8476 46.8122 58.9285 46.5076C58.9522 46.4192 59.0293 46.2639 59.284 46.2108C59.4203 46.1814 59.5565 46.2678 59.5861 46.4054C59.6098 46.5135 59.5585 46.6196 59.4696 46.6747C59.523 46.7454 59.6296 46.8614 59.8369 47.0441C59.8606 47.0658 59.8824 47.0834 59.8982 47.0992C60.1707 47.2741 60.457 47.4372 60.7493 47.5846C61.0771 47.7497 61.3339 47.8558 61.5215 47.9325C61.952 48.1093 62.4022 48.2705 62.8584 48.4081C62.9927 48.4494 63.0677 48.5909 63.0283 48.7245C62.9947 48.8346 62.894 48.9033 62.7853 48.9033L62.7834 48.9014Z" fill="#408F95"/>
<path d="M64.9893 49.0448C64.3159 49.0448 63.6385 49.0172 62.9671 48.9603C62.8269 48.9485 62.7242 48.8266 62.736 48.6871C62.7479 48.5475 62.8723 48.4453 63.0105 48.4571C63.8893 48.5298 64.778 48.5554 65.6528 48.5298C65.6706 48.5298 67.6533 48.4591 69.2984 48.1152C69.8059 48.009 70.3174 47.8675 70.815 47.6906C71.0362 47.612 71.1567 47.5629 71.6622 47.3546L72.2724 47.103C72.4442 47.0323 72.5963 46.9674 72.7365 46.9084C73.1789 46.7217 73.4988 46.5861 73.8819 46.4879C74.4033 46.3523 74.9542 46.2894 75.523 46.3031C75.6632 46.3071 75.7738 46.423 75.7718 46.5625C75.7679 46.7021 75.6553 46.8121 75.5111 46.8102C74.9898 46.7984 74.4862 46.8554 74.0103 46.9772C73.6627 47.0676 73.3586 47.1954 72.936 47.3742C72.7938 47.4352 72.6397 47.5 72.466 47.5708L71.8557 47.8223C71.3541 48.0287 71.2199 48.0837 70.9848 48.1663C70.4655 48.349 69.9323 48.4984 69.403 48.6085C67.7126 48.9603 65.7516 49.031 65.6686 49.033C65.4435 49.0389 65.2164 49.0428 64.9913 49.0428L64.9893 49.0448Z" fill="#408F95"/>
<path d="M75.7658 44.9805C75.7658 44.9805 75.7599 44.9805 75.756 44.9805C75.6138 44.9746 75.4696 44.9609 75.3294 44.9412C74.9957 44.8921 74.7449 44.8115 74.6363 44.7761L74.6066 44.7663C73.4849 44.4224 72.3356 44.1217 71.1922 43.876C70.1396 43.65 69.3082 43.4711 68.2142 43.3709C67.0589 43.2648 65.8819 43.2726 64.7148 43.3945C64.5746 43.4082 64.4502 43.308 64.4363 43.1685C64.4225 43.0289 64.5232 42.9051 64.6634 42.8914C65.8641 42.7675 67.0747 42.7597 68.2615 42.8678C69.3872 42.97 70.2324 43.1528 71.3008 43.3827C72.46 43.6323 73.6232 43.935 74.7587 44.2848L74.7962 44.2966C74.891 44.328 75.1142 44.3988 75.4064 44.442C75.521 44.4597 75.6375 44.4695 75.752 44.4754C75.9396 44.442 76.1272 44.3948 76.3089 44.3339C76.5301 44.2612 76.6861 44.1865 76.7454 44.159C77.3477 43.878 78.734 43.363 79.9367 43.0171C80.616 42.8206 81.1373 42.7066 81.7871 42.6968C81.9826 42.6929 82.182 42.7007 82.3756 42.7184C82.5158 42.7302 82.6185 42.854 82.6066 42.9936C82.5948 43.1331 82.4703 43.2353 82.3301 43.2235C82.1524 43.2078 81.9727 43.2019 81.793 43.2038C81.2025 43.2117 80.7167 43.3198 80.0788 43.5045C78.7774 43.8799 77.4543 44.3889 76.9685 44.615C76.8954 44.6484 76.7197 44.7309 76.4709 44.8135C76.2556 44.8842 76.0344 44.9392 75.8113 44.9785C75.7974 44.9805 75.7836 44.9825 75.7678 44.9825L75.7658 44.9805Z" fill="#408F95"/>
<path d="M81.6193 49.6209C81.5857 49.6209 81.5501 49.613 81.5166 49.5993L78.7123 48.3631C78.1969 48.1056 77.6973 47.8305 77.2154 47.5416C76.854 47.3254 76.4907 47.0935 76.1411 46.8576C76.0246 46.779 75.995 46.6218 76.074 46.5058C76.153 46.3899 76.311 46.3604 76.4275 46.439C76.7711 46.6709 77.1246 46.8969 77.4781 47.1092C77.9501 47.3922 78.4398 47.6614 78.9315 47.9071L81.7239 49.1374C81.8523 49.1944 81.9096 49.3438 81.8543 49.4715C81.8128 49.5658 81.72 49.6228 81.6212 49.6228L81.6193 49.6209Z" fill="#408F95"/>
<path d="M81.6191 49.6206C81.546 49.6206 81.4749 49.5892 81.4256 49.5302C80.9121 48.9249 80.5132 48.2567 80.2387 47.5452C80.0076 46.9478 79.826 46.4761 79.903 45.857C79.9899 45.1573 80.3572 44.6935 80.8213 44.1059L80.8608 44.0548C81.2419 43.5713 81.6922 43.139 82.1997 42.7675C82.3122 42.685 82.4722 42.7085 82.5552 42.8206C82.6381 42.9326 82.6144 43.0918 82.5018 43.1743C82.0318 43.5202 81.6132 43.9212 81.2616 44.3673L81.2221 44.4184C80.7916 44.9647 80.4796 45.3598 80.4085 45.9199C80.3473 46.4132 80.4934 46.7905 80.7146 47.3625C80.9694 48.0208 81.3406 48.6399 81.8166 49.204C81.9074 49.3101 81.8936 49.4713 81.7869 49.5597C81.7395 49.599 81.6803 49.6187 81.623 49.6187L81.6191 49.6206Z" fill="#408F95"/>
<path d="M64.5549 47.5372C63.9723 47.5372 63.522 47.3191 63.289 47.1776C63.1705 47.1048 63.133 46.9476 63.2061 46.8297C63.2791 46.7118 63.4351 46.6744 63.5556 46.7472C63.7649 46.8749 64.1994 47.0813 64.7563 47.0203C65.3132 46.9594 65.6568 46.6666 65.8859 46.472C65.9195 46.4445 65.9451 46.4189 65.9669 46.3993C65.8306 46.3678 65.5956 46.3482 65.2618 46.3403C64.7049 46.3266 64.1322 46.3914 63.5595 46.529C63.4233 46.5624 63.285 46.4779 63.2515 46.3423C63.2179 46.2067 63.3028 46.0691 63.4391 46.0357C64.0552 45.8863 64.6733 45.8176 65.2737 45.8313C65.9175 45.847 66.4566 45.8903 66.5455 46.2637C66.5988 46.4917 66.4092 46.6902 66.2157 46.8552C65.9728 47.0616 65.5225 47.4429 64.8116 47.5215C64.7227 47.5313 64.6378 47.5353 64.5549 47.5353V47.5372Z" fill="#408F95"/>
<path d="M62.3054 48.1252C62.2304 48.1252 62.1554 48.0918 62.104 48.0269C62.0171 47.9169 62.0388 47.7577 62.1494 47.6712C62.5523 47.3607 62.8683 46.9794 63.0914 46.5411C63.2099 46.3092 63.2988 46.0616 63.358 45.8041C63.3896 45.6685 63.5259 45.584 63.6621 45.6155C63.7984 45.6469 63.8833 45.7825 63.8517 45.9181C63.7826 46.2149 63.6799 46.4999 63.5436 46.7691C63.2869 47.2762 62.9216 47.7144 62.4595 48.0721C62.4141 48.1075 62.3588 48.1252 62.3035 48.1252H62.3054Z" fill="#408F95"/>
<path d="M60.7552 45.8001C60.7552 45.8001 60.7513 45.8001 60.7473 45.8001C60.4768 45.7962 60.2576 45.5721 60.2615 45.3029C60.2655 45.0316 60.4827 44.8155 60.7612 44.8194C60.8935 44.8194 61.0159 44.8744 61.1067 44.9688C61.1976 45.0631 61.247 45.1869 61.245 45.3166C61.241 45.5839 61.0199 45.8001 60.7533 45.8001H60.7552ZM60.7394 45.3088C60.7394 45.3088 60.7454 45.3225 60.7552 45.3245C60.7631 45.3245 60.771 45.3166 60.771 45.3088H60.7394ZM60.7394 45.3088H60.771C60.771 45.3088 60.7612 45.2871 60.7552 45.293C60.7473 45.293 60.7394 45.2989 60.7394 45.3088Z" fill="#408F95"/>
<path d="M67.2326 50.0001C66.8792 50.0001 66.5257 49.9667 66.1781 49.8999C64.9083 49.6581 64.1954 49.3928 63.0144 48.9526C62.8821 48.9034 62.817 48.758 62.8663 48.6263C62.9157 48.4946 63.0618 48.4298 63.1941 48.4789C64.3909 48.9251 65.0485 49.1688 66.2749 49.4026C66.5928 49.4636 66.9088 49.493 67.2405 49.493C67.4755 49.493 67.7125 49.4754 67.9456 49.4439C68.0897 49.4243 68.222 49.379 68.299 49.3417C68.2003 49.2513 67.9535 49.0862 67.4479 48.87C67.3195 48.815 67.2583 48.6656 67.3156 48.5379C67.3709 48.4101 67.521 48.3492 67.6493 48.4062C68.7868 48.8916 68.8915 49.2022 68.8441 49.44C68.769 49.8114 68.1924 49.9215 68.0186 49.9451C67.7599 49.9804 67.4874 49.9981 67.2366 50.0001H67.2326Z" fill="#408F95"/>
<path d="M72.4423 49.1964C72.3514 49.1964 72.2606 49.1945 72.1698 49.1905C71.289 49.1512 70.4062 48.9115 69.6183 48.4987C69.4939 48.4339 69.4465 48.2806 69.5116 48.1568C69.5768 48.033 69.7309 47.9858 69.8553 48.0506C70.5781 48.428 71.3858 48.6481 72.1934 48.6835C72.7642 48.709 73.3349 48.6461 73.8898 48.4968C73.8187 48.2806 73.7042 48.0408 73.5482 47.8856C73.485 47.8227 73.3922 47.7283 73.2401 47.6635C73.1947 47.6438 73.1611 47.634 73.0841 47.6084L73.0209 47.5888C72.8392 47.5318 72.6931 47.4827 72.5943 47.4492C72.462 47.404 72.3909 47.2606 72.4363 47.1269C72.4818 46.9953 72.6259 46.9245 72.7602 46.9697C72.855 47.0031 72.9992 47.0503 73.1749 47.1073L73.2381 47.1269C73.3428 47.1603 73.3862 47.1741 73.4475 47.2016C73.6844 47.3058 73.8365 47.4571 73.9096 47.5298C74.2769 47.8973 74.4151 48.4575 74.4487 48.6206C74.4744 48.7483 74.4013 48.8741 74.2769 48.9134C73.6805 49.1021 73.0643 49.1964 72.4442 49.1964H72.4423Z" fill="#408F95"/>
<path d="M73.1927 44.3518C73.0584 44.3518 72.9459 44.2457 72.938 44.1101C72.9321 43.9706 73.0407 43.8526 73.1809 43.8448C73.4297 43.833 73.6489 43.8133 73.8523 43.7819C73.9906 43.7622 74.1209 43.8566 74.1406 43.9941C74.1604 44.1317 74.0656 44.2614 73.9274 44.2811C73.7062 44.3145 73.4692 44.3361 73.2046 44.3479C73.2006 44.3479 73.1967 44.3479 73.1927 44.3479V44.3518Z" fill="#408F95"/>
<path d="M73.8896 44.287C73.7573 44.287 73.6448 44.1848 73.6369 44.0511C73.627 43.9116 73.7336 43.7917 73.8738 43.7819C74.5275 43.7406 74.8553 43.5283 74.883 43.3495C74.9086 43.1844 74.6815 42.9073 74.1227 42.6852C73.9923 42.6341 73.9291 42.4867 73.9805 42.357C74.0318 42.2273 74.1799 42.1644 74.3103 42.2155C75.0568 42.5103 75.4596 42.9623 75.3846 43.4281C75.3076 43.9116 74.7546 44.2319 73.9054 44.285C73.8995 44.285 73.8936 44.285 73.8896 44.285V44.287Z" fill="#408F95"/>
<path d="M65.4513 42.691C65.3348 42.691 65.2302 42.6104 65.2045 42.4944C65.1729 42.3588 65.2598 42.2232 65.396 42.1918C67.519 41.7142 69.6617 41.5786 71.7668 41.7889C72.3573 41.8478 72.9537 41.9343 73.5382 42.0483C73.6765 42.0758 73.7653 42.2075 73.7396 42.3451C73.712 42.4826 73.5797 42.5711 73.4415 42.5455C72.8727 42.4355 72.2921 42.351 71.7155 42.292C69.6656 42.0876 67.5762 42.2193 65.5086 42.6851C65.4889 42.689 65.4711 42.691 65.4533 42.691H65.4513Z" fill="#408F95"/>
<path d="M62.42 43.9823C62.3371 43.9823 62.2561 43.9411 62.2068 43.8683C62.1297 43.7504 62.1633 43.5952 62.2798 43.5185C62.6333 43.2886 63.0046 43.0783 63.3838 42.8975C63.7451 42.7225 64.1243 42.5692 64.5074 42.4415C64.5963 42.412 64.6733 42.3865 64.7266 42.3707C64.8589 42.3295 65.0031 42.4042 65.0446 42.5358C65.086 42.6695 65.011 42.811 64.8787 42.8523C64.8273 42.868 64.7563 42.8916 64.6713 42.9191C64.308 43.0409 63.9505 43.1864 63.6069 43.3515C63.2475 43.5244 62.896 43.7229 62.5603 43.9411C62.5168 43.9686 62.4694 43.9823 62.422 43.9823H62.42Z" fill="#408F95"/>
<path d="M66.3026 42.7482C66.2631 42.7482 66.2256 42.7324 66.1979 42.701C66.1466 42.644 66.1525 42.5556 66.2098 42.5045C66.2374 42.4809 66.2789 42.4455 66.3302 42.4042C66.5238 42.2529 66.737 42.1291 66.9661 42.0328C67.1419 41.9581 67.3295 41.9011 67.5191 41.8638C67.5941 41.848 67.6692 41.8972 67.683 41.9738C67.6968 42.0505 67.6494 42.1232 67.5724 42.1369C67.4006 42.1704 67.2327 42.2215 67.0747 42.2883C66.8694 42.3748 66.6758 42.4887 66.502 42.6224C66.4566 42.6578 66.4191 42.6912 66.3934 42.7128C66.3678 42.7364 66.3342 42.7482 66.3006 42.7482H66.3026Z" fill="#408F95"/>
<path d="M67.6257 42.7066C67.5802 42.7066 67.5348 42.683 67.5072 42.6417C67.4657 42.5768 67.4835 42.4904 67.5486 42.4491C67.5783 42.4294 67.6217 42.4019 67.675 42.3705C67.8745 42.2506 68.0897 42.1386 68.3089 42.0423C68.4808 41.9656 68.6545 41.8988 68.8303 41.8398C68.9034 41.8163 68.9824 41.8556 69.008 41.9283C69.0317 42.001 68.9922 42.0796 68.9192 42.1052C68.7533 42.1602 68.5854 42.2251 68.4235 42.2978C68.2142 42.3901 68.0108 42.4963 67.8192 42.6103C67.7679 42.6397 67.7264 42.6673 67.6987 42.6849C67.675 42.7007 67.6494 42.7066 67.6237 42.7066H67.6257Z" fill="#408F95"/>
<path d="M69.2984 42.7086C69.255 42.7086 69.2135 42.689 69.1858 42.6516C69.1404 42.5907 69.1523 42.5023 69.2155 42.457C69.2451 42.4354 69.2866 42.404 69.3399 42.3686C69.5374 42.235 69.7506 42.119 69.9758 42.0207C70.1496 41.9461 70.3293 41.8812 70.5109 41.8321C70.586 41.8105 70.663 41.8557 70.6828 41.9303C70.7025 42.005 70.6591 42.0817 70.584 42.1013C70.4162 42.1465 70.2483 42.2055 70.0864 42.2762C69.877 42.3666 69.6796 42.4747 69.4959 42.5986C69.4465 42.632 69.407 42.6595 69.3814 42.6791C69.3557 42.6968 69.328 42.7066 69.2984 42.7066V42.7086Z" fill="#408F95"/>
<path d="M72.5312 48.0898C72.5312 48.0898 72.5174 48.0898 72.5114 48.0898L71.3838 47.9345C71.3068 47.9247 71.2535 47.8539 71.2653 47.7773C71.2752 47.7006 71.3483 47.6476 71.4233 47.6594L72.5509 47.8146C72.6279 47.8244 72.6813 47.8952 72.6694 47.9718C72.6595 48.0406 72.6003 48.0917 72.5312 48.0917V48.0898Z" fill="#408F95"/>
<path d="M79.7825 47.8596C79.745 47.8596 79.7055 47.8498 79.6699 47.8262C79.3302 47.612 79.0281 47.3486 78.7753 47.044C78.4356 46.6371 78.1177 46.2539 78.1592 45.7508C78.2026 45.2378 78.5956 44.9116 79.0123 44.5657C79.3539 44.2827 79.739 44.0586 80.1597 43.9034C80.2683 43.8621 80.3887 43.9171 80.4302 44.0252C80.4717 44.1333 80.4164 44.2532 80.3078 44.2945C79.9326 44.434 79.587 44.6345 79.2828 44.886C78.9057 45.1985 78.6075 45.4462 78.5778 45.7862C78.5502 46.1183 78.7911 46.4092 79.0972 46.7767C79.3223 47.0479 79.5909 47.2818 79.895 47.4744C79.9938 47.5353 80.0214 47.665 79.9602 47.7633C79.9207 47.8262 79.8516 47.8596 79.7825 47.8596Z" fill="#408F95"/>
<path d="M86.0012 39.3006C85.8867 39.3006 85.784 39.2239 85.7544 39.108C85.705 38.9114 85.707 38.7247 85.7623 38.5518C86.0309 37.7027 87.4014 37.5553 88.4006 37.4492C89.4354 37.3372 90.4999 37.3706 91.5623 37.5455C91.7006 37.5691 91.7953 37.6988 91.7716 37.8364C91.7479 37.974 91.6196 38.0683 91.4794 38.0447C90.4623 37.8757 89.4433 37.8462 88.4559 37.9523C87.6937 38.0349 86.4159 38.1725 86.2481 38.7051C86.2224 38.7876 86.2224 38.8819 86.2481 38.9861C86.2817 39.1217 86.1987 39.2593 86.0625 39.2927C86.0427 39.2986 86.021 39.3006 86.0012 39.3006Z" fill="#408F95"/>
<path d="M88.4184 42.6281C88.365 42.6281 88.3097 42.6104 88.2643 42.577C87.8713 42.2802 87.4941 41.9638 87.1387 41.6356C86.9827 41.4921 86.7694 41.2956 86.5087 41.0146C86.2698 40.7571 86.0427 40.4859 85.8333 40.2068C85.8235 40.193 85.8156 40.1793 85.8077 40.1636C85.7998 40.1459 85.7859 40.1203 85.7682 40.0869C85.5588 39.6958 85.3712 39.291 85.5549 39.0315C85.6082 38.9568 85.7346 38.8389 85.9913 38.8763C86.1295 38.8959 86.2263 39.0256 86.2066 39.1632C86.1908 39.2733 86.1058 39.3558 86.0032 39.3755C86.0269 39.46 86.0881 39.6054 86.2184 39.8511C86.2342 39.8786 86.2461 39.9041 86.2559 39.9218C86.4514 40.1813 86.6627 40.4328 86.8839 40.6706C87.1308 40.9379 87.3362 41.1266 87.4862 41.2641C87.8279 41.5806 88.1952 41.8852 88.5744 42.1741C88.6869 42.2586 88.7067 42.4178 88.6218 42.5279C88.5724 42.5927 88.4954 42.6281 88.4203 42.6281H88.4184Z" fill="#408F95"/>
<path d="M101.083 45.0866C101.051 45.0866 101.02 45.0807 100.988 45.0689C100.504 44.8763 100.01 44.7544 99.5227 44.7053C99.1652 44.6699 98.8334 44.6837 98.3753 44.7053C98.2213 44.7132 98.0534 44.7191 97.8678 44.7269L97.2062 44.7505C96.6651 44.7702 96.5209 44.776 96.2721 44.7702C95.7211 44.7603 95.1702 44.7151 94.635 44.6345C92.9287 44.3791 91.0645 43.7639 90.9855 43.7364C90.1403 43.4514 89.2971 43.1114 88.4795 42.7301C88.3531 42.6712 88.2978 42.5199 88.357 42.3941C88.4163 42.2683 88.5684 42.2133 88.6947 42.2722C89.4945 42.6476 90.318 42.9778 91.1455 43.2568C91.1633 43.2627 93.0453 43.8838 94.7081 44.1334C95.2215 44.21 95.7508 44.2533 96.278 44.2631C96.513 44.267 96.6414 44.2631 97.1865 44.2434L97.85 44.2199C98.0336 44.214 98.1995 44.2061 98.3536 44.1982C98.8334 44.1766 99.181 44.1609 99.574 44.2002C100.109 44.2533 100.648 44.3869 101.178 44.5972C101.308 44.6483 101.371 44.7957 101.32 44.9254C101.28 45.0237 101.185 45.0846 101.083 45.0846V45.0866Z" fill="#408F95"/>
<path d="M108.745 44.0944C108.708 44.0944 108.672 44.0865 108.636 44.0708C108.476 43.9941 108.309 43.9254 108.141 43.8664C107.584 43.6679 107.092 43.6011 106.429 43.5519C105.078 43.4517 103.658 43.4714 103.125 43.5146C103.044 43.5205 102.848 43.5382 102.588 43.5284C102.362 43.5205 102.135 43.4949 101.912 43.4537C101.894 43.4497 101.877 43.4458 101.861 43.438C101.729 43.3829 101.6 43.32 101.476 43.2532C101.18 43.0921 100.974 42.9289 100.885 42.8582L100.86 42.8385C99.9275 42.1271 98.9559 41.4471 97.9705 40.8201C97.064 40.2423 96.3472 39.7864 95.3558 39.3127C94.3091 38.8135 93.2033 38.4126 92.0677 38.1198C91.9315 38.0844 91.8505 37.9468 91.8861 37.8112C91.9216 37.6756 92.0598 37.595 92.1961 37.6304C93.3652 37.9311 94.5027 38.3438 95.577 38.8568C96.596 39.3442 97.3247 39.806 98.245 40.3937C99.2422 41.0285 100.228 41.7163 101.17 42.4376L101.201 42.4612C101.28 42.5221 101.462 42.6675 101.721 42.809C101.821 42.8641 101.926 42.9152 102.033 42.9604C102.22 42.9938 102.414 43.0154 102.605 43.0213C102.836 43.0292 103.01 43.0154 103.075 43.0095C103.739 42.9545 105.218 42.9545 106.466 43.0468C107.173 43.0999 107.7 43.1707 108.313 43.3888C108.498 43.4537 108.68 43.5303 108.856 43.6129C108.982 43.6738 109.035 43.8232 108.976 43.9509C108.933 44.0413 108.842 44.0944 108.747 44.0944H108.745Z" fill="#408F95"/>
<path d="M105.822 49.8368C105.759 49.8368 105.694 49.8132 105.645 49.7641L103.449 47.6336C103.056 47.2131 102.684 46.7827 102.333 46.3444C102.068 46.0142 101.811 45.6742 101.565 45.3303C101.484 45.2163 101.511 45.0591 101.624 44.9785C101.738 44.8979 101.896 44.9254 101.977 45.0374C102.218 45.3735 102.469 45.7076 102.728 46.0299C103.071 46.4584 103.435 46.879 103.81 47.2819L105.996 49.4044C106.097 49.5027 106.099 49.6619 106 49.7621C105.951 49.8132 105.884 49.8387 105.818 49.8387L105.822 49.8368Z" fill="#408F95"/>
<path d="M105.823 49.837C105.718 49.837 105.621 49.7721 105.584 49.6699C105.315 48.9251 105.175 48.1586 105.167 47.396C105.159 46.7553 105.155 46.2502 105.443 45.698C105.771 45.073 106.277 44.7644 106.917 44.3753L106.972 44.3419C107.497 44.0216 108.072 43.772 108.678 43.599C108.812 43.5597 108.955 43.6383 108.992 43.772C109.032 43.9056 108.953 44.0471 108.818 44.0844C108.255 44.2436 107.724 44.4755 107.238 44.7723L107.183 44.8057C106.587 45.1693 106.156 45.4307 105.896 45.9319C105.665 46.3721 105.67 46.7769 105.676 47.3901C105.684 48.0957 105.815 48.8052 106.063 49.4989C106.111 49.6306 106.042 49.776 105.909 49.8232C105.882 49.833 105.852 49.8389 105.824 49.8389L105.823 49.837Z" fill="#408F95"/>
<path d="M91.2601 42.0917C91.0903 42.0917 90.9066 42.072 90.7131 42.0249C90.0219 41.8519 89.5993 41.4176 89.4077 41.1719C89.3208 41.0619 89.3406 40.9027 89.4512 40.8162C89.5618 40.7297 89.7217 40.7494 89.8086 40.8594C89.9607 41.052 90.2944 41.396 90.8375 41.5316C91.3806 41.6672 91.8071 41.5119 92.0876 41.4097C92.129 41.394 92.1626 41.3822 92.1903 41.3685C92.0737 41.2918 91.8585 41.1916 91.5484 41.0697C91.033 40.8653 90.4741 40.7258 89.8876 40.657C89.7474 40.6413 89.6487 40.5155 89.6645 40.376C89.6803 40.2364 89.8067 40.1362 89.9469 40.1539C90.5768 40.2286 91.1811 40.3779 91.738 40.6C92.3364 40.8378 92.8261 41.0658 92.7787 41.4451C92.7511 41.677 92.5023 41.7969 92.2613 41.8834C92.0461 41.962 91.6965 42.0897 91.2581 42.0897L91.2601 42.0917Z" fill="#408F95"/>
<path d="M88.2425 41.7357C88.1339 41.7357 88.0332 41.6669 87.9996 41.5588C87.9582 41.4252 88.0312 41.2837 88.1655 41.2424C88.6513 41.091 89.0818 40.8434 89.4452 40.5093C89.6368 40.3324 89.8086 40.132 89.9547 39.9118C90.0317 39.7959 90.1897 39.7625 90.3062 39.8391C90.4227 39.9158 90.4563 40.073 90.3793 40.189C90.2114 40.4425 90.014 40.6744 89.7928 40.8788C89.3741 41.264 88.8784 41.549 88.3196 41.7239C88.2939 41.7317 88.2682 41.7357 88.2425 41.7357Z" fill="#408F95"/>
<path d="M87.6876 39.0335C87.6263 39.0335 87.5671 39.0217 87.5098 39.0001C87.2571 38.9018 87.1307 38.6168 87.2294 38.3653C87.3281 38.1137 87.6145 37.9879 87.8673 38.0862C88.12 38.1844 88.2464 38.4694 88.1477 38.721C88.1003 38.8428 88.0075 38.9391 87.887 38.9922C87.8238 39.0197 87.7567 39.0335 87.6895 39.0335H87.6876ZM87.6718 38.5382C87.6678 38.5461 87.6718 38.5559 87.6816 38.5579C87.6876 38.5598 87.6994 38.5559 87.7014 38.548L87.6718 38.5362V38.5382ZM87.6718 38.5382L87.7014 38.55C87.7014 38.55 87.7014 38.5323 87.6915 38.5303C87.6836 38.5284 87.6737 38.5323 87.6718 38.5402V38.5382Z" fill="#408F95"/>
<path d="M93.2547 45.4502C93.0908 45.4502 92.9407 45.4227 92.8676 45.4069C92.6149 45.3519 92.3641 45.2792 92.1231 45.1888C91.7894 45.0669 91.4675 44.9097 91.1634 44.7269C90.0575 44.0607 89.4828 43.5635 88.529 42.7419C88.4223 42.6496 88.4105 42.4904 88.5033 42.3843C88.5961 42.2781 88.7561 42.2663 88.8627 42.3587C89.8284 43.19 90.3596 43.6499 91.428 44.2946C91.7045 44.4616 91.9987 44.6031 92.3009 44.7151C92.5201 44.7957 92.7492 44.8625 92.9782 44.9136C93.1204 44.9451 93.2606 44.949 93.3455 44.9392C93.2863 44.8193 93.1105 44.5795 92.7136 44.2022C92.6129 44.1059 92.6089 43.9447 92.7057 43.8445C92.8025 43.7443 92.9644 43.7403 93.0651 43.8366C93.9597 44.6876 93.9498 45.0139 93.8215 45.2202C93.7069 45.403 93.4719 45.4521 93.2586 45.4521L93.2547 45.4502Z" fill="#408F95"/>
<path d="M99.1101 46.61C99.1101 46.61 99.1022 46.61 99.0982 46.61C98.3813 46.5746 97.6842 46.4174 97.0266 46.1402C96.215 45.7983 95.4724 45.2676 94.878 44.6073C94.7852 44.5031 94.7931 44.3439 94.8978 44.2496C95.0024 44.1553 95.1624 44.1651 95.2572 44.2692C95.8022 44.8746 96.4835 45.36 97.2261 45.6745C97.7534 45.8965 98.3083 46.0361 98.881 46.0872C98.8889 45.8926 98.877 45.6194 98.7743 45.3973C98.7368 45.3168 98.6815 45.1969 98.565 45.0809C98.5295 45.0475 98.5018 45.0259 98.4386 44.9768L98.3853 44.9355C98.2352 44.8195 98.1147 44.7213 98.0358 44.6564C97.9271 44.568 97.9113 44.4088 98.0002 44.3007C98.0891 44.1926 98.249 44.1769 98.3576 44.2653C98.4347 44.3282 98.5532 44.4245 98.6993 44.5365L98.7506 44.5778C98.8375 44.6446 98.8731 44.6741 98.9205 44.7193C99.1061 44.9001 99.195 45.0947 99.2384 45.1871C99.4537 45.6568 99.3885 46.2306 99.3628 46.3957C99.3431 46.5196 99.2364 46.61 99.112 46.61H99.1101Z" fill="#408F95"/>
<path d="M100.445 42.1563C100.427 42.1563 100.409 42.1563 100.392 42.1504C100.174 42.1052 99.9434 42.0423 99.6906 41.9618C99.5563 41.9185 99.4832 41.777 99.5267 41.6434C99.5701 41.5097 99.7123 41.437 99.8466 41.4802C100.084 41.5549 100.297 41.6139 100.498 41.6552C100.637 41.6846 100.723 41.8183 100.694 41.9559C100.668 42.0757 100.563 42.1563 100.445 42.1563Z" fill="#408F95"/>
<path d="M101.156 42.2745C100.923 42.2745 100.66 42.2332 100.372 42.1467C100.238 42.1074 100.161 41.9659 100.202 41.8323C100.242 41.6986 100.384 41.622 100.518 41.6632C101.146 41.8499 101.527 41.7654 101.616 41.6082C101.699 41.4628 101.583 41.1228 101.136 40.7238C101.032 40.6295 101.024 40.4703 101.117 40.3661C101.211 40.262 101.371 40.2541 101.476 40.3465C102.072 40.881 102.292 41.4451 102.058 41.8558C101.902 42.131 101.583 42.2745 101.156 42.2745Z" fill="#408F95"/>
<path d="M100.678 40.3878C100.632 40.3878 100.587 40.3761 100.546 40.3505C100.05 40.0498 99.5365 39.7688 99.0171 39.5152C97.1667 38.6131 95.1642 38.0118 93.061 37.7307C92.9228 37.713 92.8241 37.5853 92.8438 37.4457C92.8636 37.3082 92.99 37.2099 93.1302 37.2296C95.2867 37.5185 97.3425 38.1356 99.2422 39.0612C99.7754 39.3207 100.305 39.6096 100.812 39.9201C100.933 39.9928 100.97 40.1481 100.897 40.268C100.85 40.3466 100.765 40.3898 100.68 40.3898L100.678 40.3878Z" fill="#408F95"/>
<path d="M89.8007 37.8916C89.6842 37.8916 89.5795 37.813 89.5539 37.6951C89.5223 37.5595 89.6092 37.4239 89.7454 37.3924C90.1562 37.3001 90.5788 37.2313 90.9974 37.192C91.3983 37.1546 91.8051 37.1409 92.21 37.1546C92.3048 37.1566 92.3838 37.1605 92.441 37.1645C92.5812 37.1723 92.6879 37.2902 92.682 37.4298C92.676 37.5693 92.5536 37.6754 92.4154 37.6696C92.362 37.6676 92.287 37.6637 92.1962 37.6597C91.813 37.6479 91.426 37.6597 91.0468 37.6971C90.6479 37.7344 90.249 37.7973 89.86 37.8857C89.8402 37.8897 89.8224 37.8916 89.8027 37.8916H89.8007Z" fill="#408F95"/>
<path d="M93.8313 38.0742C93.7761 38.0742 93.7227 38.0408 93.701 37.9858C93.6734 37.9131 93.7089 37.8325 93.782 37.805C93.8175 37.7912 93.8689 37.7735 93.9301 37.7539C94.1631 37.6792 94.408 37.6359 94.6568 37.6261C94.8484 37.6183 95.0439 37.6281 95.2354 37.6595C95.3125 37.6713 95.3638 37.744 95.352 37.8187C95.3401 37.8954 95.267 37.9445 95.192 37.9347C95.0202 37.9072 94.8444 37.8973 94.6726 37.9052C94.4495 37.915 94.2283 37.9543 94.019 38.0211C93.9637 38.0388 93.9182 38.0565 93.8866 38.0683C93.8708 38.0742 93.8531 38.0781 93.8373 38.0781L93.8313 38.0742Z" fill="#408F95"/>
<path d="M95.0873 38.495C95.0221 38.495 94.9649 38.4498 94.951 38.3849C94.9352 38.3102 94.9826 38.2355 95.0577 38.2198C95.0912 38.2119 95.1426 38.2021 95.2038 38.1903C95.4329 38.1471 95.6718 38.1176 95.9147 38.1019C96.1024 38.0901 96.29 38.0862 96.4736 38.0921C96.5506 38.094 96.6119 38.1589 96.6099 38.2355C96.6079 38.3122 96.5388 38.3672 96.4657 38.3711C96.29 38.3652 96.1122 38.3692 95.9325 38.379C95.7034 38.3928 95.4744 38.4222 95.2571 38.4635C95.1999 38.4753 95.1505 38.4851 95.1189 38.491C95.109 38.493 95.0991 38.495 95.0893 38.495H95.0873Z" fill="#408F95"/>
<path d="M96.6533 39.0768C96.5921 39.0768 96.5368 39.0375 96.519 38.9766C96.4973 38.9019 96.5408 38.8253 96.6138 38.8036C96.6494 38.7938 96.6987 38.7801 96.7619 38.7643C96.993 38.7073 97.2339 38.672 97.4788 38.6602C97.6684 38.6504 97.8599 38.6523 98.0456 38.67C98.1226 38.6759 98.1799 38.7447 98.172 38.8213C98.1641 38.898 98.0949 38.955 98.0199 38.9471C97.8461 38.9314 97.6684 38.9294 97.4926 38.9393C97.2655 38.951 97.0404 38.9845 96.8271 39.0375C96.7698 39.0513 96.7224 39.065 96.6908 39.0729C96.677 39.0768 96.6652 39.0788 96.6514 39.0788L96.6533 39.0768Z" fill="#408F95"/>
<path d="M97.7986 45.2421C97.7769 45.2421 97.7532 45.2362 97.7315 45.2244L96.7303 44.6879C96.6631 44.6505 96.6374 44.566 96.673 44.4992C96.7105 44.4324 96.7954 44.4068 96.8626 44.4422L97.8638 44.9787C97.9309 45.0161 97.9566 45.1006 97.9211 45.1674C97.8954 45.2146 97.848 45.2401 97.7986 45.2401V45.2421Z" fill="#408F95"/>
<path d="M104.703 47.5472C104.64 47.5472 104.576 47.5197 104.535 47.4647C104.292 47.1463 104.1 46.7945 103.97 46.4211C103.794 45.9238 103.63 45.4522 103.846 44.9962C104.067 44.5304 104.549 44.3594 105.06 44.1806C105.479 44.0332 105.919 43.9585 106.368 43.9565C106.484 43.9565 106.577 44.0489 106.577 44.1649C106.577 44.2808 106.484 44.3732 106.368 44.3752C105.967 44.3752 105.574 44.4439 105.2 44.5756C104.736 44.7387 104.371 44.8665 104.225 45.175C104.083 45.4777 104.207 45.8334 104.365 46.2855C104.482 46.6176 104.651 46.9301 104.869 47.2151C104.94 47.3074 104.92 47.4371 104.829 47.5079C104.792 47.5374 104.746 47.5511 104.703 47.5511V47.5472Z" fill="#408F95"/>
<path d="M57.71 22.2889C57.6211 22.2889 57.5323 22.2457 57.479 22.1671C57.3249 21.945 57.242 21.7111 57.2301 21.4713C57.1689 20.2764 58.8692 19.4313 60.1094 18.8142C61.4069 18.1696 62.8129 17.6979 64.2861 17.4129C64.4382 17.3835 64.5843 17.4817 64.614 17.6331C64.6436 17.7844 64.5448 17.9298 64.3928 17.9593C62.9689 18.2344 61.6103 18.6904 60.3602 19.3114C59.3827 19.7989 57.7475 20.6125 57.789 21.4438C57.7949 21.5775 57.8463 21.715 57.9411 21.8526C58.028 21.9804 57.9964 22.1533 57.868 22.2398C57.8206 22.2732 57.7653 22.2889 57.71 22.2889Z" fill="#408F95"/>
<path d="M62.5129 25.4826C62.4852 25.4826 62.4576 25.4787 62.4319 25.4708C61.7743 25.2723 61.1246 25.0404 60.5005 24.7849C60.228 24.6729 59.8548 24.5196 59.3749 24.2779C58.9365 24.0577 58.5079 23.8121 58.0972 23.5487C58.0814 23.5389 58.0675 23.5271 58.0537 23.5153C58.034 23.4957 58.0004 23.4662 57.9609 23.4308C57.5126 23.0338 57.0841 22.6132 57.1868 22.2261C57.2144 22.1199 57.3092 21.9313 57.6252 21.8644C57.7753 21.833 57.9254 21.9273 57.957 22.0787C57.9886 22.2241 57.8977 22.3676 57.7555 22.4049C57.8088 22.5032 57.9609 22.682 58.3322 23.0142C58.3677 23.0456 58.3973 23.0731 58.421 23.0928C58.8081 23.3404 59.2129 23.5703 59.6257 23.7787C60.0858 24.0106 60.4472 24.1599 60.7118 24.268C61.3181 24.5176 61.952 24.7417 62.5918 24.9362C62.74 24.9815 62.8229 25.1367 62.7775 25.2841C62.74 25.404 62.6294 25.4826 62.5089 25.4826H62.5129Z" fill="#408F95"/>
<path d="M65.5994 25.6829C64.6594 25.6829 63.7135 25.6436 62.7754 25.565C62.6214 25.5512 62.5068 25.4176 62.5207 25.2643C62.5325 25.111 62.6688 24.997 62.8228 25.0107C64.0571 25.1149 65.3032 25.1483 66.5295 25.1129C66.5552 25.1129 69.3358 25.0127 71.6463 24.5312C72.3612 24.3818 73.08 24.1814 73.7791 23.9357C74.0911 23.8256 74.259 23.7569 74.966 23.466L75.823 23.1142C76.062 23.0159 76.2753 22.9255 76.4727 22.843C77.0909 22.5816 77.5372 22.3949 78.0684 22.2553C78.7912 22.0667 79.5554 21.9822 80.3454 21.9999C80.4994 22.0038 80.6218 22.1315 80.6179 22.2848C80.6139 22.4381 80.4796 22.556 80.3315 22.556C79.5949 22.5384 78.882 22.6189 78.2106 22.7938C77.7189 22.9216 77.2883 23.1044 76.6919 23.354C76.4945 23.4385 76.2792 23.5289 76.0383 23.6271L75.1812 23.9789C74.4821 24.2678 74.2945 24.3445 73.9667 24.4585C73.2439 24.712 72.5014 24.9203 71.7608 25.0736C69.4009 25.565 66.575 25.6652 66.5453 25.6672C66.2313 25.677 65.9154 25.6809 65.5974 25.6809L65.5994 25.6829Z" fill="#408F95"/>
<path d="M80.6891 19.9954C80.6891 19.9954 80.6812 19.9954 80.6773 19.9954C80.4798 19.9875 80.2823 19.9698 80.0888 19.9403C79.6267 19.8735 79.2791 19.7615 79.131 19.7124L79.0875 19.6986C77.5136 19.2151 75.9041 18.7965 74.3006 18.4506C72.8254 18.1322 71.6583 17.8826 70.1219 17.7411C68.5005 17.5937 66.8456 17.6036 65.2065 17.7726C65.0525 17.7903 64.9143 17.6782 64.8985 17.5249C64.8827 17.3716 64.9933 17.2341 65.1473 17.2183C66.8219 17.0454 68.5124 17.0356 70.1712 17.1849C71.7412 17.3284 72.9222 17.5819 74.4171 17.9042C76.0364 18.2521 77.6637 18.6766 79.2514 19.164L79.3028 19.1797C79.4371 19.223 79.753 19.3252 80.1678 19.3861C80.3336 19.4097 80.5015 19.4274 80.6694 19.4333C80.9399 19.3861 81.2085 19.3193 81.4692 19.2328C81.7812 19.1286 82.0043 19.0245 82.0893 18.9852C82.9285 18.5941 84.8658 17.8748 86.5444 17.3913C87.4904 17.1181 88.2132 16.9589 89.1137 16.9471C89.3862 16.9432 89.6607 16.953 89.9293 16.9766C90.0833 16.9904 90.1978 17.126 90.184 17.2793C90.1702 17.4326 90.0359 17.5466 89.8799 17.5328C89.6291 17.5112 89.3743 17.5033 89.1196 17.5053C88.2843 17.5171 87.599 17.6684 86.6985 17.9278C84.8718 18.4545 83.0135 19.1699 82.3322 19.4863C82.2314 19.5335 81.9866 19.6475 81.6429 19.7615C81.3447 19.8598 81.0386 19.9364 80.7306 19.9895C80.7148 19.9914 80.699 19.9934 80.6832 19.9934L80.6891 19.9954Z" fill="#408F95"/>
<path d="M88.8845 26.4909C88.847 26.4909 88.8075 26.483 88.7719 26.4673L84.846 24.7378C84.1311 24.3801 83.432 23.9949 82.7566 23.592C82.2491 23.2874 81.7436 22.9651 81.2558 22.6349C81.1274 22.5484 81.0958 22.3755 81.1827 22.2478C81.2696 22.12 81.4434 22.0866 81.5717 22.175C82.0516 22.4993 82.5473 22.8157 83.0469 23.1145C83.7105 23.5115 84.3957 23.8888 85.0869 24.2347L88.999 25.9583C89.1412 26.0212 89.2044 26.1843 89.1412 26.3258C89.0958 26.43 88.9931 26.4909 88.8845 26.4909Z" fill="#408F95"/>
<path d="M88.8847 26.4911C88.8057 26.4911 88.7267 26.4577 88.6714 26.3928C87.9585 25.5517 87.4035 24.6241 87.0224 23.6355C86.7025 22.8081 86.4517 22.1556 86.5563 21.3085C86.6768 20.3495 87.1843 19.7068 87.8262 18.8931L87.8815 18.8224C88.4107 18.1522 89.0347 17.5508 89.7417 17.0339C89.8661 16.9435 90.0419 16.9691 90.1327 17.0929C90.2236 17.2167 90.1979 17.3916 90.0735 17.482C89.408 17.9694 88.8195 18.5355 88.3218 19.1663L88.2665 19.2371C87.6543 20.0114 87.212 20.5715 87.1113 21.3773C87.0224 22.0848 87.2298 22.6214 87.5438 23.435C87.9032 24.3666 88.4265 25.2412 89.0999 26.0332C89.1987 26.1511 89.1848 26.326 89.0663 26.4263C89.013 26.4695 88.9498 26.4911 88.8866 26.4911H88.8847Z" fill="#408F95"/>
<path d="M64.9931 23.5745C64.1953 23.5745 63.5791 23.2758 63.2612 23.0812C63.1289 23.0006 63.0894 22.8297 63.1703 22.698C63.2513 22.5663 63.4231 22.525 63.5554 22.6076C63.8576 22.7923 64.4836 23.0891 65.2834 23.0006C66.0852 22.9122 66.5789 22.4916 66.9067 22.2145C67.0114 22.1261 67.0746 22.0612 67.1121 22.018C66.9798 21.9669 66.6717 21.9158 65.9864 21.8981C65.2024 21.8804 64.3928 21.9688 63.5831 22.1654C63.433 22.2027 63.2809 22.1103 63.2454 21.961C63.2079 21.8116 63.3007 21.6603 63.4508 21.6249C64.3078 21.4166 65.1669 21.3222 66.0003 21.3419C66.8376 21.3616 67.5979 21.4185 67.7105 21.8883C67.7638 22.1123 67.6374 22.3305 67.272 22.641C66.9166 22.9436 66.3202 23.4487 65.3466 23.5568C65.2261 23.5706 65.1076 23.5765 64.9951 23.5765L64.9931 23.5745Z" fill="#408F95"/>
<path d="M61.8434 24.398C61.7604 24.398 61.6775 24.3606 61.6222 24.2899C61.5274 24.168 61.5491 23.9931 61.6716 23.8988C62.2442 23.4566 62.6945 22.9161 63.0124 22.2911C63.1803 21.9609 63.3087 21.6072 63.3936 21.2436C63.4291 21.0942 63.5792 20.9999 63.7293 21.0353C63.8794 21.0706 63.9742 21.22 63.9386 21.3694C63.8438 21.7782 63.6997 22.1732 63.5121 22.5427C63.1586 23.2423 62.655 23.8457 62.0152 24.339C61.9638 24.3783 61.9046 24.398 61.8434 24.398Z" fill="#408F95"/>
<path d="M59.6751 21.1414C59.6751 21.1414 59.6691 21.1414 59.6652 21.1414C59.3275 21.1374 59.055 20.8584 59.0609 20.5223C59.0648 20.1882 59.3393 19.9209 59.6751 19.9209C59.677 19.9209 59.681 19.9209 59.683 19.9209C60.0206 19.9248 60.2932 20.2039 60.2872 20.54C60.2833 20.8741 60.0088 21.1414 59.6731 21.1414H59.6751ZM59.6751 20.4771C59.6454 20.4771 59.6217 20.5007 59.6217 20.5302C59.6217 20.5478 59.6296 20.5616 59.6375 20.5675C59.6454 20.5754 59.6573 20.5832 59.6751 20.5832C59.7027 20.5832 59.7284 20.5596 59.7303 20.5302C59.7303 20.5007 59.7066 20.4771 59.677 20.4751L59.6751 20.4771Z" fill="#408F95"/>
<path d="M68.7435 27.0217C68.2537 27.0217 67.762 26.9745 67.2802 26.8841C65.5087 26.5461 64.5134 26.1766 62.8625 25.5614C62.7183 25.5084 62.6453 25.3472 62.6986 25.2037C62.7539 25.0603 62.9138 24.9876 63.058 25.0406C64.7366 25.6656 65.6608 26.0095 67.3848 26.3377C67.8311 26.4223 68.2893 26.4655 68.7415 26.4655H68.7494C69.0812 26.4655 69.4169 26.4419 69.7467 26.3947C70.0252 26.3554 70.2641 26.2591 70.349 26.1943C70.2681 26.0881 69.9462 25.8228 69.0693 25.4474C68.9272 25.3865 68.862 25.2234 68.9232 25.0819C68.9844 24.9404 69.1483 24.8755 69.2905 24.9365C70.8408 25.5988 70.975 26.0135 70.9178 26.3004C70.821 26.7839 69.9896 26.9254 69.8257 26.949C69.4702 26.9981 69.1088 27.0236 68.7514 27.0256H68.7415L68.7435 27.0217Z" fill="#408F95"/>
<path d="M76.0364 25.8956C75.91 25.8956 75.7836 25.8936 75.6572 25.8877C74.4348 25.8327 73.2104 25.5005 72.1183 24.9286C71.9821 24.8579 71.9287 24.6889 72.0018 24.5533C72.0729 24.4176 72.2427 24.3646 72.379 24.4373C73.4 24.9719 74.5434 25.2804 75.6829 25.3335C76.5182 25.3708 77.3496 25.2745 78.1573 25.0485C78.0763 24.7793 77.9164 24.3665 77.6379 24.0875C77.551 24.001 77.4089 23.8575 77.1837 23.7593C77.1245 23.7337 77.0791 23.718 76.9566 23.6806L76.8697 23.6531C76.617 23.5726 76.4116 23.5038 76.2753 23.4566C76.1292 23.4075 76.0522 23.2483 76.1015 23.1028C76.1529 22.9574 76.3109 22.8808 76.457 22.9299C76.5913 22.9751 76.7907 23.0439 77.0396 23.1225L77.1265 23.15C77.2588 23.1913 77.3239 23.2129 77.4128 23.2502C77.7327 23.3917 77.9302 23.5883 78.0349 23.6924C78.5345 24.1916 78.7241 24.9581 78.7695 25.1802C78.7991 25.3197 78.7162 25.4593 78.5799 25.5025C77.7525 25.7639 76.8974 25.8975 76.0383 25.8975L76.0364 25.8956Z" fill="#408F95"/>
<path d="M77.0869 19.1132C76.9388 19.1132 76.8144 18.9973 76.8065 18.8479C76.7986 18.6946 76.9191 18.5649 77.0731 18.557C77.4227 18.5413 77.7327 18.5118 78.021 18.4706C78.1731 18.447 78.3173 18.5531 78.339 18.7044C78.3627 18.8558 78.256 18.9992 78.104 19.0209C77.7979 19.0661 77.4681 19.0975 77.0988 19.1132C77.0948 19.1132 77.0909 19.1132 77.085 19.1132H77.0869Z" fill="#408F95"/>
<path d="M78.0625 19.0227C77.9163 19.0227 77.7939 18.9087 77.784 18.7613C77.7742 18.608 77.8907 18.4744 78.0447 18.4645C79.0064 18.4036 79.4824 18.0852 79.5278 17.7963C79.5673 17.5467 79.3007 17.134 78.416 16.7861C78.2718 16.7291 78.2027 16.568 78.258 16.4245C78.3153 16.281 78.4772 16.2103 78.6214 16.2673C79.6305 16.6643 80.1755 17.2696 80.0788 17.8828C79.9781 18.5215 79.2296 18.946 78.0783 19.0207C78.0724 19.0207 78.0664 19.0207 78.0605 19.0207L78.0625 19.0227Z" fill="#408F95"/>
<path d="M66.2493 16.788C66.1209 16.788 66.0064 16.6996 65.9767 16.5719C65.9432 16.4225 66.0379 16.2731 66.188 16.2397C69.1522 15.5735 72.1441 15.3848 75.0826 15.6776C75.9081 15.7602 76.7395 15.882 77.5571 16.0392C77.7091 16.0687 77.8079 16.2142 77.7782 16.3655C77.7486 16.5168 77.6025 16.6151 77.4504 16.5856C76.6506 16.4303 75.837 16.3105 75.0273 16.2299C72.15 15.9429 69.2174 16.1277 66.3125 16.7821C66.2907 16.7861 66.271 16.79 66.2512 16.79L66.2493 16.788Z" fill="#408F95"/>
<path d="M62.0052 18.5962C61.9144 18.5962 61.8235 18.551 61.7702 18.4704C61.6853 18.3427 61.7208 18.1697 61.8512 18.0852C62.3429 17.7649 62.8603 17.474 63.3876 17.2205C63.8931 16.9768 64.4184 16.7645 64.9516 16.5857C65.076 16.5444 65.1827 16.511 65.2577 16.4874C65.4039 16.4402 65.5619 16.5228 65.6073 16.6702C65.6527 16.8176 65.5717 16.9728 65.4236 17.018C65.3525 17.0397 65.2518 17.0731 65.1313 17.1124C64.6199 17.2834 64.1163 17.4897 63.6325 17.7216C63.1249 17.9653 62.6293 18.2444 62.1592 18.551C62.1119 18.5824 62.0585 18.5962 62.0072 18.5962H62.0052Z" fill="#408F95"/>
<path d="M67.3709 17.1655C67.3136 17.1655 67.2543 17.142 67.2129 17.0948C67.1359 17.0083 67.1437 16.8766 67.2306 16.8C67.2701 16.7646 67.3274 16.7155 67.4005 16.6585C67.671 16.4462 67.9712 16.2713 68.2931 16.1357C68.5419 16.0315 68.8026 15.951 69.0712 15.8979C69.1837 15.8743 69.2943 15.949 69.318 16.063C69.3397 16.177 69.2667 16.2851 69.1521 16.3087C68.9132 16.3558 68.6802 16.4266 68.457 16.5209C68.1687 16.6428 67.9001 16.8 67.6592 16.9887C67.594 17.0398 67.5427 17.083 67.5071 17.1144C67.4676 17.1498 67.4183 17.1675 67.3689 17.1675L67.3709 17.1655Z" fill="#408F95"/>
<path d="M69.2944 16.9003C69.2252 16.9003 69.1581 16.8669 69.1166 16.804C69.0534 16.7077 69.083 16.5779 69.1798 16.5151C69.2213 16.4875 69.2825 16.4502 69.3575 16.405C69.638 16.236 69.9362 16.0807 70.2482 15.9431C70.4871 15.837 70.734 15.7407 70.9789 15.6601C71.0895 15.6228 71.2079 15.6818 71.2455 15.7918C71.283 15.9019 71.2237 16.0198 71.1132 16.0571C70.8801 16.1338 70.6471 16.2262 70.42 16.3264C70.1257 16.4581 69.8414 16.6035 69.5767 16.7647C69.5057 16.8079 69.4484 16.8433 69.4089 16.8688C69.3733 16.8904 69.3338 16.9022 69.2963 16.9022L69.2944 16.9003Z" fill="#408F95"/>
<path d="M71.6345 16.904C71.5693 16.904 71.5061 16.8746 71.4646 16.8195C71.3955 16.7272 71.4153 16.5955 71.5081 16.5267C71.5496 16.4972 71.6088 16.454 71.6819 16.4029C71.9583 16.2162 72.2585 16.0531 72.5745 15.9155C72.8194 15.8094 73.0721 15.7209 73.3249 15.6521C73.4375 15.6226 73.552 15.6875 73.5836 15.7976C73.6152 15.9096 73.5481 16.0236 73.4375 16.055C73.2025 16.1199 72.9694 16.2024 72.7443 16.2987C72.452 16.4245 72.1756 16.5778 71.9208 16.7488C71.8517 16.794 71.7984 16.8353 71.7609 16.8628C71.7233 16.8903 71.6799 16.904 71.6364 16.904H71.6345Z" fill="#408F95"/>
<path d="M76.1588 24.4371C76.1588 24.4371 76.1391 24.4371 76.1292 24.4351L74.5513 24.2169C74.4368 24.2012 74.3558 24.0951 74.3716 23.9811C74.3874 23.8671 74.494 23.7865 74.6086 23.8023L76.1865 24.0204C76.301 24.0361 76.382 24.1423 76.3662 24.2562C76.3523 24.3604 76.2615 24.4371 76.1588 24.4371Z" fill="#408F95"/>
<path d="M86.3132 24.0164C86.2757 24.0164 86.2362 24.0065 86.2007 23.983C85.7326 23.6862 85.3159 23.3246 84.9664 22.904C84.5043 22.3478 84.0679 21.8231 84.1232 21.1549C84.1804 20.4709 84.7196 20.0248 85.2883 19.5511C85.7583 19.16 86.2895 18.8534 86.8682 18.6373C86.9768 18.596 87.0972 18.651 87.1387 18.7591C87.1802 18.8672 87.1249 18.9871 87.0163 19.0284C86.4811 19.2288 85.9913 19.5118 85.5569 19.8715C85.0138 20.3235 84.5853 20.6792 84.5418 21.1883C84.5003 21.6875 84.8479 22.1061 85.2883 22.6367C85.6102 23.0239 85.9913 23.356 86.4238 23.6292C86.5226 23.6901 86.5502 23.8198 86.489 23.9181C86.4495 23.981 86.3804 24.0144 86.3113 24.0144L86.3132 24.0164Z" fill="#408F95"/>
<path d="M24.0474 28.3164C23.9447 28.3164 23.8479 28.2535 23.8104 28.1533C23.7373 27.9646 23.7196 27.7779 23.7531 27.5991C23.921 26.7245 25.2639 26.4199 26.2434 26.1958C27.2584 25.9639 28.3189 25.8735 29.3952 25.9226C29.5354 25.9285 29.644 26.0484 29.6381 26.188C29.6322 26.3275 29.5137 26.4317 29.3715 26.4297C28.3406 26.3806 27.3276 26.469 26.3579 26.6891C25.6095 26.8601 24.3574 27.1451 24.2528 27.6934C24.237 27.7779 24.2488 27.8722 24.2863 27.9725C24.3357 28.1022 24.2705 28.2496 24.1382 28.2987C24.1086 28.3105 24.079 28.3144 24.0474 28.3144V28.3164Z" fill="#408F95"/>
<path d="M26.8398 31.3388C26.7963 31.3388 26.7509 31.327 26.7114 31.3034C26.2868 31.0538 25.8741 30.7826 25.4831 30.4996C25.3132 30.3758 25.0782 30.2068 24.784 29.9552C24.5154 29.7272 24.2587 29.4835 24.0178 29.232C24.0059 29.2202 23.996 29.2064 23.9862 29.1926C23.9763 29.1769 23.9585 29.1514 23.9368 29.1219C23.684 28.7563 23.449 28.377 23.6011 28.0999C23.6445 28.0193 23.7551 27.8857 24.0158 27.8955C24.156 27.8995 24.2666 28.0154 24.2626 28.155C24.2587 28.265 24.1856 28.3574 24.0849 28.3888C24.1185 28.4714 24.1955 28.607 24.3535 28.835C24.3712 28.8605 24.387 28.8841 24.3989 28.9018C24.622 29.1357 24.863 29.3617 25.1118 29.572C25.3922 29.8098 25.6154 29.9729 25.7793 30.0908C26.1565 30.364 26.5554 30.6254 26.9662 30.8671C27.0866 30.9379 27.1261 31.0931 27.055 31.213C27.0076 31.2936 26.9227 31.3368 26.8358 31.3368L26.8398 31.3388Z" fill="#408F95"/>
<path d="M33.6667 32.6126C33.5364 32.6126 33.408 32.6106 33.2797 32.6067C31.5537 32.5517 29.6322 32.1586 29.5512 32.1409C28.6764 31.9562 27.8015 31.7184 26.9445 31.4334C26.8122 31.3882 26.7391 31.2467 26.7845 31.1131C26.8299 30.9814 26.9721 30.9087 27.1064 30.9539C27.9437 31.233 28.8028 31.4649 29.6559 31.6457C29.6737 31.6496 31.6169 32.0466 33.2974 32.1016C33.8168 32.1193 34.3481 32.1016 34.8714 32.0466C35.1064 32.023 35.2347 32.0034 35.7758 31.9189L36.4275 31.8186C36.6092 31.7911 36.7731 31.7636 36.9232 31.74C37.3972 31.6634 37.7408 31.6064 38.1357 31.6005C38.6729 31.5906 39.2258 31.6614 39.7748 31.8068C39.9111 31.8422 39.9901 31.9817 39.9546 32.1173C39.919 32.253 39.7788 32.3316 39.6425 32.2962C39.139 32.1626 38.6354 32.0977 38.1436 32.1056C37.7842 32.1115 37.4564 32.1645 37.0042 32.2392C36.8521 32.2647 36.6862 32.2903 36.5026 32.3198L35.8529 32.42C35.3157 32.5026 35.1696 32.5261 34.9227 32.5497C34.506 32.591 34.0854 32.6126 33.6687 32.6126H33.6667Z" fill="#408F95"/>
<path d="M40.6773 30.5944C40.5746 30.5944 40.4699 30.5904 40.3672 30.5846C40.3494 30.5846 40.3317 30.5806 40.3159 30.5747C40.1796 30.5354 40.0434 30.4883 39.911 30.4352C39.597 30.3094 39.3739 30.1718 39.2771 30.1129L39.2514 30.0971C38.2423 29.4977 37.1976 28.9376 36.1451 28.4286C35.1754 27.9608 34.4112 27.5914 33.3704 27.2376C32.2724 26.8642 31.1271 26.5949 29.9639 26.4357C29.8256 26.4161 29.7269 26.2903 29.7467 26.1508C29.7664 26.0132 29.8928 25.913 30.033 25.9346C31.2297 26.0957 32.4067 26.3728 33.5363 26.7581C34.6047 27.1216 35.3828 27.497 36.3662 27.9726C37.4326 28.4875 38.4911 29.0555 39.5121 29.6608L39.5457 29.6805C39.6306 29.7336 39.8301 29.8554 40.1026 29.9655C40.2092 30.0087 40.3198 30.0461 40.4304 30.0795C40.622 30.0913 40.8155 30.0893 41.0051 30.0736C41.2381 30.0539 41.4079 30.0205 41.4711 30.0067C42.1228 29.8751 43.5921 29.7021 44.8422 29.6471C45.5491 29.6176 46.0823 29.6274 46.7143 29.7709C46.9058 29.8141 47.0954 29.8692 47.2811 29.9301C47.4134 29.9753 47.4845 30.1188 47.441 30.2504C47.3956 30.3821 47.2514 30.4529 47.1191 30.4096C46.9513 30.3526 46.7775 30.3035 46.6017 30.2642C46.0251 30.1325 45.5294 30.1227 44.8639 30.1522C43.5111 30.2111 42.1031 30.3939 41.5778 30.5C41.5008 30.5158 41.3092 30.5551 41.0466 30.5767C40.9241 30.5865 40.7997 30.5924 40.6773 30.5924V30.5944Z" fill="#408F95"/>
<path d="M44.9704 36.4684C44.9171 36.4684 44.8618 36.4507 44.8164 36.4153L42.3854 34.5541C41.947 34.1827 41.5264 33.7975 41.1255 33.4024C40.8253 33.1057 40.5271 32.7971 40.2427 32.4846C40.1479 32.3805 40.1558 32.2213 40.2605 32.1269C40.3652 32.0326 40.5251 32.0405 40.6199 32.1446C40.8984 32.4512 41.1887 32.7519 41.4829 33.0428C41.8739 33.428 42.2867 33.8053 42.7053 34.1611L45.1265 36.0144C45.237 36.0989 45.2588 36.2581 45.1739 36.3701C45.1245 36.4349 45.0475 36.4684 44.9724 36.4684H44.9704Z" fill="#408F95"/>
<path d="M44.9725 36.4685C44.8797 36.4685 44.7889 36.4174 44.7454 36.329C44.39 35.6195 44.1609 34.8766 44.0622 34.12C43.9792 33.4852 43.914 32.984 44.1372 32.4003C44.388 31.7419 44.8541 31.3764 45.4445 30.9145L45.4959 30.8752C45.9797 30.4959 46.5208 30.1814 47.1034 29.9377C47.2337 29.8827 47.3818 29.9436 47.4351 30.0734C47.4885 30.2031 47.4292 30.3505 47.2989 30.4035C46.7598 30.6276 46.2582 30.9204 45.8099 31.2702L45.7585 31.3095C45.2095 31.74 44.8126 32.0505 44.6112 32.5772C44.4334 33.041 44.4867 33.4439 44.5657 34.0512C44.6566 34.7508 44.8699 35.4407 45.1997 36.0991C45.2628 36.2248 45.2115 36.3762 45.0851 36.4391C45.0496 36.4568 45.0101 36.4666 44.9725 36.4666V36.4685Z" fill="#408F95"/>
<path d="M29.3675 30.4901C29.2747 30.4901 29.1779 30.4842 29.0792 30.4724C28.3722 30.382 27.9002 29.9987 27.681 29.7786C27.5822 29.6784 27.5822 29.5192 27.683 29.4209C27.7837 29.3227 27.9436 29.3227 28.0424 29.4229C28.2162 29.5978 28.5874 29.9005 29.1443 29.9712C29.6993 30.0439 30.1041 29.8395 30.3727 29.7039C30.4122 29.6843 30.4438 29.6666 30.4694 29.6528C30.345 29.59 30.1199 29.5172 29.798 29.4308C29.2608 29.2873 28.6901 29.2146 28.0996 29.2146C27.9594 29.2146 27.8449 29.1006 27.8449 28.961C27.8449 28.8215 27.9594 28.7075 28.0996 28.7075C28.7355 28.7075 29.3497 28.7861 29.9303 28.9414C30.5524 29.1084 31.0658 29.2755 31.0639 29.6607C31.0639 29.8926 30.8407 30.0361 30.6017 30.156C30.3569 30.2778 29.9323 30.492 29.3675 30.492V30.4901Z" fill="#408F95"/>
<path d="M26.5594 30.4741C26.4627 30.4741 26.3699 30.4191 26.3264 30.3247C26.2691 30.197 26.3264 30.0476 26.4548 29.9906C26.9189 29.7823 27.3178 29.4875 27.6377 29.1141C27.8075 28.9156 27.9537 28.6955 28.0721 28.4616C28.1353 28.3358 28.2874 28.2867 28.4138 28.3496C28.5402 28.4125 28.5895 28.5638 28.5264 28.6896C28.3901 28.9608 28.2203 29.2143 28.0248 29.4443C27.6555 29.8766 27.1973 30.2167 26.6621 30.4545C26.6286 30.4702 26.593 30.4761 26.5575 30.4761L26.5594 30.4741Z" fill="#408F95"/>
<path d="M25.6627 27.8565C25.6212 27.8565 25.5798 27.8506 25.5383 27.8408C25.2756 27.774 25.1157 27.5047 25.1848 27.2434C25.2184 27.1156 25.2974 27.0095 25.4119 26.9446C25.5264 26.8778 25.6588 26.8601 25.7852 26.8916C25.9135 26.925 26.0202 27.0036 26.0873 27.1176C26.1544 27.2296 26.1722 27.3632 26.1406 27.489C26.107 27.6148 26.0281 27.7229 25.9135 27.7877C25.8365 27.833 25.7516 27.8565 25.6647 27.8565H25.6627ZM25.6627 27.3514C25.6627 27.3514 25.6489 27.3573 25.6469 27.3632C25.6469 27.3711 25.6509 27.3809 25.6588 27.3829C25.6686 27.3849 25.6765 27.379 25.6785 27.3711C25.6805 27.3632 25.6765 27.3534 25.6667 27.3514C25.6667 27.3514 25.6667 27.3514 25.6647 27.3514H25.6627Z" fill="#408F95"/>
<path d="M31.8063 33.5873C31.7253 33.5873 31.6582 33.5814 31.6148 33.5775C31.358 33.5519 31.0993 33.5087 30.8485 33.4477C30.5049 33.3652 30.1652 33.2473 29.8414 33.1018C28.6664 32.5692 28.0364 32.1428 26.9917 31.4372C26.8752 31.3586 26.8456 31.2014 26.9246 31.0854C27.0036 30.9695 27.1615 30.94 27.2781 31.0186C28.3346 31.732 28.9172 32.1251 30.0527 32.642C30.3469 32.7756 30.657 32.8817 30.969 32.9564C31.1961 33.0114 31.4311 33.0507 31.6641 33.0743C31.8083 33.0881 31.9485 33.0763 32.0314 33.0586C31.9584 32.9466 31.755 32.7284 31.3166 32.4002C31.204 32.3157 31.1823 32.1585 31.2652 32.0465C31.3501 31.9344 31.5081 31.9128 31.6207 31.9954C32.6101 32.7343 32.6377 33.0606 32.535 33.2807C32.4146 33.5401 32.0512 33.5873 31.8043 33.5873H31.8063Z" fill="#408F95"/>
<path d="M37.5195 34.0611C36.9468 34.0611 36.382 33.9805 35.831 33.8213C34.9838 33.5756 34.184 33.1354 33.5165 32.5497C33.4119 32.4573 33.402 32.2982 33.4948 32.192C33.5876 32.0879 33.7476 32.078 33.8542 32.1704C34.4664 32.7069 35.1991 33.1098 35.9752 33.3358C36.5262 33.495 37.0949 33.5678 37.6676 33.554C37.6538 33.3614 37.6084 33.0882 37.482 32.8799C37.4366 32.8052 37.3674 32.6912 37.2351 32.591C37.1956 32.5615 37.166 32.5438 37.0969 32.5025L37.0396 32.4691C36.8777 32.3709 36.7454 32.2883 36.6585 32.2333C36.54 32.1586 36.5064 32.0014 36.5815 31.8835C36.6565 31.7655 36.8145 31.7321 36.933 31.8068C37.0179 31.8619 37.1443 31.9405 37.3042 32.0368L37.3595 32.0702C37.4524 32.1272 37.4918 32.1508 37.5452 32.1901C37.7525 32.3473 37.8631 32.5301 37.9164 32.6185C38.187 33.0627 38.187 33.6385 38.1811 33.8036C38.1771 33.9333 38.0744 34.0375 37.9441 34.0473C37.8019 34.0571 37.6617 34.0611 37.5195 34.0611Z" fill="#408F95"/>
<path d="M38.7282 29.4681C38.7282 29.4681 38.7124 29.4681 38.7045 29.4681C38.4813 29.4484 38.2463 29.4131 37.9856 29.3639C37.8474 29.3364 37.7585 29.2047 37.7842 29.0672C37.8118 28.9296 37.9461 28.8411 38.0824 28.8667C38.3273 28.9139 38.5445 28.9453 38.7499 28.965C38.8901 28.9768 38.9928 29.1006 38.9809 29.2401C38.9691 29.3718 38.8585 29.4701 38.7282 29.4701V29.4681Z" fill="#408F95"/>
<path d="M39.2199 29.515C39.0541 29.515 38.8744 29.4993 38.6828 29.4658C38.5446 29.4423 38.4517 29.3106 38.4774 29.173C38.5011 29.0354 38.6334 28.9431 38.7717 28.9686C39.4174 29.0826 39.7847 28.9529 39.8558 28.7878C39.921 28.6345 39.767 28.3102 39.2752 27.9643C39.1607 27.8837 39.1331 27.7265 39.214 27.6125C39.295 27.4985 39.453 27.471 39.5675 27.5516C40.2232 28.0135 40.5056 28.548 40.3239 28.9824C40.1777 29.3302 39.7788 29.5169 39.2199 29.5169V29.515Z" fill="#408F95"/>
<path d="M38.7499 27.6855C38.7143 27.6855 38.6788 27.6776 38.6433 27.6619C38.116 27.4201 37.5729 27.202 37.0259 27.0113C35.0827 26.3313 33.021 25.9678 30.9 25.9324C30.7598 25.9304 30.6472 25.8145 30.6492 25.6749C30.6512 25.5354 30.7716 25.4234 30.9079 25.4253C33.0841 25.4607 35.1992 25.8341 37.1937 26.5318C37.7546 26.7283 38.3135 26.9524 38.8546 27.2C38.9829 27.259 39.0382 27.4083 38.979 27.5361C38.9355 27.6285 38.8447 27.6835 38.7479 27.6835L38.7499 27.6855Z" fill="#408F95"/>
<path d="M27.6553 26.4748C27.5506 26.4748 27.4519 26.41 27.4163 26.3058C27.3689 26.1741 27.438 26.0287 27.5703 25.9835C27.9673 25.842 28.378 25.728 28.7908 25.6395C29.1838 25.555 29.5886 25.4961 29.9915 25.4607C30.0863 25.4528 30.1653 25.4469 30.2205 25.443C30.3627 25.4332 30.4812 25.5393 30.4911 25.6789C30.499 25.8184 30.3943 25.9383 30.2541 25.9481C30.2008 25.952 30.1258 25.956 30.0369 25.9638C29.6558 25.9972 29.2726 26.0542 28.8994 26.1348C28.5084 26.2174 28.1193 26.3274 27.7422 26.4611C27.7145 26.4709 27.6849 26.4748 27.6572 26.4748H27.6553Z" fill="#408F95"/>
<path d="M31.6919 26.1859C31.6425 26.1859 31.5931 26.1583 31.5675 26.1112C31.5319 26.0424 31.5576 25.9598 31.6267 25.9225C31.6603 25.9048 31.7077 25.8812 31.7689 25.8537C31.992 25.7535 32.229 25.6808 32.4759 25.6415C32.6655 25.61 32.859 25.6002 33.0545 25.608C33.1315 25.612 33.1908 25.6768 33.1888 25.7535C33.1848 25.8301 33.1216 25.8891 33.0426 25.8871C32.8689 25.8793 32.6931 25.8891 32.5213 25.9166C32.3001 25.952 32.0868 26.0168 31.8854 26.1072C31.8321 26.1308 31.7886 26.1524 31.759 26.1682C31.7373 26.18 31.7156 26.1839 31.6938 26.1839L31.6919 26.1859Z" fill="#408F95"/>
<path d="M32.9893 26.4554C32.932 26.4554 32.8767 26.42 32.857 26.361C32.8313 26.2883 32.8708 26.2097 32.9439 26.1842C32.9774 26.1724 33.0268 26.1566 33.086 26.137C33.3092 26.0682 33.5422 26.0092 33.7812 25.966C33.9648 25.9326 34.1524 25.9071 34.3361 25.8913C34.4111 25.8835 34.4803 25.9424 34.4882 26.0191C34.4941 26.0957 34.4368 26.1625 34.3598 26.1704C34.186 26.1861 34.0083 26.2097 33.8325 26.2412C33.6054 26.2824 33.3823 26.3375 33.171 26.4023C33.1137 26.42 33.0683 26.4357 33.0367 26.4456C33.0209 26.4514 33.0071 26.4534 32.9913 26.4534L32.9893 26.4554Z" fill="#408F95"/>
<path d="M34.6128 26.8522C34.5575 26.8522 34.5061 26.8207 34.4844 26.7676C34.4548 26.6969 34.4884 26.6144 34.5594 26.5849C34.593 26.5711 34.6424 26.5515 34.7016 26.5298C34.9248 26.4473 35.1598 26.3844 35.4007 26.3412C35.5883 26.3097 35.7779 26.2901 35.9655 26.2842C36.0425 26.2842 36.1077 26.3431 36.1097 26.4198C36.1117 26.4964 36.0504 26.5613 35.9734 26.5633C35.7996 26.5692 35.6219 26.5868 35.4481 26.6163C35.223 26.6556 35.0058 26.7146 34.7984 26.7912C34.7431 26.8109 34.6977 26.8305 34.6681 26.8423C34.6503 26.8502 34.6325 26.8541 34.6147 26.8541L34.6128 26.8522Z" fill="#408F95"/>
<path d="M36.4768 32.8407C36.459 32.8407 36.4412 32.8368 36.4254 32.8309L35.3669 32.4143C35.2958 32.3868 35.2603 32.3042 35.2879 32.2335C35.3156 32.1627 35.3985 32.1273 35.4696 32.1548L36.5281 32.5715C36.5992 32.599 36.6348 32.6816 36.6071 32.7523C36.5854 32.8073 36.5321 32.8407 36.4768 32.8407Z" fill="#408F95"/>
<path d="M43.5941 34.3242C43.5388 34.3242 43.4835 34.3026 43.442 34.2594C43.1616 33.9705 42.9325 33.6442 42.7587 33.2885C42.5257 32.8148 42.3065 32.3668 42.4684 31.8872C42.6323 31.3978 43.0924 31.1738 43.5802 30.936C43.9791 30.7414 44.4057 30.6156 44.852 30.5606C44.9685 30.5469 45.0712 30.6274 45.085 30.7434C45.0989 30.8574 45.0179 30.9615 44.9014 30.9753C44.5044 31.0225 44.1213 31.1365 43.7659 31.3094C43.3255 31.5256 42.9759 31.6946 42.8673 32.0189C42.7607 32.3353 42.9266 32.6753 43.1379 33.1037C43.2919 33.4202 43.4973 33.711 43.7461 33.9685C43.8271 34.051 43.8231 34.1847 43.7402 34.2633C43.6987 34.3026 43.6474 34.3223 43.5941 34.3223V34.3242Z" fill="#408F95"/>
<path d="M6.24654 4.62825C6.20704 4.62825 6.16754 4.61842 6.13002 4.60074C5.21371 4.12906 4.25395 3.78905 3.28036 3.58859C2.52796 3.43333 1.27197 3.1739 0.946128 3.62986C0.896758 3.70061 0.867135 3.79102 0.859236 3.89715C0.849362 4.03669 0.726923 4.14085 0.588686 4.13299C0.448474 4.12316 0.341834 4.00327 0.351708 3.86374C0.365532 3.66131 0.426751 3.48443 0.531417 3.33703C1.04882 2.61182 2.39762 2.8909 3.38305 3.09333C4.40206 3.30362 5.40329 3.65934 6.36305 4.15264C6.48746 4.2175 6.53683 4.36883 6.47167 4.49264C6.42624 4.57912 6.33738 4.63022 6.24654 4.63022V4.62825Z" fill="#408F95"/>
<path d="M1.88012 8.03823C1.79915 8.03823 1.72016 8.00089 1.67079 7.93014C1.38839 7.52724 1.12771 7.11059 0.890736 6.69001C0.788045 6.50724 0.645858 6.25568 0.483923 5.90585C0.335812 5.58746 0.203499 5.25925 0.08896 4.92908C0.0830356 4.91335 0.0790859 4.89763 0.0771111 4.87994C0.0751363 4.86029 0.0692119 4.83081 0.0632874 4.79347C-0.0137304 4.35717 -0.0690253 3.91497 0.185726 3.72433C0.258794 3.6693 0.41678 3.59462 0.649808 3.71057C0.776196 3.7715 0.827542 3.92479 0.766322 4.04861C0.716952 4.14687 0.610312 4.2019 0.507621 4.18815C0.505646 4.27659 0.517495 4.43381 0.564891 4.70503C0.570815 4.73647 0.574765 4.76399 0.578715 4.78561C0.685355 5.0922 0.807793 5.39683 0.94603 5.69163C1.10007 6.02377 1.23633 6.26354 1.33507 6.44042C1.56415 6.84527 1.81692 7.24817 2.08945 7.63927C2.17042 7.75326 2.14079 7.91245 2.02626 7.99106C1.98281 8.02251 1.93146 8.03627 1.88209 8.03627L1.88012 8.03823Z" fill="#408F95"/>
<path d="M13.174 14.2486C13.1167 14.2486 13.0595 14.2289 13.0121 14.1896C12.6112 13.8594 12.1787 13.5921 11.7304 13.3956C11.4026 13.2521 11.0827 13.1657 10.6383 13.0458C10.4902 13.0045 10.3283 12.9613 10.1486 12.9102L9.51268 12.7313C8.99133 12.5839 8.85112 12.5446 8.61414 12.464C8.09279 12.2872 7.58329 12.0749 7.09748 11.8351C5.5512 11.0706 3.96937 9.915 3.90223 9.86587C3.18537 9.33523 2.48826 8.75546 1.82867 8.14227C1.72598 8.04597 1.72006 7.88678 1.81682 7.78458C1.91359 7.68239 2.07355 7.67649 2.17624 7.77279C2.822 8.37222 3.50332 8.9402 4.20438 9.45904C4.22018 9.47084 5.81978 10.6363 7.32459 11.3811C7.79064 11.6111 8.27842 11.8135 8.77805 11.9845C9.00121 12.0592 9.12562 12.0946 9.64895 12.242L10.2848 12.4208C10.4626 12.4719 10.6225 12.5151 10.7706 12.5544C11.2347 12.6802 11.5685 12.7726 11.9318 12.9298C12.4255 13.144 12.8975 13.4369 13.334 13.7965C13.4426 13.885 13.4564 14.0442 13.3675 14.1523C13.3182 14.2132 13.2451 14.2446 13.172 14.2446L13.174 14.2486Z" fill="#408F95"/>
<path d="M20.7733 15.646C20.7101 15.646 20.6488 15.6224 20.5995 15.5772C20.4691 15.4553 20.3329 15.3394 20.1907 15.2313C19.7227 14.8736 19.2744 14.6594 18.6582 14.4098C17.4022 13.9027 16.0475 13.4861 15.5262 13.3642C15.4492 13.3465 15.2576 13.3013 15.0107 13.2129C14.7975 13.1362 14.5901 13.0439 14.3907 12.9358C14.3749 12.9279 14.361 12.9181 14.3472 12.9063C14.2406 12.8139 14.1359 12.7157 14.0372 12.6115C13.8061 12.3678 13.658 12.1496 13.5968 12.0553L13.579 12.0298C12.9135 11.0687 12.1966 10.1234 11.4521 9.22523C10.7649 8.39782 10.2258 7.74533 9.42991 6.99261C8.58864 6.19862 7.66048 5.47734 6.66912 4.85237C6.55063 4.77768 6.51508 4.62046 6.59013 4.50254C6.66517 4.38462 6.82316 4.34924 6.94165 4.42392C7.96065 5.06659 8.91646 5.80752 9.78143 6.62509C10.599 7.39943 11.15 8.06175 11.8451 8.90095C12.6015 9.81286 13.3262 10.768 13.9996 11.7428L14.0214 11.7743C14.0767 11.8568 14.207 12.0494 14.4084 12.2636C14.4874 12.3481 14.5723 12.4287 14.6592 12.5034C14.8271 12.5938 15.0048 12.6724 15.1845 12.7373C15.4037 12.8159 15.5716 12.8552 15.6368 12.8709C16.2845 13.0222 17.6925 13.4723 18.8518 13.942C19.5074 14.2073 19.9873 14.4373 20.5027 14.8304C20.6587 14.9502 20.8088 15.078 20.951 15.2097C21.0537 15.306 21.0576 15.4652 20.9609 15.5674C20.9115 15.6204 20.8444 15.646 20.7752 15.646H20.7733Z" fill="#408F95"/>
<path d="M16.2192 20.2173C16.1283 20.2173 16.0394 20.1681 15.994 20.0816L14.5623 17.3832C14.3194 16.8624 14.0982 16.3397 13.8987 15.8149C13.7487 15.4218 13.6084 15.019 13.4821 14.6141C13.4406 14.4805 13.5137 14.3389 13.6479 14.2977C13.7822 14.2564 13.9244 14.3291 13.9659 14.4628C14.0903 14.8578 14.2285 15.2528 14.3747 15.6361C14.5702 16.149 14.7854 16.662 15.0185 17.1592L16.4443 19.8458C16.5095 19.9696 16.4621 20.1229 16.3376 20.1878C16.3001 20.2074 16.2587 20.2173 16.2192 20.2173Z" fill="#408F95"/>
<path d="M16.2173 20.2173C16.0811 20.2173 15.9685 20.1092 15.9626 19.9717C15.9369 19.1796 16.0396 18.4092 16.2667 17.6801C16.4583 17.0689 16.6084 16.5854 17.0547 16.1491C17.5582 15.6538 18.1349 15.5163 18.8656 15.3413L18.9288 15.3256C19.5271 15.1821 20.1512 15.1193 20.7811 15.1409C20.9214 15.1448 21.0319 15.2627 21.026 15.4023C21.0221 15.5418 20.9075 15.6538 20.7634 15.646C20.1788 15.6263 19.6022 15.6833 19.0473 15.8169L18.9841 15.8327C18.3047 15.9958 17.815 16.1137 17.4101 16.5107C17.0547 16.8586 16.9342 17.2457 16.7525 17.8314C16.5412 18.5055 16.4464 19.2209 16.4721 19.9559C16.476 20.0955 16.3674 20.2134 16.2252 20.2173C16.2233 20.2173 16.2193 20.2173 16.2173 20.2173Z" fill="#408F95"/>
<path d="M5.46839 8.49973C5.13465 8.49973 4.65871 8.45452 4.17291 8.15186C3.56862 7.77649 3.30004 7.23209 3.1934 6.94122C3.14601 6.80954 3.21315 6.66411 3.34546 6.61694C3.47777 6.56977 3.62391 6.63659 3.67131 6.76827C3.75622 6.99821 3.96753 7.42862 4.44346 7.72342C4.91742 8.01822 5.37162 8.00053 5.6718 7.98874C5.71524 7.98874 5.75079 7.98481 5.78041 7.98088C5.69154 7.87279 5.51973 7.71163 5.26301 7.49937C4.83447 7.14561 4.34669 6.84295 3.80954 6.59925C3.68118 6.54029 3.62589 6.39093 3.68513 6.26318C3.7424 6.13543 3.89446 6.0804 4.02282 6.13936C4.59947 6.40272 5.12675 6.72896 5.58885 7.11024C6.08453 7.51903 6.48147 7.88654 6.31954 8.23441C6.22079 8.44666 5.94827 8.484 5.69154 8.49383C5.62835 8.4958 5.55331 8.49973 5.47036 8.49973H5.46839Z" fill="#408F95"/>
<path d="M2.02024 7.13424C2.00839 7.13424 1.99851 7.13424 1.98666 7.13424C1.84645 7.13424 1.73389 7.01829 1.73389 6.87875C1.73389 6.73921 1.84843 6.62719 1.98864 6.62719C1.99851 6.62719 2.01036 6.62719 2.02024 6.62719C2.51789 6.62719 2.99382 6.52499 3.4342 6.32059C3.67118 6.21054 3.89631 6.071 4.10367 5.90788C4.21426 5.81944 4.37422 5.83712 4.46111 5.94718C4.548 6.05724 4.5322 6.21643 4.42161 6.30291C4.18266 6.49354 3.92396 6.65274 3.64946 6.78048C3.14193 7.01436 2.59491 7.13424 2.02221 7.13424H2.02024Z" fill="#408F95"/>
<path d="M2.366 4.40437C2.25738 4.40437 2.14679 4.369 2.05595 4.29432C1.95326 4.21177 1.89007 4.09385 1.87625 3.96414C1.86242 3.83443 1.90192 3.70668 1.98486 3.60448C2.0678 3.50229 2.18629 3.4394 2.31663 3.42564C2.44697 3.41188 2.57533 3.44922 2.67802 3.53373C2.78071 3.61628 2.84391 3.7342 2.85773 3.86391C2.87155 3.99362 2.83206 4.12137 2.74911 4.22356C2.65235 4.34345 2.51016 4.40437 2.366 4.40437ZM2.366 3.89928C2.366 3.89928 2.35613 3.89928 2.35415 3.90518C2.3502 3.91108 2.3502 3.92287 2.35613 3.9268C2.36205 3.93269 2.3739 3.93073 2.37785 3.92483C2.3818 3.91894 2.3818 3.90715 2.37587 3.90321C2.3739 3.90125 2.36995 3.89928 2.366 3.89928Z" fill="#408F95"/>
<path d="M5.83574 12.2438C5.57309 12.2438 5.28477 12.0925 5.17813 12.0296C4.95497 11.8999 4.73972 11.7544 4.53631 11.5952C4.25786 11.3771 3.99719 11.1295 3.76416 10.8622C2.91894 9.88933 2.52397 9.24274 1.87031 8.1677C1.79724 8.04782 1.83674 7.89256 1.95523 7.81984C2.07569 7.74712 2.2317 7.78643 2.30477 7.90435C2.96633 8.99118 3.33167 9.5906 4.14925 10.53C4.36055 10.7737 4.59753 10.9978 4.85031 11.1963C5.03396 11.3417 5.23145 11.4734 5.43485 11.5913C5.56124 11.664 5.69158 11.7112 5.7765 11.7289C5.75675 11.5972 5.66393 11.3142 5.40128 10.8347C5.33414 10.7128 5.37956 10.5575 5.50397 10.4907C5.62641 10.4239 5.78242 10.4691 5.84956 10.5929C6.44003 11.6758 6.32944 11.9824 6.14381 12.1416C6.05692 12.2143 5.95028 12.2418 5.83771 12.2418L5.83574 12.2438Z" fill="#408F95"/>
<path d="M10.8261 15.0934C10.7965 15.0934 10.7669 15.0875 10.7373 15.0777C10.0658 14.8262 9.45165 14.4626 8.91252 13.9968C8.24503 13.4229 7.70196 12.6898 7.34057 11.8821C7.2833 11.7543 7.34057 11.605 7.46893 11.548C7.59729 11.491 7.74738 11.548 7.80465 11.6757C8.13642 12.4186 8.63407 13.0888 9.24429 13.6135C9.67678 13.987 10.1626 14.2877 10.6918 14.5137C10.759 14.3309 10.832 14.0675 10.8044 13.8238C10.7945 13.7374 10.7787 13.6057 10.7017 13.4583C10.678 13.415 10.6583 13.3875 10.6128 13.3207L10.5753 13.2657C10.4687 13.1085 10.3838 12.9787 10.3285 12.8923C10.2534 12.7743 10.287 12.6171 10.4055 12.5424C10.524 12.4678 10.68 12.5012 10.757 12.6191C10.8103 12.7036 10.8933 12.8294 10.9979 12.9827L11.0354 13.0377C11.0967 13.1281 11.1223 13.1654 11.152 13.2244C11.2744 13.4544 11.2981 13.6646 11.3099 13.7668C11.3692 14.2798 11.1302 14.8045 11.0552 14.9539C11.0118 15.0423 10.9209 15.0934 10.8281 15.0934H10.8261Z" fill="#408F95"/>
<path d="M13.4704 11.265C13.427 11.265 13.3835 11.2552 13.344 11.2316C13.1505 11.1215 12.951 10.9918 12.7338 10.8385C12.6193 10.7579 12.5936 10.5988 12.6746 10.4848C12.7555 10.3708 12.9155 10.3452 13.03 10.4258C13.2315 10.5693 13.4171 10.6892 13.5968 10.7914C13.7192 10.8601 13.7607 11.0154 13.6916 11.1373C13.6442 11.2178 13.5593 11.265 13.4704 11.265Z" fill="#408F95"/>
<path d="M14.4715 11.6563C14.1436 11.6563 13.7467 11.5089 13.3261 11.22C13.2096 11.1414 13.1819 10.9822 13.2609 10.8682C13.3399 10.7522 13.4998 10.7247 13.6144 10.8033C14.1535 11.1728 14.5426 11.2101 14.6749 11.0863C14.7973 10.9723 14.7934 10.6146 14.4912 10.0978C14.4201 9.97788 14.4616 9.82261 14.584 9.75186C14.7045 9.68111 14.8605 9.72238 14.9316 9.84423C15.3345 10.536 15.368 11.1394 15.0205 11.4578C14.8763 11.5894 14.6887 11.6563 14.4715 11.6563Z" fill="#408F95"/>
<path d="M14.2386 9.65382C14.1675 9.65382 14.0964 9.62434 14.045 9.56538C13.6659 9.12711 13.265 8.7026 12.8483 8.30363C11.3672 6.87877 9.64514 5.69564 7.73154 4.78372C7.60515 4.7228 7.55183 4.57147 7.61107 4.44569C7.67229 4.31991 7.82238 4.26684 7.95074 4.3258C9.91371 5.25934 11.6812 6.47588 13.2018 7.93808C13.6283 8.34884 14.0431 8.78514 14.4301 9.2352C14.521 9.34133 14.5091 9.50052 14.4025 9.59289C14.3551 9.63416 14.2958 9.65382 14.2366 9.65382H14.2386Z" fill="#408F95"/>
<path d="M7.22602 4.54387C7.1964 4.54387 7.1648 4.53797 7.13518 4.52618C7.08581 4.50653 7.01471 4.48098 6.9298 4.4515C6.56841 4.32375 6.19714 4.21762 5.8239 4.13508C5.43289 4.04861 5.03397 3.98768 4.63506 3.95231C4.49485 3.94051 4.39216 3.8167 4.40401 3.67716C4.41586 3.53762 4.53829 3.43542 4.68048 3.44721C5.10112 3.48456 5.52175 3.54941 5.93449 3.63982C6.32748 3.72629 6.71849 3.83832 7.09963 3.97392C7.1885 4.00537 7.26354 4.03288 7.31686 4.0545C7.4472 4.10364 7.51434 4.25104 7.463 4.38075C7.4235 4.48098 7.32871 4.54387 7.22602 4.54387Z" fill="#408F95"/>
<path d="M9.75757 5.64224C9.73585 5.64224 9.71413 5.63634 9.69438 5.62651C9.53837 5.5479 9.37643 5.48501 9.20858 5.43784C8.99332 5.37888 8.77017 5.3494 8.55096 5.34744C8.49172 5.34744 8.44235 5.34744 8.41075 5.35137C8.32978 5.3553 8.26659 5.29634 8.26264 5.21969C8.25869 5.14304 8.31793 5.07622 8.39495 5.07229C8.43247 5.07032 8.48777 5.06836 8.55294 5.06836C8.79781 5.06836 9.04466 5.10177 9.28362 5.16859C9.46925 5.21969 9.65093 5.29044 9.82274 5.37692C9.89186 5.41229 9.91951 5.4968 9.88396 5.56362C9.85829 5.61276 9.81089 5.64027 9.75955 5.64027L9.75757 5.64224Z" fill="#408F95"/>
<path d="M10.8201 6.44205C10.8043 6.44205 10.7885 6.44008 10.7727 6.43419C10.6068 6.37523 10.437 6.32413 10.2632 6.27892C10.0401 6.22193 9.81492 6.18066 9.59375 6.15118C9.5345 6.14332 9.4871 6.13939 9.45353 6.13545C9.37651 6.12759 9.31925 6.06077 9.32714 5.98412C9.33504 5.90748 9.40416 5.85245 9.47921 5.85834C9.51475 5.86227 9.5661 5.8662 9.62732 5.87407C9.85837 5.90355 10.0953 5.94875 10.3304 6.00771C10.512 6.05291 10.6917 6.10794 10.8655 6.17083C10.9386 6.19638 10.9761 6.27696 10.9504 6.34968C10.9307 6.40667 10.8754 6.44205 10.8181 6.44205H10.8201Z" fill="#408F95"/>
<path d="M12.1334 7.46794C12.1156 7.46794 12.0979 7.46401 12.0781 7.45615C11.9162 7.38737 11.7483 7.33234 11.5785 7.28713C11.3573 7.23014 11.1342 7.1928 10.9149 7.17707C10.8557 7.17314 10.8083 7.17118 10.7747 7.16921C10.6977 7.16725 10.6365 7.10239 10.6385 7.02574C10.6404 6.9491 10.7036 6.89014 10.7826 6.89014C10.8182 6.89014 10.8715 6.89407 10.9347 6.898C11.1717 6.91569 11.4126 6.95499 11.6496 7.01788C11.8313 7.06505 12.0129 7.12598 12.1867 7.20066C12.2578 7.23014 12.2914 7.31268 12.2618 7.38343C12.2401 7.4365 12.1867 7.46794 12.1334 7.46794Z" fill="#408F95"/>
<path d="M9.96505 13.386C9.92753 13.386 9.89198 13.3722 9.86434 13.3427L9.07638 12.5252C9.02306 12.4701 9.02504 12.3817 9.08033 12.3286C9.13563 12.2756 9.22449 12.2775 9.27782 12.3326L10.0658 13.1501C10.1191 13.2052 10.1171 13.2936 10.0618 13.3467C10.0342 13.3722 10.0006 13.386 9.96505 13.386Z" fill="#408F95"/>
<path d="M15.8459 17.6935C15.759 17.6935 15.6781 17.6405 15.6484 17.554C15.5142 17.1747 15.4431 16.7836 15.4332 16.3886C15.4213 15.8599 15.4075 15.3627 15.7551 14.9932C16.1086 14.6178 16.6201 14.604 17.1631 14.5883C17.6075 14.5765 18.0478 14.6394 18.4764 14.775C18.587 14.8104 18.6482 14.9283 18.6126 15.0384C18.5771 15.1484 18.4586 15.2094 18.348 15.174C17.9669 15.0521 17.5699 14.9971 17.175 15.0069C16.6832 15.0207 16.2962 15.0305 16.0612 15.2801C15.8321 15.5238 15.842 15.9012 15.8518 16.3787C15.8597 16.7305 15.9249 17.0804 16.0434 17.4164C16.0809 17.5245 16.0237 17.6444 15.915 17.6817C15.8913 17.6896 15.8676 17.6935 15.8459 17.6935Z" fill="#408F95"/>
</g>
<defs>
<clipPath id="clip0_306_9182">
<rect width="109" height="50" fill="white"/>
</clipPath>
</defs>
</svg>
