<svg width="200" height="75" fill="none" xmlns="http://www.w3.org/2000/svg"><path d="M5.915 45.073l-.063.062c.063-.062.063-.062.063-.124V44.7c.691-3.667 2.012-7.272 3.332-10.814 1.384-3.73 2.704-7.396 4.465-10.94 1.635-3.355 3.522-6.65 5.66-9.695 1.886-2.797 4.15-5.842 7.043-7.707.88-.248 1.76-1.18 2.892-.994 1.132.186 1.132 1.367.88 2.486.315-.87.504-1.802-.25-2.424-1.007-.746-2.957.435-3.774.995-.377.124-.755.373-1.069.621.189-.186.44-.373.755-.56l-.315.125.88-.497c1.007-.56 3.27-1.803 4.025-.187.566 1.306-.314 3.48-.755 4.724-.817 2.113-1.823 4.102-2.892 6.09.188-.434.943-2.112.943-2.112-.44-.063-2.452 4.537-2.83 4.661h.063c-.251.186-.44.373-.44.435-.126.746.755.56 1.258.497 2.138-.248 4.905-2.05 6.288-3.604 1.51-1.679 2.075-4.227 2.075-6.464v-.062c-.063-4.227-3.018-9.572-8.112-9.261-2.83.124-5.47 2.859-7.294 4.723a53.464 53.464 0 00-3.71 4.724c-.503.746-1.006 1.43-1.447 2.175-.503.684-1.509 1.74-1.76 2.549 0 0 .314-.373.566-.622-.692 1.057-1.321 2.175-1.95 3.232-.063-.062.377-.932.377-.932-.566-.125-3.144 4.972-3.458 5.531-1.132 2.051-2.138 4.102-2.83 6.277-.754 2.424-1.76 4.724-2.515 7.086-.377 1.18-.755 2.3-1.006 3.48-.126.56-.252 1.057-.315 1.616 0 .062-.126 1.057 0 .933-.126.434-.126.994-.188 1.429 0 0 0-1.057.062-1.18-.251.31-.062 1.49-.125 1.615-.315 2.362-.818 4.848 0 7.147 1.069 3.17 3.71 5.78 6.602 7.459 1.51.932 3.522 1.988 5.408 1.864 2.201-.124 4.34-1.926 5.974-3.232 4.78-3.977 9.119-9.571 9.936-15.91.063-.436.377-2.61-.377-2.673-.692-.062-1.195 1.43-1.447 1.802A53.961 53.961 0 0120 47.621c-2.515 2.735-5.659 5.656-9.495 6.526a6.932 6.932 0 01-1.635.187c-.754-.063-1.446-.25-2.012-.808-.315-.311-.629-1.368-1.006-1.554a2.72 2.72 0 00-.126-.808l-.189-.373c-.063-1.865 0-3.605.315-5.532v-.062c0-.062.063-.062.063-.124zM16.982 14.68c-2.452 3.978-4.527 8.08-6.603 12.306-1.194 2.486-2.39 5.034-3.333 7.707a95.212 95.212 0 014.78-12.12c2.263-4.786 5.282-9.447 8.866-13.3-1.446 1.74-2.704 3.729-3.71 5.407zm6.477-6.837c-.88.87-1.698 1.865-2.452 2.797 1.194-1.554 2.452-3.108 4.024-4.35-.566.496-1.132 1.118-1.572 1.553zm6.414.497c.126-.373.252-.808.315-1.305-.126.56-.378 1.119-.378 1.554.063-.124.063-.187.063-.249zM60.31 34.57s.063.061 0-.063c-.314-.435-.754-.124-1.195 0-1.823.373-3.71.808-5.596 1.119.692-2.238 1.383-4.6 1.635-6.899.126-.87.188-1.802 0-2.672-.126-.56-.315-1.12-.629-1.616 0 0-.755-.933-.566-.436l-.063-.062-.251-.497.251.249c.063-.373-1.006-1.057-1.006-1.057-1.572-1.554-3.71-2.735-5.848-1.554-1.32.746-2.39 1.99-3.27 3.232-.314.435-.629.933-.88 1.43-.252.497-.63 2.113-1.007 2.361-.314.25-1.257.311-1.697.56a7.405 7.405 0 00-1.698.932c-1.195.746-2.138 1.803-3.019 2.86-1.509 1.988-2.263 4.225-3.332 6.214-2.013 3.792.188 8.764 3.898 10.566 1.195.56 2.578.808 3.836.684 1.32-.187 2.578-.87 3.585-1.616.943-.684 3.018-1.927 3.395-2.983 0-.063-.126 0-.314.186l1.823-2.113c.063.062-.44.683-.44.683.44.187 2.704-3.107 2.956-3.356.44-.745.88-1.553 1.383-2.3.44-.559.315-.496.943-.745-.063.062.755-.187.88-.187.692-.124 8.05-.621 6.226-2.92zM38.553 47.123h-.063c-5.22.746.817-10.193.943-10.815l-.377.56c.943-1.865 1.823-3.356 2.263-3.853.692 3.107 4.088 4.288 6.855 4.66-1.824 3.606-5.22 8.64-9.621 9.448zM50.94 29.908c-.44 1.74-.818 4.04-1.761 5.594-.315.621-.126.435-.755.559-.377.124-1.194 0-1.572-.062-.692-.062-1.509-.187-2.012-.622-.88-.746-.755-1.926-.629-2.983.126-1.057.44-2.051.818-3.045.188-.373 1.383-2.362 1.194-2.735-.063-.187-.754.932-.817.994.377-.683.755-1.056 1.069-1.491-.063 0 0-.063.063-.187v.062l.063-.124s0-.062.063-.062c.943-1.243 3.27-4.04 4.527-2.113.943 1.616.063 4.661-.251 6.215zm-4.34-4.04l.063-.062c0 .062-.062.062-.062.062z" fill="#408F95"/><path d="M93.112 34.88v-.062c-.377-2.051-3.207 1.367-3.584 1.678-1.824 1.989-3.522 4.164-5.157 6.34-1.635 2.237-3.207 4.474-4.905 6.712-.817 1.119-1.635 2.175-2.578 3.17-.315.372-1.07 1.43-1.635 1.43-2.201 0-.503-8.764-.252-10.132.378-2.424.566-5.655 2.138-7.582.378-.497 4.654-5.905 4.654-5.905-.126-.062-.629.56-.943.933l2.704-3.605.188-.249.503-.683c.063.062 0 .186-.063.31l.566-.621 1.635-2.113c1.195-1.678 2.327-3.48 3.396-5.221 1.698-2.859 4.025-6.961 2.767-10.442-.943-2.548-4.402-3.045-6.729-2.175-1.697.622-3.144 1.927-4.339 3.294a27.549 27.549 0 00-1.823 2.61c-.189.25-1.006 2.238-1.195 2.487h.063c-.377.683-.755 1.367-1.006 2.05.126-.497.44-1.491.692-1.677-.504.373-.944 2.175-1.07 2.361-2.39 5.159-4.464 10.38-5.974 15.849-1.697-1.927-4.401-5.22-7.357-4.04-2.452.995-4.276 3.543-5.534 5.78-1.132 1.99-1.446 4.04-2.263 5.967-1.447 3.294-2.138 10.068 2.767 11.063 1.509.31 2.892-.622 4.087-1.43 2.138-1.553 4.15-3.356 6.037-5.22-.315 3.294-1.006 8.266 1.698 10.876 3.332 3.356 6.665-1.18 8.678-3.667 2.578-3.232 4.59-6.837 7.168-9.944 1.258-1.492 2.516-2.983 3.836-4.35 1.006-.995 3.019-2.238 2.83-3.792zM69.97 38.982c-.063.187-.063.31-.063.31-.252 1.492-.252 2.798-1.32 3.854-.944.995-1.95 1.927-2.956 2.86-.944.87-3.207 3.417-4.654 3.293-1.76-.186-.44-4.164.44-6.588-.943 2.486-2.452 6.526-.377 6.65.566.063 1.51-.435 2.327-1.118-.755.683-2.012 1.616-2.767 1.243-1.446-.622-.189-4.164.063-5.159.817-2.859 2.012-5.593 3.396-8.204.691-1.305 1.697-3.418 3.018-3.543l-.314.187c.063-.062.125-.062.188-.062.44-.125.88.186 1.195.435.818.56 1.32 1.616 1.887 2.424.628.994.188 2.05-.063 3.17v.248zm10.124-14.357c0-.062 0-.186.063-.249v-.062a.675.675 0 01.126-.248v-.063c1.446-3.977 3.018-7.955 5.282-11.56.566-.932 2.2-3.791 3.647-2.983.566.31.692 1.119.692 1.678.251 3.73-2.767 8.142-4.654 11.125-2.2 3.48-4.653 6.9-7.231 10.069l1.383-1.43 1.258-1.553-3.207 4.102-.44.559-.252.248c.063-.372.377-.745.692-1.18-.126.124-.252.248-.315.373a198.918 198.918 0 012.642-8.018c-.063.062 0-.062.062-.31l.19-.312c0-.062 0-.124.062-.186zm-5.282 5.096c-.126.311-.503 1.74-.692 1.927 0 .062-.063.125-.126.125.503-.622.189-1.43.44-2.176.126-.373.755-1.056.88-1.554 0 .498-.314 1.368-.502 1.678zm-9.999 17.216a73.405 73.405 0 004.528-4.288c-.126.808-2.075 2.175-2.767 2.797a33.172 33.172 0 01-2.704 2.362h-.063l1.006-.87zm11.13-22.871c-.25.745-.565 1.43-.943 2.113.315-.932.503-1.865.944-2.735.377-.683.817-1.554 1.132-2.362-.315.995-.818 2.051-1.132 2.984zm4.088.745l-.251.622c0-.062.062-.186.062-.31l.19-.312zM66.45 33.017c-.251.186-.44.435-.503.435.126 0 .315-.249.503-.435zm1.761-.125c.126.062.252.125.377.249l-.377-.249zm12.45-1.118c0-.063.064-.125.127-.187-.063.124-.126.187-.126.187zm.127-.187l.063-.124c0 .062-.063.124-.063.124z" fill="#408F95"/><path d="M112.579 34.694c0 .062 0 .062-.063 0v-.063c-1.006-1.678-2.326.622-2.892 1.43-1.069 1.43-2.075 2.797-3.207 4.102-.944 1.119-1.95 2.237-2.704 3.418 0 .125-.126.435-.126.435-.252.373-.629.684-.943 1.057-.566.56-1.132 1.18-1.761 1.74-.943.87-6.226 5.78-6.917 2.61-.378-1.553.126-3.48.44-4.972.188-.808.377-1.553.503-2.361.126-.622-.063-1.243.251-1.865.19-.373.252-.31.692-.435l1.07-.373c.69-.248 1.383-.497 2.011-.87.944-.56 1.824-1.243 2.642-1.927 1.949-1.616 4.024-3.542 4.842-5.966.44-1.368.503-2.86-.378-4.04-.817-1.057-2.201-1.616-3.458-1.865-3.396-.621-5.974 1.306-7.924 3.854-2.39 2.92-4.087 6.526-4.904 10.193-.44 1.802-.692 3.604-1.007 5.469-.314 1.864-.503 3.605.503 5.345-.063-.621-.188-1.18-.188-1.74 0-.311.125-.622.125-.87 0-.125-.125-.498-.125-.684 0-.56.125-.995.251-1.554.063-.56 0-1.119.063-1.678.063-.621.315-1.119.566-1.678.189-.497.252-.932.44-1.43.189-.435.315-.932.503-1.429.063-.31.378-.684.566-1.057-.188.56-.566 1.057-.691 1.554-.189.746-.063 1.554-.126 2.3-.126.808-.377 1.616-.503 2.486-.126.808-.503 1.554-.629 2.362-.126.745-.377 1.305-.315 2.05 0 .436.063.87.126 1.244.063.497.378.808.692 1.18 1.069 1.244 2.515 2.238 4.15 2.673 1.132.31 2.138.249 3.207-.31 1.51-.809 2.83-2.052 3.962-3.233 1.069-1.18 1.887-2.486 2.83-3.729.88-1.118 1.949-2.175 2.83-3.294l3.395-4.35 1.95-2.549c.314-.372.503-.683.251-1.18zm-15.595.683c.063-.124.063-.186.063-.186.943-1.989 1.635-4.102 2.956-6.029l1.131-1.491c.252-.311.692-.87 1.132-.995.944-.186 1.195 1.43 1.132 2.051l-.251 1.305c-.063.373.063.622 0 .933-.126.372-.441.559-.629.87l-1.069 1.367c-1.446 1.678-3.27 3.108-5.282 4.164.314-.684.503-1.367.817-1.989z" fill="#408F95"/><path d="M146.634 16.483c-.252-1.989-3.333-3.48-5.031-2.3-1.384.933-2.641 3.481-3.647 4.973l-6.163 9.198c-.943 1.43-1.886 2.86-2.893 4.226-.251.436-2.641 4.102-2.641 4.102.252.063.818-.808.944-.932-1.698 2.362-3.899 4.848-5.974 7.21-.692.87-4.842 6.277-6.352 5.593-.503-.248-.628-1.056-.691-1.491-.503-3.294.754-6.588 1.132-9.758l-.252.621.377-1.553c0 .186-.063.373-.063.56l.063-.374-.188 1.865c.88-3.73 2.138-7.334 3.584-10.815.377-.87 4.025-9.882 4.779-10.69-.126.062-.314.311-.503.56 1.195-2.176 2.453-4.227 3.899-6.216-.315.498-.88 1.43-.88 1.43.251.062 2.766-3.356 2.766-3.73 0-.061-.188.063-.377.187.629-.808 1.069-1.243.566-2.61-.755-1.554-2.955-3.48-4.779-2.548-.377.248-.629.559-.88.87-1.321 1.678-2.39 3.853-3.27 5.718-.315.746-.566.87-1.069 1.43-.818.931-1.258 2.175-1.824 3.231-1.132 2.238-2.012 4.6-3.018 6.899-1.007 2.113-1.824 4.288-2.516 6.526-.314.87-.566 1.74-.817 2.61-.252.87-1.132 2.486-1.006 3.419l.377-.808c-.315 1.056-.566 2.175-.818 3.294-.062 0 .063-.808.063-.808-.251 0-.817 2.734-.943 3.107a40.627 40.627 0 00-.566 3.978c-.063 1.43 0 2.735.692 4.04 1.32 2.3 3.71 4.537 6.288 5.345.44.124.943.248 1.384.186.44-.062.88-.248 1.194-.559.252-.124 1.258-1.18.566-.684l1.195-1.118s-.566.683-.754.807c.314-.124 1.006-1.056 1.006-1.056 2.075-2.237 4.15-4.413 6.036-6.837 1.95-2.61 3.711-5.47 5.471-8.266-.503 1.492-.629 2.983-1.069 4.475-.251.808-.503 1.616-.691 2.424-.126.31-.252 1.802-.126 1.678 0 .186 0 .31-.063.435 0-.062 0-.124-.063-.186-.189.062-.189 1.926-.251 2.237-.252.87-.629 1.678-.755 2.673-.314 2.61-.126 5.655 1.509 7.893 1.006 1.367 2.515 2.113 4.213 2.237 1.824.063 2.83-.932 3.773-2.3.629-.931 1.195-1.74 1.572-2.796.315-.87.944-2.548.566-3.418-.251-.56-.377-.622-.88-.373-.692.248-1.509 1.74-1.949 2.3-.629.683-1.887 2.423-2.956 2.547-.629.063-.503-.062-.629-.807-.063-.436-.063-3.357 0-3.419-.188.249-.251.497-.314.746.251-2.051 1.132-4.537 1.761-6.712.754-2.549 1.32-5.097 2.012-7.645.754-2.61 1.761-5.22 2.83-7.707.251-.56 3.081-6.712 3.521-7.272-.44.311-2.704 5.035-3.459 6.588 1.51-3.542 3.27-6.96 5.471-10.192.063 0-.628 1.056-.503 1.056.189.124 1.698-2.175 1.572-2.237-.063 0-.125 0-.188.062.314-.31.691-.497.629-1.119zm-16.413 29.522c-.566 2.548-1.195 5.967-.692 8.515-.566-2.859-.377-6.09.126-8.95.377-2.362 1.069-4.537 1.887-6.712-.692 2.486-.755 4.661-1.321 7.147zm-10.502-23.617c1.761-4.165 4.276-7.956 6.918-11.56-2.642 3.728-4.78 7.768-6.666 11.933-1.446 3.294-2.767 6.463-3.71 9.757.188-.87.377-1.74.692-2.61.754-2.548 1.76-5.034 2.766-7.52zm-1.446 6.028a88.295 88.295 0 013.962-9.074c-1.384 2.86-3.27 7.334-3.962 9.074zm19.934 4.102a12.33 12.33 0 01-.692 1.616l1.132-2.859-.44 1.243zm40.719 2.113c-.378.063-3.648 1.057-3.459 1.554 0 .062.126.124.189.124-1.069.436-2.453.498-3.522 1.181-1.195.808-2.326 1.616-3.584 2.3 1.132-1.927 2.201-3.978 2.893-6.029.251-.745 1.697-5.345.754-5.842-.126-.062-.189.497-.251.808.062-2.486-.755-6.277-4.151-6.526-2.075-.124-4.024 2.424-5.156 3.791-2.578 3.232-4.842 6.713-7.106 10.069-.629.932-6.917 11-6.917 11s.44-.62 1.006-1.429a43.803 43.803 0 00-1.635 2.921c.252-.932 2.641-8.328 4.15-12.678.126-.187.189-.436.252-.622l.377-1.057v.063c.566-1.679 1.132-3.357 1.635-5.097 0 .187-.251 1.119-.189 1.119.378.062.881-2.548.629-2.548l-.188.31c.188-.932.503-1.367-.063-2.424-.44-.932-1.195-1.802-2.264-2.05-2.075-.56-3.081 1.118-2.956 2.734 0 .249.315.373.315.622 0 .31-.315.87-.377 1.118-.441 1.306-.755 2.549-1.258 3.792-.252.683-2.578 7.147-2.578 7.147.125-.062.188-.186.251-.31-.188.559-.377 1.118-.629 1.677-.063-.062.189-.497.063-.497-.629-.124-2.201 5.097-2.326 5.594-.252 1.18-.566 2.3-1.007 3.48-.188.622-.44 1.243-.628 1.927 0 .062-.315 1.554 0 .994-.063.187-.126.311-.126.435 0-.062-.063-.124-.063-.186-.189.062-.314 1.367-.314 1.43-.252.683-.566 1.18-.881 1.802-.817 1.989-1.257 4.164-1.572 6.277-.503 3.232-2.012 8.08-.377 11.063.566 1.057 2.326 3.232 3.71 1.927.629-.621.629-2.051.692-2.797.377-2.05.691-4.164 1.132-6.215l.565-2.859c.063-.124.566-2.424.378-2.362a1.351 1.351 0 00-.315.497c.315-.994.755-1.926 1.132-2.983.503-1.491.881-2.921 1.635-4.288.881-1.368 1.635-2.86 2.453-4.227.629-1.118 1.194-2.548 1.886-3.48.189-.249.566-.373.881-.622.628-.683 1.069-1.616 1.572-2.361.943-1.492 1.76-2.984 2.767-4.351.44-.621 5.47-7.582 5.973-8.018-.125.063-.251.125-.377.249.503-.621 1.069-1.18 1.572-1.678.063.062-.377.435-.314.497.126.062 3.018-2.175 3.521-2.237 1.384-.249.881 2.361.692 3.045-.314 1.43-1.132 2.797-1.824 4.04-.377.684-.754 1.305-1.069 1.989-.063.062-.566 1.243-.377 1.119l-.377.559c.126-.187.188-.435.188-.435-.251 0-.566 1.056-.628 1.243-.378.621-.881 1.119-1.384 1.616-1.32 1.492-2.515 3.045-3.836 4.475-1.006 1.056-2.326 2.92-3.836 3.294-1.069.248-1.886-.311-1.32 1.367.377 1.181 1.761 3.916 3.27 3.916 1.383 0 3.081-2.051 3.899-2.921.943-1.057 2.012-2.051 3.018-3.17.251-.373 3.144-3.791 3.584-3.978h-.063c.629-.31 1.258-.062 2.138-.683.504-.373.755-.746 1.321-1.12.44-.248.629-.559.817-.745 0 0 0 .062.063.062.629-.622 1.51-.435 2.327-.994 1.006-.684 2.264-1.554 3.144-2.362 1.132-.995 2.704-1.554 3.207-3.232-.251.062-.566.062-.754.186zm-32.197 6.34v.062c-.063.808-.628 1.74-.943 2.486-.44 1.181-.817 2.362-1.195 3.543a92.457 92.457 0 01-2.767 7.334 50.21 50.21 0 00-2.138 6.34c.692-3.046 1.824-6.03 2.704-8.889.818-2.61 2.076-5.158 3.082-7.706.125-.311 1.32-2.797 1.194-3.294a.191.191 0 01.063.124zm2.767 1.865c-.188.745-.377 1.429-.629 2.05.189-.621.378-1.367.629-2.05zm8.615-10.193l-1.195 1.74c.378-.56.755-1.181 1.195-1.74zm10.25 7.52c.063-.186.378-.249.566-.373l-.566.373zm-15.029-7.272c-.063.062-.126.249-.189.497l.189-.497zm2.83 2.61v-.062c.063-.062.063-.062.063-.124.063-.062 0 .062-.063.187zm-3.27-1.553c0 .124-.063.186-.126.248l.126-.248zm-13.331 27.346c0-.062 0-.062.063-.124 0 .062 0 .062-.063.124zm10.313-19.204c0 .062-.063.062-.063.062l.063-.062z" fill="#408F95"/><path d="M199.986 35.44c-.189-.87-.692-.995-1.321-.746-1.195.559-2.389 1.802-3.521 2.548-2.578 1.616-5.157 2.92-7.924 4.288 0-.062-.062-.186-.125-.373.063.311 0 .435-.063.498-.629-2.673-1.258-5.346-1.761-8.08.252 1.18.818 3.17 1.258 4.848-.566-2.61-1.258-5.843-1.195-5.843-.126.063-.126.187-.126.311-.126-.746-.314-1.678-.189-2.486.063-.932.566-1.74.881-2.61a15.8 15.8 0 01-.189.994c.378.062.629-2.237.629-2.486-.063-.373-.88-1.554-.88-1.243-1.698-1.554-5.031 1.865-5.534 3.356-.377.995-.377 2.051-.314 3.108.062 1.056.377 1.989.691 2.983.189.746-.063 1.243 0 2.051.126 1.243.566 2.486.818 3.667.251.932 1.069 2.797.88 3.667-.126.87-2.012 1.616-2.83 2.113-1.069.684-2.138 1.492-3.207 2.3-1.886 1.43-3.898 3.232-4.653 5.531-.126.311-.566 1.678-.126 1.927.063.062.252-.994.315-1.119-.818 4.102 3.269 6.091 7.105 6.153 4.339.125 7.358-2.361 8.867-6.215.629-1.678.817-3.418.755-5.159 0-1.18-.126-2.3-.315-3.418-.126-.994-.251-.932.44-1.491.503-.373 1.258-.622 1.761-.87 2.012-1.057 3.836-2.3 5.66-3.605 1.32-.933 4.464-2.549 4.213-4.537v-.063zm-25.405 21.38c-1.635-.498 0-3.046.566-3.854.943-1.243 2.326-2.175 3.584-3.045l1.887-1.243c.188-.125 1.383-1.057 1.006-.933l.754-.435-.44.373c.126-.062.315-.124.44-.248.063 1.491.063 2.983-.377 4.475-.063.248-1.258 2.734-1.761 3.232l.315-.25c-.566.685-1.195 1.244-1.95 1.679 0-.062.566-.435.503-.497l-1.76.683c-.881.187-1.887.373-2.767.063zm7.923 1.802c-1.635.684-3.207.994-4.905 1.057 3.082-.187 6.289-1.678 8.112-4.227-.691 1.368-1.572 2.424-3.207 3.17zm4.591-17.651a14.843 14.843 0 00-.378-1.74c.126.683.252 1.367.378 1.74zm.817 6.464c-.063-.063-.063-.187-.063-.311 0 .124.063.248.063.31z" fill="#408F95"/></svg>