<svg width="194" height="181" fill="none" xmlns="http://www.w3.org/2000/svg"><g clip-path="url(#clip0_2248_12509)" fill="#408F95"><path d="M27.068 177.139a7.246 7.246 0 01-1.657-.182c-2.276-.53-4.18-2.415-4.742-4.692-.557-2.272.252-4.83 2.019-6.362.576-.501 1.295-.935 2.185-1.332l.048-.019a13.463 13.463 0 014.99-1.169c.952-.038 1.742.033 2.495.482.252.148 1.018.606 1.304 1.503.11.344.105.659.1 1.227a6.446 6.446 0 01-.052.792 2.753 2.753 0 00-.024.44c0 .052.038.544.252.978.153.305.324.439.848.816.366.263.866.621 1.533 1.208.271.238.614.534.81.973.433.969-.077 1.986-.648 2.563-.853.864-2.024 1.237-3.157 1.547-.905.248-1.838.487-2.762.706-1.147.272-2.342.525-3.547.525l.005-.004zm3.228-12.539c-.104 0-.219 0-.338.005a12.19 12.19 0 00-4.533 1.059l-.052.024c-.78.344-1.395.716-1.88 1.141-1.43 1.236-2.086 3.303-1.634 5.14.452 1.838 1.99 3.361 3.828 3.79 1.49.349 3.11.024 4.643-.339a68.22 68.22 0 002.723-.697c1.01-.276 1.967-.577 2.605-1.221.309-.315.57-.826.4-1.198-.086-.191-.296-.378-.496-.554a18.53 18.53 0 00-1.438-1.136c-.543-.391-.933-.673-1.228-1.27a3.97 3.97 0 01-.376-1.455 3.317 3.317 0 01.028-.645 6.05 6.05 0 00.043-.673c.005-.487.005-.687-.038-.835-.143-.453-.595-.721-.762-.821-.376-.224-.8-.315-1.485-.315h-.01zM166.965 181c-4.175 0-9.613-.644-18.178-1.666-.953-.114-1.296-.162-1.591-.2-.276-.038-.514-.072-1.19-.148a406.597 406.597 0 00-4.033-.43c-6.642-.687-15.741-1.627-19.793-3.279-1.438-.587-2.314-1.284-2.766-2.195-.152-.311-.219-.544-.709-2.788-.196-.902-.296-1.35-.315-1.446-.323-1.69.1-4.52 1.781-7.05.876-1.317 1.6-1.78 2.3-2.229.695-.443 1.347-.863 2.285-2.219.167-.243.319-.477.467-.706.538-.84 1.095-1.709 2.219-2.535.671-.496 1.147-.687 1.528-.84.29-.119.505-.2.757-.396.867-.663.957-1.604 1.043-3.212.047-.926.104-1.976.419-3.074.409-1.432 1.757-2.573 3.794-4.3 1.3-1.098 2.914-2.468 4.781-4.315 1.681-1.671 3.59-3.561 6.037-4.463 4.143-1.532 8.39.091 12.499 1.656 1.128.43 2.295.874 3.423 1.237 3.319 1.064 6.871 1.503 10.308 1.933 3.152.391 6.414.797 9.537 1.68 3.147.887 5.266 2.105 6.671 3.828 1.433 1.756 2.042 3.999 2.58 5.975l2.081 7.627c.972 3.566 1.786 7.308.181 10.482-.709 1.408-1.595 2.32-2.29 2.954-8.923 8.205-19.241 9.785-19.674 9.847-1.281.186-2.638.272-4.161.272h.009zm-17.617-46.87c-1.057 0-2.095.157-3.109.534-2.199.812-4.004 2.601-5.599 4.181-1.9 1.886-3.533 3.27-4.847 4.382-1.867 1.584-3.104 2.63-3.409 3.699-.276.964-.324 1.9-.372 2.802-.085 1.584-.161 3.078-1.523 4.123-.391.301-.724.435-1.048.564-.352.143-.714.286-1.257.687-.942.697-1.395 1.398-1.914 2.215-.157.243-.314.491-.49.744-1.081 1.561-1.905 2.086-2.633 2.554-.648.415-1.205.773-1.938 1.875-1.481 2.225-1.866 4.74-1.6 6.134.019.095.114.534.31 1.417.457 2.091.528 2.334.609 2.506.195.391.624.988 2.124 1.599 3.89 1.585 12.884 2.515 19.454 3.193 1.486.153 2.862.296 4.048.434.69.082.933.115 1.214.153.29.038.628.086 1.571.201 11.579 1.379 17.393 2.066 22.021 1.398.105-.014 10.389-1.594 19.022-9.536.614-.568 1.404-1.375 2.023-2.606 1.409-2.788.676-6.133-.271-9.603l-2.081-7.628c-.505-1.861-1.081-3.966-2.347-5.522-1.238-1.518-3.162-2.606-6.052-3.422-3.033-.859-6.247-1.255-9.356-1.642-3.49-.434-7.104-.883-10.532-1.981-1.157-.372-2.343-.821-3.485-1.26-2.829-1.079-5.728-2.181-8.528-2.181l-.005-.014zm-97.416 33.62c-2.138 0-4.257-.367-5.747-1.828a9.485 9.485 0 01-.624-.687c-.405-.477-.867-1.017-1.724-1.671a9.59 9.59 0 00-1.966-1.169c-.638-.301-1.238-.587-1.9-1.346-.49-.563-2.028-2.553-1.352-4.72.28-.898.871-1.618 1.414-2.21a18.402 18.402 0 017.551-4.94c.8-.287 1.557-.559 2.1-1.074.381-.358.657-.84.948-1.356.076-.133.152-.267.228-.396 2.157-3.618 6.095-6.114 10.285-6.505 4.185-.397 8.523 1.317 11.313 4.472.8.811 1.385 1.756 1.709 2.778.371 1.174.262 2.023.176 2.701-.067.53-.119.917.043 1.37.295.831.943 1.112 2.757 1.809.9.344 2.019.768 3.38 1.422 1.924.926 4.6 2.463 5.69 5.16.748 1.847.462 3.933-.7 5.188-1.614 1.747-4.323 1.613-6.118 1.518-5.737-.291-11.89.177-23.607 1.231l-.466.043c-1.072.101-2.238.206-3.395.206l.005.004zm10.417-26.728c-.361 0-.723.019-1.085.052-3.805.358-7.385 2.625-9.347 5.914-.076.124-.147.253-.219.377-.323.563-.657 1.15-1.171 1.632-.733.692-1.647 1.022-2.528 1.337-.138.048-.276.1-.41.148a17.286 17.286 0 00-6.651 4.467c-.453.492-.938 1.079-1.148 1.747-.5 1.594.829 3.227 1.1 3.537.5.573.9.764 1.505 1.05a10.75 10.75 0 012.185 1.308c.962.735 1.49 1.355 1.914 1.852.195.229.362.424.548.606 1.895 1.856 5.232 1.546 8.175 1.274l.471-.043c11.78-1.064 17.965-1.532 23.783-1.236 2.071.11 4.023.1 5.157-1.126.976-1.06.938-2.716.462-3.895-.71-1.752-2.324-3.184-5.086-4.511a40.792 40.792 0 00-3.285-1.384c-1.79-.682-2.976-1.136-3.476-2.539-.262-.735-.18-1.351-.105-1.943.081-.615.162-1.255-.128-2.171-.267-.835-.748-1.613-1.433-2.31-2.314-2.616-5.761-4.138-9.218-4.138l-.01-.005zm84.928-16.462c-.176 0-.352-.014-.519-.048-1.323-.239-2.352-1.155-3.18-1.89l-7.271-6.463c-.509-.453-1.09-.968-1.733-1.121-.895-.215-1.69.095-2.033.229-.743.291-1.962.754-3.59 1.375a1736.083 1736.083 0 00-10.946 4.2.617.617 0 01-.443-1.151c4.499-1.742 8.227-3.164 10.956-4.205 1.623-.62 2.842-1.083 3.571-1.365.419-.162 1.509-.587 2.771-.286.942.224 1.671.873 2.261 1.399l7.271 6.462c.905.807 1.671 1.437 2.585 1.599a1.94 1.94 0 001.438-.334c.181-.138.41-.372.443-.711.086-.788-.771-1.485-1.705-2.124a40.478 40.478 0 01-7.637-6.763c-.143-.163-.471-.54-.4-1.046.096-.644.772-.883.995-.964 1.067-.382 6.6-1.055 8.928-1.327a.613.613 0 01.681.54.613.613 0 01-.538.682c-3.509.411-7.88.988-8.652 1.26-.038.014-.071.024-.1.038l.005.005a39.053 39.053 0 007.404 6.558c.843.573 2.414 1.642 2.238 3.274-.067.611-.395 1.165-.929 1.561a3.144 3.144 0 01-1.866.606l-.005.01zm23.497-8.758c-.657 0-1.504-.206-2.595-.755a42.124 42.124 0 00-16.512-4.424.613.613 0 01-.576-.649c.019-.339.309-.611.647-.578a43.452 43.452 0 0116.998 4.554c1.005.506 2.314.969 2.852.291.396-.497.11-1.384-.028-1.742-.776-1.995-2.519-3.738-4.9-4.902-2.204-1.079-4.704-1.575-7.07-1.995-.924-.163-1.967-.349-2.795-1.017-.919-.735-1.395-2.21-.648-3.236.043-.057.1-.11.162-.153a26.801 26.801 0 013.871-2.09 31.24 31.24 0 011.324-.544c1.247-.497 1.804-.735 2.038-1.299.219-.53.143-1.202-.181-1.57-.329-.372-.962-.51-1.924-.425-2.423.22-4.228 1.289-7.765 3.504-.534.334-2.053 1.284-4.338 2.706a.613.613 0 01-.648-1.041 1647.34 1647.34 0 004.338-2.706c3.604-2.253 5.609-3.441 8.304-3.685 1.381-.124 2.347.148 2.952.836.633.716.795 1.89.395 2.854-.443 1.064-1.395 1.441-2.719 1.966-.381.153-.809.32-1.281.53a26.264 26.264 0 00-3.585 1.928c-.233.44.038 1.117.476 1.466.586.467 1.429.62 2.243.763 2.457.435 5.052.955 7.399 2.105 2.662 1.303 4.614 3.275 5.504 5.561.467 1.193.41 2.243-.152 2.954-.334.42-.881.797-1.772.797l-.014-.004zm-58.826-1.504c-.376 0-.743-.033-1.104-.095a.609.609 0 01-.477-.42.6.6 0 01.148-.616l3.419-3.475a.614.614 0 01.871.864l-2.457 2.496c1.171-.081 2.462-.53 3.9-1.35.623-.354 1.242-.759 1.847-1.146 1.033-.668 2.105-1.36 3.266-1.876 2.41-1.074 4.376-1.427 5.433-1.618 3.766-.682 10.575-2.644 20.231-5.828a.611.611 0 01.771.392.61.61 0 01-.39.773c-9.713 3.207-16.574 5.183-20.398 5.871-1.076.195-2.876.52-5.151 1.532-1.077.477-2.057 1.112-3.1 1.785-.614.396-1.252.807-1.905 1.179-1.795 1.021-3.409 1.527-4.904 1.527v.005zm3.79-5.341a.615.615 0 01-.528-.926 19.695 19.695 0 015.994-6.362 31.14 31.14 0 011.295-.817c.476-.291.972-.596 1.433-.916a15.846 15.846 0 005.057-5.713.624.624 0 01.305-.282l.057-.024c1.79-.754 4.494-1.89 6.442-1.976 1.29-.052 2.58.048 3.828.144a57.05 57.05 0 002.214.143 26.023 26.023 0 0014.003-3.566.609.609 0 01.838.22.612.612 0 01-.219.84c-4.38 2.587-9.589 3.914-14.67 3.732a56.85 56.85 0 01-2.261-.143c-1.21-.095-2.462-.19-3.681-.138-1.676.071-4.256 1.14-5.875 1.818a17.093 17.093 0 01-5.347 5.962c-.491.339-.995.649-1.49.95a30.04 30.04 0 00-1.253.792 18.508 18.508 0 00-5.618 5.961.608.608 0 01-.529.301h.005zm41.824-20.896a.61.61 0 01-.477-.998 53.284 53.284 0 004.419-6.496c.524-.911 1.105-1.976 1.333-3.088.419-2.01-.362-4.238-1.942-5.546-.253-.21-.353-.229-.386-.22-.038 0-.181.063-.41.655a27.787 27.787 0 01-5.47 8.8c-.419.459-.919.974-1.557 1.332-.757.42-1.605.564-2.352.688l-6.904 1.14c-.581.096-1.305.215-2.014.02-.767-.215-1.538-.917-1.524-1.838.01-.745.529-1.322.838-1.666l5.028-5.57c2.419-2.677 4.918-5.45 7.885-7.67a60.913 60.913 0 012.48-1.723 73.5 73.5 0 001.519-1.03c2.467-1.724 3.195-2.597 3.743-3.695.476-.955.533-1.656.642-3.06.048-.572-.014-.71-.052-.744-.038-.024-.257-.072-.714.067-1.314.396-2.5 1.627-3.643 2.816-.38.396-.78.811-1.176 1.183a17.4 17.4 0 01-3.766 2.688.615.615 0 01-.576-1.084 16.315 16.315 0 003.504-2.496c.377-.353.743-.735 1.134-1.141 1.252-1.303 2.547-2.649 4.171-3.136.814-.248 1.437-.186 1.861.172.581.496.514 1.332.481 1.78-.119 1.46-.19 2.34-.771 3.508-.624 1.256-1.472 2.291-4.138 4.153-.509.353-1.024.697-1.538 1.045a55.675 55.675 0 00-2.428 1.685c-2.871 2.153-5.333 4.873-7.709 7.513l-5.028 5.57c-.261.29-.514.596-.519.854 0 .253.281.54.629.64.448.124.971.038 1.481-.048l6.904-1.14c.681-.115 1.385-.23 1.957-.55.48-.267.899-.701 1.252-1.088a27.024 27.024 0 005.228-8.415c.157-.4.519-1.336 1.423-1.431.553-.058 1.005.252 1.295.496 1.924 1.59 2.871 4.3 2.362 6.749-.271 1.288-.9 2.458-1.471 3.45a53.96 53.96 0 01-4.523 6.65.608.608 0 01-.481.228v-.009zm-6.604-23.507a.712.712 0 01-.172-.024c-1.457-.42-2.49-1.942-2.757-4.085-.561-4.454 2.857-8.439 3.252-8.878.343-.382.91-.969 2.043-2.134l.324-.334c1.314-1.35 1.914-1.966 2.357-3.03.328-.793.409-1.37.362-1.57a7.777 7.777 0 00-.705-.077c-.091-.01-.191-.02-.295-.034-.172-.019-.491-.057-.586-.038a7.7 7.7 0 00-2.704 1.656.61.61 0 01-.867-.023.618.618 0 01.024-.87 8.971 8.971 0 013.157-1.927c.319-.115.728-.067 1.119-.02l.252.03c.714.061 1.109.095 1.404.348.734.634.386 1.976-.038 2.992-.533 1.284-1.271 2.038-2.609 3.418l-.324.334c-1.119 1.15-1.68 1.732-2.004 2.095-.143.158-3.452 3.928-2.947 7.904.076.611.442 2.644 1.88 3.06a.613.613 0 01-.171 1.202l.005.005zm-10.894 2.778a.661.661 0 01-.248-.052.621.621 0 01-.314-.812 22.037 22.037 0 001.143-3.293c.342-1.332.561-2.706.647-4.081a.47.47 0 01.033-.162 28.566 28.566 0 011.743-4.029 29.233 29.233 0 016.295-8.061.614.614 0 01.819.916 27.961 27.961 0 00-6.033 7.723 27.757 27.757 0 00-1.643 3.775 22.601 22.601 0 01-.681 4.23 22.927 22.927 0 01-1.209 3.479.612.612 0 01-.562.367h.01zm-16.165 21.784a.617.617 0 01-.5-.258.614.614 0 01.148-.854 42.771 42.771 0 008.841-8.415 42.79 42.79 0 006.181-10.749.608.608 0 01.795-.343.616.616 0 01.343.797 44.174 44.174 0 01-6.357 11.059 44.12 44.12 0 01-9.094 8.658.617.617 0 01-.352.115l-.005-.01zm-18.56 15.975c-.076 0-.152 0-.228-.014-.843-.11-1.557-.807-2.129-2.077a.614.614 0 01.31-.811.612.612 0 01.809.31c.372.826.781 1.308 1.162 1.361.267.038.848-.11 1.786-1.456 1.642-2.348 6.475-6.596 14.798-13.011a.614.614 0 01.862.114.618.618 0 01-.115.864c-8.108 6.253-12.993 10.529-14.522 12.72-.366.525-1.404 2.01-2.733 2.01v-.01zm-2.266-3.398a.614.614 0 01-.609-.549 6.689 6.689 0 011.733-5.184l.162-.172c.214-.22.414-.43.495-.649.171-.448-.1-.916-.557-1.642-.333-.53-.714-1.13-.829-1.813-.19-1.141.386-1.88 1.186-2.902.267-.344.571-.73.895-1.194 1.59-2.267 2.385-4.252 3.304-6.543.538-1.341.81-2.272 1.024-3.022.333-1.15.571-1.976 1.481-3.207a22.892 22.892 0 012.504-2.806c.462-.43.886-.783 1.262-1.094.829-.687 1.371-1.14 1.567-1.766l.023-.071a16.922 16.922 0 01.91-2.391.614.614 0 01.814-.296c.305.143.438.51.295.816a16.679 16.679 0 00-.847 2.229l-.024.086c-.305.969-1.033 1.575-1.952 2.343-.362.301-.772.645-1.21 1.05a21.628 21.628 0 00-2.352 2.635c-.776 1.055-.971 1.718-1.29 2.82a31.045 31.045 0 01-1.062 3.132c-.909 2.267-1.771 4.41-3.442 6.797-.343.491-.657.892-.934 1.245-.771.993-1.038 1.365-.942 1.943.071.434.352.883.652 1.356.5.792 1.067 1.69.671 2.734-.171.454-.485.778-.761 1.065l-.148.157a5.455 5.455 0 00-1.409 4.215.613.613 0 01-.548.673h-.067l.005.005zm16.96-34.857a.61.61 0 01-.59-.454.612.612 0 01.433-.754c1.719-.468 3.318-.912 4.823-1.327a727.52 727.52 0 014.4-1.207c.542-.148 2.199-.597 3.075-1.838a2.739 2.739 0 00.481-1.857c-.59.143-2.609.86-3.833 1.289-.633.224-1.152.406-1.385.482-1.21.392-2.548.468-3.985.215a.616.616 0 01.209-1.212c1.238.214 2.376.157 3.395-.172.228-.077.738-.253 1.357-.473 1.909-.673 3.533-1.24 4.066-1.35.424-.086.771-.015 1.024.205.281.243.333.591.352.725.148.993-.1 2.038-.681 2.86-1.133 1.603-3.109 2.137-3.756 2.314-1.372.372-2.833.773-4.395 1.208-1.505.415-3.109.859-4.828 1.327a.64.64 0 01-.162.023v-.004zm-8.828-3.747a.613.613 0 01-.438-1.04c4.914-5.117 6.966-9.112 6.1-11.88l-.077-.24a42.105 42.105 0 01-1.242-4.758c-.438-2.162-.196-4.028.695-5.393.557-.864 1.585-1.56 2.614-1.184 1.09.401 1.328 1.718 1.433 2.277.376 2.095.757 4.186 1.143 6.276.128.711.323 1.103.576 1.17.252.062.619-.187.876-.382 2.966-2.253 5.018-5.566 6.999-8.773l.471-.759c.257-.415.548-.883.948-1.284.405-.405.866-.697 1.309-.978l3.124-1.967c1.38-.868 2.809-1.77 4.38-2.386 1.419-.558 2.543-.587 3.433-.086.514.291.876.72 1.228 1.17.81 1.035 1.605 2.28 1.343 3.66-.295 1.551-1.809 2.454-2.809 3.05a66.544 66.544 0 00-7.19 4.945c-.719.568-1.499 1.246-1.609 2.071-.01.077-.014.158-.024.234-.028.349-.062.826-.409 1.198-.215.234-.476.344-.686.435a11.192 11.192 0 00-3.847 2.72c-.567.62-1.076 1.322-1.571 2a343.25 343.25 0 01-1.724 2.348c-.49.669-.738 1.003-.843 1.165-.471.75-.909 1.542-1.304 2.353a.613.613 0 11-1.1-.54 27.48 27.48 0 011.366-2.467c.129-.2.353-.506.896-1.246.39-.53.938-1.274 1.718-2.343.515-.707 1.048-1.437 1.662-2.105a12.353 12.353 0 014.247-3.012c.124-.052.248-.105.286-.148.057-.062.071-.281.086-.458.009-.1.014-.205.028-.3.162-1.223 1.09-2.1 2.067-2.874a67.803 67.803 0 017.322-5.035c1.076-.64 2.057-1.294 2.233-2.225.172-.897-.461-1.856-1.104-2.672-.286-.363-.548-.678-.867-.86-.547-.31-1.328-.257-2.385.158-1.462.577-2.843 1.446-4.176 2.286l-3.123 1.967c-.386.243-.791.496-1.095.801-.3.306-.543.692-.776 1.07l-.467.754c-2.043 3.303-4.157 6.72-7.304 9.106-.495.378-1.162.788-1.919.592-1.142-.29-1.385-1.632-1.48-2.138l-1.143-6.281c-.1-.549-.262-1.203-.648-1.346-.376-.139-.876.258-1.162.702-.899 1.379-.78 3.197-.518 4.481.457 2.258.947 3.8 1.209 4.625l.076.244c1.024 3.274-1.062 7.56-6.385 13.102a.612.612 0 01-.443.186v.014zM93.217 91.846a.617.617 0 01-.176-1.208c1.286-.39 2.238-1.02 2.828-1.88.453-.659.534-1.289.638-2.086.067-.506.138-1.078.324-1.704.567-1.89 1.686-3.513 2.771-5.083l.405-.592a65.609 65.609 0 004.966-8.591c.462-.96.876-1.905.876-2.869 0-1.465-.971-2.806-1.909-4.1l-.2-.276c-1.053-1.466-2.19-3.408-1.643-5.427.386-1.423 1.5-2.42 2.609-3.318.867-.701 2.243-1.312 3.252-.73.795.458 1.053 1.48 1.029 2.21-.024.816-.391 1.265-.691 1.628-.219.267-.395.482-.466.859-.143.773.304 1.57 1.123 3.016.267.478.572.94.9 1.38a.611.611 0 01-.124.859.608.608 0 01-.857-.124c-.361-.482-.69-.988-.985-1.509-.895-1.589-1.49-2.634-1.262-3.851.129-.683.457-1.089.719-1.408.248-.306.4-.492.41-.883.014-.416-.134-.945-.419-1.112-.4-.234-1.267.133-1.867.62-.952.773-1.904 1.613-2.195 2.682-.409 1.518.562 3.141 1.457 4.387l.195.272c1 1.389 2.138 2.96 2.143 4.82 0 1.227-.491 2.354-1 3.408a66.893 66.893 0 01-5.061 8.754l-.41.597c-1.028 1.489-2.095 3.03-2.604 4.734-.157.53-.224 1.027-.281 1.504-.11.845-.22 1.723-.843 2.625-.752 1.093-1.923 1.885-3.48 2.363a.566.566 0 01-.176.028l.004.005zM88.56 89.97c-.038 0-.076 0-.114-.01a.609.609 0 01-.485-.715 42.806 42.806 0 00.033-15.842c-.057-.31-.119-.625-.18-.935-.448-2.3-.91-4.678-.2-6.973.623-2.015 2.042-3.58 3.408-5.093.314-.344.624-.692.929-1.04 2.59-2.998 4.518-6.568 6.38-10.024 5.728-10.605 12.855-23.807 12.151-37.415-.034-.664-.105-1.403-.529-1.814-.271-.267-.628-.31-.876-.3-.524.019-1.09.295-1.443.696-.704.807-.918 2.005-1.104 3.065a.612.612 0 11-1.205-.215c.205-1.155.462-2.587 1.391-3.656.571-.654 1.456-1.084 2.314-1.117.695-.038 1.323.2 1.78.644.705.688.848 1.67.895 2.63.724 13.956-6.494 27.325-12.293 38.064-1.895 3.513-3.857 7.14-6.533 10.243-.31.358-.628.707-.947 1.06-1.338 1.48-2.6 2.873-3.148 4.63-.619 2.004-.185 4.224.234 6.376.062.32.123.635.18.95 1 5.408.991 10.892-.037 16.295a.615.615 0 01-.6.501v-.005z"/><path d="M96.321 34.322a3.41 3.41 0 01-1-.157.621.621 0 01-.314-.224l-1.538-2.096a.613.613 0 11.986-.73l1.41 1.923c.366.082.695.072.98-.042.29-.115.529-.34 1.267-1.394l.243-.349c.47-.668.728-1.035.942-1.431 1.2-2.253 2.443-4.587 3.333-7.007.486-1.318.881-2.697 1.262-4.029l.995-3.48a.612.612 0 111.176.34l-.995 3.48c-.386 1.35-.786 2.748-1.29 4.114-.924 2.5-2.181 4.868-3.4 7.159-.248.463-.538.878-1.024 1.566l-.242.343c-.815 1.16-1.19 1.585-1.824 1.833-.305.12-.633.177-.971.177l.004.004zM83.728 32.69c-1.324 0-2.538-1.986-3.962-4.558l-.242-.435c-1.015-1.813-1.472-2.41-1.957-3.04-.515-.673-1.053-1.365-2.224-3.441-.852-1.499-1.533-2.926-2.195-4.306-.871-1.818-1.695-3.536-2.828-5.293a29.85 29.85 0 00-2.933-3.809.614.614 0 11.91-.825 31.123 31.123 0 013.056 3.966c1.176 1.819 2.014 3.57 2.904 5.427.653 1.36 1.324 2.768 2.153 4.229 1.133 1.995 1.638 2.658 2.128 3.298.514.668.995 1.298 2.057 3.188l.243.44c1.49 2.682 2.466 4.013 2.914 3.927a1.69 1.69 0 00.566-.295c.405-.316.567-.75.657-.984.848-2.252.962-3.15.962-3.16.224-2.018.381-4.791.448-7.798.038-1.561.09-2.158.157-2.855.066-.725.143-1.546.228-3.627l.048-1.246c.171-4.257.19-4.806.557-6.377.629-2.701 2.866-5.407 5.756-5.097 1.19.12 1.786.63 2.076 1.04.6.84.396 1.776.134 2.96-.043.195-.09.4-.134.615-.142.693-.2 1.39-.261 2.13-.053.605-.105 1.23-.205 1.846-1.043 6.344-1.229 10.467-1.229 10.506a67.675 67.675 0 00.376 10.481.62.62 0 01-.538.682.622.622 0 01-.68-.539 69.042 69.042 0 01-.386-10.677c0-.043.19-4.238 1.243-10.653.095-.573.142-1.146.195-1.757.062-.744.128-1.513.285-2.272.048-.224.091-.434.139-.634.228-1.04.338-1.604.066-1.981-.143-.2-.466-.458-1.185-.53-2.138-.229-3.938 1.933-4.457 4.153-.338 1.455-.357 1.9-.528 6.142l-.048 1.246c-.086 2.11-.167 2.988-.233 3.694-.067.702-.115 1.256-.153 2.726-.066 3.083-.228 5.89-.457 7.951-.01.1-.133 1.055-1.033 3.451-.11.296-.371.993-1.052 1.523-.338.267-.772.477-1.1.535a1.39 1.39 0 01-.238.023v.01z"/><path d="M78.338 52.655c-.128 0-.252 0-.371-.01a.613.613 0 01-.586-.639c.014-.339.3-.61.638-.587 1.29.057 2.224-.224 2.58-.768.334-.506.2-1.25-.595-3.308l-2.952-7.642c-.623-1.617-1.27-3.293-2.17-4.777-.305-.501-.544-.835-.772-1.16l-.181-.253c-1.271-1.819-2.005-3.317-3.466-6.305l-.062-.124c-.948-1.938-1.947-3.89-2.914-5.78-.59-1.15-1.176-2.3-1.757-3.451a20.486 20.486 0 00-1.9-3.098c-.152-.2-.219-.29-.29-.372-.072-.09-.143-.172-.281-.363-1.038-1.393-2.21-2.969-2.324-4.911-.043-.692-.123-2.124.89-3.184 1.02-1.064 2.743-1.331 4.495-.697a.61.61 0 01.367.788.612.612 0 01-.785.368c-1.277-.459-2.529-.306-3.195.39-.643.674-.586 1.71-.553 2.263.095 1.575 1.105 2.93 2.081 4.243.124.167.186.244.252.325.077.095.153.19.324.415a21.85 21.85 0 012.014 3.28c.581 1.15 1.167 2.3 1.757 3.445a345.533 345.533 0 012.924 5.8l.061.124c1.476 3.02 2.153 4.4 3.367 6.138l.171.243c.233.325.495.697.824 1.236.957 1.58 1.623 3.303 2.266 4.974l2.952 7.641c.781 2.02 1.2 3.322.476 4.425-.704 1.074-2.109 1.327-3.285 1.327v.004zm1.776 45.281h-.076a.612.612 0 01-.534-.682c.805-6.73-.4-13.045-1.675-19.732a356.41 356.41 0 01-.553-2.92c-.21-1.046-.138-2.187-.071-3.29.028-.486.057-.944.062-1.374a15.736 15.736 0 01-.205-1.055c-.124-.735-.233-1.374-.557-1.856a.302.302 0 01-.038-.067c-.567-1.141-1.481-2.01-2.357-2.854-.814-.778-1.657-1.59-2.238-2.607-.938-1.88-1.785-3.894-2.343-5.565-1.47-3.121-3.666-5.656-5.99-8.338-1.237-1.432-2.523-2.912-3.732-4.53-.805-1.207.162-2.11.68-2.596.082-.077.167-.153.244-.23.785-.787 1.914-1.064 2.933-.725 1.861.535 3.47 1.824 4.89 3.943.109.095.28.21.447.32a4.6 4.6 0 01.671.51c.02.02.034.038.053.057 1.2 1.547 2.485 2.864 3.842 4.258.862.888 1.757 1.804 2.619 2.778a.615.615 0 01-.919.816 71.426 71.426 0 00-2.58-2.735c-1.31-1.346-2.667-2.74-3.905-4.324a4.09 4.09 0 00-.462-.334 4.6 4.6 0 01-.671-.511.746.746 0 01-.076-.096c-1.281-1.923-2.638-3.04-4.271-3.508-.614-.205-1.243-.043-1.705.42-.086.086-.18.172-.271.263-.686.644-.672.754-.514.988 1.166 1.556 2.433 3.016 3.656 4.434 2.39 2.759 4.647 5.365 6.19 8.653l.028.067c.539 1.628 1.372 3.599 2.272 5.413.476.835 1.219 1.546 2.004 2.3.948.907 1.928 1.847 2.59 3.16.453.697.59 1.508.724 2.3.057.344.12.697.205 1.041.014.048.019.1.019.148 0 .492-.034 1.017-.062 1.522-.062 1.027-.129 2.086.052 2.979.181.988.367 1.957.553 2.92 1.295 6.783 2.518 13.189 1.69 20.11a.613.613 0 01-.61.539l-.009-.01zM53.927 69.742a.622.622 0 01-.543-.902c2.19-4.21 3.357-8.849 3.371-13.426a28.65 28.65 0 00-.738-6.51c-3.78-1.8-5.633-3.623-5.652-5.566-.004-.735.253-1.412.5-2.071.348-.921.538-1.513.248-2.024-.143-.248-.324-.353-.576-.496-.138-.081-.3-.172-.453-.296-2.004-1.575-.814-5.804.238-9.532l.158-.549c2.361-8.438 2.028-11.631 1.809-13.746-.052-.515-.1-.96-.1-1.403 0-.759-.281-1.77-.748-2.157a.58.58 0 00-.461-.144l-3.595 1.89a.616.616 0 01-.571-1.088l3.685-1.933a.492.492 0 01.166-.057c.572-.115 1.11.02 1.557.387.943.773 1.195 2.32 1.195 3.107 0 .382.043.797.096 1.274.233 2.205.58 5.546-1.848 14.21l-.157.553c-.852 3.021-2.019 7.164-.662 8.233.09.072.19.13.315.2.319.187.718.416 1.023.95.6 1.055.195 2.124-.166 3.074-.22.573-.424 1.117-.42 1.623.015 1.427 1.815 3.012 5.21 4.592a.6.6 0 01.337.41 29.5 29.5 0 01.838 7.093c-.014 4.773-1.228 9.608-3.509 13.99a.613.613 0 01-.542.329l-.005-.015z"/><path d="M43.909 28.771a.615.615 0 01-.348-1.122c.429-.29.6-.963.734-1.632l1.17-5.732c.182-.883.368-1.794.339-2.677-.01-.296-.043-.607-.081-.927-.1-.902-.21-1.923.243-2.854a.61.61 0 01.819-.281.614.614 0 01.28.82c-.3.612-.213 1.375-.128 2.182.038.334.072.678.086 1.017.033 1.026-.167 2.009-.362 2.963l-1.171 5.733c-.138.673-.372 1.804-1.248 2.4a.603.603 0 01-.342.106l.009.004zm-5.695 3.867a.598.598 0 01-.462-.215c-.223-.263-.561-.654-.957-1.141-1.319-1.628-1.923-2.367-2.18-3.04-.69-1.776-.29-3.466-.143-4.1.095-.41.214-.845.457-1.246.605-.983 1.704-1.36 2.78-1.661.5-.139 1.258-.353 1.967-.029.971.449 1.2 1.561 1.362 2.372l.033.153a8.055 8.055 0 001.362 3.083c.2.273.138.66-.133.86a.615.615 0 01-.858-.134 9.369 9.369 0 01-1.57-3.556l-.034-.157c-.129-.645-.267-1.313-.672-1.5-.276-.128-.69-.028-1.123.096-.876.244-1.695.516-2.066 1.122-.148.243-.23.558-.31.883-.214.907-.395 2.114.09 3.37.19.491.829 1.279 1.986 2.706.39.477.714.864.933 1.117a.62.62 0 01-.062.869.603.603 0 01-.4.148zm5.628 43.515a.609.609 0 01-.362-.12c-2.909-2.138-4.928-4.41-6.004-6.758l-.076-.167a14.306 14.306 0 00-1.371-2.468 14.136 14.136 0 00-3.062-3.16.615.615 0 01-.123-.854 21.203 21.203 0 012.018-2.367c.138-.139.276-.273.405-.401.548-.53.976-.95 1.352-1.647.22-.406.386-.845.495-1.303a.612.612 0 111.19.286 6.605 6.605 0 01-.609 1.6c-.462.858-1.004 1.383-1.576 1.942-.123.124-.257.248-.39.387a19.597 19.597 0 00-1.543 1.756 15.413 15.413 0 012.847 3.055c.81 1.155 1.248 2.138 1.486 2.668l.071.162c.986 2.157 2.871 4.267 5.614 6.281a.615.615 0 01-.362 1.112v-.004z"/><path d="M43.842 76.153a.612.612 0 01-.58-.802c.876-2.74 1.966-5.179 3.123-7.761.68-1.523 1.385-3.098 2.038-4.735 1.67-4.186 1.585-5.966.871-7.622-.952-2.205-3.123-3.408-4.78-4.029a.617.617 0 01.429-1.155c1.88.702 4.351 2.09 5.475 4.692.966 2.248.738 4.568-.857 8.563-.662 1.66-1.372 3.245-2.057 4.782-1.143 2.554-2.219 4.964-3.076 7.637a.611.611 0 01-.586.425v.005zm-2.871-29.731a.612.612 0 01-.529-.916c.643-1.136 1.386-2.974 1.267-5.289-.167-3.24-1.966-5.456-2.733-6.257a.614.614 0 01.886-.85c.861.902 2.885 3.389 3.07 7.045.134 2.61-.7 4.682-1.423 5.957a.61.61 0 01-.533.31h-.005zM28.873 56.33c-1.476 0-2.89-.572-3.819-1.594-.838-.92-1.333-2.18-1.562-3.966-.538-4.229.495-8.434 1.49-12.5l.03-.115c.128-.52.232-1.06.028-1.384-.124-.191-.39-.349-.757-.44-1.857-.457-3.805 1.017-4.614 2.707-.914 1.905-.905 4.205-.895 6.238 0 .42.024.797.043 1.174.043.764.085 1.556-.029 2.688a18.395 18.395 0 01-.619 3.236.614.614 0 01-.757.42.614.614 0 01-.419-.76c.286-.987.476-2.004.576-3.02.105-1.036.062-1.747.024-2.502a23.933 23.933 0 01-.048-1.236c-.014-2.162-.023-4.615 1.014-6.777 1.01-2.105 3.462-3.995 6.014-3.365.686.167 1.205.506 1.5.974.466.735.31 1.594.128 2.338l-.028.115c-.971 3.957-1.971 8.052-1.462 12.051.195 1.523.59 2.568 1.248 3.294.904.993 2.442 1.413 3.913 1.078 1.334-.305 2.61-1.193 3.59-2.505l.053-.072c.357-.477.795-1.069 1.547-1.193.72-.12 1.138.43 1.39.754.058.076.143.186.2.243.196-.076 1.058-.64 3.048-4.868a.614.614 0 01.814-.296c.305.143.438.51.295.816-2.461 5.236-3.595 5.766-4.452 5.551-.419-.105-.671-.434-.876-.701-.071-.091-.18-.234-.242-.287-.253.062-.496.392-.734.711l-.057.077c-1.157 1.541-2.68 2.596-4.3 2.964a5.74 5.74 0 01-1.27.143l-.005.01zm-7.966 4.306h-.043a93.724 93.724 0 00-4.49-.22c-.776-.02-1.41-.024-1.952-.029-1.6-.014-2.48-.023-3.77-.348-1.81-.453-3.21-1.146-4.281-2.124-1.343-1.227-2.076-2.911-1.962-4.506.062-.883.524-1.76 1.176-2.238.467-.34 1.014-.454 1.538-.325.419.105.743.344 1.028.554l.134.1c1.747 1.26 4.194 1.456 6.128 1.49.595.009 1.209-.02 1.818-.087a.608.608 0 01.677.544.612.612 0 01-.543.678 15.22 15.22 0 01-1.971.09c-2.114-.033-4.795-.262-6.823-1.717l-.148-.11c-.21-.158-.41-.306-.595-.349-.176-.043-.348 0-.524.124-.352.258-.638.817-.671 1.327-.086 1.227.5 2.54 1.566 3.513.914.836 2.143 1.437 3.752 1.838 1.152.286 1.886.296 3.485.31.548.005 1.19.01 1.972.029a95.49 95.49 0 014.547.22.615.615 0 01-.043 1.226l-.005.01zM54.77 95.693a.59.59 0 01-.396-.148c-5.17-4.41-10.475-6.911-15.764-7.441-.51-.052-1 .067-1.676.234-1.605.391-4.033.988-9.356-.248-4.276-.988-7.457-.993-10.637-.01-.02.005-.038.01-.062.014-1.79.358-3.395-.085-4.09-1.13-.486-.846-.371-1.47-.2-1.857.586-1.29 2.685-1.704 3.942-1.957h.01c.257-.172.695-.697.771-1.15.034-.201-.019-.316-.085-.397-1.224-.797-2.62-1.15-4.1-1.527-.476-.12-.957-.243-1.438-.377-.019-.005-.038-.014-.057-.02-4.757-1.909-9.223-3.984-11.556-8.37a.611.611 0 01-.052-.44c.243-.968.814-1.665 1.652-2.013 1.257-.52 2.852-.134 3.871.477 1.152.573 2.247 1.222 3.304 1.847 1.548.916 3.014 1.776 4.68 2.444l.048.019c.22.11.476.138.638.072.067-.03.167-.091.234-.296.162-.578.195-1.241.223-1.89.067-1.409.139-3.003 1.781-3.943 1.448-.725 3.276-.663 4.024.835.918 1.532.195 3.298-.386 4.716l-.086.21c1.171 3.45 4.6 5.088 7.375 6.405 3.624 1.189 7.59.635 11.209-.014a654.384 654.384 0 01-17.084-17.956.614.614 0 11.905-.83 663.155 663.155 0 0017.874 18.753.613.613 0 01-.324 1.036c-4.066.749-8.675 1.593-12.994.166l-.071-.028c-3.052-1.447-6.856-3.25-8.123-7.374a.61.61 0 01.019-.411l.171-.425c.529-1.284 1.072-2.61.448-3.656-.429-.854-1.524-.768-2.371-.344-.976.559-1.067 1.475-1.138 2.917-.034.716-.067 1.456-.281 2.19-.22.654-.629.94-.938 1.065-.486.2-1.095.167-1.633-.096-1.743-.701-3.243-1.584-4.823-2.52-1.043-.615-2.12-1.25-3.271-1.828-.776-.463-1.957-.778-2.814-.42-.42.172-.7.487-.867.955 2.171 3.87 6.337 5.799 10.78 7.58.457.128.914.248 1.371.362 1.538.387 3.123.788 4.538 1.733a.737.737 0 01.095.076c.39.391.557.926.466 1.499-.152.95-.961 1.823-1.49 2.085a.575.575 0 01-.152.053l-.105.02c-.819.161-2.743.548-3.066 1.26-.029.066-.12.266.123.7.381.569 1.529.822 2.776.578 4.266-1.307 8.076-.735 11.242 0 5.042 1.165 7.213.64 8.794.249.733-.182 1.366-.335 2.085-.263 5.543.554 11.075 3.155 16.437 7.732.257.22.29.606.07.864a.607.607 0 01-.466.215l-.005.019zm24.896 6.902a.594.594 0 01-.433-.182c-1.371-1.389-6.009-6.028-8.227-7.479a67.881 67.881 0 00-1.143-.735c-.362-.22-.729-.439-1.09-.654a44.325 44.325 0 01-2.22-1.374c-1.813-1.232-3.442-2.735-5.018-4.186-1.97-1.823-4.013-3.709-6.37-4.983-1.548-.84-3.89-2.105-3.576-4.286a.614.614 0 111.214.176c-.176 1.232 1.29 2.139 2.947 3.031 2.495 1.35 4.59 3.284 6.619 5.16 1.542 1.422 3.137 2.897 4.87 4.071a40.56 40.56 0 002.157 1.336 135.196 135.196 0 011.124.673l.062.039c.18.114.676.434 1.095.706 1.904 1.246 5.333 4.553 7.428 6.639 0-.024 0-.048.01-.076.004-.072.028-.244.052-.454.038-.286.07-.525.1-.697a.613.613 0 111.209.191l-.095.664c-.024.196-.043.363-.053.425-.043.429-.062.887-.047 1.369a.623.623 0 01-.372.583.597.597 0 01-.238.048l-.005-.005zm-14.722 21.316a.588.588 0 01-.385-.139c-2.962-2.415-6.133-4.42-9.423-5.956-3.547-1.657-4.923-1.38-6.252-1.113-.676.134-.871.616-1.18 1.518-.12.344-.239.697-.41 1.041a.618.618 0 01-.376.315c-1.162.343-2.376.778-3.547 1.203-3.871 1.398-7.876 2.839-11.794 1.689a.612.612 0 01-.429-.468c-.295-1.479.448-1.966.938-2.291.143-.095.281-.181.381-.286a.58.58 0 01.157-.114c1.257-.631 2.61-.96 4.038-1.303.586-.144 1.19-.287 1.78-.459 1.02-.501 2.2-.782 3.243-1.035.029-.005.057-.015.086-.02-.533-.673-2.01-1.894-2.91-2.095-1.528-.138-3.037-.062-4.49.005-1.509.072-3.07.148-4.699 0-4.218-.578-8.498-.64-12.64-.702-2.086-.033-4.239-.067-6.362-.162-3.338-.372-5.728-1.112-7.794-2.406a.633.633 0 01-.257-.324c0-.01-.005-.019-.01-.029a.065.065 0 00-.01-.028.648.648 0 01.048-.411c.024-.043.048-.091.072-.129 1.104-1.861 3.004-2.806 5.637-2.811 5.752-.458 11.203-.196 16.97.086 1.461.072 2.932.143 4.413.2h.005c.41 0 .857.048 1.295.096 1.085.114 2.11.224 2.971-.296.129-.086.219-.263.243-.501.043-.444-.148-.926-.362-1.136a.598.598 0 01-.114-.158c-.5-1.002-1.181-1.966-1.9-2.988-1.31-1.861-2.666-3.79-3.057-6.142-.005-.034-.01-.067-.01-.1 0-1.39.653-2.01 1.205-2.287a.575.575 0 01.2-.062c2.367-.3 4.69.802 6.066 2.869.157.238.295.453.42.653.332.526.57.903.942 1.28a.665.665 0 01.1.129c.757 1.331 1.271 2.763 1.766 4.152.238.663.462 1.298.715 1.914 1.576.076 3 .353 4.242.83.49.187 2.195.883 2.195.883l-.462 1.136s-1.685-.687-2.171-.873c-1.22-.468-2.643-.726-4.233-.764a.613.613 0 01-.548-.372c-.323-.759-.609-1.561-.89-2.339-.466-1.312-.952-2.668-1.638-3.885-.438-.449-.724-.907-1.052-1.427-.124-.19-.252-.401-.405-.63-1.095-1.642-2.914-2.534-4.775-2.344-.205.13-.434.401-.443 1.089.357 2.057 1.619 3.851 2.842 5.589.695.988 1.414 2.009 1.953 3.064.447.506.709 1.332.638 2.048-.058.606-.348 1.112-.805 1.417-1.238.745-2.576.606-3.757.477-.424-.042-.828-.085-1.195-.085a541.81 541.81 0 01-4.447-.206c-5.733-.281-11.151-.544-16.836-.086h-.048c-1.752 0-3.061.454-3.975 1.38.242.181.423.415.49.639a.858.858 0 01.038.215c1.59.73 3.452 1.193 5.819 1.456 2.066.091 4.209.124 6.284.157 4.176.062 8.495.129 12.76.712 1.515.138 3.034.066 4.505 0 1.51-.072 3.066-.148 4.695 0 .023 0 .042.004.066.009 1.39.282 4.038 2.391 4.11 3.513a.829.829 0 01-.577.854c-.233.062-.428.11-.633.158-1 .239-2.133.515-3.033.964-.033.019-.072.029-.105.043-.633.181-1.271.334-1.88.482-1.329.32-2.581.625-3.695 1.169a4.33 4.33 0 01-.5.373c-.324.215-.472.31-.457.654 3.423.84 7.099-.482 10.655-1.766 1.1-.397 2.234-.807 3.348-1.146.085-.21.162-.429.243-.659.309-.911.7-2.047 2.1-2.324 1.452-.291 3.104-.62 7.008 1.203 3.385 1.58 6.642 3.637 9.68 6.119a.62.62 0 01.09.864.606.606 0 01-.476.224l-.005-.014zm37.034 9.145a.6.6 0 01-.381-.134.619.619 0 01-.095-.864 40.93 40.93 0 0113.803-11.145.612.612 0 01.543 1.098 39.61 39.61 0 00-13.389 10.811.608.608 0 01-.481.229v.005zm-16.922 21.015a4.76 4.76 0 01-.852-.076c-3.004-.564-4.242-3.876-5.956-8.463-1.072-2.878-2.29-6.133-4.228-9.627a46.582 46.582 0 00-7.89-10.405.614.614 0 01.867-.869 47.74 47.74 0 018.094 10.682c1.98 3.571 3.27 7.021 4.304 9.794 1.571 4.21 2.705 7.251 5.033 7.685 1.719.32 3.523-.816 4.385-1.365 2.214-1.403 3.128-3.403 4.19-5.718.147-.32.295-.645.448-.969 1.695-3.589 3.899-7.112 6.551-10.477a.613.613 0 01.862-.1c.267.21.309.597.1.864-2.595 3.293-4.752 6.735-6.404 10.243-.153.32-.295.639-.443.954-1.095 2.392-2.133 4.649-4.652 6.243-.866.549-2.547 1.614-4.413 1.614l.004-.01zm3.543-60.779c-.243 0-.49-.062-.705-.248-.376-.334-.371-.835-.367-1.198 0-.31.053-.616.153-.912a.617.617 0 01.776-.391.619.619 0 01.39.778c-.057.177-.09.353-.09.54v.18c.08-.018.171-.052.224-.066a27.988 27.988 0 012.466-.683.61.61 0 01.733.463.612.612 0 01-.462.735c-.88.2-1.642.416-2.337.645-.186.062-.477.157-.776.157h-.005zm4.166 25.168a.932.932 0 01-.234-.029c-.347-.081-.614-.343-.795-.768-.78-1.852-.028-4.568 0-4.682.01-.034.924-3.303 1.89-8.945.148-.868.19-1.246.139-1.751-.153-1.533-1.038-2.988-2.638-4.32a.602.602 0 01-.22-.43.642.642 0 01.158-.458c1.147-1.27 2.261-1.8 3.214-1.537.61.167.962.611 1.128.826.829 1.045 1.39 1.47 1.89 1.842.505.382.986.74 1.462 1.57.829 1.452.924 3.017 1 4.277.057.941.105 1.752.429 2.096.452.477.652.954.614 1.441-.034.415-.267.735-.414.95l-6.585 9.24c-.32.444-.667.669-1.043.669l.005.009zm-.348-20.996c1.538 1.432 2.405 3.012 2.571 4.701.067.683 0 1.179-.152 2.081-.981 5.709-1.91 9.035-1.919 9.069-.005.024-.633 2.291-.1 3.751l6.575-9.226c.072-.095.186-.258.19-.339.01-.119-.08-.281-.266-.477-.647-.697-.704-1.709-.776-2.888-.071-1.188-.152-2.539-.838-3.737-.352-.615-.662-.85-1.133-1.203-.529-.396-1.19-.892-2.105-2.052-.128-.162-.276-.353-.5-.415-.37-.1-.928.167-1.542.73l-.005.005zm4.657 28.757c-.262 0-.462-.1-.59-.191a.62.62 0 01-.205-.754 31.56 31.56 0 012.09-3.881c2.733-4.31 5.085-5.78 6.285-5.703.281.014 1.128.062 1.404.72.115.273.096.578-.057.903-.709 1.527-4.052 5.173-4.433 5.584a.85.85 0 01-.061.057l-3.39 2.802c-.42.344-.772.458-1.053.458l.01.005zm7.489-9.298c-.638 0-2.69 1.232-5.161 5.136-.414.654-.81 1.332-1.176 2.028l2.471-2.047c.976-1.06 3.457-3.866 4.119-5.098a2.195 2.195 0 00-.229-.024h-.024v.005z"/><path d="M80.2 129.471a.638.638 0 01-.438-.181 37.518 37.518 0 00-6.019-4.964.615.615 0 01-.171-.85 1.154 1.154 0 01.19-.711.604.604 0 01.529-.267 8.206 8.206 0 015.628 2.577c1.028 1.103 1.71 2.869.771 4.148a.62.62 0 01-.447.248H80.2zm-5.005-5.646a39.071 39.071 0 014.714 3.88c-.038-.596-.405-1.279-.885-1.799a6.976 6.976 0 00-3.829-2.086v.005zm7.119-2.578a.616.616 0 01-.59-.448l-1.543-5.465a2.288 2.288 0 01-.553-.917c-.166-.549-.062-1.007.043-1.451.038-.152.076-.315.11-.501.061-.343.052-.749.033-1.546-.024-1.06-.195-1.804-.352-2.463-.21-.888-.386-1.651-.034-2.625a3.91 3.91 0 01.662-1.155.614.614 0 01.857-.086c.876.706 1.51 1.556 1.88 2.515.396 1.017.377 1.871.353 3.05v.062c-.014.578-.014 1.155-.014 1.738 0 .925 0 1.885-.048 2.835-.095 1.88-.162 3.851-.195 5.861a.615.615 0 01-.533.601c-.029 0-.053.005-.081.005l.005-.01zm-1.729-15.001c-.228.635-.114 1.122.077 1.928.157.683.357 1.532.385 2.716.02.878.029 1.322-.052 1.785a9.26 9.26 0 01-.124.578c-.095.401-.133.587-.067.806.053.177.167.339.334.492a.618.618 0 01.18.291l.496 1.747c.024-.63.052-1.255.085-1.871.048-.916.048-1.861.048-2.773 0-.587 0-1.174.014-1.761v-.062c.024-1.112.038-1.79-.266-2.578a4.628 4.628 0 00-1.005-1.541 2.621 2.621 0 00-.1.243h-.005zm5.423-60.951c-.533 0-.947-.54-1.1-.735-.657-.845-.585-1.837-.518-2.802.061-.854.123-1.737-.224-2.691a5.49 5.49 0 00-.486-.979c-.305-.52-.614-1.06-.376-1.79.28-.864 1.152-1.498 1.952-1.413 1.452.153 2.18 2.54 2.233 3.723a21.85 21.85 0 01-.51 5.709c-.042.19-.156.702-.637.911a.852.852 0 01-.329.072l-.005-.005zm-.9-9.192c-.2 0-.538.272-.638.577-.061.186 0 .325.272.788.176.3.395.677.576 1.179.438 1.202.357 2.31.295 3.202-.062.902-.085 1.485.229 1.919.352-1.675.495-3.394.424-5.107-.043-1.05-.69-2.506-1.134-2.554h-.019l-.004-.004zM37.705 57.662a.613.613 0 01-.1-1.217c1.033-.176 1.947-.535 2.714-1.074 1.052-.74 1.704-1.723 3.004-3.675.305-.458.6-.926.876-1.384a.616.616 0 011.052.635c-.285.477-.59.954-.904 1.432-1.343 2.014-2.08 3.126-3.319 4-.919.644-2 1.078-3.218 1.283-.034.005-.067.01-.1.01l-.005-.01zm10.97 50.417c-.038 0-.076 0-.114-.01a.61.61 0 01-.486-.72c.552-2.878.743-3.265 1.195-3.719.395-.396.719-.563 1-.711a2.48 2.48 0 00.633-.42c.195-.176.343-.444.367-.668l-3.586.148c-1.085.043-2.575.105-3.723-.73-.804-.587-1.29-1.752-.68-2.62.38-.54 1.004-.707 1.561-.798a17.493 17.493 0 012.543-.229h.3c.47-.005.914-.01 1.323-.105.481-.114.962-.367 1.429-.62l4.009-2.148a.614.614 0 01.576 1.084l-4.01 2.147c-.509.272-1.085.583-1.723.73-.543.13-1.076.13-1.595.134h-.29c-.79.014-1.581.086-2.362.215-.29.048-.638.124-.762.296-.157.22.09.687.4.911.743.54 1.776.545 2.952.497l4.043-.167a.59.59 0 01.514.243c.623.826.228 1.943-.457 2.578a3.762 3.762 0 01-.9.611c-.243.124-.438.224-.695.486-.186.187-.334.334-.857 3.084a.61.61 0 01-.6.496l-.005.005zm25.949 10.338h-.048l-.328-.024c-1.786-.138-3.638-.286-5.366-1.045a36.343 36.343 0 01-4.68-2.453c-2.448-1.49-5.152-2.793-8.042-3.866l-.267-.086a.66.66 0 01-.257-.163 7.221 7.221 0 01-1.338-2.023l-.038-.086c-.267-.611-.543-1.236-.443-2.014.086-.673 1.786-4.845 2.728-5.351.029-.014.09-.052.176-.105.89-.535 1.79-1.05 2.338-1.155a14.081 14.081 0 015.043-.062.56.56 0 01.252.105 26.43 26.43 0 017.242 7.699 26.549 26.549 0 013.628 9.937.612.612 0 01-.605.706l.005-.014zm-18.198-8.596l.138.043c2.986 1.107 5.762 2.444 8.276 3.976 1.404.854 2.652 1.551 4.532 2.377 1.4.615 2.976.783 4.519.907a25.288 25.288 0 00-3.333-8.706 25.26 25.26 0 00-6.79-7.255 12.745 12.745 0 00-4.466.081c-.271.052-.928.391-1.943 1.002-.123.077-.19.115-.238.139-.461.463-1.99 3.699-2.08 4.419-.057.44.114.826.352 1.366l.038.09a5.905 5.905 0 001 1.556l-.005.005zm-3.837-32.542a.618.618 0 01-.567-.854c.215-.516.472-1.012.757-1.48.553-.893 1.681-2.735 3.7-3.35a3.56 3.56 0 01.628-.134c.096-.015.2-.024.348-.053 1.328-.262 2.104-.978 3.176-1.976.59-.553 1.261-1.174 2.147-1.833a15.514 15.514 0 012.343-1.47c.552-.286.89-.463 1.447-1.055.838-.892 1.486-2.396.914-3.603-.171-.368-.552-.716-.857-.664-.266.048-.519.349-.785.669-.067.08-.134.157-.2.238-.762.874-1.743 1.437-2.695 1.981a17.9 17.9 0 00-1.4.86c-.776.548-1.514 1.264-2.233 1.956-1.533 1.49-3.119 3.026-5.333 3.227a.623.623 0 01-.666-.554.615.615 0 01.557-.668c1.785-.163 3.147-1.485 4.594-2.888.748-.725 1.524-1.475 2.376-2.076.486-.339.995-.635 1.495-.921.9-.516 1.752-1.007 2.38-1.723.063-.072.12-.144.182-.215.362-.434.81-.974 1.519-1.093.976-.172 1.814.582 2.176 1.35.814 1.738.019 3.747-1.134 4.974-.7.74-1.17.988-1.77 1.298-.505.263-1.134.587-2.177 1.37-.828.616-1.476 1.217-2.042 1.747-1.129 1.05-2.1 1.952-3.771 2.282-.181.033-.31.052-.424.066a2.29 2.29 0 00-.433.091c-1.572.477-2.505 1.995-3.005 2.811-.257.42-.485.864-.676 1.318a.615.615 0 01-.566.377l-.005-.005zm57.393 77.298c-1.667 0-3.333-.167-4.971-.501-1.247-.258-2.99-.769-3.747-2.267-.372-.74-.41-1.58-.438-2.258-.119-2.658-.081-5.412 1.742-7.283.396-.406.6-.516 1.591-1.036a133.996 133.996 0 004.052-2.215c2.904-1.637 4.228-2.381 6.07-1.971.357.081.714.239 1.372.53 3.037 1.341 5.656 3.336 7.565 5.766 1.852 2.353 1.771 3.465 1.748 3.832-.072 1.003-.595 1.995-1.572 2.959-1.337 1.327-3.142 2.358-5.513 3.155a24.83 24.83 0 01-7.909 1.289h.01zm3.361-16.409c-1.123 0-2.276.649-4.528 1.918a148.5 148.5 0 01-2.461 1.365c-.715.387-1.238.664-1.624.864-.986.521-1.033.549-1.281.807-1.48 1.523-1.504 3.985-1.395 6.372.029.616.057 1.25.31 1.756.39.778 1.309 1.294 2.895 1.614 4.071.835 8.308.572 12.246-.75 2.19-.735 3.837-1.67 5.037-2.864.752-.749 1.162-1.479 1.21-2.171.042-.649-.481-1.709-1.486-2.988-1.79-2.272-4.242-4.138-7.099-5.403-.586-.258-.905-.401-1.148-.454a3.02 3.02 0 00-.676-.076v.01z"/></g><defs><clipPath id="clip0_2248_12509"><path fill="#fff" d="M0 0h194v181H0z"/></clipPath></defs></svg>